<?xml version="1.0" encoding="UTF-8"?>
<!DOCTYPE svg PUBLIC "-//W3C//DTD SVG 1.1//EN" "http://www.w3.org/Graphics/SVG/1.1/DTD/svg11.dtd">
<!-- Creator: CorelDRAW X8 -->
<svg xmlns="http://www.w3.org/2000/svg" xml:space="preserve" width="350px" height="350px" version="1.1" shape-rendering="geometricPrecision" text-rendering="geometricPrecision" image-rendering="optimizeQuality" fill-rule="evenodd" clip-rule="evenodd"
viewBox="0 0 350 350"
 xmlns:xlink="http://www.w3.org/1999/xlink">
 <defs>
   <clipPath id="id0">
    <path d="M218 118l3 0c3,0 6,3 6,6l3 177c0,6 -3,6 -6,6l-3 0c-4,0 -7,0 -7,-6l-2 -177c0,-3 3,-6 6,-6z"/>
   </clipPath>
   <clipPath id="id1">
    <path d="M221 128l2 0c0,0 3,0 3,0l0 44c0,0 -3,8 -3,8l-2 0c0,0 0,-7 0,-7l0 -45c0,0 0,0 0,0z"/>
   </clipPath>
 </defs>
 <g id="Layer_x0020_1">
  <metadata id="CorelCorpID_0Corel-Layer"/>
  <path fill="none" stroke="black" stroke-width="7.38192" d="M140 49l68 0 0 250c-22,35 -47,28 -68,0l0 -250z"/>
  <path fill="#5E5EFF" stroke="black" stroke-width="7.38192" d="M208 93l23 0 21 36 1 187c-62,12 -91,9 -154,2l-1 -188 20 -37 22 0 68 0z"/>
  <path fill="none" stroke="black" stroke-width="7.38192" d="M136 27l78 0c3,0 6,3 6,7l0 11c0,4 -3,6 -6,6l-78 0c-3,0 -6,-2 -6,-6l0 -11c0,-4 3,-7 6,-7z"/>
  <g>
  </g>
  <g clip-path="url(#id0)">
   <g>
    <polygon fill="#FEFEFE" points="-753,-826 1137,-826 1137,1224 -753,1224 "/>
    <path id="_1" fill="none" stroke="#404040" stroke-width="7.38192" d="M147 49l69 0 0 250c-22,35 -47,28 -69,0l0 -250z"/>
    <path fill="#8686FF" stroke="#404040" stroke-width="7.38192" d="M264 93l0 206c-37,35 -80,28 -117,0l0 -206 117 0z"/>
    <path fill="none" stroke="#404040" stroke-width="7.38192" d="M144 52l75 0c3,0 6,-3 6,-6l0 -12c0,-4 -3,-7 -6,-7l-75 0c-3,0 -7,3 -7,7l0 12c0,3 4,6 7,6z"/>
   </g>
  </g>
  <path fill="none" d="M218 118l3 0c3,0 6,3 6,6l3 177c0,6 -3,6 -6,6l-3 0c-4,0 -7,0 -7,-6l-2 -177c0,-3 3,-6 6,-6z"/>
  <g>
  </g>
  <g clip-path="url(#id1)">
   <g>
    <polygon id="_1_0" fill="#FEFEFE" points="-559,-2080 991,-2132 1006,2388 -544,2439 "/>
    <path id="_2" fill="none" stroke="#707070" stroke-width="7.38192" d="M181 -50l57 -1 2 595c-18,83 -38,69 -57,2l-2 -596z"/>
    <path fill="#A4A4FF" stroke="#707070" stroke-width="7.38192" d="M238 53l2 491c-18,83 -38,69 -57,2l-1 -491 56 -2z"/>
    <path fill="none" stroke="#707070" stroke-width="7.38192" d="M179 -42l62 -2c2,0 5,-8 5,-15l0 -30c0,-7 -3,-15 -6,-15l-61 2c-3,0 -5,8 -5,15l0 30c0,8 2,15 5,15z"/>
    <path fill="none" d="M218 98l3 0c2,0 5,7 5,15l1 387c0,15 -2,15 -5,15l-3 0c-2,0 -5,0 -5,-15l-1 -387c0,-7 2,-15 5,-15z"/>
   </g>
  </g>
  <path fill="none" d="M221 128l2 0c0,0 3,0 3,0l0 44c0,0 -3,8 -3,8l-2 0c0,0 0,-7 0,-7l0 -45c0,0 0,0 0,0z"/>
 </g>
</svg>
