<?xml version="1.0" encoding="UTF-8"?>
<!DOCTYPE svg PUBLIC "-//W3C//DTD SVG 1.1//EN" "http://www.w3.org/Graphics/SVG/1.1/DTD/svg11.dtd">
<!-- Creator: CorelDRAW X8 -->
<svg xmlns="http://www.w3.org/2000/svg" xml:space="preserve" width="350px" height="350px" version="1.1" shape-rendering="geometricPrecision" text-rendering="geometricPrecision" image-rendering="optimizeQuality" fill-rule="evenodd" clip-rule="evenodd"
viewBox="0 0 350 350"
 xmlns:xlink="http://www.w3.org/1999/xlink">
 <defs>
   <clipPath id="id0">
    <path d="M182 112l3 0c4,0 7,3 7,6l8 48 24 35 0 79c0,7 -3,7 -7,7l-3 0c-3,0 -6,0 -6,-7l0 -79 -24 -35 -8 -48c0,-3 3,-6 6,-6z"/>
   </clipPath>
   <clipPath id="id1">
    <path d="M184 121l2 0c0,0 2,0 2,0l3 11c0,0 -2,3 -2,3l-2 0c0,0 0,-2 0,-2l-3 -12c0,0 0,0 0,0z"/>
   </clipPath>
   <clipPath id="id2">
    <path d="M199 172c0,0 0,-1 1,-1l11 15c0,0 5,7 5,7l-1 0c0,1 -13,-17 -14,-18 0,0 -2,-3 -2,-3z"/>
   </clipPath>
   <clipPath id="id3">
    <path d="M218 204l1 0c0,0 2,0 2,0l0 15c0,0 -2,2 -2,2l-1 0c0,0 0,-2 0,-2l0 -15c0,0 0,0 0,0z"/>
   </clipPath>
 </defs>
 <g id="Layer_x0020_1">
  <metadata id="CorelCorpID_0Corel-Layer"/>
  <path fill="none" stroke="black" stroke-width="7.38192" d="M140 49l68 0 0 250c-22,35 -47,28 -68,0l0 -250z"/>
  <path fill="#5E5EFF" stroke="black" stroke-width="7.38192" d="M208 93l23 73 21 36 1 114c-62,12 -91,9 -154,2l-1 -116 20 -36 22 -73 68 0z"/>
  <path fill="none" stroke="black" stroke-width="7.38192" d="M136 27l78 0c3,0 6,3 6,7l0 11c0,4 -3,6 -6,6l-78 0c-3,0 -6,-2 -6,-6l0 -11c0,-4 3,-7 6,-7z"/>
  <g>
  </g>
  <g clip-path="url(#id0)">
   <g>
    <polygon fill="#FEFEFE" points="-753,-826 1137,-826 1137,1224 -753,1224 "/>
    <path id="_1" fill="none" stroke="#404040" stroke-width="7.38192" d="M147 49l69 0 0 250c-22,35 -47,28 -69,0l0 -250z"/>
    <path fill="#8686FF" stroke="#404040" stroke-width="7.38192" d="M264 93l0 206c-37,35 -80,28 -117,0l0 -206 117 0z"/>
    <path fill="none" stroke="#404040" stroke-width="7.38192" d="M144 52l75 0c3,0 6,-3 6,-6l0 -12c0,-4 -3,-7 -6,-7l-75 0c-3,0 -7,3 -7,7l0 12c0,3 4,6 7,6z"/>
   </g>
  </g>
  <path fill="none" d="M182 112l3 0c4,0 7,3 7,6l8 48 24 35 0 79c0,7 -3,7 -7,7l-3 0c-3,0 -6,0 -6,-7l0 -79 -24 -35 -8 -48c0,-3 3,-6 6,-6z"/>
  <g>
  </g>
  <g clip-path="url(#id1)">
   <g>
    <polygon id="_1_0" fill="#FEFEFE" points="-537,-350 659,-601 912,606 -284,856 "/>
    <path id="_2" fill="none" stroke="#707070" stroke-width="7.38192" d="M144 80l44 -9 33 159c-9,25 -26,24 -43,9l-34 -159z"/>
    <path fill="#A4A4FF" stroke="#707070" stroke-width="7.38192" d="M194 99l27 131c-9,25 -26,24 -43,9l-28 -131 44 -9z"/>
    <path fill="none" stroke="#707070" stroke-width="7.38192" d="M143 82l47 -10c2,0 4,-2 4,-4l-2 -8c-1,-2 -3,-4 -5,-4l-48 10c-2,1 -3,3 -3,5l2 8c0,2 3,4 5,3z"/>
    <path fill="none" d="M180 114l2 -1c2,0 5,2 5,4l22 103c1,4 -1,4 -3,5l-2 0c-2,1 -4,1 -5,-3l-22 -103c0,-2 1,-5 3,-5z"/>
   </g>
  </g>
  <path fill="none" d="M184 121l2 0c0,0 2,0 2,0l3 11c0,0 -2,3 -2,3l-2 0c0,0 0,-2 0,-2l-3 -12c0,0 0,0 0,0z"/>
  <g>
  </g>
  <g clip-path="url(#id2)">
   <g>
    <polygon id="_1_1" fill="#FEFEFE" points="-209,-16 -551,-1206 624,380 966,1569 "/>
    <path id="_2_2" fill="none" stroke="#707070" stroke-width="7.38192" d="M163 142l-12 -44 154 209c26,43 26,53 13,43l-155 -208z"/>
    <path fill="#A4A4FF" stroke="#707070" stroke-width="7.38192" d="M178 135l127 172c26,43 26,53 13,43l-128 -172 -12 -43z"/>
    <path fill="none" stroke="#707070" stroke-width="7.38192" d="M166 146l-14 -47c-1,-2 -3,-7 -5,-9l-8 -11c-2,-3 -3,-3 -3,-1l14 47c1,2 3,7 5,9l8 11c2,2 3,3 3,1z"/>
    <path fill="none" d="M194 166l-1 -2c0,-2 1,-1 3,1l101 136c4,5 4,7 5,9l0 2c1,2 1,4 -3,-1l-100 -136c-2,-2 -5,-7 -5,-9z"/>
   </g>
  </g>
  <path fill="none" d="M199 172c0,0 0,-1 1,-1l11 15c0,0 5,7 5,7l-1 0c0,1 -13,-17 -14,-18 0,0 -2,-3 -2,-3z"/>
  <g>
  </g>
  <g clip-path="url(#id3)">
   <g>
    <polygon id="_1_3" fill="#FEFEFE" points="-254,-519 693,-519 693,945 -254,945 "/>
    <path id="_2_4" fill="none" stroke="#707070" stroke-width="7.38192" d="M194 146l35 0 0 193c-11,27 -24,22 -35,0l0 -193z"/>
    <path fill="#A4A4FF" stroke="#707070" stroke-width="7.38192" d="M229 180l0 159c-11,27 -24,22 -35,0l0 -159 35 0z"/>
    <path fill="none" stroke="#707070" stroke-width="7.38192" d="M193 149l38 0c1,0 3,-3 3,-5l0 -10c0,-2 -2,-5 -3,-5l-38 0c-2,0 -3,3 -3,5l0 10c0,2 1,5 3,5z"/>
    <path fill="none" d="M216 195l2 0c1,0 3,2 3,4l0 126c0,5 -2,5 -3,5l-2 0c-1,0 -3,0 -3,-5l0 -126c0,-2 2,-4 3,-4z"/>
   </g>
  </g>
  <path fill="none" d="M218 204l1 0c0,0 2,0 2,0l0 15c0,0 -2,2 -2,2l-1 0c0,0 0,-2 0,-2l0 -15c0,0 0,0 0,0z"/>
 </g>
</svg>
