<?xml version="1.0" encoding="UTF-8"?>
<!DOCTYPE svg PUBLIC "-//W3C//DTD SVG 1.1//EN" "http://www.w3.org/Graphics/SVG/1.1/DTD/svg11.dtd">
<!-- Creator: CorelDRAW X8 -->
<svg xmlns="http://www.w3.org/2000/svg" xml:space="preserve" width="42.3332mm" height="42.3332mm" version="1.1" shape-rendering="geometricPrecision" text-rendering="geometricPrecision" image-rendering="optimizeQuality" fill-rule="evenodd" clip-rule="evenodd"
viewBox="0 0 4233 4233"
 xmlns:xlink="http://www.w3.org/1999/xlink">
 <g id="Layer_x0020_1">
  <metadata id="CorelCorpID_0Corel-Layer"/>
  <path fill="#336699" d="M2056 3349c0,-23 5,-17 -17,-16l-20 -8 -19 -10c3,-24 7,-18 -16,-12 -24,-62 -215,-253 -218,-351 0,0 190,235 301,204l-37 -29c-88,-59 -135,-171 -115,-236 82,32 38,50 112,34 74,-219 -165,-173 -218,-252 84,27 132,9 199,-10 45,-208 -38,-146 -111,-257l90 -23 -39 -85c123,-130 15,-144 -40,-264 52,16 125,60 146,57l23 3 15 10c32,-5 46,-30 66,-52 60,23 40,24 109,21l-55 25c20,120 44,70 0,183 -39,100 -2,126 41,175 -17,129 -52,-4 14,200l-73 57c155,554 642,544 1029,666l184 63c-55,79 -148,109 -240,121 -113,16 -163,61 -266,93 -182,59 -377,110 -560,169 -333,107 -505,122 -880,-15 -58,-21 -71,-38 -115,-69 -37,-26 -75,-43 -118,-70 23,-34 -43,-28 72,-23l242 24c103,6 230,27 335,14 -15,-43 12,-17 -40,-51l-169 -72c51,-32 152,5 305,4 81,-1 200,-5 254,-67 -103,-70 -526,-12 -617,-230 126,16 205,71 351,58l54 34 3 11c59,20 79,45 141,62 -35,-23 -75,-41 -103,-86z"/>
  <path fill="#336699" d="M2462 468l-3 1c105,56 197,146 231,312 45,220 -37,309 -252,248l-24 -70c49,2 42,17 36,-19 24,6 18,-2 18,22 42,4 36,35 116,-12 -9,-34 -32,-35 -34,-45 -1,-5 -5,-5 -7,-8 25,-27 60,-53 61,-83 -46,-40 -155,-41 -166,-4 -205,-47 -293,-29 -204,198 57,144 -100,285 124,333 124,26 211,74 310,147 116,86 274,202 261,340 -125,17 -184,36 -297,57 -102,19 -238,12 -316,39l-329 45c-141,21 -256,27 -393,-5l-100 -10 -14 -3 -7 -7 42 -12c5,-1 47,0 56,0 152,-2 339,-29 470,-109 33,-20 101,-90 54,-141 110,-87 160,-160 152,-298 -48,33 -48,56 -99,89 -104,67 -299,124 -411,99 57,-67 12,44 0,-16 -7,-43 -7,51 -11,-48 44,-20 108,-45 162,-60 -22,-26 1,-8 -27,-23 -78,-40 -283,-15 -451,-137 -23,-16 -99,-87 -107,-98 122,23 308,116 411,50 -23,-82 -408,-242 -165,-233 160,5 112,2 263,-38 -29,-49 5,-24 -72,-55 -82,-32 -50,3 -63,-71 107,-28 209,23 262,-61 -28,-68 -142,-66 -225,-78 51,-22 102,-13 147,-31 100,-41 13,-80 28,-118 40,-13 116,16 169,23 2,-4 4,-15 4,-13l7 -35c3,-22 -11,-4 4,-45 145,-14 69,27 207,-39 64,-31 119,7 182,22z"/>
  <path fill="#438ED9" d="M1961 3328c-146,13 -225,-42 -351,-58 91,218 514,160 617,230 -54,62 -173,66 -254,67 -153,1 -254,-36 -305,-4l169 72c52,34 25,8 40,51 -105,13 -232,-8 -335,-14l-242 -24c-115,-5 -49,-11 -72,23 -163,-65 -168,-264 -87,-374 35,-47 40,-19 59,-83 11,-39 5,-82 22,-122 23,-51 42,-19 49,-93 3,-36 -12,-105 -19,-143 156,-54 143,-215 155,-314 9,-65 14,-38 81,-65 9,-228 4,-158 117,-293l4 -197c-2,-6 -12,-21 -15,-23 137,32 252,26 393,5 16,16 -2,4 22,17 1,1 32,10 34,11 -7,63 -13,40 11,94l23 3 15 10 -15 -10 -23 -3c-21,3 -94,-41 -146,-57 55,120 163,134 40,264l39 85 -90 23c73,111 156,49 111,257 -67,19 -115,37 -199,10 53,79 292,33 218,252 -74,16 -30,-2 -112,-34 -20,65 27,177 115,236l37 29c-111,31 -301,-204 -301,-204 3,98 194,289 218,351 23,-6 19,-12 16,12l19 10 20 8c22,-1 17,-7 17,16 -33,9 -29,16 -17,-16l-20 -8 -19 -10c-25,3 -22,10 -16,-12 -85,-83 -110,-98 -173,-186 -31,-45 -133,-171 -111,-257 23,-94 116,-145 97,-269 -13,-84 -34,-242 -102,-286 -8,176 60,147 71,284 17,211 -243,164 34,554l60 83c38,54 67,58 101,102zm54 34l3 11 -3 -11z"/>
  <path fill="#438ED9" d="M2462 468l-3 1 3 -1c-63,-15 -118,-53 -182,-22 -138,66 -62,25 -207,39 -15,41 -1,23 -4,45l-7 35c0,-2 -2,9 -4,13 -53,-7 -129,-36 -169,-23 -15,38 72,77 -28,118 -45,18 -96,9 -147,31 83,12 197,10 225,78 -53,84 -155,33 -262,61 13,74 -19,39 63,71 77,31 43,6 72,55 -151,40 -103,43 -263,38 -243,-9 142,151 165,233 -103,66 -289,-27 -411,-50 8,11 84,82 107,98 168,122 373,97 451,137 28,15 5,-3 27,23 -54,15 -118,40 -162,60 4,99 4,5 11,48 12,60 57,-51 0,16 -137,-2 -414,-125 -461,-207 -23,-39 -35,-111 -60,-151 -55,144 -98,145 -3,285 32,47 174,142 233,167 188,81 478,120 649,16 47,51 -21,121 -54,141 -131,80 -318,107 -470,109 -9,0 -51,-1 -56,0l-42 12c-49,-19 -60,-13 -105,-29l-110 -35 -116 -53c-245,-144 -328,-190 -548,-363 5,-82 37,-103 109,-134l543 -159c-12,-90 -41,-99 21,-150 71,-59 37,-38 60,-142 21,-99 145,-128 199,-199 81,-106 -26,-120 160,-241 139,-90 175,-53 338,-24 40,-79 18,-52 90,-104l77 0c84,44 105,18 210,100 10,9 24,19 31,26l30 31zm-1319 1377c19,-8 13,-9 9,13l-9 -13z"/>
  <path fill="#F2F2F2" d="M1258 1880l110 35c53,54 17,8 30,83 12,71 2,54 60,70 13,-13 48,-20 12,-53 -1,-1 -6,-2 -7,-3 -66,-31 8,19 -23,0 23,-42 4,-5 31,-41l39 46c14,23 16,35 17,67 -54,83 -76,59 -161,41l-39 41c13,94 44,77 40,216l-66 24c23,77 -10,140 -5,239 -91,117 -91,94 -263,93l-15 -67c-5,12 -3,-2 20,8 117,-5 173,6 95,-299 -13,-52 -41,-62 -48,-111 -5,-38 4,-47 1,-84 -7,-99 -55,-33 31,-130 -23,-40 -52,-73 -55,-124 36,-31 35,-32 84,-46 19,1 14,5 11,-15 29,14 71,44 101,10zm236 74c-40,37 -12,2 -14,-3l14 3z"/>
  <path fill="#00CCFF" d="M1737 1572c112,25 307,-32 411,-99 51,-33 51,-56 99,-89 8,138 -42,211 -152,298 -171,104 -461,65 -649,-16 -59,-25 -201,-120 -233,-167 -95,-140 -52,-141 3,-285 25,40 37,112 60,151 47,82 324,205 461,207z"/>
  <path fill="#C6C6C6" d="M1473 1944l7 7c2,5 -26,40 14,3l100 10c3,2 13,17 15,23l-4 197c-113,135 -108,65 -117,293 -67,27 -72,0 -81,65 -12,99 1,260 -155,314 -65,17 -136,12 -197,-12 -75,-29 -100,-60 -124,-131 30,-19 32,-91 49,-133 28,-68 43,-47 99,-73 -31,9 -22,13 -22,-21 30,4 25,-5 22,21 42,15 70,70 7,129l-10 -17c-40,-64 33,-23 -47,-50 -13,17 -41,7 9,110 -23,-10 -25,4 -20,-8l15 67c172,1 172,24 263,-93 -5,-99 28,-162 5,-239l66 -24c4,-139 -27,-122 -40,-216l39 -41c85,18 107,42 161,-41 -1,-32 -3,-44 -17,-67l-39 -46c-27,36 -8,-1 -31,41 31,19 -43,-31 23,0 1,1 6,2 7,3 36,33 1,40 -12,53 -58,-16 -48,1 -60,-70 -13,-75 23,-29 -30,-83 45,16 56,10 105,29z"/>
  <path fill="#00CCFF" d="M1984 3303c-6,22 -9,15 16,12l19 10 20 8c-12,32 -16,25 17,16 28,45 68,63 103,86 -62,-17 -82,-42 -141,-62l-3 -11 -54 -34c-34,-44 -63,-48 -101,-102l-60 -83c-277,-390 -17,-343 -34,-554 -11,-137 -79,-108 -71,-284 68,44 89,202 102,286 19,124 -74,175 -97,269 -22,86 80,212 111,257 63,88 88,103 173,186z"/>
  <path fill="#C6C6C6" d="M2267 2073c-69,3 -49,2 -109,-21 -20,22 -34,47 -66,52l-15 -10 -23 -3c-24,-54 -18,-31 -11,-94 -2,-1 -33,-10 -34,-11 -24,-13 -6,-1 -22,-17l329 -45c-29,56 -15,12 -27,76 -9,52 9,31 -22,73z"/>
  <path fill="#003399" d="M2468 962l38 -12c1,-89 -12,-109 -68,-140 11,-37 120,-36 166,4 -1,30 -36,56 -61,83 2,3 6,3 7,8 2,10 25,11 34,45 -80,47 -74,16 -116,12zm-54 -3l9 -37c38,19 10,-4 27,18 6,36 13,21 -36,19z"/>
  <path fill="#F2F2F2" d="M1057 2486c0,34 -9,30 22,21 -56,26 -71,5 -99,73 -17,42 -19,114 -49,133 -74,-99 45,-312 126,-227z"/>
  <path fill="#F2CC9C" d="M1258 1880c-30,34 -72,4 -101,-10 3,20 8,16 -11,15l11 -15 -5 -12c4,-22 10,-21 -9,-13l-1 -18 116 53z"/>
 </g>
</svg>
