<?xml version="1.0" encoding="UTF-8"?>
<!DOCTYPE svg PUBLIC "-//W3C//DTD SVG 1.1//EN" "http://www.w3.org/Graphics/SVG/1.1/DTD/svg11.dtd">
<!-- Creator: CorelDRAW X8 -->
<svg xmlns="http://www.w3.org/2000/svg" xml:space="preserve" width="8.4666mm" height="8.4666mm" version="1.1" shape-rendering="geometricPrecision" text-rendering="geometricPrecision" image-rendering="optimizeQuality" fill-rule="evenodd" clip-rule="evenodd"
viewBox="0 0 847 847"
 xmlns:xlink="http://www.w3.org/1999/xlink">
 <g id="Layer_x0020_1">
  <metadata id="CorelCorpID_0Corel-Layer"/>
  <circle fill="yellow" stroke="black" stroke-width="20" cx="423" cy="423" r="334"/>
  <path fill="red" stroke="black" stroke-width="20" d="M98 345c193,153 313,166 554,186 70,5 75,4 105,-50 3,-6 -2,-6 -4,-2 -2,-4 -8,-62 -8,-66 0,-26 43,-99 56,-114 16,-20 -145,34 -148,35 -126,46 230,-208 122,-185 -91,19 -229,148 -243,149 -64,2 154,-226 176,-246 8,-7 -125,46 -160,62 -236,107 -276,346 -168,-17 25,-87 63,-101 -6,-53 -44,31 -168,245 -160,214 11,-42 16,-68 31,-114 63,-194 -115,71 -147,201z"/>
 </g>
</svg>
