<?xml version="1.0" encoding="UTF-8"?>
<!DOCTYPE svg PUBLIC "-//W3C//DTD SVG 1.1//EN" "http://www.w3.org/Graphics/SVG/1.1/DTD/svg11.dtd">
<!-- Creator: CorelDRAW X8 -->
<svg xmlns="http://www.w3.org/2000/svg" xml:space="preserve" width="8.4666mm" height="8.4666mm" version="1.1" shape-rendering="geometricPrecision" text-rendering="geometricPrecision" image-rendering="optimizeQuality" fill-rule="evenodd" clip-rule="evenodd"
viewBox="0 0 847 847"
 xmlns:xlink="http://www.w3.org/1999/xlink">
 <g id="Layer_x0020_1">
  <metadata id="CorelCorpID_0Corel-Layer"/>
  <path fill="#EBC400" stroke="#FCC624" stroke-width="16.93" d="M661 26c6,12 16,19 25,29 7,8 14,18 21,29 51,74 41,162 -20,216 -98,85 -134,-95 -267,-92 -62,1 -104,42 -133,69 -39,37 -76,70 -132,18 -32,-30 -59,-82 -44,-147 16,-70 69,-109 76,-123 -47,14 -81,33 -107,60 -96,98 -66,266 67,328 -24,11 -40,27 -49,54 -6,17 -20,58 -20,80 41,-19 76,-31 129,-36 -3,73 31,106 63,143 9,11 16,17 25,28 9,11 14,16 23,29 24,34 -8,42 16,80 45,75 87,-4 70,-73 -13,-49 -57,-92 -80,-123l-34 -2c-11,-20 -14,-46 -15,-73 16,11 19,24 62,47 129,70 216,-35 235,-47 -1,28 -5,53 -16,74l-33 1c-8,11 -13,16 -24,28 -19,22 -50,68 -56,98 -6,25 -2,71 11,89 21,28 51,-4 60,-21 23,-37 -11,-42 17,-81 50,-69 112,-99 109,-197 48,4 92,18 128,36 1,-22 -12,-62 -20,-80 -12,-31 -19,-41 -49,-53 1,0 1,-1 2,-1l38 -24c20,-16 35,-30 51,-53 81,-123 2,-287 -129,-310z"/>
  <path fill="#FCEA25" d="M525 337c3,-6 4,-12 4,-18 0,-32 -47,-59 -106,-59 -58,0 -106,27 -106,59 0,5 1,10 4,15 26,-11 60,-18 99,-18 41,0 78,8 105,21z"/>
 </g>
</svg>
