<?xml version="1.0" encoding="UTF-8"?>
<!DOCTYPE svg PUBLIC "-//W3C//DTD SVG 1.1//EN" "http://www.w3.org/Graphics/SVG/1.1/DTD/svg11.dtd">
<!-- Creator: CorelDRAW X8 -->
<svg xmlns="http://www.w3.org/2000/svg" xml:space="preserve" width="40px" height="40px" version="1.1" shape-rendering="geometricPrecision" text-rendering="geometricPrecision" image-rendering="optimizeQuality" fill-rule="evenodd" clip-rule="evenodd"
viewBox="0 0 40 40"
 xmlns:xlink="http://www.w3.org/1999/xlink">
 <g id="Layer_x0020_1">
  <metadata id="CorelCorpID_0Corel-Layer"/>
  <g id="_2069973018080">
   <g id="eyebrows">
    <path id="Leyebrows" fill="#CCCCCC" d="M13 14c0,0 0,0 1,0 1,0 3,0 4,0 0,0 0,0 0,0 0,0 0,0 0,0 0,0 0,0 0,0 0,0 0,0 0,0 0,-1 0,-1 0,-1l0 0c0,0 0,0 0,0 0,0 -1,0 -1,0 0,0 0,0 0,0 0,0 0,0 0,0 0,0 0,0 0,0 0,0 0,0 0,0 0,0 -1,0 -1,0 0,0 0,0 0,0 0,0 0,0 0,0 0,0 0,0 -1,0 0,0 0,0 0,0 0,0 0,0 0,0 0,0 -1,0 -1,0 0,0 0,0 0,0 0,0 0,0 0,0 0,0 0,0 0,0 -1,0 -1,0 -1,0 0,0 0,0 0,0 0,0 0,0 0,0 0,0 0,0 0,0 0,0 0,0 0,0 0,1 0,1 0,1 0,0 0,0 0,0z"/>
    <path id="Rewebrows" fill="#CCCCCC" d="M28 14c0,0 -1,0 -1,0 -2,0 -3,0 -5,0 0,0 0,0 0,0 0,0 0,0 0,0 0,0 0,0 0,0 0,0 0,0 0,0 1,-1 1,-1 1,-1l0 0c0,0 0,0 0,0 0,0 0,0 0,0 0,0 0,0 0,0 0,0 1,0 1,0 0,0 0,0 0,0 0,0 0,0 0,0 0,0 0,0 0,0 0,0 0,0 0,0 0,0 0,0 1,0 0,0 0,0 0,0 0,0 0,0 0,0 0,0 1,0 1,0 0,0 0,0 0,0 0,0 0,0 0,0 0,0 0,0 0,0 1,0 0,0 1,0 0,0 0,0 0,0 0,0 0,0 1,0 0,0 0,0 0,0 0,0 0,0 0,0 0,0 0,0 0,0 0,1 0,1 0,1 0,0 0,0 0,0z"/>
   </g>
   <g id="foots">
    <rect fill="none" stroke="black" stroke-width="2.36225" x="12" y="34" width="5.09874" height="3.64294"/>
    <rect fill="none" stroke="black" stroke-width="2.36225" x="22" y="34" width="5.09874" height="3.64294"/>
   </g>
   <g id="cloke">
    <path id="cloke_0" fill="#663333" d="M11 19c-1,0 0,4 -1,4 0,1 0,2 0,2 0,0 -2,4 -2,5 0,0 0,-1 0,0 0,0 -1,1 -1,1 0,0 -3,4 1,5 1,0 0,0 2,0 2,0 19,0 19,0 1,0 0,0 1,0 0,0 1,0 2,0 1,0 -1,-1 0,-1 0,0 1,0 1,0 -1,0 0,-1 -1,-2 0,0 -1,0 -1,-1 0,0 0,0 0,0l0 -1c-1,-1 -1,0 -1,-1 -1,0 -1,-2 -1,-2 0,-1 -1,-1 -1,-2 0,0 -1,-1 -1,-2 0,0 0,0 0,-1 0,0 0,0 0,1 -1,0 0,-4 -1,-4 0,1 -3,2 -3,2 0,1 -1,0 -1,0 -1,1 -4,1 -5,1 -1,0 -2,0 -2,0l0 -1c0,0 0,1 -1,0 0,0 0,-1 -1,-1 0,0 0,0 0,0 -1,-1 -1,-1 -1,-1l-1 -1z"/>
    <path fill="#F5E5B2" d="M17 23c0,0 0,1 0,1l-1 1c0,0 0,1 0,1l0 1c0,1 0,1 0,1l0 1c0,0 0,1 0,1l0 1c-1,0 0,0 -1,1 0,0 0,0 0,1 0,0 0,1 0,1 0,0 -1,1 -1,1 0,0 0,0 0,1 0,0 0,0 0,0 0,0 0,0 0,0 1,0 7,0 7,0 0,0 0,0 1,0 0,0 1,0 1,0 0,0 0,0 0,0 0,0 1,0 1,0 0,0 0,0 0,0 0,0 0,0 1,0 0,0 0,0 0,0 0,0 0,-1 0,-1 0,0 0,0 0,-1 0,0 0,0 -1,-1 0,0 0,0 0,0 0,-1 0,0 0,-1 0,0 0,0 0,0 0,-1 0,0 0,-1 0,0 0,0 0,-1 0,0 0,1 0,0 0,0 -1,0 -1,-1 0,0 0,0 0,0 0,-1 0,-1 0,-1 0,0 0,0 0,-1 0,0 0,-1 0,-1 0,0 0,0 0,0 0,0 0,-1 0,-1 -1,0 -1,0 -1,0 0,0 0,0 0,-1 0,0 0,1 0,0 0,0 0,0 0,0 0,-1 0,-1 0,-1 0,0 0,0 0,0 0,0 0,0 0,0 0,0 -1,0 -1,0 -1,0 -1,0 -1,0 -1,0 -1,0 -1,0 0,0 -2,0 -2,0 0,0 0,0 0,0 0,-1 0,-1 0,0z"/>
   </g>
   <g id="head">
    <ellipse fill="#D4A575" cx="7" cy="20" rx="3" ry="4"/>
    <ellipse fill="#D4A575" cx="33" cy="20" rx="3" ry="4"/>
    <circle id="headshape" fill="#EAB686" cx="20" cy="15" r="14"/>
    <ellipse fill="black" cx="26" cy="17" rx="1" ry="2"/>
    <ellipse fill="black" cx="15" cy="17" rx="1" ry="2"/>
   </g>
  </g>
 </g>
</svg>
