<?xml version="1.0" encoding="UTF-8"?>
<!DOCTYPE svg PUBLIC "-//W3C//DTD SVG 1.1//EN" "http://www.w3.org/Graphics/SVG/1.1/DTD/svg11.dtd">
<!-- Creator: CorelDRAW X8 -->
<svg xmlns="http://www.w3.org/2000/svg" xml:space="preserve" width="8.4666mm" height="8.4666mm" version="1.1" shape-rendering="geometricPrecision" text-rendering="geometricPrecision" image-rendering="optimizeQuality" fill-rule="evenodd" clip-rule="evenodd"
viewBox="0 0 847 847"
 xmlns:xlink="http://www.w3.org/1999/xlink">
 <g id="Layer_x0020_1">
  <metadata id="CorelCorpID_0Corel-Layer"/>
  <path fill="#AD783C" d="M527 552l233 0c0,-90 -21,-169 -65,-224 -36,-47 -91,-100 -168,-121l0 345z"/>
  <path fill="#AD783C" d="M86 552l233 0 0 -345c-78,21 -132,74 -169,121 -43,55 -64,134 -64,224z"/>
  <path fill="#855013" d="M371 565c60,-18 45,-16 103,0l0 -357c0,-57 10,-71 -49,-71 -71,0 -54,7 -54,185 0,81 1,162 0,243z"/>
  <path fill="#855013" d="M514 708c66,0 132,0 198,0 23,0 78,6 92,-7 14,-14 9,-70 3,-88 -32,-18 -236,-8 -293,-8 19,56 17,49 0,103z"/>
  <path fill="#855013" d="M34 641c0,80 -9,67 131,67 56,0 111,0 167,0 -18,-54 -18,-48 -1,-103l-249 0c-36,0 -48,-1 -48,36z"/>
  <path fill="#999085" d="M406 609c-64,25 -31,118 35,96 63,-21 28,-121 -35,-96z"/>
 </g>
</svg>
