<?xml version="1.0" encoding="UTF-8"?>
<!DOCTYPE svg PUBLIC "-//W3C//DTD SVG 1.1//EN" "http://www.w3.org/Graphics/SVG/1.1/DTD/svg11.dtd">
<!-- Creator: CorelDRAW X8 -->
<svg xmlns="http://www.w3.org/2000/svg" xml:space="preserve" width="88.0532mm" height="37.6766mm" version="1.1" shape-rendering="geometricPrecision" text-rendering="geometricPrecision" image-rendering="optimizeQuality" fill-rule="evenodd" clip-rule="evenodd"
viewBox="0 0 8805 3768"
 xmlns:xlink="http://www.w3.org/1999/xlink">
 <g id="Layer_x0020_1">
  <metadata id="CorelCorpID_0Corel-Layer"/>
  <g id="_2755407500560">
   <rect fill="none" stroke="#3A0000" stroke-width="16.93" x="283" y="338" width="3738" height="3234"/>
   <rect fill="none" stroke="#3A0000" stroke-width="16.93" x="4505" y="14" width="4292" height="3754"/>
   <rect fill="gray" stroke="#3A0000" stroke-width="16.93" x="8" width="4292" height="3768"/>
   <rect id="Inventory" fill="#333333" stroke="#3A0000" stroke-width="16.93" x="135" y="42" width="4030" height="246"/>
   <rect id="Atributes" fill="#333333" stroke="#3A0000" stroke-width="16.93" x="380" y="457" width="1346" height="2709"/>
   <rect id="Gold" fill="#333333" stroke="#3A0000" stroke-width="16.93" x="389" y="3251" width="1312" height="246"/>
   <rect id="details" fill="#1A1A1A" stroke="#3A0000" stroke-width="16.93" x="456" y="2777" width="1202" height="330"/>
   <rect id="Healmet" fill="white" stroke="#3A0000" stroke-width="16.93" x="2624" y="449" width="483" height="474"/>
   <rect id="Shoulder" fill="white" stroke="#3A0000" stroke-width="16.93" x="1989" y="610" width="491" height="643"/>
   <rect id="Amulet" fill="white" stroke="#3A0000" stroke-width="16.93" x="3267" y="770" width="398" height="389"/>
   <rect fill="#333333" stroke="#3A0000" stroke-width="16.93" x="3267" y="449" width="677" height="237"/>
   <rect id="Gloves" fill="white" stroke="#3A0000" stroke-width="16.93" x="1803" y="1363" width="491" height="660"/>
   <rect id="gLOVS2" fill="white" stroke="#3A0000" stroke-width="16.93" x="3454" y="1363" width="483" height="652"/>
   <rect id="RingLeft" fill="white" stroke="#3A0000" stroke-width="16.93" x="1887" y="2125" width="313" height="305"/>
   <rect id="RingRight" fill="white" stroke="#3A0000" stroke-width="16.93" x="3547" y="2134" width="288" height="296"/>
   <rect fill="white" stroke="#3A0000" stroke-width="16.93" x="3454" y="2548" width="483" height="957"/>
   <rect fill="white" stroke="#3A0000" stroke-width="16.93" x="1794" y="2540" width="483" height="982"/>
   <rect id="Pants" fill="white" stroke="#3A0000" stroke-width="16.93" x="2632" y="2159" width="483" height="652"/>
   <rect id="Shoes" fill="white" stroke="#3A0000" stroke-width="16.93" x="2632" y="2870" width="466" height="635"/>
   <rect id="Belt" fill="white" stroke="#3A0000" stroke-width="16.93" x="2573" y="1871" width="610" height="237"/>
   <rect id="Chest" fill="white" stroke="#3A0000" stroke-width="16.93" x="2582" y="982" width="601" height="830"/>
   <text x="1762" y="212"  fill="white" font-weight="normal" font-size="201.13px" font-family="Arial">Inventory</text>
   <text x="627" y="669"  fill="white" font-weight="normal" font-size="201.13px" font-family="Arial">Attributes</text>
   <text x="464" y="2624"  fill="white" font-weight="normal" font-size="140.77px" font-family="Arial">DEF:</text>
   <text x="464" y="2319"  fill="white" font-weight="normal" font-size="140.77px" font-family="Arial">ATK:</text>
   <text x="464" y="1871"  fill="white" font-weight="normal" font-size="140.77px" font-family="Arial">OTHER:</text>
   <text x="464" y="1566"  fill="white" font-weight="normal" font-size="140.77px" font-family="Arial">OTHER:</text>
   <text x="464" y="1261"  fill="white" font-weight="normal" font-size="140.77px" font-family="Arial">MP:</text>
   <text x="464" y="956"  fill="white" font-weight="normal" font-size="140.77px" font-family="Arial">HP:</text>
   <text x="3342" y="617"  fill="white" font-weight="normal" font-size="128.59px" font-family="Arial">Level:1</text>
   <text x="1377" y="956"  fill="white" font-weight="normal" font-size="140.77px" font-family="Arial">200</text>
   <text x="1377" y="1261"  fill="white" font-weight="normal" font-size="140.77px" font-family="Arial">100</text>
   <text x="1533" y="1566"  fill="white" font-weight="normal" font-size="140.77px" font-family="Arial">0</text>
   <text x="1534" y="1865"  fill="white" font-weight="normal" font-size="140.77px" font-family="Arial">0</text>
   <text x="1457" y="2319"  fill="white" font-weight="normal" font-size="140.77px" font-family="Arial">10</text>
   <text x="1457" y="2624"  fill="white" font-weight="normal" font-size="140.77px" font-family="Arial">10</text>
   <g transform="matrix(1.30914 0 0 1 -4967.73 1085.19)">
    <text x="4403" y="1884"  fill="white" font-weight="normal" font-size="95.03px" font-family="Arial">DETAILS</text>
   </g>
   <text x="1280" y="3419"  fill="white" font-weight="normal" font-size="140.77px" font-family="Arial">10</text>
   <rect fill="#020001" stroke="#4C0C0C" stroke-width="16.93" x="4598" y="122" width="406" height="389"/>
   <path fill="black" d="M2106 2319c-5,34 -35,62 -75,56 -32,-5 -61,-36 -55,-76 5,-31 36,-60 75,-54 32,5 61,36 55,74zm-72 83l15 0c12,-5 23,1 54,-25 14,-12 25,-32 28,-52 4,-24 -2,-47 -13,-64 -14,-23 -30,-27 -41,-36l-2 -1c7,-13 22,-21 16,-32 -3,-6 -17,-29 -20,-32 -6,-2 -55,-2 -61,0 -3,3 -17,27 -19,33 -5,12 10,18 16,32 -39,17 -64,56 -56,101 6,33 25,55 52,67 12,6 22,5 31,9z"/>
   <path fill="black" d="M3760 2319c-5,34 -35,62 -75,56 -32,-5 -61,-36 -55,-76 5,-31 36,-60 75,-54 32,5 61,36 55,74zm-73 83l16 0c12,-5 22,1 54,-25 14,-12 25,-32 28,-52 4,-24 -3,-47 -13,-64 -14,-23 -30,-27 -42,-36l-1 -1c7,-13 21,-21 16,-32 -3,-6 -17,-29 -20,-32 -6,-2 -55,-2 -61,0 -3,3 -17,27 -19,33 -5,12 10,18 16,32 -40,17 -64,56 -56,101 6,33 25,55 52,67 12,6 22,5 30,9z"/>
   <path fill="black" d="M2675 499c-3,-3 -4,-5 -10,-4 0,6 8,22 5,38 -5,35 -27,64 -30,102 -3,30 6,52 30,58 27,8 50,5 77,-1l0 56c30,22 42,31 47,76 3,26 4,29 20,41 17,12 30,19 38,0 4,-12 2,-42 0,-56 -3,-17 -8,-32 -13,-48 -2,-6 -2,-7 -7,-8l-36 -10c-6,-2 -5,-2 -7,-8 -3,-10 -10,-23 -12,-33 20,2 41,5 57,14 15,8 17,10 17,19 0,12 0,24 0,36 4,3 4,3 7,7 2,2 4,5 7,7 5,-3 6,-7 14,-14l0 -43c2,-2 11,-9 15,-11 17,-10 40,-14 60,-15 -2,5 -13,38 -16,40 -3,1 -38,10 -44,12 -4,7 -9,26 -11,36 -4,13 -7,26 -7,41 0,26 -2,64 38,35 31,-22 15,-28 27,-67 6,-23 24,-39 42,-51l1 -56c24,7 53,8 77,1 24,-6 32,-30 29,-59 -2,-25 -12,-46 -20,-68 -20,-51 -5,-51 -5,-71 -24,-2 -22,74 -19,91 2,16 15,49 -15,60 -10,4 -15,2 -20,-4l-28 -29c-38,-39 -56,-52 -118,-52 -58,-1 -84,15 -118,52l-27 29c-6,6 -12,8 -21,4 -29,-12 -17,-42 -14,-60 2,-19 3,-69 -10,-87z"/>
   <g>
    <path fill="black" d="M2050 2604l-12 -13c-6,-1 -10,-1 -15,-1l-13 14c-8,23 -36,43 -46,67 -7,18 -5,48 -5,65l0 393c0,19 -7,55 23,55 30,1 39,0 38,-36l1 -360c-1,-21 -3,-27 9,-27 12,0 9,9 9,29l0 360c-1,35 16,38 42,34 26,-3 19,-40 19,-57 0,-88 0,-174 0,-262 0,-32 6,-171 -5,-196 -10,-23 -37,-43 -45,-65z"/>
    <path fill="black" d="M2204 3279c-6,-12 -30,-41 -42,-51 -12,-10 -115,-5 -132,-5 -19,0 -121,-5 -134,6 -12,11 -35,38 -41,50 4,13 14,24 27,14 10,-7 22,-28 33,-34 11,-8 48,-1 64,-4 11,20 8,50 20,64 11,-2 23,-6 33,-6 9,1 21,6 31,4 8,-12 8,-41 15,-59 10,-3 59,-5 67,1 20,14 46,67 59,20z"/>
    <path fill="black" d="M1985 3441l15 17c11,3 22,9 32,9 12,-1 18,-7 30,-12l13 -14c3,-12 8,-18 8,-31 4,-60 -75,-87 -102,-26 -11,26 -2,33 4,57z"/>
    <path fill="black" d="M2030 3491l32 -36c-12,5 -18,11 -30,12 -10,0 -21,-6 -32,-9l30 33z"/>
    <path fill="black" d="M2038 2591l-8 -9 -7 8c5,0 9,0 15,1z"/>
   </g>
   <g>
    <path fill="black" d="M3512 2865c1,94 7,167 43,241 17,33 38,60 60,83 9,9 63,59 81,58 16,-1 51,-32 64,-44 33,-30 54,-55 76,-98 37,-72 41,-149 42,-240 -33,-5 -70,-12 -100,-21 -24,-9 -77,-35 -84,-35l-84 35c-32,10 -63,14 -98,21z"/>
    <path fill="black" d="M3500 2855c59,-16 79,-8 151,-40 7,-3 40,-20 45,-20l91 38c41,13 90,15 105,23 5,82 -8,183 -45,255 -19,35 -40,63 -64,87 -10,10 -69,64 -89,63 -17,-2 -77,-53 -86,-63 -54,-55 -85,-123 -100,-202 -4,-22 -11,-121 -8,-141zm-18 -16c0,152 19,270 118,372 10,10 75,67 94,68 14,0 41,-22 51,-30l44 -38c14,-15 24,-25 37,-44 76,-109 77,-186 82,-328 -61,-7 -113,-19 -166,-43 -10,-4 -41,-21 -48,-21 -5,0 -36,17 -46,21 -66,29 -93,31 -166,43z"/>
   </g>
   <g>
    <path fill="black" d="M3468 1041c-2,2 -18,39 -20,45 -3,8 -5,20 -1,28 3,7 11,12 21,12 22,0 28,-18 21,-39 -2,-7 -18,-43 -21,-46z"/>
    <path fill="black" d="M3586 957c-3,2 -5,1 -7,4 -4,8 4,6 1,16 -1,3 -2,6 -3,8 -6,0 -9,-1 -12,4 -1,2 -1,5 -1,7 0,1 0,1 1,3l2 4c-3,3 -3,4 -5,7 -14,-5 -23,3 -17,17 -3,2 -3,1 -4,4 4,3 1,1 5,-1 4,-1 1,0 5,1 6,1 11,-1 13,-4 4,-6 1,-8 0,-13 0,-4 4,-7 6,-10 8,1 15,-3 13,-11 -1,-5 -3,-4 -1,-10 1,-4 2,-5 3,-10 16,0 5,-14 5,-15 -1,-2 1,-19 1,-24 0,-23 -7,-47 -18,-65 -2,-3 -4,-5 -6,-8 -14,-22 -41,-39 -68,-46 -7,-1 -4,-1 -8,-6 -5,0 -10,2 -7,8 2,6 8,2 10,1 9,-2 37,14 46,21 4,3 6,4 10,7 13,13 26,31 32,51 5,15 9,44 4,60z"/>
    <path fill="black" d="M3357 986c-2,3 -5,6 -3,12 2,5 6,7 13,6 1,2 4,6 6,8 -5,15 2,22 14,18 3,-1 1,-1 4,0 0,0 3,2 5,1 0,-2 -2,-3 -4,-4 6,-14 -3,-22 -17,-17 -1,-3 -3,-5 -5,-7 1,-4 0,0 1,-3 4,-9 1,-15 -11,-15 -7,-17 -5,-11 -3,-16 5,-9 -5,-11 -6,-13 -8,-38 7,-78 26,-99 18,-19 32,-30 59,-38 11,-3 5,0 12,1 6,1 6,-5 5,-10 -9,-4 -7,2 -12,4 -5,3 -18,3 -40,18 -17,11 -27,21 -37,38 -14,22 -21,50 -18,77 2,17 2,9 -1,14 -6,9 4,9 7,14 2,3 1,7 5,11z"/>
    <path fill="black" d="M3501 1038c0,13 -4,32 -2,43 7,31 52,9 26,-20l-22 -22c-2,-1 1,0 -2,-1z"/>
    <path fill="black" d="M3436 1038c0,0 -1,0 -1,0l-11 11c-9,10 -32,31 -14,44 12,8 24,2 27,-11 3,-12 -1,-31 -1,-44z"/>
    <path fill="black" d="M3522 1028c2,6 4,16 6,22 10,22 34,-2 13,-13 -3,-2 -16,-8 -19,-9z"/>
    <path fill="black" d="M3415 1028c-2,1 -17,8 -20,9 -5,4 -11,11 -5,18 7,8 15,3 18,-5 3,-6 5,-15 7,-22z"/>
   </g>
   <g>
    <path fill="black" d="M2943 1135l-1 26 -11 5c-8,5 -8,-5 -8,22l16 6c1,0 2,1 3,2l0 19c-16,13 0,-2 -18,8 -2,44 21,62 47,94 16,20 45,64 85,59 25,-3 54,-19 65,-32 6,-29 10,-63 14,-94 3,-21 0,-22 -10,-37 -8,-11 -14,-21 -22,-32 -27,-41 -23,-27 -4,-75 11,-27 22,-53 32,-81 -12,-7 -39,-11 -55,-13 -5,25 -28,71 -43,86 -17,20 -59,31 -90,37z"/>
    <path fill="black" d="M2631 1025c11,29 46,104 48,130 -7,6 -51,70 -53,77 -2,10 8,108 21,118 0,0 7,4 7,5 6,3 9,4 16,8 60,31 83,3 120,-44 28,-35 51,-52 49,-96 -6,-3 -8,0 -19,-8l0 -19c14,-9 6,-3 19,-8 1,-29 -1,-23 -16,-21l-3 -31c-34,-9 -72,-16 -91,-38 -16,-18 -36,-59 -43,-86l-47 9c-11,5 -4,2 -8,4z"/>
    <path fill="black" d="M2704 1542c88,33 265,32 355,0l12 -59c-19,5 -36,27 -58,38l-99 -120c-8,-10 -25,-28 -31,-39 -16,12 -81,94 -101,119 -11,14 -22,27 -32,40 -21,-10 -41,-33 -58,-38l12 59z"/>
    <path fill="black" d="M2676 1658c-7,15 -16,56 -21,76 188,62 264,64 452,0 -4,-21 -13,-60 -20,-76 -38,19 -156,49 -208,49 -50,-1 -166,-31 -203,-49z"/>
    <path fill="black" d="M2648 1386c0,22 0,23 12,32l82 62 137 -165c12,7 9,9 19,20 7,7 12,13 19,20l52 65c6,8 11,12 17,21 9,11 30,31 34,39l80 -60c14,-10 14,-10 14,-34 -21,11 -52,26 -84,19 -21,-4 -54,-34 -64,-45 -17,-19 -29,-36 -46,-58 -28,-39 -22,-26 -27,-81l-23 -1c-6,57 9,27 -28,81 -16,24 -30,43 -48,61 -39,44 -79,60 -146,24z"/>
    <path fill="black" d="M2715 1008c31,41 2,97 154,100l0 27 23 1 2 -27c152,-6 121,-58 153,-101 -6,-4 -15,-5 -26,-7 -20,41 -83,79 -138,80 -64,1 -125,-46 -142,-80 -7,1 -23,3 -26,7z"/>
    <path fill="black" d="M2896 1674c21,2 49,-6 69,-10l-12 -71 -57 6 0 75z"/>
    <path fill="black" d="M2798 1664c21,4 45,12 68,10l1 -76 -57 -5 -12 71z"/>
    <path fill="black" d="M2993 1654c16,1 45,-10 56,-17l-14 -58 -52 9 10 66z"/>
    <path fill="black" d="M2778 1588c-17,-2 -38,-10 -52,-6l-12 55c10,7 39,18 55,17l9 -66z"/>
    <polygon fill="black" points="2869,1190 2893,1190 2894,1166 2869,1166 "/>
   </g>
   <g>
    <path fill="black" d="M2991 3258c18,-86 36,-163 43,-255 -14,4 -11,8 -16,21 -22,53 -27,30 -32,76 -4,43 -9,88 -11,131l-19 6 16 -163c-48,-45 -32,-65 -48,-73 -6,-4 -23,-9 -30,-10 -30,93 20,185 12,313 11,-6 51,-53 85,-46z"/>
    <path fill="black" d="M2691 3002c7,92 26,171 44,256 34,-7 73,40 84,46 -4,-65 3,-98 13,-158 8,-50 15,-106 -1,-155 -7,1 -23,6 -29,10 -8,4 -6,2 -9,12 -2,6 -3,10 -5,14 -10,22 -21,34 -34,47l15 163c-17,-5 -18,-3 -20,-21l-9 -106c-4,-51 0,-27 -20,-59 -16,-28 -11,-44 -29,-49z"/>
    <path fill="black" d="M2954 3377c19,15 91,40 120,24 6,-20 -2,-38 -15,-48 -44,-34 -36,-36 -62,-27 -36,12 -41,23 -43,51z"/>
    <path fill="black" d="M2683 3405c30,0 70,-14 89,-28 -2,-28 -8,-40 -45,-52 -20,-6 -20,-3 -25,1 -28,21 -62,38 -51,75 8,4 22,4 32,4z"/>
    <path fill="black" d="M2819 3357c-1,-28 1,-26 -14,-42 -10,-12 -48,-48 -66,-40 -9,5 -22,19 -26,30 22,7 31,9 49,21 28,18 20,17 26,42l31 -11z"/>
    <path fill="black" d="M2937 3368c8,-34 2,-26 27,-43 17,-11 29,-14 48,-20 -4,-11 -16,-25 -25,-30 -18,-8 -57,28 -67,40 -15,16 -13,14 -13,42l30 11z"/>
    <path fill="black" d="M2745 3058c14,-8 29,-35 31,-47 1,-7 -20,-36 -34,-41 -5,6 -24,31 -21,45 4,18 13,36 24,43z"/>
    <path fill="black" d="M2983 2970c-8,4 -14,11 -21,19 -5,7 -15,14 -12,24 5,18 20,39 31,45 10,-7 21,-26 24,-45 2,-13 -16,-37 -22,-43z"/>
   </g>
   <g>
    <path fill="black" d="M2875 1912c149,0 269,21 269,47 0,22 -88,40 -207,45l0 35c119,-5 207,-23 207,-46 0,-26 -120,-47 -269,-47 -149,0 -270,21 -270,47 0,23 90,41 210,46l0 -35c-120,-4 -210,-23 -210,-45 0,-26 121,-47 270,-47zm-270 47c-5,6 -3,6 -3,14 0,6 1,9 1,16 0,2 0,4 0,5l2 -1 0 -34zm539 0c2,9 1,19 1,29 2,0 1,6 1,8 0,5 -1,4 -1,10 0,10 1,-3 0,-4l-1 -2c0,-6 -2,1 0,-7l0 -34z"/>
   </g>
   <rect fill="none" stroke="black" stroke-width="8.46" x="2823" y="1984" width="105.312" height="77.2259"/>
   <rect fill="black" stroke="black" stroke-width="7.62" x="2880" y="2011" width="49.0535" height="20.4373"/>
   <g id="_2755407532880">
    <path fill="black" d="M2848 2524c5,-20 6,-64 30,-62 20,2 25,41 28,63 49,16 95,10 146,0l0 -195c-25,1 -62,10 -88,14 -21,4 -70,15 -88,15 -14,0 -144,-25 -174,-30l0 197c41,11 113,14 146,-2z"/>
    <path fill="black" d="M2703 2303c29,6 58,10 87,15 20,4 70,15 88,15 19,0 140,-25 175,-30l0 -47c-29,3 -61,11 -90,16 -117,20 -59,19 -174,-1 -23,-4 -65,-14 -87,-14l1 46z"/>
    <path fill="black" d="M2914 2622c9,12 102,16 138,2l0 -71c-78,8 -67,12 -138,-1l0 70z"/>
    <path fill="black" d="M2703 2625c25,5 125,17 137,-3l0 -70c-81,7 -46,15 -138,1l1 72z"/>
    <path fill="black" d="M2705 2715c4,3 1,2 6,4 0,1 8,2 8,2 37,6 83,10 118,-3l-1 -66c-55,2 -53,16 -131,0l0 63z"/>
    <path fill="black" d="M2918 2719c54,10 78,9 131,0l0 -68c-91,13 -58,8 -132,1l1 67z"/>
   </g>
   <g id="_2755407525168">
    <path fill="black" d="M3592 1662c86,-7 58,-12 96,-19 5,-34 0,-115 -9,-141 -8,-7 -18,-11 -25,-17 -8,-7 -13,-14 -19,-20 -7,6 -27,38 -35,48 -39,53 -55,36 -34,100 7,19 15,35 26,49z"/>
    <path fill="black" d="M3558 1686c21,21 50,83 99,115 1,-1 1,-1 4,-4 0,0 3,-4 3,-5 15,-24 37,-40 69,-37 37,-35 37,-5 54,-21 -37,-20 -14,0 -52,-34 -14,-13 -30,-27 -44,-38 -36,15 -56,19 -96,20 -7,0 -12,0 -19,0 -12,0 -11,-2 -18,4z"/>
    <path fill="black" d="M3565 1662c-7,-20 -16,-35 -23,-60 -16,-61 -2,-43 52,-114 14,-18 25,-41 38,-58 10,7 24,30 38,42 -1,-9 -13,-31 -17,-38 -5,-9 -16,-26 -31,-31 -30,23 -73,84 -98,124 -23,37 -15,86 6,121 10,17 12,12 35,14z"/>
    <path fill="black" d="M3632 1809c-5,-7 -40,-37 -62,-73 -3,-5 -6,-7 -10,-13 -3,-5 -5,-9 -8,-13 -5,3 -5,1 -12,19 -7,21 -2,45 7,65 14,32 32,9 85,15z"/>
    <path fill="black" d="M3788 1762c-29,-8 -32,-6 -46,17 -32,-12 -56,8 -66,34l17 11c28,-15 24,-20 64,-27 10,-2 13,-8 34,-11 22,-2 15,2 35,-7 -6,-13 -6,-20 -16,-30 -13,2 -15,3 -22,13z"/>
    <path fill="black" d="M3571 1835c1,7 -3,2 3,10l38 52 9 -4c31,-17 25,-11 47,-22l-13 -24c-15,-33 -71,-14 -84,-12z"/>
    <path fill="black" d="M3725 1870c15,3 37,1 47,-4 -3,-18 -8,-35 -15,-48 -17,0 -35,10 -45,16l13 36z"/>
    <path fill="black" d="M3677 1891c-18,4 -39,16 -52,24 36,54 78,16 52,-24z"/>
    <path fill="black" d="M3731 1893l6 32c17,2 33,4 47,0 -1,-15 -6,-25 -6,-37l-47 5z"/>
    <path fill="black" d="M3777 1809c1,15 14,23 16,56 12,2 17,1 25,-4 -1,-18 -7,-46 -17,-56l-24 4z"/>
    <path fill="black" d="M3825 1801c4,20 11,31 12,54 10,2 19,0 26,-2 -1,-24 -5,-41 -23,-54l-15 2z"/>
    <path fill="black" d="M3745 1947c-6,12 11,37 46,30 1,-14 -2,-25 -3,-28 0,0 -1,0 -1,-1 0,-1 -1,-2 -1,-1l-41 0z"/>
    <path fill="black" d="M3803 1923c11,0 20,-1 28,-3 -1,-13 -3,-26 -8,-38l-20 4c-4,1 -4,2 -5,2l5 35z"/>
    <path fill="black" d="M3843 1876c1,7 4,12 5,20 2,7 2,14 4,20 10,-2 15,-1 26,-6l-8 -37 -27 3z"/>
    <path fill="black" d="M3857 1961c10,1 15,-1 22,-4l0 -25 -25 4 3 25z"/>
    <path fill="black" d="M3812 1968c12,2 14,0 22,-5 1,-6 2,-6 1,-12l-2 -8c0,-1 -1,-1 -1,-2l-24 2 4 25z"/>
   </g>
   <g id="_2755407504624">
    <path fill="black" d="M2150 1662c-87,-7 -58,-12 -97,-19 -4,-34 1,-115 10,-141 8,-7 17,-11 25,-17 8,-7 12,-14 19,-20 6,6 27,38 34,48 40,53 56,36 34,100 -6,19 -14,35 -25,49z"/>
    <path fill="black" d="M2184 1686c-21,21 -51,83 -99,115 -2,-1 -2,-1 -4,-4 0,0 -3,-4 -3,-5 -15,-24 -37,-40 -69,-37 -37,-35 -38,-5 -54,-21 37,-20 13,0 51,-34 15,-13 30,-27 44,-38 37,15 57,19 97,20 7,0 12,0 19,0 12,0 11,-2 18,4z"/>
    <path fill="black" d="M2176 1662c7,-20 17,-35 23,-60 17,-61 2,-43 -51,-114 -15,-18 -25,-41 -38,-58 -10,7 -24,30 -38,42 1,-9 12,-31 16,-38 6,-9 17,-26 31,-31 30,23 74,84 99,124 23,37 14,86 -6,121 -10,17 -12,12 -36,14z"/>
    <path fill="black" d="M2110 1809c5,-7 40,-37 61,-73 4,-5 7,-7 10,-13 4,-5 5,-9 8,-13 5,3 5,1 12,19 8,21 3,45 -6,65 -14,32 -33,9 -85,15z"/>
    <path fill="black" d="M1953 1762c30,-8 33,-6 47,17 31,-12 56,8 66,34l-18 11c-27,-15 -24,-20 -63,-27 -10,-2 -13,-8 -34,-11 -22,-2 -16,2 -35,-7 5,-13 6,-20 16,-30 13,2 15,3 21,13z"/>
    <path fill="black" d="M2171 1835c-1,7 2,2 -3,10l-39 52 -8 -4c-31,-17 -25,-11 -48,-22l13 -24c16,-33 71,-14 85,-12z"/>
    <path fill="black" d="M2017 1870c-15,3 -37,1 -48,-4 3,-18 9,-35 16,-48 16,0 35,10 44,16l-12 36z"/>
    <path fill="black" d="M2064 1891c19,4 39,16 53,24 -36,54 -79,16 -53,-24z"/>
    <path fill="black" d="M2010 1893l-5 32c-17,2 -33,4 -47,0 0,-15 6,-25 6,-37l46 5z"/>
    <path fill="black" d="M1965 1809c-2,15 -14,23 -16,56 -12,2 -17,1 -25,-4 1,-18 7,-46 16,-56l25 4z"/>
    <path fill="black" d="M1917 1801c-4,20 -11,31 -13,54 -9,2 -18,0 -26,-2 1,-24 6,-41 23,-54l16 2z"/>
    <path fill="black" d="M1996 1947c7,12 -10,37 -46,30 0,-14 3,-25 4,-28 0,0 1,0 1,-1 0,-1 0,-2 1,-1l40 0z"/>
    <path fill="black" d="M1938 1923c-11,0 -19,-1 -28,-3 1,-13 3,-26 9,-38l20 4c4,1 4,2 5,2l-6 35z"/>
    <path fill="black" d="M1898 1876c-1,7 -3,12 -5,20 -1,7 -2,14 -4,20 -9,-2 -15,-1 -26,-6l9 -37 26 3z"/>
    <path fill="black" d="M1885 1961c-10,1 -15,-1 -22,-4l-1 -25 26 4 -3 25z"/>
    <path fill="black" d="M1929 1968c-11,2 -14,0 -22,-5 -1,-6 -1,-6 0,-12l2 -8c0,-1 0,-1 0,-2l25 2 -5 25z"/>
   </g>
   <g id="_2755407499856">
    <path fill="black" d="M2075 805l0 215c0,22 15,18 33,20 33,3 74,13 99,34 6,5 9,10 16,13 0,-44 2,-202 0,-233 -2,-20 -40,-47 -61,-56 -15,-6 -29,-9 -46,-11 -20,-3 -41,-7 -41,18z"/>
    <path fill="black" d="M2247 1087c20,-12 22,-26 72,-40 66,-19 76,9 75,-36l0 -167c0,-14 4,-46 -4,-54 -15,-15 -92,3 -125,35 -13,13 -19,21 -19,37 1,75 1,150 1,225z"/>
    <path fill="black" d="M2026 847l0 247c15,20 25,4 82,0 16,-1 30,-1 46,0 17,1 31,4 46,6 -9,-14 -46,-29 -69,-34 -84,-16 -84,36 -79,-229 -18,-1 -18,0 -26,10z"/>
    <path fill="black" d="M2275 1094c-3,4 -2,2 -4,4 -2,3 -4,1 3,2 1,-3 -5,-1 4,-3 26,1 33,-7 88,-3 55,4 62,20 78,0l0 -247c-8,-10 -8,-11 -26,-10 0,29 3,182 -2,198 -14,49 -68,6 -141,59z"/>
    <path fill="black" d="M2271 1098c2,-2 1,0 4,-4 -5,2 -3,1 -4,4zm7 -1c-9,2 -3,0 -4,3l4 -3z"/>
   </g>
  </g>
 </g>
</svg>
