<?xml version="1.0" encoding="UTF-8"?>
<!DOCTYPE svg PUBLIC "-//W3C//DTD SVG 1.1//EN" "http://www.w3.org/Graphics/SVG/1.1/DTD/svg11.dtd">
<!-- Creator: CorelDRAW X8 -->
<svg xmlns="http://www.w3.org/2000/svg" xml:space="preserve" width="500px" height="500px" version="1.1" shape-rendering="geometricPrecision" text-rendering="geometricPrecision" image-rendering="optimizeQuality" fill-rule="evenodd" clip-rule="evenodd"
viewBox="0 0 500 500"
 xmlns:xlink="http://www.w3.org/1999/xlink">
 <g id="Layer_x0020_1">
  <metadata id="CorelCorpID_0Corel-Layer"/>
  <rect fill="black" stroke="black" stroke-width="2.36221" width="500" height="500"/>
  <path fill="#FAFFFF" d="M188 283c-8,-9 -5,5 -16,-17l11 43 -45 -42 7 23 -5 6 -31 -37 -3 -11 -5 16c1,2 3,5 3,6 1,1 3,4 4,6 1,1 2,4 3,6 14,23 21,16 10,24 -31,-9 -13,12 -45,-22 -7,-15 6,-13 -8,-21 -7,12 -19,-16 -3,29 2,6 11,21 15,31 23,35 6,30 62,41 54,9 145,14 200,3 51,-9 45,-16 75,-38 8,-39 28,-58 32,-109l-8 11c-1,2 -3,4 -4,6l-22 27c-11,24 -5,14 -23,31 -1,-39 1,-20 7,-30l-2 -26c-13,0 -10,-3 -9,9 -6,22 -1,9 -11,23 -13,17 -10,9 -17,14 -17,21 13,-3 -19,10 -26,10 -3,4 -31,13 -21,7 0,0 -26,-3 0,0 -8,0 -10,1l-5 -1 -13 -1c-10,1 -16,21 -68,-21zm-131 -37l-8 18 8 -6 0 -12z"/>
  <path fill="#EF7930" d="M138 387l7 -2c12,-1 23,-3 35,-1 30,3 20,6 27,10l91 0c7,-5 5,-8 21,-12 60,-12 40,8 49,15 -12,7 -18,9 -33,14l-44 9 -106 -2 -27 -10c-19,5 -20,12 -12,-5 -15,6 -10,6 -8,-10 -16,-13 -13,23 -13,-18 16,0 12,-4 13,12zm-55 9l14 13c26,0 8,-2 14,9 37,4 63,19 107,23 49,5 76,-5 122,-8l25 -9 21 -6 30 -13c-2,-1 -5,-3 -7,-3l-30 -16 62 -26 -10 -20c-1,-5 -3,-6 -4,-8 -13,15 11,1 -15,11l5 -14c-30,22 -24,29 -75,38 -55,11 -146,6 -200,-3 -56,-11 -39,-6 -62,-41l-22 37 54 25c-8,8 -1,5 -17,11 -2,1 -10,1 -12,0z"/>
  <path fill="white" d="M213 45c27,49 -4,126 1,182 4,26 -9,36 25,22 17,-7 12,12 13,-35 1,-44 -12,-36 1,-86l14 78 5 79c22,-13 7,7 26,-22l-9 -62c-17,0 -11,-13 -12,-29l0 -148 -63 -1 -1 22z"/>
  <path fill="#590D0D" d="M405 170c-1,39 16,17 -21,30 6,-47 -4,-18 21,-30zm-123 -78c22,21 13,-24 19,23 13,-30 -1,-4 23,-23 4,44 17,47 16,89 2,15 -1,3 5,15 0,1 3,7 4,5 0,-1 3,4 4,5 2,2 22,-18 3,23l5 29c50,-42 -26,36 27,-11l0 1c-1,-12 -4,-9 9,-9l2 26 16 -1 22 -27c1,-2 3,-4 4,-6l8 -11c-4,51 -24,70 -32,109l-5 14c26,-10 2,4 15,-11 26,-10 25,-4 37,8l9 0c-9,-16 -14,-22 -24,-35 -9,-21 11,-35 9,-66 -2,-21 3,-10 -9,-19 -1,-1 -4,-2 -5,-2 -1,0 -4,0 -5,0l-21 18c-7,-48 5,-21 -7,-69 -11,-46 -12,-45 -40,-32 -11,-24 31,-39 -31,-17 -3,-21 -5,-43 -27,-45 -2,-1 -7,1 -8,2 -20,3 8,11 -8,0l-4 -43c1,-15 5,-12 -11,-9l0 69z"/>
  <path fill="#342925" d="M293 32l4 43c16,11 -12,3 8,0 1,-1 6,-3 8,-2 22,2 24,24 27,45 62,-22 20,-7 31,17 28,-13 29,-14 40,32 12,48 0,21 7,69l21 -18c1,0 4,0 5,0 1,0 4,1 5,2 12,9 7,-2 9,19 2,31 -18,45 -9,66 33,-68 19,-79 14,-125 -20,19 -11,13 -22,6l5 -11c8,-60 -32,-48 -36,-78 -3,-21 -11,5 23,-24 -50,-1 -113,-37 -140,-41z"/>
  <path fill="#342925" d="M41 316c-14,-3 -11,-6 -9,9 13,0 11,3 9,-9 7,-5 11,0 14,-7l-6 -45 8 -18c29,-8 27,-10 30,-53 2,-29 -11,-26 26,-46 -9,-65 49,-69 19,-16l16 -1c-4,-14 -17,-33 7,-29l1 -35c19,24 10,45 35,31 20,-11 14,-44 14,-66 -14,33 6,28 -20,38 -23,8 -1,10 -21,-30 -44,35 -61,14 -93,82l-16 44c-13,36 -10,27 -15,74 -7,4 -18,-18 -2,37l5 25c0,1 -15,-19 -2,15z"/>
  <path fill="#590D0D" d="M386 418l-21 6 -25 9c-46,3 -73,13 -122,8 -44,-4 -70,-19 -107,-23l-14 -9c-29,-3 -14,2 -14,-13l-23 -2c1,2 3,5 4,7 62,83 253,74 312,49 21,-9 39,-15 53,-32l19 -33 -62 33z"/>
  <path fill="#590D0D" d="M113 147c-37,20 -24,17 -26,46 -3,43 -1,45 -30,53l0 12 37 10 7 -4 5 -16c-4,-47 17,-59 7,-101 8,14 -9,10 24,15 2,0 6,-1 8,-1l3 -31c12,-14 14,34 7,-29 24,55 23,18 33,51 11,-14 11,-10 22,-15l3 -92 1 -22 -9 8c0,22 6,55 -14,66 -25,14 -16,-7 -35,-31l-1 35c-24,-4 -11,15 -7,29l-16 1c30,-53 -28,-49 -19,16z"/>
  <path fill="#922020" d="M118 211c29,12 7,-5 20,20 -14,-2 -7,9 -15,-4 -1,-2 -4,-14 -5,-16zm30 -81l-3 31c-2,0 -6,1 -8,1 -33,-5 -16,-1 -24,-15 10,42 -11,54 -7,101l3 11 29 8c1,-1 3,-3 3,-2l11 -15 9 -118c-5,39 -5,55 19,73 31,-64 24,-7 30,-68 -11,5 -11,1 -22,15 -10,-33 -9,4 -33,-51 7,63 5,15 -7,29z"/>
  <path fill="#FFF173" d="M269 305l5 1c2,-1 10,-1 10,-1 26,3 5,10 26,3 1,-28 3,-11 -2,-30 -7,-25 1,0 -10,-15 -19,29 -4,9 -26,22l2 21 -5 -1c-11,-23 -14,-77 -2,-99l-14 -78c-13,50 0,42 -1,86 -1,47 4,28 -13,35 -34,14 -21,4 -25,-22 -7,8 -7,-1 -15,23 -4,25 1,3 -5,22 0,2 -3,7 -3,6 0,-1 -2,4 -3,5 52,42 58,22 68,21l13 1z"/>
  <path fill="#EF7930" d="M360 285c7,-5 4,3 17,-14 10,-14 5,-1 11,-23l0 -1c-1,3 -3,4 -5,9 -1,4 -3,6 -5,7 -40,35 -36,8 -43,3l-3 -36c-9,-12 -5,-5 -10,-29l31 5c-1,-1 -4,-6 -4,-5 -1,2 -4,-4 -4,-5 -6,-12 -3,0 -5,-15 -29,-17 -10,-22 -30,-50 -1,2 -2,5 -3,7 0,1 -1,4 -2,6l-3 10c0,1 -1,5 -1,4 0,-1 -1,3 -1,4 -10,-22 -18,-38 -18,-70l0 -69 -5 1 0 148c30,10 10,-3 27,24 -9,9 -2,4 -15,5l9 62c30,4 9,-2 3,-5l34 8c31,30 6,18 33,4 -33,57 24,-7 -8,15zm55 -21l-16 1c-6,10 -8,-9 -7,30 18,-17 12,-7 23,-31z"/>
  <path fill="#EF7930" d="M210 137c-6,61 1,4 -30,68 -24,-18 -24,-34 -19,-73l-9 118 44 -4 3 4c8,-24 8,-15 15,-23 -5,-56 26,-133 -1,-182l-3 92z"/>
  <path fill="#F8F9F9" d="M146 403c15,-5 12,-9 12,5l27 10 106 2 44 -9 4 -15c-1,-1 -2,-3 -3,-5l-38 3 -91 0c-29,-1 -41,2 -62,-9l-7 2 0 6c13,-1 10,-3 8,10z"/>
  <path fill="#922020" d="M49 264l6 45c-3,7 -7,2 -14,7 2,12 4,9 -9,9l1 28c35,24 5,18 27,41l23 2c0,15 -15,10 14,13l14 9c-6,-11 12,-9 -14,-9l-14 -13c2,1 10,1 12,0 16,-6 9,-3 17,-11l-54 -25 22 -37c-4,-10 -13,-25 -15,-31 -16,-45 -4,-17 3,-29 14,8 1,6 8,21 26,0 10,4 18,-16l-37 -10 -8 6z"/>
  <path fill="#922020" d="M340 181c1,-42 -12,-45 -16,-89 -24,19 -10,-7 -23,23 -6,-47 3,-2 -19,-23 0,32 8,48 18,70 0,-1 1,-5 1,-4 0,1 1,-3 1,-4l3 -10c1,-2 2,-5 2,-6 1,-2 2,-5 3,-7 20,28 1,33 30,50z"/>
  <path fill="#922020" d="M386 418l-21 6 -25 9 25 -9 21 -6 62 -33c0,-25 0,-12 16,-45 -12,-12 -11,-18 -37,-8 1,2 3,3 4,8l10 20 -62 26 30 16c2,0 5,2 7,3l-30 13z"/>
  <path fill="#F6D26E" d="M138 267l45 42 -11 -43c11,22 8,8 16,17 1,-1 3,-6 3,-5 0,1 3,-4 3,-6 6,-19 1,3 5,-22l-3 -4 -44 4 -11 15c0,-1 -2,1 -3,2z"/>
  <path fill="#CF702F" d="M335 266c7,5 3,32 43,-3 2,-1 4,-3 5,-7 2,-5 4,-6 5,-9 -53,47 23,-31 -27,11l-5 -29 -24 1 3 36z"/>
  <path fill="#F0B04C" d="M138 267l-29 -8 31 37 5 -6 -7 -23zm-44 1c-8,20 8,16 -18,16 32,34 14,13 45,22 11,-8 4,-1 -10,-24 -1,-2 -2,-5 -3,-6 -1,-2 -3,-5 -4,-6 0,-1 -2,-4 -3,-6l-7 4z"/>
  <path fill="#F6D26E" d="M310 308c28,-9 5,-3 31,-13 32,-13 2,11 19,-10 32,-22 -25,42 8,-15 -27,14 -2,26 -33,-4l-34 -8c6,3 27,9 -3,5 11,15 3,-10 10,15 5,19 3,2 2,30z"/>
  <path fill="#F6D26E" d="M335 411l-44 9 44 -9c15,-5 21,-7 33,-14 -9,-7 11,-27 -49,-15 -16,4 -14,7 -21,12l38 -3c1,2 2,4 3,5l-4 15z"/>
  <path fill="#F6D26E" d="M138 393c-2,16 -7,16 8,10 -8,17 -7,10 12,5l27 10 -27 -10c0,-14 3,-10 -12,-5 2,-13 5,-11 -8,-10l0 -6c-1,-16 3,-12 -13,-12 0,41 -3,5 13,18zm69 1c-7,-4 3,-7 -27,-10 -12,-2 -23,0 -35,1 21,11 33,8 62,9z"/>
  <path fill="#F0B04C" d="M332 230l24 -1c19,-41 -1,-21 -3,-23l-31 -5c5,24 1,17 10,29z"/>
  <path fill="#F0B04C" d="M269 305l5 1 -2 -21 -5 -79c-12,22 -9,76 2,99z"/>
  <path fill="#F6D26E" d="M289 201c13,-1 6,4 15,-5 -17,-27 3,-14 -27,-24 1,16 -5,29 12,29z"/>
  <path fill="#CF702F" d="M384 200c37,-13 20,9 21,-30 -25,12 -15,-17 -21,30z"/>
  <path fill="#F0B04C" d="M118 211c1,2 4,14 5,16 8,13 1,2 15,4 -13,-25 9,-8 -20,-20z"/>
 </g>
</svg>
