<?xml version="1.0" encoding="UTF-8"?>
<!DOCTYPE svg PUBLIC "-//W3C//DTD SVG 1.1//EN" "http://www.w3.org/Graphics/SVG/1.1/DTD/svg11.dtd">
<!-- Creator: CorelDRAW X8 -->
<svg xmlns="http://www.w3.org/2000/svg" xml:space="preserve" width="500px" height="500px" version="1.1" shape-rendering="geometricPrecision" text-rendering="geometricPrecision" image-rendering="optimizeQuality" fill-rule="evenodd" clip-rule="evenodd"
viewBox="0 0 500 500"
 xmlns:xlink="http://www.w3.org/1999/xlink">
 <g id="Layer_x0020_1">
  <metadata id="CorelCorpID_0Corel-Layer"/>
  <rect fill="black" stroke="black" stroke-width="2.36221" width="500" height="500"/>
  <path fill="#FFFCE5" d="M149 278l-13 -3 0 -13 0 0c10,16 -7,4 13,16l9 -1c13,10 -3,7 18,9 37,4 7,-1 18,-8 -19,-29 -2,-10 -22,-14 9,-65 -13,-64 -18,-70 32,7 30,23 52,14 2,0 0,28 10,-7 1,-2 3,-3 5,-4l-9 -9c-1,-1 -3,-3 -4,-4 -30,-25 -41,-21 -91,-54 1,0 2,-1 3,-1l9 -6c0,-1 2,-1 4,-2 -15,-4 -15,-1 -23,-5 0,0 -10,-9 -16,-16 -29,-32 -44,-38 -30,-45 8,8 9,8 17,14l120 89c2,-2 5,-3 6,-4 1,-1 4,-3 6,-4l16 -11 12 -1c-14,15 5,5 -26,17 1,1 4,2 5,2l15 4c6,13 7,-8 -11,18 30,9 19,2 25,24 16,-10 19,-12 29,-20 67,7 46,5 86,44l8 -27c6,10 11,21 17,34l16 37c6,25 14,68 9,92l-6 12c-104,62 -112,0 -181,23l-9 -22c-11,-2 -20,-1 -31,-6l-26 -18 -4 -12 -5 -8 12 6 12 18c0,-1 1,3 2,4 12,-13 15,-10 11,-62 -35,-13 -23,-1 -40,-20z"/>
  <path fill="#FAF12E" d="M241 138c7,-18 -5,-5 11,-17 5,10 7,13 13,24l5 10c1,-1 2,3 3,5 4,-1 7,-2 10,-3l34 -5c1,-2 3,3 5,3l4 -7c-78,-47 -5,-14 -51,-21l12 -14 19 -2c3,13 -17,11 15,10l7 10 19 25c24,-32 -2,-4 -3,-23l20 5c0,15 -3,11 12,6 -3,15 -5,11 10,7 -3,15 -7,12 6,13 -7,37 -3,15 5,20l12 46c9,7 14,4 22,11l-4 105 -3 16 -10 1 3 14 -9 -2 -6 16 -14 10 -1 7c-19,1 -15,-5 -15,13l-5 -6c-49,13 -133,9 -178,-20 -17,-11 -28,-5 -28,-43l-4 -12 -22 -4c10,-29 1,-17 -4,-26l4 -10c1,-1 1,-5 1,-4 0,1 1,-4 1,-6 0,-2 -1,-13 -1,-15 -15,-3 -15,5 -25,-10 -9,-13 -5,-19 -5,-42l-1 -9c1,-2 4,-5 5,-4l14 -7c-11,23 -7,2 -5,27 9,37 -2,10 17,32l0 13 13 3c17,19 5,7 40,20 4,52 1,49 -11,62 -1,-1 -2,-5 -2,-4l-12 -18c3,-23 6,7 2,-16 -4,-17 -1,-9 -8,-20 -14,15 -14,-25 -6,30l5 8 4 12 26 18c11,5 20,4 31,6l9 22c69,-23 77,39 181,-23l6 -12c5,-24 -3,-67 -9,-92l-16 -37c-6,-13 -11,-24 -17,-34l-8 27c-40,-39 -19,-37 -86,-44 -10,8 -13,10 -29,20 -6,-22 5,-15 -25,-24 18,-26 17,-5 11,-18l-15 -4c-1,0 -4,-1 -5,-2 31,-12 12,-2 26,-17zm-69 126l-7 -3c-5,-45 3,-9 -17,-24 5,-14 7,-11 -8,-7l3 -2c4,-16 -1,-18 -5,-26l-6 -17c-47,-14 -30,-18 -58,-38l-1 -6c30,7 6,2 35,13 -10,-16 -10,-15 -20,-30 -2,-3 -9,-14 -11,-17 -1,-1 -1,-4 -2,-6 -1,-1 -2,-4 -3,-6l-42 -47 -7 -16c3,-14 -4,-9 9,-13 1,1 4,4 5,5l22 17c20,17 5,1 14,20l30 -6c3,15 -5,11 4,21 26,-3 8,3 25,-6 6,29 -11,11 17,27 5,4 27,9 31,10 28,6 34,-1 64,5l-5 0c-17,15 16,3 -11,4 -19,1 -15,-10 -34,4l35 19 -16 11c-2,1 -5,3 -6,4 -1,1 -4,2 -6,4l-120 -89c-8,-6 -9,-6 -17,-14 -14,7 1,13 30,45 6,7 16,16 16,16 8,4 8,1 23,5 -2,1 -4,1 -4,2l-9 6c-1,0 -2,1 -3,1 50,33 61,29 91,54 1,1 3,3 4,4l9 9c-2,1 -4,2 -5,4 -10,35 -8,7 -10,7 -22,9 -20,-7 -52,-14 5,6 27,5 18,70 20,4 3,-15 22,14 -11,7 19,12 -18,8 -21,-2 -5,1 -18,-9 18,-7 9,3 14,-13zm-51 59c17,2 19,-3 2,3l-2 -3zm294 76l-8 -4 5 -3 3 7z"/>
  <path fill="#340201" d="M79 375l-7 20c0,12 -3,10 8,6 -6,17 -8,13 10,7 0,0 -5,33 27,-7l26 1 -3 4c-3,18 -7,14 10,14l14 7c10,13 17,23 40,29 16,4 39,4 58,6l25 15c40,6 25,2 60,-8 2,-1 7,1 8,-2 2,-3 6,-1 9,-1 70,-25 108,-55 105,-139l-8 -16 13 0 0 172 -400 -1 43 -15c-25,-9 -24,-4 -39,-27 -27,-42 -34,-67 -59,-84l2 -233c4,-16 4,-13 9,-22l24 44c35,29 40,11 31,32l3 56c-28,-3 -9,-3 -17,9 -3,24 -4,23 -19,38 12,21 10,29 16,37l35 28c1,-1 3,4 5,6l-1 2 -16 -4c-10,11 -6,7 -12,26z"/>
  <path fill="#340201" d="M475 194c-7,16 -11,11 -22,20 -6,-19 -6,-22 -19,-32l-6 -25c-8,-38 -15,-33 -22,-51 0,-24 6,-21 -15,-12 -3,-7 5,-9 -7,-18 -3,1 -6,0 -7,3l-11 5c-37,23 19,-2 -11,8 -14,-39 -13,-10 -18,-3 -18,-1 -26,2 -36,-3 -7,-3 3,1 -12,-9 -17,-12 9,1 -18,-11 -13,-17 7,-4 -32,-19l-31 -9c-41,-4 -35,21 -77,-7l-15 -6c-32,5 -12,9 -39,-4l401 -4 -3 177z"/>
  <path fill="#F16F0D" d="M372 421c0,-18 -4,-12 15,-13 0,9 -3,19 2,0 7,-24 7,8 -1,-7l14 -10 5 4 8 4 -3 -7 5 -15 -3 -14 10 -1 3 -16c13,-13 3,3 15,-23 18,-38 23,-41 18,-56l1 44 8 16c-9,10 -5,1 -14,17 -7,13 -3,12 -8,24 -13,31 -11,24 -32,31 -3,16 4,6 -9,22 -16,9 -27,-22 -11,11 -20,-10 -17,-13 -9,8l-5 -2 -26 13c-14,7 -4,3 -17,6 -4,-7 -10,4 9,-23l-40 2c-27,2 -46,2 -72,2 -45,-1 -35,-4 -71,-11l-14 -7 -10 -14 3 -4 14 7c7,3 -23,27 20,-1l-15 -12c-1,-3 -5,-3 -7,-4l-16 -34c-2,3 -4,6 -9,9 -26,17 8,-1 -10,3l-13 -17 1 -2 27 5c-8,-27 1,-7 -12,-30 17,-6 15,-1 -2,-3 -15,-6 -9,16 -13,-7 3,-4 -24,-28 23,-6 5,9 14,-3 4,26l22 4 4 12c0,38 11,32 28,43 45,29 129,33 178,20l-20 10c9,5 -2,3 14,4l11 -8z"/>
  <path fill="#F16F0D" d="M418 178l13 63c-8,-7 -13,-4 -22,-11l-12 -46c-8,-5 -12,17 -5,-20 -13,-1 -9,2 -6,-13 -15,4 -13,8 -10,-7 -15,5 -12,9 -12,-6l-20 -5c1,19 27,-9 3,23l-19 -25 -7 -10c-32,1 -12,3 -15,-10l15 10c16,-4 12,-6 7,10 8,-8 9,-2 14,-19 10,19 7,16 22,26l12 6c17,-6 15,-10 10,7 17,-6 11,-6 6,13l5 20 15 -3c6,-6 -11,-1 6,-3zm-177 -40l-12 1 -35 -19c19,-14 15,-3 34,-4 27,-1 -6,11 11,-4l0 -3c18,9 -2,-2 29,10l5 -20c5,13 3,6 14,14l-12 14c46,7 -27,-26 51,21l-4 7c-2,0 -4,-5 -5,-3l-34 5c-3,1 -6,2 -10,3 -1,-2 -2,-6 -3,-5l-5 -10c-6,-11 -8,-14 -13,-24 -16,12 -4,-1 -11,17zm-109 -68c-17,9 1,3 -25,6 -9,-10 -1,-6 -4,-21l-30 6c-9,-19 6,-3 -14,-20l-22 -17c-1,-1 -4,-4 -5,-5l25 -3 30 21c2,2 8,8 9,9 1,1 3,6 4,5 0,-1 2,3 3,4 35,9 9,5 24,-4l7 6 -2 13 41 -9 -2 12c10,19 0,9 21,19l-3 4c20,0 37,2 46,4l9 12c-30,-6 -36,1 -64,-5 -4,-1 -26,-6 -31,-10 -28,-16 -11,2 -17,-27z"/>
  <path fill="#710F10" d="M90 408c-18,6 -16,10 -10,-7 -11,4 -8,6 -8,-6 14,-6 13,-9 8,6 16,-5 15,-9 10,7l13 -19c-32,-7 -18,-7 -24,-14 6,-19 2,-15 12,-26l16 4 13 17c18,-4 -16,14 10,-3 5,-3 7,-6 9,-9l16 34 2 17 -14 -7 -26 -1c-32,40 -27,7 -27,7zm50 -2l10 14c-17,0 -13,4 -10,-14zm-32 -55c-2,-2 -4,-7 -5,-6l-35 -28c-6,-8 -4,-16 -16,-37 15,-15 16,-14 19,-38 24,1 11,4 17,-9l-3 -56c30,11 32,8 20,37l1 9 -20 29c35,61 27,42 49,48l-4 10c-47,-22 -20,2 -23,6 4,23 -2,1 13,7l2 3c13,23 4,3 12,30l-27 -5z"/>
  <path fill="#710F10" d="M116 25l10 17c10,-2 18,17 5,-11 42,28 36,3 77,7l31 9c39,15 19,2 32,19 27,12 1,-1 18,11 15,10 5,6 12,9 10,5 18,2 36,3 2,17 4,22 5,23 -5,17 -6,11 -14,19 5,-16 9,-14 -7,-10l-15 -10 -19 2c-11,-8 -9,-1 -14,-14l-2 -19 0 -14c-28,-3 -26,-12 -52,-9l-50 4c11,15 14,19 20,35l3 -4c-13,-14 6,-2 -21,-19l2 -12c-3,-9 0,-10 -6,-17 -14,3 -26,1 -33,13l-7 -6 -1 -9 -39 -5 -30 -21 20 5c27,13 7,9 39,4zm239 67c30,-10 -26,15 11,-8l11 -5c1,-3 4,-2 7,-3 12,9 4,11 7,18 21,-9 15,-12 15,12 -24,2 -22,9 -15,-12l-15 29 -18 -12c-4,-6 -2,1 -5,-8l2 -11z"/>
  <path fill="#000001" d="M74 482l-54 1 -1 -127c25,17 32,42 59,84 15,23 14,18 39,27l-43 15z"/>
  <path fill="#902D0C" d="M434 182c6,35 -4,18 7,52l33 -8 0 85 -13 0 -1 -44c5,15 0,18 -18,56 -12,26 -2,10 -15,23l-3 16 3 -16 4 -105 -13 -63 -7 -12 17 -9 6 25z"/>
  <path fill="#902D0C" d="M381 438c-2,2 -4,3 -4,6l-13 22c-3,0 -7,-2 -9,1 -1,3 -6,1 -8,2 -35,10 -20,14 -60,8l-25 -15c21,-19 22,-10 45,-26l40 -2c-19,27 -13,16 -9,23 13,-3 3,1 17,-6l26 -13zm-14 -23l5 6 -11 8c-16,-1 -5,1 -14,-4l20 -10zm39 6c-10,21 1,12 -20,19 -8,-21 -11,-18 9,-8 -16,-33 -5,-2 11,-11zm-19 -13l1 -7c8,15 8,-17 1,7 -5,19 -2,9 -2,0zm21 -33l9 2 -5 15 -5 3 -5 -4 6 -16z"/>
  <path fill="#CE310B" d="M355 92l-2 11c3,9 1,2 5,8l18 12 15 -29c-7,21 -9,14 15,12 7,18 14,13 22,51l-17 9 7 12c-17,2 0,-3 -6,3l-15 3 -5 -20c5,-19 11,-19 -6,-13 5,-17 7,-13 -10,-7l-12 -6c-15,-10 -12,-7 -22,-26 -1,-1 -3,-6 -5,-23 5,-7 4,-36 18,3z"/>
  <path fill="#710F10" d="M364 466l13 -22c0,-3 2,-4 4,-6l5 2c21,-7 10,2 20,-19 13,-16 6,-6 9,-22 21,-7 19,0 32,-31 5,-12 1,-11 8,-24 9,-16 5,-7 14,-17 3,84 -35,114 -105,139z"/>
  <path fill="#CE310B" d="M307 436c-23,16 -24,7 -45,26 -19,-2 -42,-2 -58,-6 -23,-6 -30,-16 -40,-29 36,7 26,10 71,11 26,0 45,0 72,-2z"/>
  <path fill="#F16F0D" d="M105 214c12,-29 10,-26 -20,-37 9,-21 4,-3 -31,-32l20 2c28,20 11,24 58,38l6 17c4,8 9,10 5,26 -4,-44 -22,-1 -24,2l21 0 -4 32 0 0c-19,-22 -8,5 -17,-32 -2,-25 -6,-4 5,-27l-14 7c-1,-1 -4,2 -5,4z"/>
  <path fill="#902D0C" d="M235 100c-9,-2 -26,-4 -46,-4 -6,-16 -9,-20 -20,-35l50 -4c3,22 7,21 16,43zm-43 -8c-21,-10 -11,0 -21,-19 27,17 8,5 21,19z"/>
  <path fill="#F16F0D" d="M73 141c-4,-8 -18,-41 -23,-50 -13,-22 -15,7 -20,-43l42 47c1,2 2,5 3,6 1,2 1,5 2,6 2,3 9,14 11,17 10,15 10,14 20,30 -29,-11 -5,-6 -35,-13z"/>
  <path fill="#714A0E" d="M30 48c5,50 7,21 20,43 5,9 19,42 23,50l1 6 -20 -2 -24 -44 -7 -69 7 16z"/>
  <path fill="#CE310B" d="M136 275c0,2 1,13 1,15 0,2 -1,7 -1,6 0,-1 0,3 -1,4 -22,-6 -14,13 -49,-48l20 -29c0,23 -4,29 5,42 10,15 10,7 25,10zm-65 -33c8,-12 -11,-12 17,-9 -6,13 7,10 -17,9z"/>
  <path fill="#F4D012" d="M271 80l2 19 -5 20c-31,-12 -11,-1 -29,-10l3 -38 29 9z"/>
  <path fill="#710F10" d="M475 194l-1 32 -33 8c-11,-34 -1,-17 -7,-52 13,10 13,13 19,32 11,-9 15,-4 22,-20z"/>
  <path fill="#CE310B" d="M271 66l0 14 -29 -9 -3 38 0 3 5 0 -9 -12c-9,-22 -13,-21 -16,-43 26,-3 24,6 52,9z"/>
  <path fill="#F4D012" d="M165 261l7 3c-5,16 4,6 -14,13l-9 1c-20,-12 -3,0 -13,-16l4 -32c15,-4 13,-7 8,7l-1 26 18 -2z"/>
  <path fill="#902D0C" d="M173 61l-41 9 2 -13c7,-12 19,-10 33,-13 6,7 3,8 6,17z"/>
  <path fill="#902D0C" d="M126 42l1 9c-15,9 11,13 -24,4 -1,-1 -3,-5 -3,-4 -1,1 -3,-4 -4,-5 -1,-1 -7,-7 -9,-9l39 5z"/>
  <path fill="#F16F0D" d="M164 338l-12 -6c-8,-55 -8,-15 6,-30 7,11 4,3 8,20 4,23 1,-7 -2,16z"/>
  <path fill="#F16F0D" d="M165 261l-18 2 1 -26c20,15 12,-21 17,24z"/>
  <path fill="#F16F0D" d="M90 408c5,-16 6,-12 -10,-7 5,-15 6,-12 -8,-6l7 -20c6,7 -8,7 24,14l-13 19z"/>
  <path fill="#CE310B" d="M140 230l-21 0c2,-3 20,-46 24,-2l-3 2z"/>
  <path fill="#CE310B" d="M157 409l-2 -17c2,1 6,1 7,4l15 12c-43,28 -13,4 -20,1z"/>
  <path fill="#F16F0D" d="M126 42l-10 -17 15 6c13,28 5,9 -5,11z"/>
 </g>
</svg>
