<?xml version="1.0" encoding="UTF-8"?>
<!DOCTYPE svg PUBLIC "-//W3C//DTD SVG 1.1//EN" "http://www.w3.org/Graphics/SVG/1.1/DTD/svg11.dtd">
<!-- Creator: CorelDRAW X8 -->
<svg xmlns="http://www.w3.org/2000/svg" xml:space="preserve" width="500px" height="500px" version="1.1" shape-rendering="geometricPrecision" text-rendering="geometricPrecision" image-rendering="optimizeQuality" fill-rule="evenodd" clip-rule="evenodd"
viewBox="0 0 500 500"
 xmlns:xlink="http://www.w3.org/1999/xlink">
 <g id="Layer_x0020_1">
  <metadata id="CorelCorpID_0Corel-Layer"/>
  <rect fill="black" stroke="black" stroke-width="2.36221" width="500" height="500"/>
  <path fill="#340201" d="M408 333c18,61 -11,79 -56,98l-11 12c90,-37 63,-6 73,3 -121,59 -361,26 -381,-56 -11,-49 38,-79 57,-105 -13,-43 -36,-66 -37,-117l-1 -10 12 11c43,11 27,20 55,24 1,0 3,-1 5,-1 13,-31 3,-145 -1,-176l-18 2 -12 111 -57 11c-3,79 7,141 -15,190l1 150 459 -1 0 -177c-21,-76 -20,-39 -16,-80 2,-22 5,-27 -8,-40 -3,-3 -12,-8 -17,-8 -41,-6 -19,4 -24,7 -2,-2 -6,-6 -6,-4l0 -21c1,-51 -18,-50 -39,-60l-1 -79 -29 0 2 90c19,16 15,18 38,31 2,48 -4,23 -10,66 -6,37 8,-22 -3,25 19,-4 50,-15 56,-14 17,31 7,13 -12,61 29,58 77,38 63,111 -15,85 -24,-36 -28,28 0,0 -1,1 -1,1l-2 -9c-7,11 -14,55 -16,16 0,0 51,-100 -15,-106 1,1 7,-11 1,5l-6 11z"/>
  <path fill="#FAF12E" d="M176 329c39,2 43,21 62,12 4,39 6,38 -30,47 -29,-17 -25,-32 -32,-59zm51 -19c3,-1 7,-5 8,-3 1,2 6,-2 7,-3 17,-8 22,-7 30,-25 2,16 8,73 -23,58 -21,-10 -13,-9 -22,-27zm-76 -17c-4,-5 14,20 0,0zm21 -48l2 -1c9,20 14,26 14,57 -53,-7 -19,-27 -86,-71 17,39 51,75 67,111 -75,-2 -36,-16 -60,8l35 4c40,15 8,6 17,12 2,1 1,5 19,9l1 23c20,3 3,-4 5,12 36,-6 16,-6 24,8l4 0c8,-10 3,-9 13,-17 12,-8 5,-4 17,-9 18,-7 29,-9 47,-11l21 -3 -61 -7 22 -20c24,24 23,10 54,-3 2,-3 5,-8 7,-6 1,1 5,-5 7,-7 1,-1 4,-4 6,-6l1 8 -2 -25c45,-42 -21,40 23,-8l-5 -11 8 -4 -11 -7 3 11c-43,23 -12,24 -67,51 -3,-26 -1,-81 13,-105l13 -43c-3,-14 9,-8 -14,-7l1 -36 3 -12c-15,-24 -6,-11 -14,-44 -4,-16 -5,-17 -12,-27 9,-9 10,-10 19,-19l-18 -34 -28 0 -5 18c19,21 -19,1 4,0 8,0 -3,-4 9,0l0 74 0 27c9,38 12,104 -22,121 14,-29 8,-76 0,-112l-2 -4c-1,-1 -36,-21 4,-55l-26 -6 -13 43c-16,-39 -36,-59 -40,-105l-14 0c3,16 6,18 4,34 -2,20 -3,14 -10,20l1 16c18,9 9,-13 21,28 10,31 -7,34 15,87l-20 -4c3,8 27,47 6,47zm-18 136c4,-12 5,-9 -7,-6l7 6z"/>
  <path fill="#710F10" d="M352 431c-67,10 -165,31 -230,-26 -44,-38 -29,-27 -36,-46 -6,-17 -10,-23 -14,-38 42,-19 11,-5 16,1l7 -2c5,-6 6,-12 11,-15 30,-7 -13,6 2,-20 -13,-41 -39,-56 -40,-105 -16,-14 0,27 -10,-7 -1,-4 -4,-4 -5,-5 1,51 24,74 37,117 -19,26 -68,56 -57,105 20,82 260,115 381,56 -10,-9 17,-40 -73,-3l11 -12z"/>
  <path fill="#710F10" d="M341 17l-14 1c0,87 -7,62 36,146l-15 34 -11 52c12,12 -15,2 19,17 25,-10 36,-24 61,-42 -10,38 -1,2 -8,28 -5,20 -1,1 -4,23 0,7 -7,30 -7,31 -4,44 -9,12 10,26l6 -11c6,-16 0,-4 -1,-5 66,6 15,106 15,106 2,39 9,-5 16,-16l2 9c0,0 1,-1 1,-1 4,-64 13,57 28,-28 14,-73 -34,-53 -63,-111 19,-48 29,-30 12,-61 -6,-1 -37,10 -56,14 11,-47 -3,12 3,-25 6,-43 12,-18 10,-66 -23,-13 -19,-15 -38,-31l-2 -90z"/>
  <path fill="#902D0C" d="M278 428l-15 -15 5 11 -54 -7 -4 0c-50,13 -18,6 -24,-8 -22,0 -46,-7 -60,-29 -1,-1 -1,-3 -2,-4l-15 -27 -21 1c-13,-13 -2,-1 0,-28 -5,-6 26,-20 -16,-1 4,15 8,21 14,38 7,19 -8,8 36,46 65,57 163,36 230,26 45,-19 74,-37 56,-98 -19,-14 -14,18 -10,-26 0,-1 7,-24 7,-31 -14,13 -14,25 -20,44 -23,79 -29,87 -107,108z"/>
  <path fill="#CE310B" d="M174 244c-24,16 -16,-21 -18,15 5,-14 11,3 -13,-21 -21,-23 -46,-52 -75,-58l-4 -11c-17,4 -12,7 -12,-11l1 10c1,1 4,1 5,5 10,34 -6,-7 10,7 1,49 27,64 40,105l16 34 -29 1 -7 2c-2,27 -13,15 0,28l21 -1 15 27c1,1 1,3 2,4 14,22 38,29 60,29 6,14 -26,21 24,8 -8,-14 12,-14 -24,-8 -2,-16 15,-9 -5,-12 -2,-2 -5,-3 -7,-4 -1,-1 -5,-3 -6,-4 -2,-1 -6,-1 -7,-4 -1,-3 -5,-2 -7,-4l-7 -6 -3 -22 -35 -4c24,-24 -15,-10 60,-8 -16,-36 -50,-72 -67,-111 67,44 33,64 86,71 0,-31 -5,-37 -14,-57z"/>
  <path fill="#CE310B" d="M356 267c-10,18 -2,11 -18,17 -3,-10 -7,-21 -10,-32 -5,-25 -6,9 -1,-26 -2,2 -5,4 -6,5 -1,1 -5,6 -6,4 -1,-1 -3,2 -5,3l1 83c11,-6 19,-7 30,-16 22,-17 -2,4 20,-24l25 -12c0,27 8,25 -14,19l-8 4 5 11c-8,27 1,4 -9,21 -1,2 -5,8 -6,6 -1,-1 -4,4 -6,6l-1 -8c-10,45 9,36 -27,64 -40,-6 -21,-7 -29,-12 -18,2 -29,4 -47,11 -12,5 -5,1 -17,9 -10,8 -5,7 -13,17l54 7 -5 -11c20,0 15,-5 15,15 78,-21 84,-29 107,-108 6,-19 6,-31 20,-44 3,-22 -1,-3 4,-23 7,-26 -2,10 8,-28 -25,18 -36,32 -61,42z"/>
  <path fill="#F16F0D" d="M260 16l-30 1c-4,18 -16,13 -40,17l-7 -17 -14 0c4,46 24,66 40,105l13 -43 26 6c-40,34 -5,54 -4,55l-8 -37c3,2 8,2 9,7l15 7c3,0 8,-9 8,-9l0 -74c-12,-4 -1,0 -9,0 -23,1 15,21 -4,0l5 -18zm8 119l-22 9c8,36 14,83 0,112 34,-17 31,-83 22,-121z"/>
  <path fill="#902D0C" d="M150 87l-1 -16 -10 -55 -16 0c4,31 14,145 1,176 -2,0 -4,1 -5,1 -28,-4 -12,-13 -55,-24l-12 -11c0,18 -5,15 12,11l4 11c29,6 54,35 75,58 24,24 18,7 13,21 2,-36 -6,1 18,-15l-2 1c-5,-33 -9,-32 -22,-66 -12,-30 1,-9 3,-15 0,-1 2,0 3,0l-6 -77z"/>
  <path fill="#902D0C" d="M313 140l-3 12 38 46c-13,9 -5,-2 -15,12 -4,7 -3,8 -6,16 -5,35 -4,1 1,26 3,11 7,22 10,32 16,-6 8,1 18,-17 -34,-15 -7,-5 -19,-17l11 -52 15 -34c-43,-84 -36,-59 -36,-146l-15 -2c6,31 3,80 1,124z"/>
  <path fill="#F16F0D" d="M364 292l-3 -11 11 7c22,6 14,8 14,-19l-25 12c-22,28 2,7 -20,24 -11,9 -19,10 -30,16l-1 -83c2,-1 4,-4 5,-3 1,2 5,-3 6,-4 1,-1 4,-3 6,-5 3,-8 2,-9 6,-16 10,-14 2,-3 15,-12l-38 -46 -1 36c23,-1 11,-7 14,7l-13 43c-14,24 -16,79 -13,105 55,-27 24,-28 67,-51zm-16 44c2,-2 5,-7 6,-6 1,2 5,-4 6,-6 10,-17 1,6 9,-21 -44,48 22,-34 -23,8l2 25z"/>
  <path fill="#F16F0D" d="M172 245c21,0 -3,-39 -6,-47l20 4c-22,-53 -5,-56 -15,-87 -12,-41 -3,-19 -21,-28l6 77c-1,0 -3,-1 -3,0 -2,6 -15,-15 -3,15 13,34 17,33 22,66z"/>
  <path fill="#F8F9F9" d="M176 329c7,27 3,42 32,59 36,-9 34,-8 30,-47 -19,9 -23,-10 -62,-12z"/>
  <path fill="#F16F0D" d="M313 140c2,-44 5,-93 -1,-124l-24 0 18 34c-9,9 -10,10 -19,19 7,10 8,11 12,27 8,33 -1,20 14,44z"/>
  <path fill="#F9F2B0" d="M227 310c9,18 1,17 22,27 31,15 25,-42 23,-58 -8,18 -13,17 -30,25 -1,1 -6,5 -7,3 -1,-2 -5,2 -8,3z"/>
  <path fill="#F4D012" d="M327 347l-15 30 -21 3c8,5 -11,6 29,12 36,-28 17,-19 27,-64 -2,2 -5,5 -6,6 -2,2 -6,8 -7,7 -2,-2 -5,3 -7,6z"/>
  <path fill="#F8F9F9" d="M312 377l15 -30c-31,13 -30,27 -54,3l-22 20 61 7z"/>
  <path fill="#EF912F" d="M244 140l2 4 22 -9 0 -27c0,0 -5,9 -8,9l-15 -7c-1,-5 -6,-5 -9,-7l8 37z"/>
  <path fill="#F16F0D" d="M147 375c12,-3 11,-6 7,6 2,2 6,1 7,4 1,3 5,3 7,4 1,1 5,3 6,4 2,1 5,2 7,4l-1 -23c-18,-4 -17,-8 -19,-9 -9,-6 23,3 -17,-12l3 22z"/>
  <path fill="#F16F0D" d="M149 71c7,-6 8,0 10,-20 2,-16 -1,-18 -4,-34l-16 -1 10 55z"/>
  <path fill="#F4D012" d="M230 17l-47 0 7 17c24,-4 36,1 40,-17z"/>
  <path fill="#902D0C" d="M95 320l29 -1 -16 -34c-15,26 28,13 -2,20 -5,3 -6,9 -11,15z"/>
  <path fill="#FAF12E" d="M278 428c0,-20 5,-15 -15,-15l15 15z"/>
  <path fill="#F9F2B0" d="M151 293c14,20 -4,-5 0,0z"/>
 </g>
</svg>
