<?xml version="1.0" encoding="UTF-8"?>
<!DOCTYPE svg PUBLIC "-//W3C//DTD SVG 1.1//EN" "http://www.w3.org/Graphics/SVG/1.1/DTD/svg11.dtd">
<!-- Creator: CorelDRAW X8 -->
<svg xmlns="http://www.w3.org/2000/svg" xml:space="preserve" width="8.4666mm" height="8.4666mm" version="1.1" shape-rendering="geometricPrecision" text-rendering="geometricPrecision" image-rendering="optimizeQuality" fill-rule="evenodd" clip-rule="evenodd"
viewBox="0 0 847 847"
 xmlns:xlink="http://www.w3.org/1999/xlink">
 <g id="Layer_x0020_1">
  <metadata id="CorelCorpID_0Corel-Layer"/>
  <path fill="red" d="M557 768c-1,-5 1,0 0,0 0,0 0,5 0,0zm70 -19c8,-1 -2,0 0,0zm30 -56l2 7 -2 -7zm-8 -9l0 0zm61 -18c1,-2 5,-2 2,0 0,0 -4,4 -2,0zm-4 -19l9 -2c-2,0 -3,1 -9,2zm28 -65c5,3 11,9 13,14l-13 -14zm-24 -11l7 -7c4,-3 3,-2 7,-7 -3,5 -9,12 -14,14zm-216 -60l1 -2c0,0 6,7 7,7l-8 -5zm215 -17c3,4 3,4 4,8l-4 -8zm-222 -32c2,2 4,3 6,5l7 5c-6,-2 -10,-5 -13,-10zm-101 -41c0,0 0,0 0,1 0,0 1,0 1,0 0,0 -3,1 -1,-1zm-192 -90c-6,10 -5,11 -2,21 -5,-7 -4,-13 2,-21zm-97 -110c-36,21 73,54 96,59 46,10 108,13 157,12 84,0 190,0 272,-24l23 -8c5,-2 4,-1 7,-5 -67,5 -97,7 -166,2 -65,-4 -282,-31 -338,-53 -46,-19 -46,-60 -9,-70 -10,7 -18,9 -23,22 -12,39 56,49 81,53 110,20 412,57 492,8 -16,-1 -38,1 -56,1 -55,-1 -109,-7 -163,-14 -51,-7 -101,-16 -150,-27 -9,-2 -39,-7 -46,-14l103 17c69,9 290,30 335,2 -14,-14 -102,-26 -119,-28 -61,-9 -283,-32 -340,-30 -10,1 -23,2 -32,6 -12,4 -14,7 -14,23 -10,-11 3,-23 13,-27 34,-15 99,-8 135,-7 90,2 274,6 355,31 11,3 26,10 31,16 13,14 5,32 -10,40 -6,3 -4,1 -6,5 -4,6 -2,9 -8,16 -8,9 -17,13 -30,19 -4,10 -5,19 -11,25 -6,5 -16,9 -23,14 5,22 -6,30 -13,41 5,7 9,16 7,26 -3,17 -5,8 5,22 27,0 53,12 64,37 27,57 -27,96 -76,112 -13,4 -27,8 -41,10l-46 2c8,28 127,17 154,-11 8,-8 4,-13 7,-22 8,52 -94,61 -127,61 3,29 66,26 91,19 10,-3 26,-11 32,-11 -2,2 1,0 -3,3 -2,1 -4,3 -6,4 -17,9 -37,16 -57,18 -9,1 -22,-1 -28,4 -11,22 49,26 66,26 15,0 30,-2 43,-6 26,-8 17,-12 24,-24 1,15 -5,19 -15,25 -8,4 -20,7 -31,9 -12,3 -25,4 -38,4 -8,0 -30,-5 -35,-2 -13,26 62,16 76,15 -6,4 -17,5 -25,7 -8,1 -25,0 -24,10 1,7 16,8 24,9 12,0 18,-2 29,-5 -3,2 -6,4 -11,6 -4,2 -8,2 -11,6 3,7 14,11 25,10 6,0 11,-1 15,-4 3,-3 4,-8 5,-12 0,-1 0,-1 0,-2 4,24 -10,14 -15,29 -4,13 -22,13 -34,13 -12,29 -44,9 -60,-6 -7,2 -8,4 -13,8 1,24 35,27 36,18 -7,18 -33,-1 -39,0 -11,2 -13,19 18,15 -13,9 -24,2 -32,-3 -29,7 -8,31 13,21 0,1 -1,2 -4,3 -18,5 -19,10 -31,9 -6,-1 -6,-2 -10,-1 -8,0 -26,4 -25,-13 2,11 15,13 23,4 7,10 15,6 26,3l-6 -5c-18,-17 10,-28 14,-31 3,-2 9,-8 10,-12 1,-12 -4,-16 14,-25 11,-6 15,-12 30,-14 -2,1 -32,12 -15,25 9,6 30,13 39,4 -4,-6 -12,-6 -14,-14 12,9 23,9 38,5 5,-1 9,-4 11,-7 -21,0 -25,-3 -33,-18 -22,-3 -25,-2 -30,-23 -24,-3 -30,-7 -26,-32 -13,-5 -18,-14 -15,-32 -8,-2 -16,-6 -21,-11 -8,-6 -7,-13 -13,-19 -9,-10 -31,0 -33,-33 -7,-1 -13,-3 -19,-5 -2,-1 -6,-3 -8,-4l-7 -5c31,9 49,17 85,12 26,-3 54,-15 75,-26 19,-10 43,-29 45,-55 3,-28 -21,-52 -46,-53 1,23 2,34 -11,51 -28,38 -132,46 -150,27 23,1 30,6 58,3 18,-3 36,-8 51,-15 16,-8 28,-16 34,-33 7,-20 -2,-41 -13,-49 -29,21 -66,32 -108,40 -30,6 -110,18 -134,4 80,11 271,-46 233,-84 -56,26 -146,34 -213,39 -53,3 -195,20 -216,-25l20 14c28,12 61,13 92,10 36,-4 342,-28 326,-83l-2 -1c-3,0 -1,0 -4,0 -17,2 -36,7 -62,10 -78,7 -159,6 -237,0 -47,-3 -99,-8 -143,-20 -22,-6 -117,-38 -85,-61zm110 -68c0,0 1,0 1,1 0,0 1,1 1,1l12 15c-6,-3 -12,-10 -14,-17zm49 5l17 5c0,0 0,0 1,0 -7,0 -13,-2 -18,-5zm-117 -24l16 -4 -16 4zm-51 31c-30,10 -74,32 -53,66 7,10 13,13 24,21 30,21 80,35 117,44 7,2 5,1 9,4 -64,60 5,92 68,102 15,3 35,2 46,9 43,25 79,30 128,40 0,0 0,0 0,1 0,10 -25,60 56,88 14,4 32,8 47,10 11,1 11,-2 13,7 6,30 26,28 40,37 -4,19 -1,28 11,37 13,10 7,2 11,17 2,8 7,13 11,18 -15,11 -51,20 -28,51 -15,12 -27,14 -20,33l0 5c-10,3 -41,-16 -53,5 -6,25 66,30 94,13 6,-3 4,-3 8,-6 7,-7 41,-5 48,-30 0,0 0,-2 1,-3 2,-6 3,-3 20,-8 35,-11 31,-21 45,-27 44,-15 -4,-53 -6,-56 44,-13 61,-45 35,-65 -8,-6 -20,-9 -26,-14 16,-13 44,-34 35,-63 -4,-11 -10,-13 -15,-19 20,-20 32,-49 15,-75 -14,-21 -34,-29 -64,-40 -4,-23 -21,-42 -41,-52 19,-23 30,-14 57,-31 11,-7 18,-10 24,-21 8,-16 2,-22 -4,-35 47,-4 122,-29 27,-65 -136,-50 -470,-75 -627,-52 -16,3 -77,11 -72,35 2,10 13,12 19,19z"/>
  <path fill="yellow" d="M97 221c-32,23 63,55 85,61 44,12 96,17 143,20 78,6 159,7 237,0 26,-3 45,-8 62,-10 3,0 1,0 4,0l2 1c16,55 -290,79 -326,83 -31,3 -64,2 -92,-10l-20 -14c21,45 163,28 216,25 67,-5 157,-13 213,-39 38,38 -153,95 -233,84 24,14 104,2 134,-4 42,-8 79,-19 108,-40 11,8 20,29 13,49 -6,17 -18,25 -34,33 -15,7 -33,12 -51,15 -28,3 -35,-2 -58,-3 18,19 122,11 150,-27 13,-17 12,-28 11,-51 25,1 49,25 46,53 -2,26 -26,45 -45,55 -21,11 -49,23 -75,26 -36,5 -54,-3 -85,-12l7 5c2,1 6,3 8,4 6,2 12,4 19,5 2,33 24,23 33,33 6,6 5,13 13,19 5,5 13,9 21,11 -3,18 2,27 15,32 -4,25 2,29 26,32 5,21 8,20 30,23 8,15 12,18 33,18 -2,3 -6,6 -11,7 -15,4 -26,4 -38,-5 2,8 10,8 14,14 -9,9 -30,2 -39,-4 -17,-13 13,-24 15,-25 -15,2 -19,8 -30,14 -18,9 -13,13 -14,25 -1,4 -7,10 -10,12 -4,3 -32,14 -14,31l6 5c-11,3 -19,7 -26,-3 -8,9 -21,7 -23,-4 -1,17 17,13 25,13 4,-1 4,0 10,1 12,1 13,-4 31,-9 3,-1 4,-2 4,-3 -21,10 -42,-14 -13,-21 8,5 19,12 32,3 -31,4 -29,-13 -18,-15 6,-1 32,18 39,0 -1,9 -35,6 -36,-18 5,-4 6,-6 13,-8 16,15 48,35 60,6 12,0 30,0 34,-13 5,-15 19,-5 15,-29 0,1 0,1 0,2 -1,4 -2,9 -5,12 -4,3 -9,4 -15,4 -11,1 -22,-3 -25,-10 3,-4 7,-4 11,-6 5,-2 8,-4 11,-6 -11,3 -17,5 -29,5 -8,-1 -23,-2 -24,-9 -1,-10 16,-9 24,-10 8,-2 19,-3 25,-7 -14,1 -89,11 -76,-15 5,-3 27,2 35,2 13,0 26,-1 38,-4 11,-2 23,-5 31,-9 10,-6 16,-10 15,-25 -7,12 2,16 -24,24 -13,4 -28,6 -43,6 -17,0 -77,-4 -66,-26 6,-5 19,-3 28,-4 20,-2 40,-9 57,-18 2,-1 4,-3 6,-4 4,-3 1,-1 3,-3 -6,0 -22,8 -32,11 -25,7 -88,10 -91,-19 33,0 135,-9 127,-61 -3,9 1,14 -7,22 -27,28 -146,39 -154,11l46 -2c14,-2 28,-6 41,-10 49,-16 103,-55 76,-112 -11,-25 -37,-37 -64,-37 -10,-14 -8,-5 -5,-22 2,-10 -2,-19 -7,-26 7,-11 18,-19 13,-41 7,-5 17,-9 23,-14 6,-6 7,-15 11,-25 13,-6 22,-10 30,-19 6,-7 4,-10 8,-16 2,-4 0,-2 6,-5 15,-8 23,-26 10,-40 -5,-6 -20,-13 -31,-16 -81,-25 -265,-29 -355,-31 -36,-1 -101,-8 -135,7 -10,4 -23,16 -13,27 0,-16 2,-19 14,-23 9,-4 22,-5 32,-6 57,-2 279,21 340,30 17,2 105,14 119,28 -45,28 -266,7 -335,-2l-103 -17c7,7 37,12 46,14 49,11 99,20 150,27 54,7 108,13 163,14 18,0 40,-2 56,-1 -80,49 -382,12 -492,-8 -25,-4 -93,-14 -81,-53 5,-13 13,-15 23,-22 -37,10 -37,51 9,70 56,22 273,49 338,53 69,5 99,3 166,-2 -3,4 -2,3 -7,5l-23 8c-82,24 -188,24 -272,24 -49,1 -111,-2 -157,-12 -23,-5 -132,-38 -96,-59zm616 281c-1,-4 -1,-4 -4,-8l4 8zm-3 69c5,-2 11,-9 14,-14 -4,5 -3,4 -7,7l-7 7zm37 25c-2,-5 -8,-11 -13,-14l13 14zm-41 51c6,-1 7,-2 9,-2l-9 2zm4 19c-2,4 2,0 2,0 3,-2 -1,-2 -2,0zm-622 -501c-6,-7 -17,-9 -19,-19 -5,-24 56,-32 72,-35 157,-23 491,2 627,52 95,36 20,61 -27,65 6,13 12,19 4,35 -6,11 -13,14 -24,21 -27,17 -38,8 -57,31 20,10 37,29 41,52 30,11 50,19 64,40 17,26 5,55 -15,75 5,6 11,8 15,19 9,29 -19,50 -35,63 6,5 18,8 26,14 26,20 9,52 -35,65 2,3 50,41 6,56 -14,6 -10,16 -45,27 -17,5 -18,2 -20,8 -1,1 -1,3 -1,3 -7,25 -41,23 -48,30 -4,3 -2,3 -8,6 -28,17 -100,12 -94,-13 12,-21 43,-2 53,-5l0 -5c-7,-19 5,-21 20,-33 -23,-31 13,-40 28,-51 -4,-5 -9,-10 -11,-18 -4,-15 2,-7 -11,-17 -12,-9 -15,-18 -11,-37 -14,-9 -34,-7 -40,-37 -2,-9 -2,-6 -13,-7 -15,-2 -33,-6 -47,-10 -81,-28 -56,-78 -56,-88 0,-1 0,-1 0,-1 -49,-10 -85,-15 -128,-40 -11,-7 -31,-6 -46,-9 -63,-10 -132,-42 -68,-102 -4,-3 -2,-2 -9,-4 -37,-9 -87,-23 -117,-44 -11,-8 -17,-11 -24,-21 -21,-34 23,-56 53,-66zm539 584c-2,0 8,-1 0,0zm-70 19c1,0 -1,-5 0,0 0,5 0,0 0,0zm92 -84l0 0zm10 16l-2 -7 2 7zm-157 -184c-1,0 -7,-7 -7,-7l-1 2 8 5zm-15 -54c3,5 7,8 13,10l-7 -5c-2,-2 -4,-3 -6,-5zm-101 -40c0,-1 0,-1 0,-1 -2,2 1,1 1,1 0,0 -1,0 -1,0zm-192 -91c-6,8 -7,14 -2,21 -3,-10 -4,-11 2,-21zm-39 -201l-16 4 16 -4zm101 28c5,3 11,5 18,5 -1,0 -1,0 -1,0l-17 -5zm-49 -5c2,7 8,14 14,17l-12 -15c0,0 -1,-1 -1,-1 0,-1 -1,-1 -1,-1zm-151 8c-35,12 -67,56 -18,97 30,26 72,36 116,51 -6,11 -13,22 -11,40 4,42 57,60 95,68 16,3 32,3 47,6 7,2 53,33 122,41 -9,96 114,96 120,105l5 10c7,11 20,22 32,25 0,13 4,23 10,31 9,11 12,6 17,26 -11,5 -24,17 -27,33 -2,14 4,14 -3,22 -11,12 -9,13 -13,18 -59,-6 -65,41 -25,59 20,10 35,7 58,5 35,-3 40,-15 51,-19 20,-6 34,-12 43,-25 15,-20 9,-3 44,-24 8,-5 13,-11 19,-15 11,-5 14,-5 21,-14 16,-21 4,-35 -4,-53 20,-6 53,-44 20,-78 -1,-1 -2,-3 -4,-4l-6 -6c15,-23 35,-38 13,-78 5,-13 18,-25 15,-55 -4,-41 -37,-58 -68,-71 -10,-5 -3,-4 -14,-22 -5,-7 -13,-12 -17,-19 7,-5 17,-7 25,-11 9,-4 16,-8 23,-13 14,-12 25,-23 23,-50 34,-5 84,-24 59,-63 -31,-49 -265,-76 -321,-82 -104,-11 -276,-18 -381,1 -22,4 -59,13 -68,34 -6,13 -1,19 2,30z"/>
 </g>
</svg>
