<?xml version="1.0" encoding="UTF-8"?>
<!DOCTYPE svg PUBLIC "-//W3C//DTD SVG 1.1//EN" "http://www.w3.org/Graphics/SVG/1.1/DTD/svg11.dtd">
<!-- Creator: CorelDRAW X8 -->
<svg xmlns="http://www.w3.org/2000/svg" xml:space="preserve" width="500px" height="500px" version="1.1" shape-rendering="geometricPrecision" text-rendering="geometricPrecision" image-rendering="optimizeQuality" fill-rule="evenodd" clip-rule="evenodd"
viewBox="0 0 500 500"
 xmlns:xlink="http://www.w3.org/1999/xlink">
 <g id="Layer_x0020_1">
  <metadata id="CorelCorpID_0Corel-Layer"/>
  <rect fill="black" stroke="black" stroke-width="2.36221" width="500" height="500"/>
  <path fill="#340201" d="M51 217c12,51 6,11 -3,23 -7,-8 -23,13 3,-23zm124 -140c11,5 14,2 18,7l-8 -13 36 -10c0,16 -20,23 -32,52 21,-3 14,-3 30,-19l88 -60c-5,21 -8,23 -18,37 66,-9 13,-5 28,9l-1 4 1 -4c7,-18 -2,-6 21,-14l0 1c0,-14 -3,-9 15,-10l10 -7c20,-19 22,-18 44,-32l-178 1c7,17 7,12 -9,6 -18,30 -23,19 -35,46l-19 -4c-5,11 0,12 -9,19l14 8c-33,-2 -13,-4 -20,10l-3 10 -23 0 -38 3c2,-13 5,-10 -9,-10 -5,18 -9,16 9,10 -20,19 -45,22 -54,59 -6,24 9,27 7,38 -1,0 -2,3 -2,4l-7 10c-1,-2 -4,4 -5,6 12,18 5,8 12,27 0,3 1,27 1,28 -7,31 13,1 -15,21 4,3 -15,26 20,5 -27,2 -16,2 -30,15l19 65c0,1 14,21 14,21 1,3 13,19 14,21 9,12 23,30 34,36 2,1 4,2 7,3 2,1 4,2 7,3l46 3 -3 -1 328 1 -1 -98 -11 6 -14 26 -25 36c-7,10 15,9 -19,8l-5 1 -9 1 -12 0c-9,5 -2,5 -23,6 -17,1 -17,11 -12,-7l-13 -33 -13 -2c-1,-2 -28,-1 8,-25l0 -10c-9,6 -3,1 -13,10 -1,1 -5,5 -7,8 -17,32 -44,32 -74,33l-30 0 -3 17 -19 7c4,15 10,7 -5,14l-25 2 -2 -25 -2 -4c-21,-38 10,0 -36,-15 -53,-17 -65,-69 -71,-123 19,-19 16,-72 54,-124l1 -4c10,-28 0,-9 15,-28 0,0 13,-9 14,-10l12 -5c7,-16 6,-11 17,-26 12,-16 6,-1 14,-24l14 2c4,-14 5,-9 -10,-8l0 -11z"/>
  <path fill="#F16F0D" d="M332 260c9,-12 2,-11 8,0l69 -62c2,-1 3,-3 4,-5l13 -14c1,-2 3,-4 3,-5l-39 20c-2,1 -4,3 -6,4l-15 12c-24,20 -15,5 -27,25 13,-21 16,-15 31,-30 36,-36 50,-88 100,-110l2 -74 -41 -3c-14,26 -11,18 -43,40 -28,19 -16,6 -37,33 -35,46 -37,-1 -72,78l-6 -24c-26,-4 1,-8 -29,12l9 26 11 5c39,-5 9,4 35,-27 17,-20 17,-13 29,-41 13,12 11,5 0,17 -18,21 -21,22 -20,42 3,-4 33,-43 45,-30l16 -6c1,-1 4,-3 5,-4l52 -25 -112 123c-6,39 6,19 15,23zm-54 -119c2,-1 5,-3 6,-4l15 -16c1,-2 2,-4 3,-5 31,-36 53,-10 61,-66l-10 7c0,16 3,10 -15,10l0 -1c-32,32 -44,27 -71,49 -24,19 -5,2 -20,22 3,-1 7,-6 8,-4 1,2 6,-3 7,-4 1,0 4,-3 5,-4 1,-1 2,-3 3,-5 7,10 6,2 8,21zm94 -17c21,-39 59,-70 95,-90l-89 85c-1,-2 -4,3 -6,5z"/>
  <path fill="#000001" d="M152 481l3 1 -46 -3c-3,-1 -5,-2 -7,-3 -3,-1 -5,-2 -7,-3 -11,-6 -25,-24 -34,-36 -1,-2 -13,-18 -14,-21 0,0 -14,-20 -14,-21l-19 -65c14,-13 3,-13 30,-15 -35,21 -16,-2 -20,-5l-3 -44 17 -5c-7,-19 0,-9 -12,-27 1,-2 4,-8 5,-6l7 -10c0,-1 1,-4 2,-4 2,-11 -13,-14 -7,-38 9,-37 34,-40 54,-59 -18,6 -14,8 -9,-10l13 -40c2,-2 4,-6 5,-6l32 -12 4 0 55 -26c-48,-5 -122,-15 -167,1l1 456 131 1z"/>
  <path fill="#CE310B" d="M331 401c-36,24 -9,23 -8,25 2,-2 4,-9 4,-6 1,2 4,0 5,1 1,1 3,4 4,7l13 33c-5,18 -5,8 12,7 21,-1 14,-1 23,-6l-35 -1 -1 -51c20,-20 11,-11 19,-30 -17,-8 -8,4 -19,-19 33,-12 24,-6 40,-33 -39,8 -25,5 -40,20 -11,31 -8,18 -32,41l-72 -3 -1 33 68 -10c2,-3 6,-7 7,-8 10,-9 4,-4 13,-10 12,-16 -5,-14 17,-12 17,2 6,5 13,13 -4,1 -29,9 -30,9zm12 -53c6,-18 1,-5 13,-22 10,-14 1,1 12,-13l10 -8 10 -7 8 -10c-9,-14 -15,3 -3,-14 19,-6 13,-8 13,14 14,-17 23,-26 45,-32 4,-12 -8,-5 13,-19 -14,-12 10,-14 -24,-2l-86 46c6,-21 34,-50 61,-61 6,-22 5,-17 18,-33 58,-75 29,-6 40,-92 -50,22 -64,74 -100,110 -15,15 -18,9 -31,30 12,-20 3,-5 27,-25l15 -12c2,-1 4,-3 6,-4l39 -20c0,1 -2,3 -3,5l-13 14c-1,2 -2,4 -4,5l-69 62 -8 0 -10 22 -7 27c8,5 -14,13 18,3 29,-10 36,-37 55,-14l-10 7 -10 8c-22,23 -13,8 -41,29l-41 4 2 6 -2 21 3 2 25 8c3,-4 16,-3 29,-35z"/>
  <path fill="#926B20" d="M184 241l-31 46c24,8 39,16 46,40l-6 23c31,-3 4,-2 20,8 52,8 -23,-3 26,15 18,-15 14,-15 35,-24 -5,-22 10,-19 -7,-19 9,-20 6,-19 21,-33 -23,-11 -4,8 -28,-42 -16,-35 -5,-19 -14,-12 -33,-22 -5,-6 -27,-5 -16,1 -15,3 -35,3z"/>
  <path fill="#710F10" d="M189 439l18 3 30 0c30,-1 57,-1 74,-33l-68 10c-77,-12 -78,11 -160,-22l-6 -146c13,-23 2,-12 20,-26l1 -34c-38,52 -35,105 -54,124 6,54 18,106 71,123 46,15 15,-23 36,15l2 4 -2 -4 1 -2 28 -29c3,2 7,2 8,6 0,2 4,4 4,4 0,1 -1,4 -3,7z"/>
  <path fill="#FAF12E" d="M267 188l-11 -5 -9 -26c30,-20 3,-16 29,-12l2 -4c-2,-19 -1,-11 -8,-21 -1,2 -2,4 -3,5 -1,1 -4,4 -5,4 -1,1 -6,6 -7,4 -1,-2 -5,3 -8,4l3 5c-2,2 -7,8 -8,10 -1,2 -2,5 -3,6 -5,13 -2,9 -2,21l19 4 11 5 0 11 8 0 57 -12c-25,34 -26,9 -30,60l-1 -19c-15,11 -9,-3 -10,26l17 3 -4 27 -7 -2 -9 15c-15,14 -12,13 -21,33 17,0 2,-3 7,19 -21,9 -17,9 -35,24l-2 8 -6 11 6 -11 52 -6 -3 -2c-26,-2 -20,-3 -12,-24l28 -14c1,0 4,-1 5,-1 0,0 3,-1 4,-1 1,0 3,-1 4,-1l-11 -48 18 -2 10 -22 8 0c-6,-11 1,-12 -8,0 -9,-4 -21,16 -15,-23l112 -123 -52 25c-1,1 -4,3 -5,4l-16 6c-12,-13 -42,26 -45,30 -1,-20 2,-21 20,-42 11,-12 13,-5 0,-17 -12,28 -12,21 -29,41 -26,31 4,22 -35,27zm21 164l-2 -6 2 6z"/>
  <path fill="#EF912F" d="M99 187l-1 4 -1 34c-18,14 -7,3 -20,26l6 146c82,33 83,10 160,22l1 -33 72 3c24,-23 21,-10 32,-41l-5 0c-13,32 -26,31 -29,35l-25 -8 -52 6 -6 11c-41,-3 -93,5 -126,-7l-5 -88 -1 -42c24,-9 -9,18 28,-16 1,-16 -4,-12 11,-11 7,-16 20,-36 32,-51 -31,18 -1,9 -57,52l-14 -42z"/>
  <path fill="#710F10" d="M316 84l1 -4c-15,-14 38,-18 -28,-9 10,-14 13,-16 18,-37l-88 60c-16,16 -9,16 -30,19 12,-29 32,-36 32,-52l-36 10 8 13c-4,-5 -7,-2 -18,-7l0 11c15,-1 14,-6 10,8l-14 -2c-8,23 -2,8 -14,24 -11,15 -10,10 -17,26l-12 5 12 -5 15 -8c-20,23 -33,18 -35,66 57,-60 14,-31 75,-75l29 -10c5,23 -4,0 3,20l38 -24c22,-11 28,-17 51,-29zm-168 30l3 -10 -3 10z"/>
  <path fill="#710F10" d="M331 391l0 10c1,0 26,-8 30,-9 -7,-8 4,-11 -13,-13 -22,-2 -5,-4 -17,12zm66 -33l1 -10 3 0 9 3 2 1 10 -8 -12 7 -2 -21 6 2c10,-17 11,-18 9,-23 17,10 22,5 3,9 -19,-7 -15,-12 -15,8l30 -6 -7 -22 6 -4c0,-1 6,-14 5,-15l-8 22c19,-6 22,-6 38,-14l1 -26c-30,12 -13,-12 -29,19l4 -24c-22,6 -31,15 -45,32l-10 0 -8 10 -10 7 -10 8c-11,14 -2,-1 -12,13 -12,17 -7,4 -13,22l5 0c15,-15 1,-12 40,-20 -16,27 -7,21 -40,33 11,23 2,11 19,19l12 -12c6,-14 -12,-13 18,-10z"/>
  <path fill="#AC9125" d="M288 297l9 -15c-5,-18 12,-8 -12,-5 0,0 -2,1 -3,0l9 -23c1,-29 -5,-15 10,-26 -9,-16 -2,-6 -13,-17 -5,-6 -7,-1 -9,-9 0,-2 -3,-2 -4,-3l-8 0 -25 4 -12 5 0 10c-13,6 -16,5 -25,9 -2,0 -5,1 -6,2l-15 12 -30 0c-15,9 -18,14 -37,22l-2 8 27 12 11 4 31 -46c20,0 19,-2 35,-3 22,-1 -6,-17 27,5 9,-7 -2,-23 14,12 24,50 5,31 28,42z"/>
  <path fill="#CE310B" d="M250 142l-3 -5c15,-20 -4,-3 20,-22 27,-22 39,-17 71,-49 -23,8 -14,-4 -21,14l-1 4c-23,12 -29,18 -51,29l-38 24c-7,-20 2,3 -3,-20l-29 10c-61,44 -18,15 -75,75 2,-48 15,-43 35,-66l-15 8 -12 5c-1,1 -14,10 -14,10 -15,19 -5,0 -15,28l14 42c56,-43 26,-34 57,-52l7 -14 5 -14c1,-2 2,-7 4,-10l3 35c7,-6 5,-14 15,-11l25 17c-1,-51 -10,-25 21,-38z"/>
  <path fill="#340201" d="M473 95c-11,86 18,17 -40,92 -13,16 -12,11 -18,33l3 20c12,-26 -12,-1 26,-25 18,-12 10,-7 27,-14 2,38 7,11 -7,36 -21,14 -9,7 -13,19l-4 24c16,-31 -1,-7 29,-19l-1 26 -5 47 -1 -4 4 12 0 16 -5 4 -5 20 16 3c1,-39 -5,-62 -2,-99 4,-36 4,-59 4,-95 1,-45 -11,-141 -6,-170l-2 74zm-19 298l-5 5 5 -5 10 0c-8,-15 -1,-16 -10,0zm-20 -95l3 3 8 -22c1,1 -5,14 -5,15l-6 4zm-20 34l-6 -2 6 2 -3 -6c0,-20 -4,-15 15,-8l-3 -9c2,5 1,6 -9,23zm-16 16l3 0 -3 0z"/>
  <path fill="#F6D26E" d="M152 379c1,-3 5,-6 12,-11 18,-16 10,-7 15,-17 -7,-24 -16,-24 7,-16 -30,-4 -33,-6 -44,-52l-27 -12 -4 24 5 69c37,18 13,5 36,15zm21 -10l-30 10c29,-2 25,5 30,-10z"/>
  <path fill="#F8F9F9" d="M111 295l-11 2 5 88c33,12 85,4 126,7l6 -11 2 -8c-49,-18 26,-7 -26,-15 -5,8 4,6 -13,12 -24,7 -3,4 -27,-1 -5,15 -1,8 -30,10l9 0c-23,-10 1,3 -36,-15l-5 -69 4 -24 2 -8c-1,3 -5,18 -6,32z"/>
  <path fill="#CE310B" d="M363 50c-8,56 -30,30 -61,66 -1,1 -2,3 -3,5l-15 16c-1,1 -4,3 -6,4l-2 4 6 24c35,-79 37,-32 72,-78 21,-27 9,-14 37,-33 32,-22 29,-14 43,-40l-27 0c-22,14 -24,13 -44,32zm-25 17c18,0 15,6 15,-10 -18,1 -15,-4 -15,10z"/>
  <path fill="#FAF12E" d="M412 352l-2 -1 -9 -3 -4 10c-7,12 -1,20 -30,22 -8,19 1,10 -19,30l19 -6 44 -24c1,1 2,4 2,5 7,20 5,27 -5,52 -2,17 3,5 -11,7l-1 18 9 -1 3 -24 17 -6 3 -18 7 -20c-10,-11 -9,-5 1,-16l8 -14c8,-19 -3,-2 9,-18 7,-11 6,-7 16,-15l1 4c-27,6 -45,20 -70,40l12 -22z"/>
  <path fill="#F16F0D" d="M274 349c-8,21 -14,22 12,24l2 -21 -2 -6 41 -4c28,-21 19,-6 41,-29l10 -8 10 -7c-19,-23 -26,4 -55,14 -32,10 -10,2 -18,-3l7 -27 -18 2 11 48c-1,0 -3,1 -4,1 -1,0 -4,1 -4,1 -1,0 -4,1 -5,1l-28 14zm132 -61c0,-22 6,-20 -13,-14 -12,17 -6,0 3,14l10 0z"/>
  <path fill="#F16F0D" d="M412 352l-12 22c25,-20 43,-34 70,-40l5 -47c-16,8 -19,8 -38,14l-3 -3 7 22 -30 6 3 6 -6 -2 2 21 12 -7 -10 8zm11 -43l3 9c19,-4 14,1 -3,-9zm-25 39l-1 10c-30,-3 -12,-4 -18,10l-12 12c29,-2 23,-10 30,-22l4 -10 -3 0z"/>
  <path fill="#FAF12E" d="M230 208c-12,8 -13,1 0,10l0 -10 12 -5c-5,-8 -7,-13 -12,-21l-48 5 -5 -24 -7 14c-12,15 -25,35 -32,51 -15,-1 -10,-5 -11,11 16,0 13,4 11,-11 21,4 14,-8 12,16l7 -10 25 -30c11,4 18,3 27,3l21 1z"/>
  <path fill="#710F10" d="M415 220c-27,11 -55,40 -61,61l86 -46c34,-12 10,-10 24,2 14,-25 9,2 7,-36 -17,7 -9,2 -27,14 -38,24 -14,-1 -26,25l-3 -20z"/>
  <path fill="#926B20" d="M367 404l-2 11c10,8 13,12 21,29l-14 9 14 -9 11 0c14,-2 9,10 11,-7 10,-25 12,-32 5,-52 0,-1 -1,-4 -2,-5l-44 24z"/>
  <path fill="#F9F2B0" d="M186 335c-23,-8 -14,-8 -7,16 16,0 11,3 7,-16 10,-5 7,1 13,-8 -7,-24 -22,-32 -46,-40l-11 -4c11,46 14,48 44,52z"/>
  <path fill="#902D0C" d="M429 452l-19 8c34,1 12,2 19,-8l25 -36c-14,-8 -16,8 -5,-18l5 -5c9,-16 2,-15 10,0l4 -3 11 -6 0 1 -16 -3 5 -20 5 -4 0 -16 -29 21 -8 14c25,27 9,9 -1,16l-7 20c6,6 13,3 4,15 4,14 3,7 -11,11l8 13z"/>
  <path fill="#F16F0D" d="M167 59l48 -30c1,-1 3,-3 5,-4 16,6 16,11 9,-6l-42 4 -55 26 3 15c37,-8 17,-13 55,-26l-23 21z"/>
  <path fill="#CE310B" d="M166 67l19 4c12,-27 17,-16 35,-46 -2,1 -4,3 -5,4l-48 30 -1 8c-39,17 -12,11 -39,37l-2 10 23 0 3 -10c7,-14 -13,-12 20,-10l-14 -8c9,-7 4,-8 9,-19zm9 10l0 11 0 -11z"/>
  <path fill="#F0B04C" d="M157 234l-3 7 30 0 15 -12c1,-1 4,-2 6,-2 9,-4 12,-3 25,-9 -13,-9 -12,-2 0,-10l-21 -1c-9,0 -16,1 -27,-3l-25 30z"/>
  <path fill="#EF912F" d="M177 163l5 24 48 -5 7 -3c0,-12 -3,-8 2,-21 1,-1 2,-4 3,-6 1,-2 6,-8 8,-10 -31,13 -22,-13 -21,38l-25 -17c-10,-3 -8,5 -15,11l-3 -35c-2,3 -3,8 -4,10l-5 14z"/>
  <path fill="#926B20" d="M91 67l19 1c-10,16 -4,5 -9,27l26 9 9 -12 -1 -28 -25 4c1,-1 3,-4 3,-3 1,1 4,-4 5,-5l10 -11 -32 12c-1,0 -3,4 -5,6z"/>
  <path fill="#F6D26E" d="M78 107c14,0 11,-3 9,10l38 -3 2 -10 -26 -9c5,-22 -1,-11 9,-27l-19 -1 -13 40z"/>
  <path fill="#F9F2B0" d="M348 410l1 51 35 1 12 0 1 -18 -11 0 -14 9c-16,-9 -9,0 -12,-19 -6,-44 -1,-5 5,-19l2 -11 -19 6z"/>
  <path fill="#F9F2B0" d="M138 228c2,15 5,11 -11,11 -37,34 -4,7 -28,16l1 42 11 -2c1,-14 5,-29 6,-32 19,-8 22,-13 37,-22l3 -7 -7 10c2,-24 9,-12 -12,-16z"/>
  <path fill="#F4D012" d="M135 64l-3 -15 -4 0 -10 11c-1,1 -4,6 -5,5 0,-1 -2,2 -3,3l25 -4 1 28 -9 12c27,-26 0,-20 39,-37l1 -8 23 -21c-38,13 -18,18 -55,26z"/>
  <path fill="#EF912F" d="M186 335c4,19 9,16 -7,16 -5,10 3,1 -15,17 -7,5 -11,8 -12,11l-9 0 30 -10c24,5 3,8 27,1 17,-6 8,-4 13,-12 -16,-10 11,-11 -20,-8l6 -23c-6,9 -3,3 -13,8z"/>
  <path fill="#F9F2B0" d="M275 199c1,1 4,1 4,3 2,8 4,3 9,9 11,11 4,1 13,17l1 19c4,-51 5,-26 30,-60l-57 12z"/>
  <path fill="#FAF12E" d="M372 124c2,-2 5,-7 6,-5l89 -85c-36,20 -74,51 -95,90z"/>
  <path fill="#FAF12E" d="M152 451l-1 2 2 4c19,9 16,9 27,23 15,-7 9,1 5,-14l4 -27c-3,0 -17,4 -19,5 -3,0 -15,6 -18,7z"/>
  <path fill="#CE310B" d="M152 451c3,-1 15,-7 18,-7 2,-1 16,-5 19,-5l-4 27 19 -7 3 -17 -18 -3c2,-3 3,-6 3,-7 0,0 -4,-2 -4,-4 -1,-4 -5,-4 -8,-6l-28 29z"/>
  <path fill="#A89A5A" d="M372 453l14 -9c-8,-17 -11,-21 -21,-29 -6,14 -11,-25 -5,19 3,19 -4,10 12,19z"/>
  <path fill="#F16F0D" d="M24 310c28,-20 8,10 15,-21 0,-1 -1,-25 -1,-28l-17 5 3 44z"/>
  <path fill="#F16F0D" d="M428 413l-3 18 -17 6 -3 24 5 -1 19 -8 -8 -13c14,-4 15,3 11,-11 9,-12 2,-9 -4,-15z"/>
  <path fill="#F9F2B0" d="M242 203l25 -4 0 -11 -11 -5 -19 -4 -7 3c5,8 7,13 12,21z"/>
  <path fill="#F16F0D" d="M473 342l-4 -12c-10,8 -9,4 -16,15 -12,16 -1,-1 -9,18l29 -21zm-5 20l5 -4 -5 4zm-33 31c10,-7 26,11 1,-16 -10,11 -11,5 -1,16z"/>
  <path fill="#F4D012" d="M297 282l7 2 4 -27 -17 -3 -9 23c1,1 3,0 3,0 24,-3 7,-13 12,5z"/>
  <path fill="#CE310B" d="M155 482l25 -2c-11,-14 -8,-14 -27,-23l2 25z"/>
  <path fill="#F16F0D" d="M449 398c-11,26 -9,10 5,18l14 -26 -4 3 -10 0 -5 5z"/>
  <path fill="#CE310B" d="M48 240c9,-12 15,28 3,-23 -26,36 -10,15 -3,23z"/>
  <path fill="#F4D012" d="M336 428c-1,-3 -3,-6 -4,-7 -1,-1 -4,1 -5,-1 0,-3 -2,4 -4,6l13 2z"/>
 </g>
</svg>
