<?xml version="1.0" encoding="UTF-8"?>
<!DOCTYPE svg PUBLIC "-//W3C//DTD SVG 1.1//EN" "http://www.w3.org/Graphics/SVG/1.1/DTD/svg11.dtd">
<!-- Creator: CorelDRAW X8 -->
<svg xmlns="http://www.w3.org/2000/svg" xml:space="preserve" width="8.4666mm" height="8.4666mm" version="1.1" shape-rendering="geometricPrecision" text-rendering="geometricPrecision" image-rendering="optimizeQuality" fill-rule="evenodd" clip-rule="evenodd"
viewBox="0 0 847 847"
 xmlns:xlink="http://www.w3.org/1999/xlink">
 <g id="Layer_x0020_1">
  <metadata id="CorelCorpID_0Corel-Layer"/>
  <path fill="yellow" d="M595 434c2,1 1,1 0,2 -2,2 -2,4 -2,6 -1,4 0,3 -3,6 1,1 1,0 -1,1l-4 3c1,1 1,1 0,2 -3,4 -3,8 -3,13 1,4 4,10 4,14 0,2 0,5 -1,7 -6,11 -14,7 -18,1 -3,0 -2,1 -5,-3 -1,1 0,1 -1,-1 -1,1 0,1 -1,0 -1,1 -1,1 -1,0 -1,1 -1,1 -1,0 -1,1 -1,1 -2,0 0,0 0,0 -1,-1 -1,1 0,1 -1,0 -1,1 0,1 -1,0 -1,1 -1,1 -1,0 -1,1 -1,1 -1,0 -2,1 -3,2 -4,4 -1,1 -1,1 -2,2 -3,1 -2,1 -6,1 -2,1 -3,1 -5,1 -2,0 -3,1 -5,1 -4,2 -6,3 -10,2l-1 -1 -1 -1 -2 0 -5 1c-4,1 -2,0 -6,1 0,3 1,-1 -1,1 -1,1 -1,1 -2,2 -1,1 -1,0 -4,2 0,2 -3,6 -5,3l-4 -2c-4,-3 -5,-2 -10,1 0,4 1,6 -1,10 -2,3 -4,6 -6,9 -7,-2 -3,-3 -15,-5l-2 0c0,0 -1,0 -1,0 -2,0 -1,0 -2,0l0 0 -6 1c0,0 -1,0 -1,0 -1,0 0,0 -2,0 -2,1 -8,2 -11,2 -2,-3 -2,-2 -1,-4 0,0 1,0 1,0 4,-7 0,-8 -3,-13 -3,0 -1,0 -3,-2 -2,-1 -2,-1 -3,-3l-9 6c0,2 2,-1 -1,3 -4,3 -9,3 -13,-3 -1,-3 -1,-6 -2,-8 -2,-4 -3,-4 -4,-7 -1,-2 -1,-1 -1,-2l-1 -1 -1 -1 0 -1c-3,-4 -3,-2 -6,-4 -1,1 -1,1 -2,0 -1,0 0,0 -1,-1 -1,1 -1,1 -2,-1l0 1 -1 -2c-1,2 0,2 -1,0l0 0c-2,1 -1,1 -2,-1 -2,0 -2,0 -3,-1 -2,0 0,1 -3,-2l-1 -2 0 0c0,-3 0,-1 0,-3 0,-1 0,0 1,-2 -1,-1 0,0 0,-1 -1,-1 -1,0 1,-2 -1,-2 1,-3 -3,-8 -4,-4 -4,-1 -8,-3 -2,0 -1,0 -3,-1l-2 -1 -1 0 4 2c1,0 2,1 3,1 0,0 0,0 0,0 0,0 1,0 1,0 0,0 0,0 0,0 8,1 11,8 6,15l-1 1 1 1c0,1 1,2 2,4 2,3 0,0 2,2 2,1 4,2 6,3 1,0 0,0 2,0l1 1 0 0 1 0 0 0c3,1 4,2 6,4 -4,1 -5,0 -11,2l-2 2c-2,2 -4,3 -7,4 -2,1 -5,2 -7,2l-1 0 -1 0c-2,1 0,1 -2,1 -1,0 -1,0 -2,0 -4,1 -7,1 -11,-3 -1,1 1,2 -1,-1 -1,2 -1,1 -2,0 -4,-2 -6,-7 -11,-9l-3 -1c-5,3 -8,1 -12,-2 -2,-3 -8,-6 -9,-8 -2,0 -1,1 -2,-1 -1,1 0,1 -1,0 -2,0 -9,-2 -11,-3 -14,-2 -15,5 -22,9 -9,6 -9,4 -12,6l0 1 3 -2 -1 3c0,0 0,0 0,0 -2,3 -3,5 -3,8 -1,4 0,8 0,12 2,9 -7,12 -14,20 -1,-1 -1,-1 -1,-1l-4 -2c-5,-1 -6,2 -12,2l-7 -1c-10,-2 -27,13 -30,19 -1,2 -1,2 -1,4 -3,18 -6,2 -21,19 6,-5 7,-7 15,-9 7,-1 6,-8 7,-11 1,-8 19,-21 26,-20 -2,6 -3,2 -2,8 1,9 2,4 2,9l-1 0c2,-2 1,-1 0,-5 -3,-8 -1,-7 2,-12l5 -1 6 1c7,0 5,-3 12,-1 3,1 0,2 4,1 4,-1 -3,1 2,-1 1,0 2,-1 2,-1 15,-11 12,-15 11,-24 0,-17 8,-15 21,-27 5,-4 20,-1 23,2 -4,2 -7,3 -8,8 0,0 -1,1 -1,2l0 2 -1 0 0 1 0 4c3,7 3,9 -4,14 -6,5 -3,7 -4,13l1 1c1,-8 -3,-8 5,-15 3,-2 4,-4 4,-7 0,-1 0,-2 -1,-3 0,-2 -1,-2 0,-3l1 -4c-1,-1 -1,0 -1,-1l1 -1c-1,-1 -1,-1 1,-2 -2,-1 -1,0 0,-1 0,-2 0,-1 1,-3l0 0c0,-1 -2,1 1,-2l1 0c5,-3 7,-3 11,0 2,2 3,3 5,5 1,1 3,2 5,3 0,0 0,0 0,0l3 1c1,0 0,0 2,-1 9,-1 7,1 16,11 3,0 0,-1 3,1 0,0 0,0 0,0 0,1 1,1 1,1 5,2 11,3 13,2 0,0 0,0 1,0 3,-1 6,-1 10,-2 -2,1 -2,2 -2,3 -1,1 -2,2 -2,3l-1 1 1 1 -2 1 1 1 1 -1c0,-1 -2,1 0,-1l1 -2 0 0c1,-2 1,-2 2,-3l2 -2c0,0 -1,1 0,-1 1,0 1,-1 2,-1 3,-3 9,-7 12,-6l2 0c1,-2 0,-2 1,0 1,-1 0,-1 1,0l1 1c2,-1 1,-1 3,1 0,2 2,5 2,6 0,1 1,3 1,4 1,2 1,1 1,3l5 7c3,2 5,1 7,3l2 0c2,-1 1,-1 2,0 3,-3 4,-3 6,-6 4,-5 8,-4 11,0 2,3 0,4 -3,6 1,1 1,0 0,1 1,1 1,1 0,1 0,1 1,1 1,2 1,2 2,0 0,2 2,1 2,0 0,1l2 2 3 1 -2 2 -4 4c1,8 2,6 -2,15 -8,1 -20,2 -21,13 0,3 6,4 2,9 -2,2 -8,6 -11,5l-1 0c-1,0 -4,0 -6,0l-1 -1 -1 0c0,0 0,0 0,0 0,0 -1,0 -1,0l-3 -2 0 0 5 3 1 0 0 1c2,-1 3,-1 5,0l1 -1c7,2 6,-1 12,-4 -1,5 1,3 1,8 -2,3 -4,2 -6,4 -4,3 0,2 -3,5 -4,1 -7,-1 -12,0 -3,4 -1,3 -3,6 -2,4 -1,1 -4,3l-3 1 0 0c-7,-1 -14,1 -21,6 2,3 0,4 -1,6 1,1 1,1 0,1 1,4 3,4 2,7 -1,2 -3,3 -4,4l-1 1 -3 2c-2,3 -5,8 -6,11 -2,6 -1,7 -7,11 -1,1 -2,1 -3,1l-1 -2c-12,-10 -15,-6 -22,-2 -13,8 2,13 -9,21l-1 0 -1 -1c-3,-1 -5,1 -8,1 -5,1 -4,-2 -8,-4 -4,-3 -2,1 -8,-2 -5,-2 -4,-7 -8,-6l-7 3 1 1 8 -4c3,4 2,5 6,7 6,3 3,-2 8,2 4,2 3,5 8,4 4,-1 4,-3 8,-1 1,1 1,0 2,0l3 -1c5,-7 0,-8 1,-14 2,-4 9,-6 14,-9 4,2 8,2 13,7 1,-1 0,-1 1,1l1 0c1,-1 0,-1 1,0 4,-2 6,-3 8,-7 4,-7 -2,-2 6,-14 0,0 0,0 0,0 1,-1 0,-1 2,-2 0,-1 7,-7 8,-7l0 -5c-2,-2 -3,-3 -2,-5 1,-1 0,0 1,-2 1,-2 -1,1 1,-2 2,-1 3,-4 6,-3 3,-2 7,-2 10,-2 3,0 5,-1 8,-3 4,-1 1,-3 6,-8 5,1 2,0 7,1 6,2 6,-4 7,-5 3,-2 4,-2 7,-5 0,-4 -2,-6 0,-9l0 -1 1 -1 0 -1c-1,-1 -1,-1 1,-1 -1,-1 -1,-1 0,-2 -5,-5 -7,-6 0,-11 3,-2 3,-2 6,-3l5 0 0 0 3 0 2 -2c1,-3 3,-4 4,-7 1,-4 -1,-5 -1,-9 2,-3 7,-3 9,-4l5 -3 1 0c4,-2 4,-1 8,-1l8 -1c2,0 8,5 10,6 4,1 10,0 14,-4 4,-4 1,-8 2,-12l0 -1c-1,-1 -2,-1 0,-2 -1,-2 -1,-1 0,-3l2 3c3,0 3,2 7,3 2,-1 6,-3 6,-5 4,-4 6,-5 10,-5l5 -3c2,0 0,0 2,1 4,2 -3,-2 1,0l2 2c-1,3 -2,6 0,9 1,3 2,8 2,9 -1,2 -12,7 -16,6 -9,7 -5,4 -9,11 -1,1 -3,2 -5,3 -3,1 -3,0 -5,-1 -2,0 -1,-1 -3,0 -1,1 -1,1 -2,1 -4,3 -6,2 -9,4 -3,3 -1,3 -2,6 2,4 1,1 0,5 -1,6 0,5 -7,8 0,0 -2,1 -1,0 0,0 -1,0 -1,0l-3 0c-8,-2 -13,6 -9,10 5,3 -1,5 -5,8 1,6 5,5 6,17 -4,3 -3,3 -6,3l1 0c-2,1 -2,1 -3,0l1 0c-9,4 -3,5 -8,9 -3,3 -1,1 -4,9 0,2 2,0 -1,3 -4,3 -7,2 -11,2l-2 0 -6 -5 -5 -1c-8,4 -5,2 -10,9 -1,1 -3,3 -5,4 -3,2 -1,2 -4,1l-1 1 -1 -1 0 0 1 1c3,1 0,2 4,-1l5 -3c0,1 0,2 0,3l0 3c1,2 1,1 0,2 0,2 1,0 -1,2l0 0c0,1 0,1 -1,2l-1 0c0,2 1,0 0,2 -1,2 -1,2 -2,3l0 0c0,0 0,1 0,1l0 1c0,0 -1,1 -1,1l0 0c1,1 1,0 -1,2l0 0 -4 0 0 1 1 0c3,0 2,0 4,-1l7 -14c1,-5 -5,-10 10,-18 3,0 3,0 5,2 3,0 3,1 5,3 0,0 1,1 1,1 2,0 0,1 2,0 0,0 0,0 0,0 3,0 9,2 12,-3 1,-1 -1,1 1,-2 2,-9 6,-9 7,-10 -2,-13 19,-2 10,-23 -1,-1 -3,-2 -3,-4 0,0 0,-2 0,-2 3,-3 1,-1 2,-1 8,-4 4,-6 1,-11 3,-5 5,-5 9,-3l1 0c1,-1 1,-1 1,0 1,0 1,-1 1,1 5,-4 8,-3 10,-6 2,-3 0,-6 2,-9 -1,-2 -1,-1 0,-2 -1,-1 0,0 0,-2 0,0 0,0 0,0 0,-1 0,-1 0,-1l2 -1c2,-1 2,-1 3,-1 2,-1 0,0 3,-1 3,-2 1,-2 4,-2 3,0 6,1 9,1 -3,6 1,6 -1,11 1,1 1,1 0,1 1,1 1,1 0,2 2,3 1,1 2,4 0,2 1,2 1,4 -4,3 -7,3 -11,7 -3,3 -4,7 -8,9 -2,2 -1,2 -2,4 -3,6 5,11 9,19 -2,5 -6,4 -7,9 -1,4 -1,7 -5,10 -10,-3 -3,-4 -17,-5 -12,-1 -7,0 -16,7 0,0 0,0 0,0 0,1 0,1 0,1 0,0 0,1 0,1l-2 4 -8 7c-3,0 0,-2 -4,-1 -2,0 -4,1 -6,3 0,2 -1,2 -3,4 -12,7 -8,1 -12,9l1 5c2,4 3,8 3,11l-2 1c-2,0 0,0 -1,0 -4,3 -4,1 -9,5l-1 2c-1,4 -1,6 -2,8 -5,6 -6,3 -10,2l-3 -3c-4,-3 0,-3 -4,-7 -1,1 -1,1 -2,1l-5 0 -3 1c-5,-1 -6,0 -6,0 0,0 -1,0 -1,0 -1,1 -6,3 -6,3 -1,1 -2,2 -3,3 -1,2 -1,0 -1,3 3,8 -2,12 0,12 0,0 0,0 0,0 -6,5 -4,4 -9,-1 -3,0 -6,1 -6,-2 -2,2 -1,0 -1,2 2,2 1,1 3,3 4,-3 4,-1 8,3 3,-3 2,-1 7,-4 0,-11 2,-5 1,-10 -1,-5 -3,-5 4,-9 4,-2 4,-3 7,-1 2,0 4,-1 6,-1l0 0 1 0 5 0 9 9c2,1 0,0 2,2 -2,0 -1,0 -2,0 -4,1 1,1 -2,0 -7,3 -9,0 -9,8l0 2c-1,2 0,0 -1,2l2 5c1,2 1,5 0,7 -2,-1 -4,-1 -7,-1 -2,1 -1,1 -2,1l-2 -1 -1 1c-4,1 -3,0 -5,4 0,0 0,2 0,2 4,-4 3,-7 14,-4l4 0c1,-2 0,0 1,-2 0,0 0,-1 0,-1l0 -5c0,-1 1,0 0,-2 -1,-1 -1,0 0,-1l0 -2c-2,0 -2,-1 -3,-3 0,-2 0,-2 1,-3 2,-3 0,-1 2,-4 3,0 1,-1 3,0 2,-1 1,-1 2,0 2,-3 1,-2 2,0 1,-1 0,-1 1,0 6,-4 12,-7 13,-13l0 -5c6,-2 6,-4 11,-4 -2,3 -5,6 -8,7l0 3c-1,3 0,4 1,8 1,4 3,7 2,11 0,1 0,0 0,2l-2 8c-11,0 -6,-1 -11,5 1,0 1,0 0,1 1,2 2,5 2,7 4,6 4,5 0,10 -2,3 -3,6 -1,9 1,5 2,2 3,9l0 1c0,3 2,0 -1,3 0,0 -3,0 -3,0 -11,-1 -16,4 -17,16 -4,3 -6,2 -11,6l-6 -1c-2,2 -2,3 -4,4 -3,-1 -3,-2 -7,1 -3,3 -3,4 -4,7 -3,4 -5,14 -12,12l-3 -2 -2 2c-4,-5 -4,-4 -10,-4 -6,0 -4,0 -10,4 -7,6 -12,-5 -19,-9 -3,2 -10,5 -12,6 -1,2 -3,3 -6,4 -3,1 -4,0 -6,0l-4 0c0,1 1,0 1,0l1 1 1 0c2,1 3,2 5,2 2,-1 1,-1 3,-2 3,-1 0,-1 3,0l3 -3 1 -1 1 -1 1 -1 2 0 0 0 4 -1c6,-5 7,8 16,8 8,1 4,-5 15,-5 2,0 2,0 4,-1 2,2 3,4 5,5 12,4 13,-2 17,-5 0,-2 -1,0 0,-1 1,-1 1,-1 1,-2 0,0 2,-2 2,-2 1,-2 2,-2 3,-4 3,-8 -1,-3 7,-4 4,-1 2,-1 4,-4 8,2 5,0 13,-3 1,-1 4,-2 6,-4 3,-3 -1,-2 3,-5l0 -1c-1,-10 7,-7 10,-8l2 0c1,0 2,0 3,0 7,-3 4,-7 4,-12 -7,-10 -1,-12 1,-16 2,-6 -2,-6 -3,-12l0 -1c0,0 0,-1 0,-1 0,-7 7,2 11,-7 1,-3 -1,-1 2,-3l0 -1c0,0 0,-1 0,-1 -1,-12 3,-6 1,-13 -1,-3 -4,-7 -5,-9 2,-5 0,-2 3,-4 3,-2 4,-3 5,-5 2,-2 2,-7 2,-10 -1,-3 -4,-8 -5,-11l-1 -2c4,-1 2,0 3,0 4,-1 6,-1 10,-5 0,0 2,-3 2,-4 3,0 4,1 6,0 2,0 5,-2 6,-3 1,-2 0,-1 3,-3 0,0 1,-1 2,-1 4,-4 3,-6 5,-10 0,-1 -2,0 2,-2 4,-1 0,0 2,0 1,0 0,-1 2,1 1,-1 0,-1 1,0 4,-2 1,-1 5,0 5,0 3,-2 7,2 7,6 11,1 17,-6l0 -1c0,-3 0,-4 2,-6l7 -5c-1,-2 -1,0 -1,-2l1 -2c1,-7 -4,-8 -10,-18l6 -4c-1,-3 -1,0 0,-3 0,0 2,-2 2,-2 1,-2 3,-3 5,-5 2,0 1,0 4,-2 10,-6 3,-10 3,-15 -1,-3 1,-3 0,-6 -1,-6 1,-1 1,-7 0,-2 0,-1 0,-3 3,-10 14,-5 23,-13 1,-1 3,-3 4,-4l1 -4c-1,-3 -1,-3 -1,-6 0,-3 -3,-9 4,-11 4,-1 5,-1 7,-1 3,-1 1,0 5,-1 2,0 2,0 5,-3 4,-3 6,-4 9,0 2,2 1,1 2,2 2,1 -1,-1 2,0 2,1 2,1 4,3 1,1 3,2 5,2 6,3 14,-3 18,-8 4,-4 4,-7 5,-11 1,-4 1,-8 0,-12 3,1 5,4 6,6l0 4c1,2 0,3 0,5 -6,7 -10,9 -2,18 6,7 9,14 10,22 0,12 0,13 -8,15 -4,1 -6,5 -11,7 -2,1 -2,1 -3,1 0,0 -4,0 -5,0 -4,-5 -6,-9 -12,-8 -7,0 -1,1 -10,0 -2,0 0,0 -3,1 -13,3 -3,9 -15,11 -7,1 0,1 -8,1 -1,0 -15,11 -17,14 0,1 1,2 1,3 0,2 -1,2 0,4 1,5 6,2 4,9l2 1c0,3 0,2 0,4l-1 0c1,1 1,1 0,3 13,9 2,9 -4,17 -4,5 -1,4 -2,13 0,5 0,7 -9,6l-3 2 -3 0c-3,0 -5,-2 -8,-2 -2,0 -3,0 -4,2 -1,3 0,2 1,3l0 2 -1 0 0 0 1 1 -1 -1 1 0 0 -2c0,0 0,-2 0,-3 0,0 0,0 1,0l6 0c1,0 1,0 1,1l3 0c1,0 0,0 2,0 1,0 0,0 1,0 7,-5 7,0 10,-2 8,-3 1,-14 5,-20 4,-3 7,-3 10,-8 2,-5 -1,-6 -5,-10 1,-2 1,-3 1,-6 -1,-2 -1,0 -1,-2 0,0 0,-1 0,-2 0,0 0,0 0,0l0 -1 -1 -1 -4 -4c0,-5 0,-2 -1,-7 3,-2 6,-4 8,-6 3,-3 3,-4 7,-6 3,0 3,1 6,0l6 -1c5,-2 3,-8 11,-11 3,-1 2,-1 5,0 9,1 9,-5 18,6 0,0 0,0 0,0l1 1c1,0 1,0 1,0l3 0c3,0 4,2 8,-1 5,-2 4,-1 7,-5 1,-1 1,-1 3,-1 3,0 5,-2 8,-6 2,-2 1,-3 1,-6 -1,-23 -3,-18 -13,-33 -2,-8 7,-8 8,-14 0,-1 0,-6 -1,-8 -1,-3 -1,-5 -3,-8 -1,1 -1,2 -1,0 -4,0 -8,-6 -5,-10 0,-2 -1,-1 0,-3 0,-1 0,-1 1,-2 0,-3 -1,-1 1,-3l2 -3 1 -2c-1,-1 -1,0 0,-1 -1,-1 -1,0 1,-1 -1,-2 -1,1 0,-2 1,-2 4,-4 7,-3 4,1 1,2 7,4 2,-2 2,-2 0,-6 -3,-9 -5,-11 -12,-13 -4,3 -5,6 -10,9zm-341 367l0 -1 1 2 1 -1 -2 0z"/>
  <path fill="yellow" d="M128 446c-2,2 -1,1 1,2 4,2 5,5 6,8 3,4 1,4 7,6 -1,2 -1,2 2,2l7 2c-1,2 -1,1 1,2 5,5 8,9 10,16 1,6 0,16 2,21 0,3 3,7 5,9 13,12 22,3 25,-7 4,-1 3,0 4,-7 2,1 1,1 2,-1 2,1 1,1 1,-1 2,1 1,1 2,-1 1,1 1,1 1,-1 2,1 1,2 2,0 1,0 1,1 1,-1 2,1 1,1 2,-1 1,1 1,1 1,-1 2,1 1,2 2,0 1,1 1,1 1,-1 3,1 5,1 7,3 2,1 2,2 3,3 5,-1 4,0 9,-2 4,0 5,0 8,-1 2,-1 5,-1 7,-1 6,0 10,1 14,-3l1 -2 1 -2 2 0 9 -1c5,-1 2,-2 8,-3 2,4 -1,0 2,2 1,1 2,1 3,1 3,1 2,0 6,2 2,1 9,6 9,1l4 -5c4,-6 7,-5 15,-3 2,5 1,8 6,12 5,4 8,8 12,10 10,-6 3,-6 18,-14l3 -2c0,0 1,0 2,0 1,-1 0,-1 2,-1l1 1 8 -2c0,0 1,0 1,-1 1,0 1,0 2,-1 5,1 12,-1 17,-2 0,-6 1,-4 -1,-6 0,0 -1,0 -1,0 -8,-7 -4,-10 -3,-19 4,-2 1,0 4,-4 2,-3 2,-3 3,-6l14 5c1,2 -3,-1 3,2 7,3 14,0 16,-10 1,-5 -1,-8 -1,-13 0,-5 2,-6 3,-10 0,-3 0,-2 -1,-4l1 -1 1 -3 0 0c3,-7 3,-4 6,-9 2,1 1,1 2,-1 2,-1 0,0 1,-2 2,1 1,1 2,-2l1 1 0 -2c3,1 2,1 3,-1l-1 -1c3,1 2,2 3,-1 2,-1 2,-2 3,-4 2,-1 1,2 3,-4l0 -3 0 0c-1,-4 0,-1 -1,-4 -2,-2 0,0 -3,-2 2,-2 1,-1 -1,-1 1,-3 1,-2 -1,-3 0,-3 -4,-3 0,-12 3,-7 5,-4 8,-8 3,-1 2,-1 4,-3l3 -2 1 0 -4 4c-2,1 -2,1 -4,2 0,0 0,0 0,1 -1,0 -1,0 -1,0 0,0 -1,0 -1,0 -9,5 -10,16 0,24l2 1 -1 1c0,2 0,3 -1,6 -1,5 0,1 -2,4 -2,3 -4,5 -6,7 -1,1 -1,0 -3,1l0 2 0 0 -2 1 -1 0c-2,2 -3,5 -5,8 6,-1 6,-3 16,-3l3 1c4,3 7,3 12,3 2,0 8,0 10,-1l2 0 1 0c3,0 0,0 3,0 2,-1 1,-1 3,-2 6,0 10,-2 13,-8 2,0 1,3 2,-2 2,1 1,1 2,-2 4,-4 4,-12 10,-17l4 -3c8,1 11,-2 15,-9 2,-5 8,-12 9,-15 2,0 2,0 2,-2 1,1 1,1 2,-1 2,-1 10,-7 13,-9 17,-11 23,-2 35,1 14,4 13,1 18,2l0 1 -5 0 3 3c0,0 1,0 1,0 3,3 6,5 8,10 2,4 3,10 5,15 3,14 16,13 29,20 1,0 1,0 1,-1l4 -4c7,-5 9,-1 18,-4l8 -4c14,-8 44,4 51,10 2,2 2,3 3,5 12,23 9,0 38,16 -11,-4 -12,-7 -24,-5 -11,2 -14,-8 -16,-12 -5,-10 -36,-19 -44,-14 4,7 5,1 7,10 2,12 -1,7 1,13l0 0c-2,-3 -1,-1 -1,-7 -1,-12 -3,-10 -9,-16l-7 2 -8 4c-9,3 -8,-1 -17,5 -3,3 1,2 -5,2 -7,1 5,1 -3,0 -2,0 -3,0 -4,0 -25,-8 -22,-15 -27,-27 -8,-24 -18,-17 -41,-27 -9,-2 -27,10 -30,14 6,1 11,1 15,7 1,1 1,2 2,3l1 2 2 1 0 0 3 6c-1,11 0,13 11,17 10,4 7,8 12,16l0 1c-6,-9 -1,-13 -15,-17 -5,-2 -8,-4 -9,-7 0,-2 0,-4 0,-6 -1,-3 0,-3 -2,-4l-2 -5c0,-1 0,-1 0,-2l-2 0c1,-2 1,-2 -2,-2 2,-2 1,-1 -1,-1 0,-4 0,-2 -2,-4l0 0c-1,-2 2,-1 -3,-2l-1 -1c-8,-1 -11,0 -15,7 -2,2 -3,5 -5,8 -1,2 -3,4 -4,7 0,0 -1,0 -1,0l-3 2c-2,1 0,0 -3,1 -13,3 -10,4 -17,22 -4,2 0,0 -3,3 0,0 0,1 0,1 -1,0 -1,1 -2,1 -5,5 -13,9 -16,9 0,0 0,0 -1,0 -5,0 -9,2 -15,2 3,2 4,2 5,4 1,1 3,2 4,3l1 1 0 1 3 1 -1 2 -1 0c-1,-3 2,-1 -2,-3l-1 -1 -1 -1c-2,-2 -2,-2 -5,-3l-2 -1c0,-1 1,0 -2,-2 0,0 -1,0 -2,-1 -7,-2 -15,-4 -20,-1l-2 0c-2,-1 -1,-2 -1,1 -2,-1 -2,-1 -2,1l-1 1c-3,0 -2,0 -3,4 0,2 0,6 0,9 0,1 0,5 0,5 0,3 -1,2 1,4l-4 12c-3,5 -6,5 -8,8l-3 1c-2,-1 -2,-1 -2,2 -6,-3 -7,-3 -12,-6 -8,-5 -13,-2 -14,5 -1,5 2,6 6,7 -1,2 -1,2 1,2 -1,2 -1,1 1,1 0,1 -1,2 -1,4 0,3 -2,1 1,2 -1,2 -2,1 0,2l-1 3 -3 3 4 2 7 3c2,11 0,10 10,19 11,-2 28,-6 34,7 1,5 -6,9 3,13 4,2 13,6 16,2l3 0c1,-1 5,-2 7,-4l1 -1 1 -1c0,0 1,0 1,0 0,0 0,-1 0,-1l3 -3 1 0 -5 7 -2 -1 0 2c-2,0 -4,1 -6,2l-1 0c-9,5 -10,1 -20,0 4,7 1,5 3,11 5,3 7,2 10,3 7,2 1,2 7,6 5,-2 9,-6 16,-6 7,3 4,3 7,6 5,4 2,0 8,2l3 1 1 -1c8,-5 19,-5 31,-2 -1,4 2,5 4,8 -1,2 -1,1 1,2 0,4 -1,6 1,9 2,2 5,4 7,4l2 0 5 2c5,3 11,8 14,12 5,7 4,9 15,11 2,0 3,1 4,1l1 -4c11,-19 17,-15 28,-14 23,4 4,19 24,25l0 -1 1 -1c4,-4 8,-2 12,-3 7,-2 4,-4 8,-10 5,-6 4,1 11,-6 5,-6 1,-12 8,-12l10 1 0 0 -13 -1c-2,7 -1,8 -5,13 -6,7 -5,-1 -10,6 -4,6 -2,8 -8,10 -6,1 -7,-2 -12,3 -1,1 -2,1 -2,1l-5 -1c-11,-6 -4,-11 -9,-17 -5,-5 -14,-5 -23,-7 -5,5 -10,8 -14,17 -2,-1 -1,-1 -1,1l-1 1c-2,-1 -2,-1 -2,1 -6,-1 -10,-2 -14,-6 -8,-7 1,-4 -15,-16 0,0 -1,0 -1,0 -1,-1 0,-1 -2,-2 -2,-1 -14,-5 -15,-6l-2 -6c1,-4 2,-5 -1,-7 -1,-2 1,0 -2,-3 -2,-2 1,1 -3,-2 -2,-1 -6,-4 -9,-2 -5,-1 -10,1 -14,3 -4,1 -8,1 -13,0 -6,0 -3,-4 -12,-8 -7,3 -3,1 -9,5 -6,5 -10,-3 -12,-4 -5,-2 -6,-1 -12,-4 -2,-5 0,-7 -4,-11l-1 -1 -1 -2 -1 -1c0,-2 1,-1 -2,-1 2,-2 2,-1 0,-2 4,-10 5,-12 -6,-15 -5,-2 -5,-2 -9,-1l-8 2 0 0 -4 2 -3 -2c-2,-4 -6,-4 -9,-8 -3,-5 -1,-7 -3,-12 -4,-4 -12,-1 -15,-2l-8 -1 -1 1c-6,-1 -6,0 -11,1l-12 3c-3,2 -8,11 -11,14 -4,4 -13,5 -21,1 -7,-4 -5,-10 -8,-15l-1 -2c2,-2 2,-1 0,-2 0,-3 0,-3 -3,-5l-1 6c-4,2 -3,4 -7,7 -3,0 -10,-1 -11,-4 -7,-2 -11,-4 -17,-1l-7 -1c-3,0 0,-1 -2,1 -6,5 3,-5 -1,1l-3 4c4,3 5,6 5,12 0,5 1,12 2,13 2,2 20,3 25,0 15,5 8,4 16,11 3,1 6,2 9,1 4,0 4,-1 7,-4 1,-1 0,-1 4,-1 1,0 2,0 3,1 6,1 8,-1 14,1 5,1 4,3 6,7 -1,5 -1,1 2,6 5,8 2,7 14,7 0,0 3,1 1,0 0,0 1,0 1,0l5 -2c10,-7 20,1 17,9 -6,7 3,7 10,9 2,8 -5,9 1,25 6,2 5,3 8,2l0 0c3,1 3,1 3,-1l0 1c13,1 6,5 14,8 7,3 3,1 11,11 1,2 -3,0 3,3 6,2 10,-2 15,-3l3 -1 5 -10 7 -3c12,1 8,0 18,6 2,1 6,3 9,3 5,2 2,2 6,0l1 0 1 -1 0 0 -1 1c-3,3 1,3 -5,2l-9 -3c1,2 1,3 2,5l2 4c-1,3 -2,1 1,2 0,3 -2,1 1,3l1 0c0,2 -1,1 2,2l1 -1c1,3 0,1 2,3 1,2 2,2 3,4l0 0c0,0 0,0 1,0l1 2c0,0 1,1 1,1l0 -1c-1,3 -1,2 2,3l0 0 7 -2 0 1 -2 1c-4,2 -3,2 -6,0l-16 -15c-4,-6 2,-16 -23,-19 -4,1 -3,1 -6,4 -3,2 -3,3 -4,7 0,0 -2,2 -2,2 -2,1 1,1 -1,1 -1,0 -1,0 -1,1 -5,1 -12,6 -19,1 0,-1 2,0 -2,-2 -6,-12 -12,-10 -13,-10 -5,-19 -27,7 -26,-26 2,-3 3,-5 3,-8 0,0 -2,-2 -2,-2 -5,-3 -2,-1 -3,-1 -13,-1 -8,-6 -6,-14 -7,-6 -10,-5 -14,0l-2 1c-1,-1 -1,-1 -1,1 -2,-1 -1,-1 -1,1 -8,-2 -13,0 -17,-3 -4,-3 -3,-8 -7,-11 1,-3 1,-2 -1,-3 1,-2 0,0 0,-3 0,0 0,0 0,0 -1,-1 -1,-1 -1,-1l-3 -1c-3,0 -4,0 -5,0 -3,0 0,1 -4,0 -5,-1 -3,-2 -7,0 -5,1 -7,5 -12,5 7,8 2,9 7,16 -1,1 -1,1 1,1 -1,2 -1,1 1,2 -2,5 -1,2 -1,7 0,2 0,2 0,5 7,2 12,1 20,5 5,2 8,6 14,9 4,1 3,1 5,3 7,6 -2,18 -3,30 5,6 10,4 14,9 4,5 4,9 12,11 12,-9 2,-7 20,-15 16,-6 11,-3 26,1 0,1 0,1 0,1 0,1 1,1 1,1 0,0 0,1 0,1l4 6 14 4c5,-2 0,-1 6,-3 3,0 5,0 9,2 0,2 2,2 7,3 19,4 10,-2 20,7l1 7c0,6 -1,12 1,17l3 0c4,-1 0,0 3,-1 6,2 5,-1 14,3l2 2c3,5 4,8 7,10 9,5 10,1 14,-3l2 -5c4,-6 0,-4 3,-11 1,0 2,0 4,0l6 -3 4 0c6,-3 9,-3 9,-3 0,0 1,0 1,0 2,0 9,1 10,1 1,1 3,2 4,3 4,2 2,-1 3,3 1,12 9,15 7,16 0,0 0,0 0,1 10,3 7,2 11,-6 4,-2 9,-2 8,-6 3,1 1,-1 2,1 -1,5 0,3 -3,6 -7,-2 -6,1 -9,8 -6,-1 -3,1 -12,-2 -5,-15 -4,-6 -6,-13 -1,-7 2,-7 -10,-9 -6,-1 -7,-2 -10,1 -3,1 -5,1 -8,2l0 0 -2 0 -6 3 -8 17c-2,2 -1,0 -2,3 2,0 2,0 4,-1 4,-1 -2,2 2,-1 10,1 11,-4 16,6l1 4c1,1 0,0 2,2l0 8c-1,3 1,6 3,9 2,-2 5,-4 9,-5 3,1 2,2 3,1l2 -3 2 1c7,-1 5,-1 10,3 0,0 0,3 1,3 -8,-4 -8,-8 -21,0l-6 4c-3,-3 -1,-1 -3,-3 0,-1 0,-1 0,-1l-3 -7c0,-1 0,0 0,-2 1,-3 1,-2 -1,-3l0 -1c1,-2 2,-3 1,-6 0,-3 -1,-3 -3,-4 -3,-3 0,-2 -4,-4 -5,1 -2,-1 -4,1 -2,0 -2,0 -2,1 -5,-3 -2,-2 -3,1 -2,-1 -1,-1 -1,1 -11,-3 -21,-4 -25,-12l-2 -6c-9,-1 -10,-3 -18,-1 5,3 10,6 16,6l1 4c2,4 2,6 2,11 0,6 -1,11 3,16 0,2 0,1 1,3l6 10c15,-5 9,-4 18,1 -1,1 -1,1 1,1 -1,4 -1,8 0,11 -2,10 -3,9 5,14 4,2 7,6 6,12 1,7 -2,3 1,13l0 2c2,3 -3,1 3,2 0,0 3,0 4,0 15,-7 24,-2 30,13 7,2 9,0 19,3l7 -5c4,1 5,3 8,4 4,-4 3,-4 10,-2 5,2 5,4 8,7 7,4 15,17 22,10l4 -3 3 1c3,-9 4,-8 12,-10 8,-3 6,-2 15,0 14,5 14,-12 22,-21 5,1 16,1 20,2 1,2 5,3 9,3 4,0 5,-2 9,-3l5 -2c0,0 -1,0 -2,1l-1 1 0 1c-2,1 -4,3 -7,4 -2,0 -2,0 -5,0 -4,0 -1,-2 -4,1l-5 -3 -2 0 -2 -2 -2 0 -2 1 -1 -1 -5 1c-12,-3 -6,14 -19,20 -10,4 -7,-6 -22,0 -3,1 -3,0 -6,1 -2,3 -2,6 -5,8 -13,11 -18,5 -25,2 -1,-3 1,0 -1,-2 -1,-1 0,0 -1,-1 -1,0 -4,-2 -5,-3 -2,-2 -2,-1 -5,-4 -8,-8 -1,-4 -12,-2 -6,1 -3,0 -8,-2 -9,6 -7,2 -18,1 -2,0 -6,0 -10,-2 -6,-3 0,-3 -7,-5l0 -1c-4,-15 -13,-6 -17,-6l-4 1c0,0 -3,0 -4,0 -11,1 -8,-7 -12,-13 5,-17 -4,-17 -8,-21 -6,-7 0,-10 -2,-19l0 -1c-1,0 -1,-1 -1,-1 -3,-9 -8,7 -18,-4 -4,-4 0,-1 -4,-3l-1 -2c0,0 0,-1 0,-1 -5,-17 -7,-7 -8,-17 -1,-4 2,-11 2,-15 -5,-5 0,-2 -7,-3 -5,-1 -7,-3 -9,-5 -3,-2 -6,-9 -6,-13 -1,-4 0,-13 1,-17l-1 -2c-5,-1 -2,-1 -4,0 -6,1 -8,2 -16,-2 0,0 -4,-3 -5,-4 -3,1 -4,3 -7,3 -3,1 -8,0 -11,-1 -2,-2 0,-1 -4,-2 -1,-1 -3,-1 -4,-2 -7,-3 -6,-6 -11,-10 -1,-2 3,-2 -4,-1 -6,0 0,-1 -3,0 -2,0 -1,-2 -2,2 -2,-1 -1,-1 -1,1 -7,-1 -3,-1 -7,2 -7,3 -5,-1 -8,7 -7,10 -15,7 -26,0l-1 -2c-1,-4 -2,-5 -5,-7l-12 -3c-1,-3 0,0 -1,-3l-1 -3c-5,-9 0,-12 4,-29l-10 -2c0,-5 1,-1 -2,-4 0,0 -4,-2 -4,-3 -2,-1 -5,-2 -8,-3 -4,0 -2,0 -7,-1 -17,-4 -10,-13 -11,-19 -1,-5 -3,-3 -3,-8 -2,-8 -3,-2 -5,-9 -1,-4 0,-2 -2,-4 -9,-12 -21,0 -38,-7 -1,0 -5,-2 -7,-3l-4 -5c1,-4 0,-5 -1,-9 -1,-4 0,-13 -11,-13 -5,0 -7,1 -9,3 -5,-1 -2,0 -8,1 -3,0 -2,0 -8,-1 -7,-3 -10,-4 -13,4 -1,4 -1,2 -1,3 -2,2 1,-2 -2,1 -2,3 -2,3 -4,5 -2,3 -4,5 -6,7 -7,7 -20,3 -29,-2 -6,-4 -9,-8 -13,-13 -3,-5 -5,-10 -5,-16 -3,2 -5,7 -4,11l1 5c0,3 1,5 1,7 13,6 20,8 13,24 -4,12 -6,22 -3,34 5,16 7,18 19,16 6,0 10,5 18,5 3,0 2,0 4,-1 1,0 6,-2 6,-2 4,-9 6,-15 13,-17 10,-3 2,2 14,-4 2,-1 1,-1 4,-1 20,-2 9,11 26,8 11,-2 2,1 12,-4 1,0 26,9 30,11 0,2 0,4 0,5 1,3 2,3 2,5 0,8 -7,7 -2,15l-1 2c0,4 0,3 2,6l0 -1c1,2 1,2 2,4 -12,19 2,14 15,22 6,4 3,5 8,16 2,7 3,9 15,4l5 1 4 -2c5,-1 6,-4 11,-6 2,-1 3,-2 6,0 3,4 1,3 0,6l1 2 1 0 0 0 0 0 0 0 -1 -1 -1 -2c0,0 -1,-3 -1,-4 -1,0 -1,0 -1,0l-9 4c0,0 -1,1 -1,1l-4 1c-1,1 0,0 -2,1 -2,1 -1,1 -2,2 -12,-3 -9,3 -15,2 -12,-1 -7,-19 -17,-24 -6,-4 -11,-1 -17,-7 -5,-6 -1,-9 2,-16 -2,-3 -3,-3 -4,-7 1,-4 1,-1 0,-4 0,-1 0,-2 0,-2 -1,0 -1,-1 -1,-1l0 -1 0 -2 4 -8c-3,-6 -1,-3 -2,-9 -5,-2 -10,-3 -14,-4 -6,-2 -6,-4 -12,-6 -4,3 -4,3 -8,4l-9 1c-8,0 -8,-10 -20,-9 -5,0 -3,0 -7,2 -11,6 -14,-2 -21,17 0,0 -1,0 -1,1l-1 1c0,0 -1,1 -1,1l-4 2c-4,1 -4,3 -11,1 -8,0 -7,2 -12,-3 -2,-1 -2,0 -4,1 -6,1 -9,-1 -14,-4 -5,-3 -4,-4 -5,-8 -10,-32 -5,-26 1,-52 -1,-11 -13,-6 -18,-15 0,-1 -2,-8 -2,-11 -1,-4 0,-7 0,-12 2,1 2,2 2,-1 4,-2 8,-12 1,-16 0,-3 1,-1 -1,-4 -1,-1 -1,-1 -2,-2 -2,-3 0,-1 -3,-4l-4 -3 -3 -1c1,-2 1,-2 -1,-2 1,-1 2,-1 -1,-1 0,-2 2,0 -1,-3 -2,-2 -7,-3 -11,-1 -5,4 0,4 -7,10 -4,-3 -4,-2 -4,-8 0,-15 2,-18 10,-24 8,2 11,5 18,7zm643 330l1 -1 -1 2 -2 0 2 -1z"/>
  <path fill="#336699" d="M210 208c-61,-34 -117,0 -99,77 -38,-6 -57,-4 -75,21 -28,41 -2,110 48,136 26,13 58,11 91,11 135,0 270,0 406,0 33,0 65,3 96,-6 116,-30 158,-163 95,-254 -30,-44 -76,-70 -132,-72 -50,-1 -66,15 -85,19 -10,-30 -48,-62 -76,-78 -35,-20 -83,-30 -127,-20 -41,9 -79,36 -96,58 -41,52 -33,53 -46,108z"/>
  <path fill="#336699" d="M83 441l1 1c26,13 58,11 91,11 135,0 270,0 406,0 33,0 65,3 96,-6 25,-6 46,-17 64,-32 -1,0 -1,0 -2,0 -12,0 -2,-1 -17,-4 -8,-2 -17,-4 -25,-6 -7,-2 -22,-1 -28,-5 -9,-6 -5,5 -10,-6l-11 -6c-5,-4 -6,-11 -13,-11 -4,-9 -15,-5 -21,-17 -15,0 -3,-4 -12,-4 -56,0 -112,0 -168,0 -17,0 -6,-4 -17,-4 -14,0 4,0 -12,-4 -18,-6 -9,-5 -30,-5 -10,0 -53,5 -59,9 -29,17 20,-7 -13,6 -4,2 -7,9 -15,9 -12,0 -1,4 -10,4 -10,0 -14,8 -24,8 -13,0 1,5 -12,5 -11,0 -2,2 -9,2 -8,0 0,-1 -6,2 0,0 -34,0 -36,0 -19,0 -18,4 -26,4 -12,0 -34,17 -44,21 -10,4 -8,9 -15,10 -8,5 -7,1 -12,11 -2,0 -7,4 -11,7z"/>
 </g>
</svg>
