<?xml version="1.0" encoding="UTF-8"?>
<!DOCTYPE svg PUBLIC "-//W3C//DTD SVG 1.1//EN" "http://www.w3.org/Graphics/SVG/1.1/DTD/svg11.dtd">
<!-- Creator: CorelDRAW X8 -->
<svg xmlns="http://www.w3.org/2000/svg" xml:space="preserve" width="500px" height="500px" version="1.1" shape-rendering="geometricPrecision" text-rendering="geometricPrecision" image-rendering="optimizeQuality" fill-rule="evenodd" clip-rule="evenodd"
viewBox="0 0 500 500"
 xmlns:xlink="http://www.w3.org/1999/xlink">
 <g id="Layer_x0020_1">
  <metadata id="CorelCorpID_0Corel-Layer"/>
  <rect fill="black" stroke="black" stroke-width="2.36221" width="500" height="500"/>
  <path fill="#50F2F3" d="M138 185l1 7c26,18 44,42 49,87l-77 -16 59 28 19 10c1,-1 4,-5 5,-3l22 -16c-2,-69 8,-44 -59,-115 -1,-1 -2,-3 -3,-4l25 16c24,27 71,68 113,47 5,26 -1,14 10,30 19,25 77,26 85,148 -45,-12 -18,8 -112,-20 -37,-11 -10,-9 -27,5l12 6 8 -2c41,17 16,4 31,33 9,-11 -6,0 7,-9 19,-12 13,-8 32,-6l20 1 54 5c-4,-18 -6,-32 -10,-44 -8,-27 -7,-15 -13,-43l23 -6 19 5c-1,-2 -4,-7 -5,-5l-28 -11c-27,-9 -10,8 -25,-20 -12,-28 -7,-58 -4,-91l2 -20 -14 14 -9 50 -2 19c-15,-6 -3,-2 -11,-19 -23,-10 -33,-10 -40,-35 -4,-10 -9,-56 -9,-70 -12,18 -4,-20 -11,29 0,6 0,34 -1,44l-14 -11c-31,-9 -5,1 -23,-12l-10 -7c-2,-1 -5,-3 -6,-3 -2,-1 -4,-3 -7,-3l2 -11c-28,18 -17,8 -2,11l-16 12c-11,-17 -7,-8 -15,-30 -22,-15 -14,1 -28,-37l19 18c16,20 6,7 13,23l9 -1c4,13 -13,29 15,-3l-15 3 4 -13c-14,2 -11,6 -10,-8l-5 -9c-15,0 -11,4 -12,-12l-11 -15 -9 5 1 -14 -4 -6 -12 -1 -12 -14 12 14c11,29 3,12 15,21 -3,17 12,15 -7,15 -8,-9 -15,-17 -25,-27l-72 -77 -25 2 -1 19c25,14 21,16 36,35 29,34 16,0 20,37 3,1 6,2 8,3 1,1 5,4 6,5 33,24 -5,-24 7,12 -5,-1 -2,2 -8,11 14,-11 9,-3 23,-6l13 32c-3,0 -3,-8 -4,-7 0,1 -2,-4 -3,-5l-11 -18c-3,4 -28,16 20,32 3,1 9,-10 47,37 -22,-19 -22,-34 -39,-26zm-53 -58l-5 -9c-3,11 -5,4 5,9 4,7 -6,15 9,4l-9 -4zm199 309l9 2c0,-13 3,-11 -9,-8l0 6zm-91 -136c12,20 32,55 40,79 -11,0 -9,-4 -23,0 -21,8 -10,5 -22,17l37 -1 8 -16 22 -7c-13,-22 -14,-23 -25,-44 -16,-30 8,-17 -37,-28zm51 86l-16 8c19,0 16,6 16,-8zm-83 10l2 10 27 1c-3,-16 1,-10 -19,-13l-10 2zm-71 -144l-22 -1 43 13c-25,-8 -12,-1 -21,-12z"/>
  <path fill="#F8F9F9" d="M189 301l4 -1c45,11 21,-2 37,28 11,21 12,22 25,44l-22 7 -8 16 3 -1 16 -8 4 3c17,-14 -10,-16 27,-5 94,28 67,8 112,20 -8,-122 -66,-123 -85,-148 -11,-16 -5,-4 -10,-30 -42,21 -89,-20 -113,-47l-25 -16c1,1 2,3 3,4 67,71 57,46 59,115l-22 16c-1,-2 -4,2 -5,3z"/>
  <path fill="#06308E" d="M129 377l0 -9 -9 0 0 11 9 -2 -1 60c2,-2 5,-7 6,-5l131 -6 9 2c5,-42 7,-15 -6,-35l-8 2c-4,5 23,11 -36,17 -18,2 -21,-2 -34,-5l-27 -1 -25 -4 23 -6 10 -2 44 -25c-2,-3 -3,-6 -4,-8l-41 -70 -59 -28 77 16c-5,-45 -23,-69 -49,-87l-1 -7c17,-8 17,7 39,26 -38,-47 -44,-36 -47,-37 -48,-16 -23,-28 -20,-32l11 18c1,1 3,6 3,5 1,-1 1,7 4,7l-13 -32c-14,3 -9,-5 -23,6l71 114 -44 -10c-25,-4 -23,-14 -29,2 9,11 -4,4 21,12l-43 -13c-9,-17 6,-13 -15,-13 -5,-30 3,-2 -9,-27 -2,-6 -7,-11 -14,-23l-6 0 -3 29c16,10 16,-17 12,22l20 -1c-6,35 -14,9 25,62l0 15c16,-6 11,-6 5,11l16 -37 30 67c17,0 14,5 10,-11 -1,-1 -29,-12 -4,-23l20 -1 -5 -9c2,-2 4,-4 5,-4 1,0 4,-1 5,-1 15,-1 17,-8 9,7 3,18 7,15 -11,13 21,3 -30,24 31,-1l-12 17c-2,3 -3,6 -4,9 -1,2 -1,9 -1,8 -1,-1 -1,6 -1,9l4 -2c-4,10 27,38 -46,10z"/>
  <path fill="#180827" d="M215 32l14 7c34,12 59,27 89,44l18 -1 -3 -8c-5,-24 -9,-16 18,-16 12,37 -6,-15 5,25l-4 8 18 7 3 -39 13 31c3,15 1,12 7,24 1,2 5,9 6,11l7 10 8 3c50,13 10,9 26,-20 -35,-4 -6,12 -44,-71 -15,-32 -28,-21 -52,-23 -13,-1 -16,-7 -46,-3l-94 -3 1 6c13,-1 10,-5 10,8z"/>
  <path fill="#06136C" d="M226 477l69 0c55,-29 12,-37 100,-36 27,-14 9,7 25,-20l-8 -4c-18,25 3,10 -32,18l-22 -23 -20 -1c-10,15 -1,6 -17,20 -4,4 -11,8 -13,9 -5,8 -1,12 -19,21 -16,8 -18,4 -32,6l8 -41 -131 6c-1,-2 -4,3 -6,5l-15 -11 -11 -7 -24 3 -1 -20c-13,1 -10,4 -10,-8l-31 -1c12,18 4,13 32,23 -37,13 -20,-7 -28,31 78,3 118,-19 193,-9l-7 39z"/>
  <path fill="#06136C" d="M30 188l1 -16 -7 16 6 0c7,12 12,17 14,23 12,25 4,-3 9,27 21,0 6,-4 15,13l22 1c6,-16 4,-6 29,-2l44 10 -71 -114c6,-9 3,-12 8,-11l-6 -4c-15,11 -5,3 -9,-4 -10,-5 -8,2 -5,-9l-1 -3 -20 12c-11,-26 -12,-38 -34,-58 4,61 17,50 77,127 -12,32 -8,13 -9,14l-63 -22zm109 4l-1 -7 1 7z"/>
  <path fill="#180827" d="M390 278c3,2 7,4 8,6 1,1 0,7 0,6 1,-2 -5,4 -7,6l-13 0 -5 -3c15,28 -2,11 25,20l28 11c1,-2 4,3 5,5 47,11 13,4 26,-3l-8 -20c-44,-62 -4,-32 -22,-101 -3,-13 -11,-12 -2,-34 -16,1 -28,1 -40,3 -21,4 0,-6 -14,8l-2 20 23 2c3,28 2,45 -8,60 1,1 2,2 2,2l13 10c0,-2 4,4 6,6l-15 -4z"/>
  <path fill="#0E314D" d="M126 76l12 14 12 1 4 6 -1 14 9 -5c35,7 45,19 58,38 0,-1 -8,-3 2,-2 1,0 3,0 4,0 0,0 4,1 4,1 1,0 4,1 6,1l5 18 5 2 3 6 -3 -6 -9 -64 33 -2 3 -6 1 27 36 0 1 7 -1 -7 -11 -24 -26 -3 -12 -20 -31 -22 -23 -11 -7 -8 -11 0c-15,2 -9,4 -10,-15 -5,18 8,23 23,36l11 7c38,31 10,-6 23,48 -48,-9 -60,-19 -101,-57 -29,-26 -10,-19 -49,-23 38,20 29,7 40,49zm146 99l0 0 0 0z"/>
  <path fill="#06136C" d="M318 210c8,-7 25,20 5,3 -1,0 -6,-2 -5,-3zm17 36l13 0 9 -50c7,-20 -4,-15 7,-20l-38 1 23 -27 -23 -6c-5,-2 -2,10 -1,-8l-34 1 -5 4c0,14 5,60 9,70 7,25 17,25 40,35z"/>
  <path fill="#180827" d="M86 27c39,4 20,-3 49,23 41,38 53,48 101,57 -13,-54 15,-17 -23,-48l-11 -7c-15,-13 -28,-18 -23,-36l1 3 -98 0 4 8z"/>
  <path fill="#06136C" d="M241 162l-5 -18c-2,0 -5,-1 -6,-1 0,0 -4,-1 -4,-1 -1,0 -3,0 -4,0 -10,-1 -2,1 -2,2 -13,-19 -23,-31 -58,-38l11 15c16,0 12,-4 12,12l5 9 10 8 -4 13 15 -3 5 7 -2 11c3,0 5,2 7,3 1,0 4,2 6,3l10 7c18,13 -8,3 23,12 17,-13 9,3 12,-28l0 0 -2 -77 -33 2 9 64 3 6 -5 8 -3 -16z"/>
  <path fill="#F8F9F9" d="M52 305c7,6 6,2 13,14 5,9 2,9 2,17l-14 7c-1,-3 -5,-5 -7,-7l-22 -16 -1 3 24 28c17,13 6,-17 15,21l5 22c14,-4 11,-7 10,8 13,6 11,3 25,17 14,-3 11,-7 11,7 19,-29 -8,-40 7,-47l0 -11 -33 -36c-1,-4 -3,-4 -4,-6 -15,3 -11,4 -5,-11l-14 -12c-17,5 -13,7 -7,-10l-9 3 4 9z"/>
  <path fill="#084FAF" d="M116 70c0,-1 -2,4 -3,3l3 -3zm-67 -48l72 77c10,10 17,18 25,27 19,0 4,2 7,-15 -12,-9 -4,8 -15,-21l-12 -14c-11,-42 -2,-29 -40,-49l-4 -8 -33 3 -26 -2 1 4 25 -2zm101 69l4 6 -4 -6zm33 69l4 4c-7,-16 3,-3 -13,-23l-19 -18c14,38 6,22 28,37zm-10 -39c1,16 -3,12 12,12 0,-16 4,-12 -12,-12zm17 21c-1,14 -4,10 10,8l-10 -8z"/>
  <path fill="#70D0F8" d="M24 245l14 31c1,2 2,5 3,7l7 13 9 -3c-6,17 -10,15 7,10l14 12c-6,15 -10,14 5,11 1,2 3,2 4,6l33 36 9 0 0 -12 -30 -67 -16 37c6,-17 11,-17 -5,-11l0 -15 -14 3c4,-16 8,-15 -7,-10 -3,-33 -7,-29 -24,-54 4,-39 4,-12 -12,-22l3 28zm111 77c-25,11 3,22 4,23l-4 -23zm-83 -17l-6 31c2,2 6,4 7,7l14 -7c0,-8 3,-8 -2,-17 -7,-12 -6,-8 -13,-14z"/>
  <path fill="#0EAED1" d="M357 196l14 -14c14,-14 -7,-4 14,-8 12,-2 24,-2 40,-3 11,-1 6,1 2,-10 -9,-23 4,-2 -10,-15 -14,25 8,10 -21,18 -10,2 -22,0 -32,-4 -14,-5 -24,-21 -31,-33l-46 -36c-9,-9 -7,-9 -10,-13 43,1 20,42 36,10 1,-1 3,2 5,3l0 -8c-30,-17 -55,-32 -89,-44l1 11c25,9 20,13 50,14 -14,15 11,20 -19,8l12 20 26 3 11 24 1 7 -20 11 34 -1c-1,18 -4,6 1,8l23 6 -23 27 38 -1c-11,5 0,0 -7,20z"/>
  <path fill="#F8F9F9" d="M417 146l-2 2c-15,0 -11,3 -9,-13l-28 -17 -4 -1 -12 -7c-35,2 -31,-13 -29,17 7,12 17,28 31,33 10,4 22,6 32,4 29,-8 7,7 21,-18z"/>
  <path fill="#084FAF" d="M171 394c20,3 16,-3 19,13 13,3 16,7 34,5 59,-6 32,-12 36,-17l-12 -6 -4 -3c0,14 3,8 -16,8l-3 1 -37 1c12,-12 1,-9 22,-17 14,-4 12,0 23,0 -8,-24 -28,-59 -40,-79l-4 1 -19 -10 41 70c1,2 2,5 4,8l-44 25zm-21 -82l19 2c8,-15 6,-8 -9,-7 -1,0 -4,1 -5,1 -1,0 -3,2 -5,4z"/>
  <path fill="#06136C" d="M158 327l-3 -6 -20 1 4 23c4,16 7,11 -10,11l0 12 0 9c73,28 42,0 46,-10l-4 2c0,-3 0,-10 1,-9 0,1 0,-6 1,-8 1,-3 2,-6 4,-9l12 -17c-61,25 -10,4 -31,1z"/>
  <path fill="#70D0F8" d="M200 31l7 8 23 11 31 22c30,12 5,7 19,-8 -30,-1 -25,-5 -50,-14l-1 -11 -14 -7 -10 -8 -16 7 11 0zm133 96c-2,-30 -6,-15 29,-17l12 7c0,-14 3,-10 -12,-7 -3,-4 -8,-17 -10,-19l4 -8 -15 13c-1,1 -5,3 -6,4 -10,-14 3,-3 -17,-9 -2,-1 -4,-4 -5,-3 -16,32 7,-9 -36,-10 3,4 1,4 10,13l46 36zm0 -53l3 8c23,-11 7,-4 -3,-8z"/>
  <path fill="#0E314D" d="M369 202c-3,33 -8,63 4,91l5 3c0,-17 -4,-12 12,-18l1 18c2,-2 8,-8 7,-6 0,1 1,-5 0,-6 -1,-2 -5,-4 -8,-6l15 4c-2,-2 -6,-8 -6,-6l-13 -10c0,0 -1,-1 -2,-2 10,-15 11,-32 8,-60l-23 -2z"/>
  <path fill="#06136C" d="M23 323l2 57 25 0 -3 -29 -24 -28zm29 -18c-13,-10 0,8 -15,-17 -5,-9 -4,-12 -13,-26l0 58 22 16 6 -31z"/>
  <path fill="#084FAF" d="M25 69c22,20 23,32 34,58l20 -12 1 3 5 9 9 4 6 4c-12,-36 26,12 -7,-12 -1,-1 -5,-4 -6,-5 -2,-1 -5,-2 -8,-3 -4,-37 9,-3 -20,-37 -15,-19 -11,-21 -36,-35l2 26z"/>
  <path fill="#0E314D" d="M420 421c-16,27 2,6 -25,20l35 7c1,-58 -7,-74 -18,-124l-23 6c6,7 6,4 13,17 5,8 4,7 7,18 3,12 8,41 11,56z"/>
  <path fill="#1362DF" d="M268 393c13,20 11,-7 6,35l10 2c12,-3 9,-5 9,8l-9 -2c-20,-5 -12,-6 -12,19 50,-8 6,1 21,-17l15 2c2,-1 9,-5 13,-9 16,-14 7,-5 17,-20 -19,-2 -13,-6 -32,6 -13,9 2,-2 -7,9 -15,-29 10,-16 -31,-33z"/>
  <path fill="#084FAF" d="M412 417l-54 -5 22 23c35,-8 14,7 32,-18l8 4c-3,-15 -8,-44 -11,-56 -3,-11 -2,-10 -7,-18 -7,-13 -7,-10 -13,-17 6,28 5,16 13,43 4,12 6,26 10,44z"/>
  <path fill="#50F2F3" d="M36 393l31 1c0,12 -3,9 10,8l1 20 24 -3 11 7 15 11 1 -60 -9 2c-15,7 12,18 -7,47 0,-14 3,-10 -11,-7 -14,-14 -12,-11 -25,-17 1,-15 4,-12 -10,-8l-5 -22c-17,27 4,5 -26,21z"/>
  <path fill="#084FAF" d="M272 175l0 0c-3,31 5,15 -12,28l14 11c1,-10 1,-38 1,-44 7,-49 -1,-11 11,-29l5 -4 20 -11 -1 -7 -36 0 -1 -27 -3 6 2 77z"/>
  <path fill="#084FAF" d="M308 440l-15 -2c-15,18 29,9 -21,17 0,-25 -8,-24 12,-19l0 -6 -10 -2 -9 -2 -8 41c14,-2 16,2 32,-6 18,-9 14,-13 19,-21z"/>
  <path fill="#06308E" d="M336 82l-18 1 0 8c20,6 7,-5 17,9 1,-1 5,-3 6,-4l15 -13c-11,-40 7,12 -5,-25 -27,0 -23,-8 -18,16 10,4 26,-3 3,8z"/>
  <path fill="#31B0F5" d="M24 245l0 17c9,14 8,17 13,26 15,25 2,7 15,17l-4 -9 -7 -13c-1,-2 -2,-5 -3,-7l-14 -31zm33 48c15,-5 11,-6 7,10l14 -3c-39,-53 -31,-27 -25,-62l-20 1c17,25 21,21 24,54z"/>
  <path fill="#0A6D8E" d="M352 91c2,2 7,15 10,19 15,-3 12,-7 12,7l4 1 8 -28 -13 -31 -3 39 -18 -7z"/>
  <path fill="#1362DF" d="M25 380c-2,26 -3,9 11,13 30,-16 9,6 26,-21 -9,-38 2,-8 -15,-21l3 29 -25 0z"/>
  <path fill="#50F2F3" d="M378 118l28 17c-2,16 -6,13 9,13l-1 -10 -8 -3 -7 -10c-1,-2 -5,-9 -6,-11 -6,-12 -4,-9 -7,-24l-8 28z"/>
  <path fill="#0EAED1" d="M214 178c-15,-3 -26,7 2,-11l-5 -7c-28,32 -11,16 -15,3l-9 1 -4 -4c8,22 4,13 15,30l16 -12z"/>
  <path fill="#0A6D8E" d="M189 31l16 -7 10 8c0,-13 3,-9 -10,-8l-1 -6 -24 1 -1 -3c1,19 -5,17 10,15zm18 8l-7 -8 7 8z"/>
  <path fill="#D0F4D2" d="M158 327c18,2 14,5 11,-13l-19 -2 5 9 3 6z"/>
  <path fill="#AFF4F4" d="M391 296l-1 -18c-16,6 -12,1 -12,18l13 0z"/>
  <path fill="#0EAED1" d="M348 246l-13 0c8,17 -4,13 11,19l2 -19z"/>
  <polygon fill="#31B0F5" points="163,406 161,396 138,402 "/>
  <polygon fill="#D4CFE5" points="249,170 246,164 241,162 244,178 "/>
  <path fill="#D4CFE5" d="M318 210c-1,1 4,3 5,3 20,17 3,-10 -5,-3z"/>
  <path fill="#50F2F3" d="M113 73c1,1 3,-4 3,-3 0,0 1,-1 1,-1 -1,0 -19,-15 -4,4z"/>
 </g>
</svg>
