<?xml version="1.0" encoding="UTF-8"?>
<!DOCTYPE svg PUBLIC "-//W3C//DTD SVG 1.1//EN" "http://www.w3.org/Graphics/SVG/1.1/DTD/svg11.dtd">
<!-- Creator: CorelDRAW X8 -->
<svg xmlns="http://www.w3.org/2000/svg" xml:space="preserve" width="8.4666mm" height="8.4666mm" version="1.1" shape-rendering="geometricPrecision" text-rendering="geometricPrecision" image-rendering="optimizeQuality" fill-rule="evenodd" clip-rule="evenodd"
viewBox="0 0 847 847"
 xmlns:xlink="http://www.w3.org/1999/xlink">
 <g id="Layer_x0020_1">
  <metadata id="CorelCorpID_0Corel-Layer"/>
  <g id="_2791620557008">
   <path fill="#00CCFF" stroke="aqua" stroke-width="7.62" d="M600 282c-12,-10 -16,-14 -26,-20l0 6c4,3 3,-8 5,11 0,25 9,64 13,91 3,21 5,22 18,34 20,20 25,33 49,56 42,42 37,41 30,61 -4,14 -7,30 -13,41l-11 -23c-18,-52 -10,-40 -43,-54 -19,-8 -42,-27 -80,20 14,6 28,16 43,25 6,3 13,7 20,12l21 15c-31,-5 -116,-23 -137,-37l30 -64 -106 -82c-12,-15 -42,-232 -46,-260l-81 -25c-5,3 -5,-5 -3,9l12 94c7,9 5,7 13,14l37 3c-4,6 -1,2 -6,7 -1,1 -4,4 -5,5l-63 49c-1,-1 -1,-2 -2,-3 0,-1 -1,-2 -1,-3 0,0 -1,-2 -1,-2 0,-1 -1,-2 -1,-3l-35 -177c-6,-10 -68,-20 -79,-20 -13,-1 -4,1 -7,-6l-4 -9 -9 -47 -130 0 1 80 131 57c-9,81 -19,40 46,107 9,10 16,18 26,27l-47 114c29,16 114,39 152,51l130 43c4,2 5,2 9,4 5,3 5,3 8,5 -18,3 -60,15 -72,22l54 126c-14,-14 -33,-29 -48,-43 -31,-27 -17,-17 -65,-24 -24,-4 -87,-52 -108,-67 6,16 24,40 34,56 9,14 25,46 38,51 46,0 62,-8 90,15 101,85 52,70 123,60 22,-4 51,17 70,26 48,25 91,45 137,69 34,18 103,58 136,68 -15,-43 -49,-97 -68,-139 -21,-43 -49,-222 -60,-243 -5,-9 -41,-40 -51,-49 -24,-21 -21,-36 -28,-74 -8,-46 -17,-33 -40,-60z"/>
   <path fill="#00CCFF" stroke="aqua" stroke-width="7.62" d="M446 257l11 94c4,19 -1,9 17,20 31,20 54,42 84,60 0,-19 -3,-37 -4,-56 -3,-27 0,-32 -16,-48 -18,-20 -48,-41 -67,-62l-4 -4 -5 -4 -4 -3 -5 -4 -5 -3 -7 -5 0 3 5 12z"/>
   <path fill="#00CCFF" stroke="aqua" stroke-width="7.62" d="M232 447l-3 -7 -139 -26c-11,14 -25,32 -31,52 41,12 40,29 85,13 29,-11 59,-24 88,-32z"/>
   <path fill="#00CCFF" stroke="aqua" stroke-width="7.62" d="M513 258l31 27c7,-5 1,3 2,-6l-35 -130c-16,-8 -42,-10 -62,-11 -1,105 9,47 64,120zm37 31l1 -4 -1 4z"/>
   <path fill="#00CCFF" stroke="aqua" stroke-width="7.62" d="M119 379l25 -68c-12,-10 -115,-50 -136,-56l111 124z"/>
   <path fill="#00CCFF" stroke="aqua" stroke-width="7.62" d="M317 538l46 -3c-3,-14 -27,-46 -36,-62l-93 0c14,21 69,43 83,65z"/>
   <polygon fill="#00CCFF" stroke="aqua" stroke-width="7.62" points="2,193 112,169 2,120 "/>
   <path fill="#00CCFF" stroke="aqua" stroke-width="7.62" d="M409 123c5,7 4,4 8,7 6,-14 32,-43 34,-54 2,-10 -18,-55 -22,-69l-24 54c-9,25 4,37 4,62z"/>
   <path fill="#00CCFF" stroke="aqua" stroke-width="7.62" d="M303 56c-14,-15 -31,-32 -46,-46 -12,-11 -14,-10 -35,-10 -16,0 -32,0 -49,0 4,16 6,21 18,27l112 29z"/>
   <path fill="#00CCFF" stroke="aqua" stroke-width="7.62" d="M25 227l127 47c-12,-16 -49,-57 -64,-68l-63 21z"/>
   <path fill="#00CCFF" stroke="aqua" stroke-width="7.62" d="M0 419l72 -23c-10,-12 -37,-34 -52,-46l-20 69z"/>
   <path fill="#00CCFF" stroke="aqua" stroke-width="7.62" d="M615 16c-3,-6 6,-6 -8,-4l-52 11 23 63c11,-12 32,-56 37,-70z"/>
   <path fill="#00CCFF" stroke="aqua" stroke-width="7.62" d="M364 64l0 -63 -56 0c9,13 14,21 27,32 13,13 13,21 29,31z"/>
   <path fill="#00CCFF" stroke="aqua" stroke-width="7.62" d="M16 547l62 2 -29 -51c-8,6 -12,13 -18,22 -8,11 -14,15 -15,27z"/>
   <path fill="#00CCFF" stroke="aqua" stroke-width="7.62" d="M598 173l54 -10c-7,-16 -28,-38 -40,-53l-14 63z"/>
   <polygon fill="#00CCFF" stroke="aqua" stroke-width="7.62" points="178,594 208,549 142,542 "/>
   <path fill="#00CCFF" stroke="aqua" stroke-width="7.62" d="M550 289l1 -4 -5 -6c-1,9 5,1 -2,6l-31 -27c6,11 6,9 16,17 8,7 9,9 19,14l2 0z"/>
   <path fill="#00CCFF" stroke="aqua" stroke-width="7.62" d="M600 282c-5,-8 -4,-7 -11,-14 -2,-1 -6,-5 -7,-5 -8,-5 -2,-4 -8,-1 10,6 14,10 26,20zm-21 -3c-2,-19 -1,-8 -5,-11l5 11z"/>
   <path fill="#00CCFF" stroke="aqua" stroke-width="7.62" d="M283 98c-2,-14 -2,-6 3,-9l-8 -5c-1,23 0,8 5,14z"/>
   <path fill="#00CCFF" stroke="aqua" stroke-width="7.62" d="M308 206c-8,-7 -6,-5 -13,-14 1,14 3,12 13,14z"/>
   <path fill="#00CCFF" stroke="aqua" stroke-width="7.62" d="M448 247l5 3 5 4 4 3 5 4 4 4 -4 -4 -5 -4 -4 -3 -5 -4c0,-5 1,-4 -5,-3 0,-6 1,-4 -7,-5l7 5zm-2 10l-5 -12c1,14 0,8 5,12z"/>
   <path fill="#00CCFF" stroke="aqua" stroke-width="7.62" d="M232 447c18,1 0,-6 -3,-7l3 7z"/>
   <path fill="#00CCFF" stroke="aqua" stroke-width="7.62" d="M615 16l7 -9 -15 5c14,-2 5,-2 8,4z"/>
   <path fill="#00CCFF" stroke="aqua" stroke-width="7.62" d="M417 130c-4,-3 -3,0 -8,-7 1,11 -3,4 2,7 8,4 1,5 6,0z"/>
   <path fill="#00CCFF" stroke="aqua" stroke-width="7.62" d="M145 56c3,7 -6,5 7,6l-7 -6 -4 -9 4 9z"/>
  </g>
 </g>
</svg>
