<?xml version="1.0" encoding="UTF-8"?>
<!DOCTYPE svg PUBLIC "-//W3C//DTD SVG 1.1//EN" "http://www.w3.org/Graphics/SVG/1.1/DTD/svg11.dtd">
<!-- Creator: CorelDRAW X8 -->
<svg xmlns="http://www.w3.org/2000/svg" xml:space="preserve" width="500px" height="500px" version="1.1" shape-rendering="geometricPrecision" text-rendering="geometricPrecision" image-rendering="optimizeQuality" fill-rule="evenodd" clip-rule="evenodd"
viewBox="0 0 500 500"
 xmlns:xlink="http://www.w3.org/1999/xlink">
 <g id="Layer_x0020_1">
  <metadata id="CorelCorpID_0Corel-Layer"/>
  <g id="_2478245843680">
   <g>
    <path fill="#DB853C" d="M238 263c-23,2 -48,1 -63,-11 -10,-10 -9,-2 -31,-10 -21,-8 -14,-15 -23,-13l-4 68c2,15 -3,19 -12,25 -6,5 -15,13 -24,13 -9,2 -25,10 -33,15 -9,5 -19,11 -28,17l0 5c5,2 47,-4 59,-4 24,0 40,6 63,4 -4,6 -2,5 -7,10l-8 5c-7,5 -14,11 -19,17l21 1c2,-5 -1,-3 8,-7 13,-7 5,-5 6,-7 11,0 10,1 16,-6 -2,3 0,3 2,4 8,-4 14,-3 25,-7 5,-2 12,-6 15,-11 2,-5 -3,0 1,-5 -2,3 -1,2 2,4l1 -3c4,-9 1,5 13,-16 20,-32 14,-42 13,-83l7 -5z"/>
    <path fill="#AC632D" d="M351 335c2,0 0,0 0,0zm-1 -8c7,0 8,0 12,4 5,6 1,15 20,26 7,3 13,6 21,9 17,6 15,1 21,9 -6,5 -6,-2 -26,3 -9,2 -17,4 -26,-2 0,0 -4,-5 -4,-5 -1,-1 -3,-3 -4,-4 -6,-9 -6,-8 -10,-18 0,-2 -1,-4 -2,-6 -2,-7 -4,-10 -2,-16zm-6 -78c1,12 3,21 4,31 5,35 10,29 12,35 0,3 -1,-1 1,3 3,7 0,-4 3,7l-14 -1c0,0 -1,1 -2,1 0,-17 -4,-11 -6,-10 2,14 0,2 3,5l5 2 -5 4c-1,4 1,17 2,20 4,16 2,12 2,27 -9,0 -10,1 -18,-1 -3,-2 -7,-4 -10,-9 -13,-27 -9,-74 -9,-105 -1,0 -1,0 -2,1l-3 2c-5,3 -6,5 -16,6 -16,-1 -22,2 -39,-3 0,13 3,27 3,42 0,10 -4,35 -1,39 10,-14 8,-15 8,-37 -1,-36 -4,-35 8,-36l8 34c4,25 2,51 4,58 1,5 1,3 2,5 7,-5 8,-14 8,-25 0,-17 -12,-34 -6,-66 1,-7 0,-6 9,-7 6,7 6,24 5,32l8 3c-2,2 -1,2 -5,4 3,2 9,0 4,14 -4,2 -1,1 -5,1 -10,0 -2,0 -5,-2 10,2 -7,4 6,4 0,11 0,25 4,34 0,0 1,1 1,1 2,6 5,12 4,20 3,-3 -7,-2 2,-1l10 11c0,-1 0,0 0,0 7,1 11,3 16,5l-8 4c-13,3 -16,-3 -22,-5 -14,-3 -20,6 -31,2 -2,5 -1,10 -2,7 -1,-1 -1,1 -1,1 -3,-3 -1,0 -3,-6 0,0 -1,-5 -1,-5 -7,-1 -11,-3 -16,-6l-7 -7c0,0 0,-1 0,-1 -8,-11 -4,-101 -2,-118 -5,-1 -4,-1 -9,0l-7 5c1,41 7,51 -13,83 -12,21 -9,7 -13,16l-1 3c-3,-2 -4,-1 -2,-4 -4,5 1,0 -1,5 -3,5 -10,9 -15,11 -11,4 -17,3 -25,7 -2,-1 -4,-1 -2,-4 -6,7 -5,6 -16,6 -1,2 7,0 -6,7 -9,4 -6,2 -8,7 39,-1 20,-14 56,-11 22,2 41,0 60,-8 43,48 100,7 131,27l3 0c-4,-8 -19,-15 -27,-20 48,4 54,-5 67,-4 17,1 47,5 61,-3 -19,-7 -36,-16 -53,-23 -17,-4 -28,-17 -34,-33 -5,-13 -13,-36 -14,-53 -3,-12 -10,-41 -9,-52 -5,-4 -1,4 -3,-2 0,-1 -1,0 -1,-1 4,18 -7,21 -22,27z"/>
    <path fill="#F3C48B" d="M141 223c8,10 26,14 40,14 6,17 -5,3 16,13 2,1 2,2 2,2 1,1 -2,3 1,0 2,0 38,0 41,0 6,1 12,3 19,4l30 -4c18,-4 52,-9 56,-22 -6,-10 -29,-15 -44,-17 -28,-4 -54,-11 -83,-7 -10,1 -16,3 -26,6 -9,3 -18,0 -28,3 -4,1 -9,2 -12,3 -5,1 -8,3 -12,5z"/>
    <path fill="#DB853C" d="M252 264l-5 -1c-2,17 -6,107 2,118 0,0 0,1 0,1l7 7c5,3 9,5 16,6 0,0 1,5 1,5 2,6 0,3 3,6 0,0 0,-2 1,-1 1,3 0,-2 2,-7 11,4 17,-5 31,-2 6,2 9,8 22,5l8 -4c-5,-2 -9,-4 -16,-5 0,0 0,-1 0,0l-10 -11c-9,-1 1,-2 -2,1 1,-8 -2,-14 -4,-20 0,0 -1,-1 -1,-1 -4,-9 -4,-23 -4,-34 -13,0 4,-2 -6,-4 3,2 -5,2 5,2 4,0 1,1 5,-1 5,-14 -1,-12 -4,-14 4,-2 3,-2 5,-4l-8 -3c1,-8 1,-25 -5,-32 -9,1 -8,0 -9,7 -6,32 6,49 6,66 0,11 -1,20 -8,25 -1,-2 -1,0 -2,-5 -2,-7 0,-33 -4,-58l-8 -34c-12,1 -9,0 -8,36 0,22 2,23 -8,37 -3,-4 1,-29 1,-39 0,-15 -3,-29 -3,-42z"/>
    <path fill="#FCE4B3" d="M141 223c4,-2 7,-4 12,-5 3,-1 8,-2 12,-3 10,-3 19,0 28,-3 10,-3 16,-5 26,-6 29,-4 55,3 83,7 15,2 38,7 44,17 -4,13 -38,18 -56,22l-30 4c-7,-1 -13,-3 -19,-4 -3,0 -39,0 -41,0 -3,3 0,1 -1,0 0,0 0,-1 -2,-2 -21,-10 -10,4 -16,-13 -14,0 -32,-4 -40,-14zm229 2c-2,-7 -2,-7 -6,-10l2 6c1,0 1,2 1,2 -17,-8 -16,-4 -8,-12l-2 -2c-4,5 -3,3 -3,3 -1,0 0,0 0,-1 0,-1 1,-1 1,-2l-1 -1c-5,4 -4,2 -4,2 0,0 1,0 1,-1 0,0 0,-1 1,-1l-2 -2c-4,4 -3,3 -3,3 0,0 0,-1 0,-1 0,-1 1,-1 1,-2l-1 -2 -6 5c-6,-2 -17,-5 -25,-5 5,-8 0,-3 6,-5l-3 -2c-3,4 -3,8 -10,5 -11,-5 -4,-1 0,-6l-2 -2c-9,10 -11,4 -26,3 -10,0 -15,3 -24,1 -30,-4 -17,-1 -38,-2 -3,0 -5,0 -7,-1 -7,-4 0,5 -5,-5l-30 7c0,0 -2,0 -2,1 -4,1 -2,0 -5,1 -14,2 -54,5 -49,30 9,-2 2,5 23,13 22,8 21,0 31,10 15,12 40,13 63,11 5,-1 4,-1 9,0l5 1c17,5 23,2 39,3l6 -4c2,-1 3,-1 6,-3 4,-2 8,-5 10,-6 7,-4 22,-3 31,-5 15,-6 26,-9 22,-27 0,1 1,0 1,1 2,6 -2,-2 3,2z"/>
    <path fill="#DB853C" d="M344 249c-9,2 -24,1 -31,5 -2,1 -6,4 -10,6 -3,2 -4,2 -6,3l-6 4c10,-1 11,-3 16,-6l3 -2c1,-1 1,-1 2,-1 0,31 -4,78 9,105 3,5 7,7 10,9 8,2 9,1 18,1 0,-15 2,-11 -2,-27 -1,-3 -3,-16 -2,-20l5 -4 -5 -2c-3,-3 -1,9 -3,-5 2,-1 6,-7 6,10 1,0 2,-1 2,-1l14 1c-3,-11 0,0 -3,-7 -2,-4 -1,0 -1,-3 -2,-6 -7,0 -12,-35 -1,-10 -3,-19 -4,-31z"/>
    <path fill="#01A44C" d="M379 277c1,17 9,40 14,53 6,16 17,29 34,33 11,-7 12,-8 29,-8 -8,-15 -28,-16 -45,-11 5,-11 12,-20 22,-26 16,-10 30,-7 36,-11 -21,-11 -50,-8 -64,6 -2,-3 8,-11 14,-16 9,-8 10,-5 21,-9 -26,-9 -33,-4 -50,8 9,-30 44,-31 49,-35 -34,-9 -47,8 -60,16z"/>
    <path fill="#F3C48B" d="M288 131c2,13 16,6 28,3 3,21 6,42 10,65l-4 0c-6,2 -1,-3 -6,5 8,0 19,3 25,5l6 -5c-8,0 -4,0 -5,-2l11 -35c12,3 22,10 27,-2 -6,-4 -4,-4 -10,-9 -14,-12 -19,-10 -27,-12 -5,-1 -2,0 -5,-2l2 -2 3 -1 -3 1 -2 2c-9,9 1,16 9,21l-13 25c-2,-26 -11,-51 -12,-58 7,-4 24,-14 14,-23 -47,10 -40,17 -48,24zm62 75l-2 0c0,1 -1,1 -1,2 0,0 0,1 0,1 0,0 -1,1 3,-3zm4 2l-2 0c-1,0 -1,1 -1,1 0,1 -1,1 -1,1 0,0 -1,2 4,-2zm3 1l-2 0c0,1 -1,1 -1,2 0,1 -1,1 0,1 0,0 -1,2 3,-3zm7 6l-5 -4c-8,8 -9,4 8,12 0,0 0,-2 -1,-2l-2 -6zm-55 -19c-4,5 -11,1 0,6 7,3 7,-1 10,-5l-10 -1zm-102 -6c5,10 -2,1 5,5 2,1 4,1 7,1 21,1 8,-2 38,2 9,2 14,-1 24,-1 15,1 17,7 26,-3 -9,0 -16,-2 -26,-2 -8,0 -17,2 -23,1 -18,-4 -32,-3 -51,-3z"/>
    <path fill="#01A44C" d="M81 335c9,0 18,-8 24,-13 9,-6 14,-10 12,-25 -13,-6 -13,-28 -17,-44l-3 5c-1,2 -1,4 -2,6 -4,27 9,35 4,40 0,0 0,0 -1,-1 -20,-13 -38,-9 -58,1 10,8 27,-4 49,14 -7,0 -13,1 -19,3 -8,4 -9,4 -12,11 10,1 14,-1 23,3z"/>
    <path fill="#DB853C" d="M351 335c0,0 2,0 0,0zm11 -4c-4,-4 -5,-4 -12,-4 -2,6 0,9 2,16 1,2 2,4 2,6 4,10 4,9 10,18 1,1 3,3 4,4 0,0 4,5 4,5 9,6 17,4 26,2 20,-5 20,2 26,-3 -6,-8 -4,-3 -21,-9 -8,-3 -14,-6 -21,-9 -19,-11 -15,-20 -20,-26z"/>
    <path fill="#D8362A" d="M288 131c8,-7 1,-14 48,-24 -9,-9 -16,-14 -30,-20l-10 0c-12,8 -11,28 -8,44z"/>
    <path fill="#D8362A" d="M343 139l-3 1 -2 2c3,2 0,1 5,2 8,2 13,0 27,12 6,5 4,5 10,9 0,-7 1,-14 0,-21 -1,-11 -2,-14 -7,-17 -11,-4 -25,7 -30,12z"/>
   </g>
   <path fill="#AC632D" d="M105 370c1,-2 2,-4 5,-4l1 -2c1,0 3,0 3,-2 1,0 3,0 3,-2 1,0 4,-2 4,-3 3,-2 6,-8 7,-8 0,-1 2,-4 4,-5 0,-1 -1,-2 1,-2 1,-3 3,-3 3,-6 1,0 6,-6 6,-8 0,0 1,-1 2,-2 2,-1 2,-2 3,-4 2,0 2,-3 3,-4 1,0 4,-5 6,-6 0,-4 2,-2 3,-5 0,-1 3,-7 4,-8l0 -2c0,-1 3,-5 3,-6 0,-1 1,-3 1,-3 0,-1 2,-4 2,-5l0 -1c1,-2 1,0 1,-5 1,0 3,-5 3,-7 0,-1 1,1 1,-2 2,0 2,-6 2,-7 1,-2 1,1 1,-4 2,0 2,-9 2,1 0,3 -1,0 -1,5 0,1 0,5 0,5 -1,3 -1,-1 -1,3 0,1 -1,3 -1,6 0,2 -1,-1 -1,3 0,3 -1,0 -1,3 0,1 -1,2 -1,4 0,5 -2,-1 -2,5 0,3 -1,0 -1,4 0,4 -2,0 -2,6 0,1 -1,8 -2,10 0,0 0,3 0,3 -1,2 -1,1 -1,4 0,2 -1,0 -1,3 0,4 -1,1 -1,4 0,5 -2,2 -2,5 0,4 -1,0 -1,4 -3,2 0,0 -2,3 -1,2 -5,10 -5,11 -1,0 -1,2 -1,4 -2,0 -1,2 -2,3 -1,3 -1,-1 -1,3 -3,1 0,0 -2,3 0,1 -2,4 -2,5 -1,0 -2,3 -2,4 -3,0 3,1 -3,1 -7,0 -21,1 -27,0 0,-1 -3,-2 -4,-2 0,0 -3,-1 -3,-1l-1 1z"/>
   <path fill="#AC632D" d="M117 306c9,-3 4,-2 6,-4l1 -1c2,-1 6,-8 7,-9 2,-2 0,-1 1,-3l1 -1c0,0 4,-8 4,-9 1,-6 6,-11 7,-15 0,-2 2,-7 2,-8 0,-1 2,-7 2,-9 0,-2 1,1 1,-2 -1,0 -2,1 -2,2 -3,0 0,0 -3,3 -2,4 -2,0 -2,3 -1,0 -6,10 -6,11 0,0 -3,6 -3,6 -2,1 1,3 -2,3 0,4 -2,3 -2,5 0,1 0,0 0,3 -2,1 -1,1 -1,2l-1 2c0,2 -2,-1 -2,3 -2,0 0,1 -1,2 -1,3 -1,-1 -1,2 -1,0 -1,1 -1,2 -1,0 -2,2 -2,3 0,4 0,7 0,10l-3 -1z"/>
  </g>
 </g>
</svg>
