<?xml version="1.0" encoding="UTF-8"?>
<!DOCTYPE svg PUBLIC "-//W3C//DTD SVG 1.1//EN" "http://www.w3.org/Graphics/SVG/1.1/DTD/svg11.dtd">
<!-- Creator: CorelDRAW X8 -->
<svg xmlns="http://www.w3.org/2000/svg" xml:space="preserve" width="67.7332mm" height="67.7332mm" version="1.1" shape-rendering="geometricPrecision" text-rendering="geometricPrecision" image-rendering="optimizeQuality" fill-rule="evenodd" clip-rule="evenodd"
viewBox="0 0 6773 6773"
 xmlns:xlink="http://www.w3.org/1999/xlink">
 <g id="Layer_x0020_1">
  <metadata id="CorelCorpID_0Corel-Layer"/>
  <rect fill="#1E611E" stroke="black" stroke-width="20" y="2232" width="6773" height="4541"/>
  <path fill="#472D0A" stroke="black" stroke-width="20" d="M0 1676l0 -235c93,-74 225,-149 250,-167 39,-27 16,12 28,-45 7,-29 9,-71 13,-102l10 -229c35,-14 20,-107 21,-140 2,-50 13,-130 -6,-164l21 -57c-126,-71 -250,-197 -337,-311l0 -39c76,95 240,253 334,283l-7 -470 599 0 -14 643c216,8 381,-23 563,-68 103,-38 210,-63 315,-106 112,-46 193,-90 291,-137l8 -5c39,-12 99,-47 133,-66 -12,-48 -94,-139 -114,-198 20,20 122,146 136,175 48,-14 115,-56 149,-82 26,12 -66,37 -125,97 35,64 265,243 359,264l-7 -517 599 0 -14 644c141,-3 488,-49 569,-101 -155,-96 -385,-333 -432,-480 121,130 172,238 367,369 35,23 121,95 170,77 182,-45 341,-145 497,-222l68 -40 15 0c-11,16 -11,17 -22,30l-512 269c-38,16 -46,11 -65,43l-41 -7c-93,62 -435,131 -599,136 -21,51 -3,127 -2,181 1,115 55,746 101,818 26,-20 306,-400 477,-429 1,-32 -7,-23 13,-36l-13 36c11,38 -58,340 -72,391 -33,128 -76,241 -110,362 -123,20 -179,-33 -243,-21 -11,2 -30,16 -111,30 -88,16 -11,22 -94,36 -56,-13 -38,-25 -88,-45l-64 -5 -5 -4c-124,-35 -62,-82 -155,-124 -77,-35 -160,-29 -241,-46 -4,-8 -2,-6 -12,-17 -23,-24 -49,-31 -80,-67l-79 -85c-158,-7 -157,80 -272,73l-81 -552c59,15 68,-17 224,-44 114,-20 163,-2 272,-1l6 -183c16,-26 15,-48 10,-81 22,-56 26,-250 21,-317 -231,-105 -304,-246 -385,-315 -42,20 -129,70 -169,97l-453 217c-57,20 -113,36 -161,60 -55,4 -172,40 -247,52 -102,17 -181,17 -289,21l4 75 23 374c11,78 69,36 263,196 78,64 121,133 174,145l-75 316c-185,67 -252,-57 -414,-6 -62,19 -128,33 -185,57 -79,34 -70,49 -116,100l-229 1c-71,-142 -50,-50 -85,-116 -33,-59 -17,-79 -74,-123 -46,-35 -112,-28 -175,-49 -13,-4 -21,-9 -29,-14z"/>
  <path fill="#33CC33" stroke="black" stroke-width="20" d="M0 2532l0 -498 124 5c58,30 78,9 138,61 86,74 32,42 161,56 45,5 135,52 162,-21 7,-20 8,-153 7,-158 46,-51 37,-66 116,-100 57,-24 123,-38 185,-57 162,-51 229,73 414,6 114,-7 119,-2 202,23 55,40 255,20 320,78 26,23 32,55 54,75 30,29 60,20 83,45 22,25 15,58 31,85 35,56 96,17 132,124 69,6 91,15 122,50 6,7 9,12 14,17 12,11 6,6 19,13 54,-20 69,-45 107,-80 49,-46 55,-51 158,-51 62,-80 158,-77 227,-86 59,-8 67,-32 111,-40 65,-11 120,11 127,-43l-5 -4 5 4 64 5c106,105 139,14 218,78 23,18 52,54 80,64 23,9 92,15 133,28 10,35 38,92 64,111 39,28 97,38 135,6 45,-38 -2,-77 58,-119 5,-3 104,-36 85,-88 25,-17 17,-14 37,-35 19,-20 26,-22 43,-39 61,-21 93,-25 132,-61 43,-39 35,-64 126,-65 180,-3 231,17 380,-34l72 -19 -1 -13c137,29 60,-35 227,80 82,56 164,59 211,87 96,37 69,66 131,119 77,67 52,62 63,169 118,38 88,37 158,112 79,-29 200,-132 258,-183l114 -88c32,36 28,312 25,382l-5827 -1z"/>
  <path fill="#805012" stroke="black" stroke-width="20" d="M5386 603l13 3c31,-28 12,-120 19,-185l0 -38 9 -383 -604 0c5,177 24,424 -2,595l-8 70c9,66 2,152 1,220 0,50 -25,158 -22,190l-55 366c-25,142 -54,291 -97,414 137,29 60,-35 227,80 82,56 164,59 211,87l54 -46c15,-14 30,-34 43,-48 133,-9 261,10 377,-16l-107 -678 -11 -278c-25,-13 -9,-124 -9,-153 1,-29 4,-64 -4,-91 -7,-21 -74,-80 -97,-101 -65,-58 -63,-72 -145,-142l-175 -208c-39,-45 -125,-162 -147,-217 60,108 168,194 250,290l279 269z"/>
  <path fill="#633E0D" stroke="black" stroke-width="20" d="M3860 589c8,17 -4,164 -8,198 -5,35 5,194 -25,206l-18 259 -13 36c11,38 -58,340 -72,391 -33,128 -76,241 -110,362 60,-2 114,-19 163,-13 69,8 55,28 154,19 61,-21 93,-25 132,-61 43,-39 35,-64 126,-65 180,-3 231,17 380,-34l-82 -516c-4,-26 -2,-53 -4,-78 -3,-31 -10,-54 -10,-85l-14 -202c-15,-57 -31,-228 -15,-287 0,-14 -2,-39 1,-52 4,-24 -9,-12 12,-24 -41,-20 -17,-134 -18,-174 0,-64 4,-128 -2,-192l-512 269c-38,16 -46,11 -65,43z"/>
  <path fill="#633E0D" stroke="black" stroke-width="20" d="M1454 647c14,13 19,5 20,56l-12 163c-1,102 -19,224 -32,325 -12,87 -51,243 -48,319l-75 316c114,-7 119,-2 202,23 39,14 175,32 222,30 41,-1 164,-43 203,-57 54,-105 124,-28 236,-56l-81 -552 -10 -179 32 -18 -30 -3c-5,-102 -36,-583 -13,-644l-453 217c-57,20 -113,36 -161,60z"/>
  <path fill="#472D0A" stroke="black" stroke-width="20" d="M5958 898l-6 79c9,50 23,44 67,66 153,78 426,243 590,277 -41,-134 -56,-571 -49,-720l10 -600 -595 0c-2,293 44,610 -17,898z"/>
  <path fill="#472D0A" stroke="black" stroke-width="7.62" d="M6773 2203l0 13 -68 55 -11 9 -11 10 -11 8 -12 10 -11 9 -12 9 -12 9 -12 9 -13 8 -12 9 -17 14 -13 8 -13 8 -7 7 7 -7 13 -8 13 -8 17 -14 12 -9 13 -8 12 -9 12 -9 12 -9 11 -9 12 -10 11 -8 11 -10 11 -9c-4,-95 -171,-120 -209,-142 -13,-7 -123,-114 -242,-42 -25,15 -10,-2 -17,19 -78,-99 -76,-76 -218,-126 -111,-39 -116,-86 -221,-119 7,-90 53,-207 71,-305 18,-100 32,-223 58,-316l3 -106 24 -67c22,28 246,124 316,154 60,26 118,48 180,69 146,49 129,27 163,84l23 216 12 34c-5,40 73,490 118,567 5,8 6,10 7,12z"/>
  <path fill="#2FAD2F" stroke="black" stroke-width="20" d="M6773 2216l0 317 -946 0c3,-70 7,-346 -25,-382l-114 88c-58,51 -179,154 -258,183 -70,-75 -40,-74 -158,-112 -11,-107 14,-102 -63,-169 -62,-53 -35,-82 -131,-119l54 -46c15,-14 30,-34 43,-48 133,-9 261,10 377,-16 99,-14 107,-48 246,-51 105,33 110,80 221,119 142,50 140,27 218,126 77,115 76,-6 91,208 90,17 116,49 151,108l59 -24 7 -7 13 -8 13 -8 17 -14 12 -9 13 -8 12 -9 12 -9 12 -9 11 -9 12 -10 11 -8 11 -10 11 -9 68 -55z"/>
  <path fill="#278C27" stroke="black" stroke-width="20" d="M3879 509c-18,-159 -14,-340 -14,-509l-646 0 -14 644c141,-3 488,-49 569,-101 -155,-96 -385,-333 -432,-480 121,130 172,238 367,369 35,23 121,95 170,77z"/>
  <path fill="#2FAD2F" stroke="black" stroke-width="20" d="M1934 1822c-39,14 -162,56 -203,57 -47,2 -183,-16 -222,-30 55,40 255,20 320,78 26,23 32,55 54,75 30,29 60,20 83,45 22,25 15,58 31,85 35,56 96,17 132,124 69,6 91,15 122,50 6,7 9,12 14,17 12,11 6,6 19,13 54,-20 69,-45 107,-80 49,-46 55,-51 158,-51 62,-80 158,-77 227,-86 59,-8 67,-32 111,-40 65,-11 120,11 127,-43l-5 -4c-124,-35 -62,-82 -155,-124 -77,-35 -160,-29 -241,-46 -58,-12 -102,-34 -166,-36 -63,-2 -114,11 -175,16 -176,12 -147,-69 -338,-20z"/>
  <path fill="#278C27" stroke="black" stroke-width="20" d="M1475 575l0 -575 -549 0 -14 643c216,8 381,-23 563,-68z"/>
  <path fill="#2FAD2F" stroke="black" stroke-width="20" d="M5418 421c-7,65 12,157 -19,185l-13 -3 13 3c25,17 25,21 52,37 107,-19 192,-1 313,-40 85,-27 147,-76 201,-123 3,69 20,310 -23,349l-2 9 2 -9c36,12 10,-5 19,28 2,8 -2,32 -3,41 61,-288 15,-605 17,-898l-548 0 -9 383c129,-54 204,-102 308,-161 69,-39 85,-63 99,-51 -37,21 -74,47 -102,66 -32,21 -68,42 -103,65 -68,43 -142,77 -202,119z"/>
  <path fill="#77CDF2" stroke="black" stroke-width="20" d="M3796 1288c1,-32 -7,-23 13,-36l18 -259c-66,-12 -86,-28 -137,-43 -56,-16 -102,11 -171,11 -145,0 -164,-57 -301,-62 1,115 55,746 101,818 26,-20 306,-400 477,-429z"/>
  <path fill="#278C27" stroke="black" stroke-width="20" d="M2068 370c-23,61 8,542 13,644l30 3c96,-31 107,-76 173,-151 26,1 147,31 176,42l141 -3c22,-56 26,-250 21,-317 -231,-105 -304,-246 -385,-315 -42,20 -129,70 -169,97z"/>
  <path fill="#633E0D" stroke="#663333" stroke-width="20" d="M1475 575c103,-38 210,-63 315,-106 112,-46 193,-90 291,-137l8 -5 -8 5c-44,-35 -10,-248 -10,-332l-596 0 0 575z"/>
  <path fill="#77CDF2" stroke="black" stroke-width="20" d="M6773 459l0 918c-35,2 -63,-19 0,20l0 3 -125 224c1,-26 11,-14 -12,-34l-23 -216c17,-104 -68,-452 -53,-774 73,-22 168,-87 211,-138l2 -3z"/>
  <path fill="#33CC33" stroke="black" stroke-width="20" d="M5434 956l-8 -139 -3 -90c67,12 91,66 191,128 -13,18 1,5 -22,17 77,7 120,56 170,88 53,33 132,68 175,104l-7 70 24 -67c22,28 246,124 316,154 60,26 118,48 180,69 39,13 254,108 287,85l-128 -55c-164,-34 -437,-199 -590,-277 -44,-22 -58,-16 -67,-66 -28,30 4,30 -47,1 -11,-6 -28,-21 -44,-31 -33,-22 -57,-36 -92,-61 -69,-40 -276,-194 -318,-243 -27,-16 -27,-20 -52,-37l-13 -3 -279 -269c-82,-96 -190,-182 -250,-290 22,55 108,172 147,217l175 208c82,70 80,84 145,142 23,21 90,80 97,101 8,27 5,62 4,91 0,29 -16,140 9,153zm1339 441l0 806c-1,-2 -2,-4 -7,-12 -45,-77 -123,-527 -118,-567l-12 -34c23,20 13,8 12,34l125 -227z"/>
  <path fill="#278C27" stroke="black" stroke-width="20" d="M0 787l0 -561c87,114 211,240 337,311l-21 57c-60,34 -100,81 -162,119 -38,24 -96,58 -154,74zm0 -600l0 -187 327 0 7 470c-94,-30 -258,-188 -334,-283z"/>
  <path fill="#77CDF2" stroke="black" stroke-width="20" d="M1382 1510c-3,-76 36,-232 48,-319 13,-101 31,-223 32,-325 -210,5 -359,-24 -540,-71l23 374c11,78 69,36 263,196 78,64 121,133 174,145z"/>
  <path fill="#278C27" stroke="black" stroke-width="20" d="M4444 247l15 0c-11,16 -11,17 -22,30 6,64 2,128 2,192 1,40 -23,154 18,174 99,0 290,-20 364,-48 26,-171 7,-418 2,-595l-379 0 0 247z"/>
  <path fill="#1E611E" stroke="black" stroke-width="20" d="M5552 1912c99,-14 107,-48 246,-51 7,-90 53,-207 71,-305 18,-100 32,-223 58,-316 -68,18 -200,-35 -361,5 -45,12 -61,8 -90,30 -3,-2 -5,-5 -6,-7l-25 -34 107 678z"/>
  <path fill="#633E0D" stroke="black" stroke-width="20" d="M3879 509c182,-45 341,-145 497,-222l68 -40 0 -247 -579 0c0,169 -4,350 14,509z"/>
  <path fill="#278C27" stroke="black" stroke-width="20" d="M2620 0l-549 0c0,84 -34,297 10,332l8 -5c39,-12 99,-47 133,-66 -12,-48 -94,-139 -114,-198 20,20 122,146 136,175 48,-14 115,-56 149,-82 26,12 -66,37 -125,97 35,64 265,243 359,264l-7 -517z"/>
  <path fill="#278C27" stroke="black" stroke-width="20" d="M3218 899c137,5 156,62 301,62 69,0 115,-27 171,-11 51,15 71,31 137,43 30,-12 20,-171 25,-206 4,-34 16,-181 8,-198l-41 -7c-93,62 -435,131 -599,136 -21,51 -3,127 -2,181z"/>
  <path fill="#2FAD2F" stroke="black" stroke-width="20" d="M6773 0l0 459 -2 3c-43,51 -138,116 -211,138l10 -600 203 0z"/>
  <path fill="#77CDF2" stroke="black" stroke-width="20" d="M0 1441l0 -522c95,3 225,-6 301,-21l-10 229c-4,31 -6,73 -13,102 -12,57 11,18 -28,45 -25,18 -157,93 -250,167z"/>
  <path fill="#77CDF2" stroke="black" stroke-width="20" d="M5434 956l11 278 25 34c1,2 3,5 6,7 29,-22 45,-18 90,-30 161,-40 293,13 361,-5l3 -106 7 -70c-43,-36 -122,-71 -175,-104 -50,-32 -93,-81 -170,-88 -58,-7 -124,-36 -166,-55l8 139z"/>
  <path fill="#278C27" stroke="black" stroke-width="20" d="M0 2034l0 -358c8,5 16,10 29,14 63,21 129,14 175,49 57,44 41,64 74,123 35,66 14,-26 85,116 -98,-3 -185,22 -239,61l-124 -5z"/>
  <path fill="#77CDF2" stroke="black" stroke-width="20" d="M2111 1017l-32 18 10 179c59,15 68,-17 224,-44 114,-20 163,-2 272,-1l6 -183c-66,-27 -99,-33 -131,-78 -29,-11 -150,-41 -176,-42 -66,75 -77,120 -173,151z"/>
  <path fill="#77CDF2" stroke="black" stroke-width="20" d="M4459 1006l14 202c54,94 -54,33 104,146 35,25 120,87 139,119l21 -32 55 -366 -3 -47c-66,-2 -143,-19 -205,-38 -12,-4 -22,-7 -33,-12 -16,-7 -15,-7 -22,-13l-75 -23 5 64z"/>
  <path fill="#278C27" stroke="black" stroke-width="20" d="M5451 643c42,49 249,203 318,243 77,-6 122,-19 171,-48l2 -9c43,-39 26,-280 23,-349 -54,47 -116,96 -201,123 -121,39 -206,21 -313,40z"/>
  <path fill="#278C27" stroke="black" stroke-width="20" d="M6237 2106c77,115 76,-6 91,208 90,17 116,49 151,108l59 -24 7 -7 13 -8 13 -8 17 -14 12 -9 13 -8 12 -9 12 -9 12 -9 11 -9 12 -10 11 -8 11 -10 11 -9c-4,-95 -171,-120 -209,-142 -13,-7 -123,-114 -242,-42 -25,15 -10,-2 -17,19z"/>
  <path fill="#1E611E" stroke="black" stroke-width="20" d="M4569 1887l72 -19 -1 -13c43,-123 72,-272 97,-414l-21 32c-19,-32 -104,-94 -139,-119 -158,-113 -50,-52 -104,-146 0,31 7,54 10,85 2,25 0,52 4,78l82 516z"/>
  <path fill="#278C27" stroke="black" stroke-width="20" d="M922 795c181,47 330,76 540,71l12 -163c-1,-51 -6,-43 -20,-56 -55,4 -172,40 -247,52 -102,17 -181,17 -289,21l4 75z"/>
  <path fill="#278C27" stroke="black" stroke-width="20" d="M3078 2041c106,105 139,14 218,78 23,18 52,54 80,64 23,9 92,15 133,28l93 -4c47,-59 127,-84 249,-86 25,-17 17,-14 37,-35 19,-20 26,-22 43,-39 -99,9 -85,-11 -154,-19 -49,-6 -103,11 -163,13 -123,20 -179,-33 -243,-21 -11,2 -30,16 -111,30 -88,16 -11,22 -94,36 -56,-13 -38,-25 -88,-45z"/>
  <path fill="#278C27" stroke="black" stroke-width="20" d="M0 919l0 -132c58,-16 116,-50 154,-74 62,-38 102,-85 162,-119 19,34 8,114 6,164 -1,33 14,126 -21,140 -76,15 -206,24 -301,21z"/>
  <path fill="#2FAD2F" stroke="black" stroke-width="20" d="M124 2039c58,30 78,9 138,61 86,74 32,42 161,56 45,5 135,52 162,-21 7,-20 8,-153 7,-158l-229 1c-98,-3 -185,22 -239,61z"/>
  <path fill="#805012" stroke="black" stroke-width="20" d="M4529 965c7,6 6,6 22,13 11,5 21,8 33,12 62,19 139,36 205,38l9 -153c-67,-25 -117,-37 -180,-66 -49,-21 -114,-70 -157,-78 -9,271 18,178 68,234z"/>
  <path fill="#278C27" stroke="black" stroke-width="20" d="M2170 1766c-112,28 -182,-49 -236,56 191,-49 162,32 338,20 61,-5 112,-18 175,-16 64,2 108,24 166,36 -4,-8 -2,-6 -12,-17 -23,-24 -49,-31 -80,-67l-79 -85c-158,-7 -157,80 -272,73z"/>
  <path fill="#278C27" stroke="black" stroke-width="20" d="M4444 719c-16,59 0,230 15,287l-5 -64 75 23c-50,-56 -77,37 -68,-234 43,8 108,57 157,78 63,29 113,41 180,66l-9 153 3 47c-3,-32 22,-140 22,-190 1,-68 8,-154 -1,-220 -136,29 -213,44 -369,54z"/>
  <path fill="#2FAD2F" stroke="black" stroke-width="20" d="M3509 2211c10,35 38,92 64,111 39,28 97,38 135,6 45,-38 -2,-77 58,-119 5,-3 104,-36 85,-88 -122,2 -202,27 -249,86l-93 4z"/>
  <path fill="#472D0A" stroke="black" stroke-width="20" d="M4457 643c-21,12 -8,0 -12,24 -3,13 -1,38 -1,52 156,-10 233,-25 369,-54l8 -70c-74,28 -265,48 -364,48z"/>
  <path fill="#77CDF2" stroke="black" stroke-width="20" d="M5940 838c-49,29 -94,42 -171,48 35,25 59,39 92,61 16,10 33,25 44,31 51,29 19,29 47,-1l6 -79c1,-9 5,-33 3,-41 -9,-33 17,-16 -19,-28l-2 9z"/>
  <path fill="#278C27" stroke="black" stroke-width="20" d="M5426 817c42,19 108,48 166,55 23,-12 9,1 22,-17 -100,-62 -124,-116 -191,-128l3 90z"/>
  <path fill="none" stroke="black" stroke-width="20" d="M5418 383l0 38c60,-42 134,-76 202,-119 35,-23 71,-44 103,-65 28,-19 65,-45 102,-66 -14,-12 -30,12 -99,51 -104,59 -179,107 -308,161z"/>
  <path fill="#472D0A" stroke="black" stroke-width="20" d="M2591 986c16,-26 15,-48 10,-81l-141 3c32,45 65,51 131,78z"/>
  <path fill="#805012" stroke="black" stroke-width="20" d="M0 3606c37,1 73,2 91,5l60 9c63,0 -7,16 101,16 5,0 118,0 119,0 49,21 -26,17 68,17 767,0 1535,0 2303,0 59,0 24,-17 101,-17 64,0 38,-10 110,-16 66,-6 77,-9 144,-9 54,0 64,-25 161,-25 84,0 149,-9 229,-9 45,0 69,-8 127,-8 88,0 22,-17 101,-17 75,0 134,-9 212,-9 24,0 146,-12 169,-17l43 -17c33,-6 125,-11 160,-16 62,-10 117,-24 178,-34l51 0c72,-17 -14,-17 93,-17 9,0 169,0 169,0 40,-12 2,-26 85,-26 68,0 34,-17 127,-17 76,0 28,-17 93,-17 13,0 106,-6 110,-8 49,-20 -28,-17 77,-17 59,0 33,-17 93,-17 4,0 165,-16 169,-17 67,-16 137,-26 203,-42 24,-6 40,9 76,-9 7,-3 115,-33 119,-33 71,0 14,-26 110,-26 8,0 102,-13 114,-21 6,-5 51,-11 55,-13 31,-12 34,-17 68,-17 85,0 -12,-17 85,-17 19,-37 26,-6 51,-17 15,-6 29,-16 50,-16 6,0 53,-26 77,-26 23,0 110,-51 143,-51l78 0 0 1231c-25,4 -52,14 -78,14 -4,0 -242,58 -249,63 -6,5 -64,20 -72,22l-43 17c-20,8 -46,-18 -101,16 -34,21 -30,-6 -76,17 -22,11 -174,57 -195,60 -93,11 -80,34 -178,34 -4,0 -122,15 -127,16l-25 17c-50,16 -293,43 -347,43 -10,0 -127,0 -127,0 -67,20 23,17 -77,17 -200,0 -1743,-10 -1786,0 -72,17 14,17 -93,17 -706,0 -1411,0 -2117,0 -66,0 -122,8 -195,8 -152,0 -308,7 -457,-17 -46,-7 -14,-8 -76,-8 -53,0 -2,-18 -68,-26 -49,-6 -74,-30 -127,-42l-59 -17c-15,-3 -81,-36 -100,-42l0 -869z"/>
  <path fill="#33CC33" stroke="black" stroke-width="20" d="M343 3140c18,-19 15,-24 32,-33 0,-2 21,-29 30,-29 0,-8 12,-35 12,-38 0,-16 9,12 9,-30 21,-11 -9,-25 42,-47 28,-11 14,-8 47,-8 9,18 -1,42 29,42 13,0 12,13 47,-4 0,-6 42,-27 42,-51 20,-10 10,-41 17,-59l9 -9c5,-11 -12,4 12,-21 17,-16 0,-14 22,-25 0,-13 33,-28 33,-38 34,0 4,-17 56,-17 13,0 8,6 8,25 0,50 -7,82 30,119 6,7 76,12 84,8 16,-6 20,-17 38,-17 13,0 16,-4 38,-4 55,0 43,-11 43,51 0,18 -4,8 -4,25 -9,5 -13,15 -13,26 -8,0 -9,33 -9,42 0,7 13,14 13,38 0,16 35,10 47,21 8,8 25,4 25,21 -11,0 9,34 -46,34 0,-15 -52,-8 -64,-8 -172,0 -344,0 -516,0 -9,0 -16,-4 -34,-4 -7,0 -71,0 -72,0l-7 -10z"/>
  <path fill="gray" stroke="black" stroke-width="20" d="M2080 3375c23,9 34,6 58,6 0,8 29,4 38,4 52,0 104,0 157,0 0,-34 -37,-37 -39,-42 -5,-12 0,-1 -8,-4 -3,-2 -40,-30 -51,-30 0,-9 -40,-8 -51,-8 -13,0 -41,25 -55,25 -7,0 -25,30 -42,30 0,1 -7,19 -7,19z"/>
  <path fill="gray" stroke="black" stroke-width="20" d="M1600 3233c25,2 15,6 45,6 34,0 68,0 102,0 7,13 17,8 38,8 5,0 42,0 42,0 18,7 -3,8 38,8 117,0 235,0 352,0 -8,-8 -1,-1 -9,-16 -15,0 4,-5 -8,-17 -3,-3 -9,-25 -9,-26 -8,0 -11,-46 -42,-46 0,-8 -15,-13 -25,-13 -29,0 15,-9 -26,-9 -9,-17 -12,-2 -38,-12 -15,-6 -6,-4 -25,-4 -23,0 -156,0 -157,0 -33,-10 12,-9 -38,-9 -46,0 0,-8 -51,-8 -16,0 -3,-9 -25,-9 -23,0 -3,-17 -43,-17 -31,0 7,-8 -42,-8 -18,0 -85,-10 -85,17 0,13 -4,-11 -4,21 0,41 0,82 0,123l10 11z"/>
 </g>
</svg>
