<?xml version="1.0" encoding="UTF-8"?>
<!DOCTYPE svg PUBLIC "-//W3C//DTD SVG 1.1//EN" "http://www.w3.org/Graphics/SVG/1.1/DTD/svg11.dtd">
<!-- Creator: CorelDRAW X8 -->
<svg xmlns="http://www.w3.org/2000/svg" xml:space="preserve" width="135.467mm" height="76.2mm" version="1.1" shape-rendering="geometricPrecision" text-rendering="geometricPrecision" image-rendering="optimizeQuality" fill-rule="evenodd" clip-rule="evenodd"
viewBox="0 0 13547 7620"
 xmlns:xlink="http://www.w3.org/1999/xlink">
 <g id="Layer_x0020_1">
  <metadata id="CorelCorpID_0Corel-Layer"/>
  <g id="_2755305740224">
   <polygon fill="#77CDF2" stroke="black" stroke-width="7.62" points="13547,4041 0,4041 0,0 13547,0 "/>
   <polygon fill="#1E611E" stroke="black" stroke-width="7.62" points="0,3046 13547,3046 13547,7620 0,7620 "/>
   <path fill="blue" stroke="blue" stroke-width="7.62" d="M9253 3046l4294 0 0 1272c-14,-1 -32,-3 -60,-5 -139,-10 -219,15 -383,-14 -62,-11 -97,-7 -163,-7 -112,0 -14,3 -81,-14 -3,-1 -112,-7 -127,-7 -78,0 -191,-21 -267,-21 -64,0 -128,-22 -163,-22 -59,0 -125,-28 -162,-28 -98,0 -56,-14 -93,-14 -82,0 -57,-7 -127,-14 -55,-5 -77,-18 -93,-21 -35,-7 1,9 -105,-14 -88,-20 -110,-9 -197,-36 -56,-17 -25,3 -81,-14l-58 -7c-17,-2 -47,-18 -81,-21 -92,-9 -30,-21 -93,-21 -90,0 8,-8 -81,-15 -106,-8 -216,-56 -267,-63l-104 -22c-42,-14 -142,-38 -163,-63 -83,0 -24,-14 -69,-14l-47 -22c-13,-3 -35,10 -35,-14 -63,-19 -34,8 -58,-21 -36,0 -51,-6 -69,-28 -34,0 -81,-31 -81,-43 -35,-10 -149,-60 -163,-77 -84,0 -16,-8 -69,-22l-24 -14c-22,-14 -36,-8 -92,-42l-24 -14c-67,-41 -10,0 -81,-50l-35 -21c-11,-7 -46,-21 -46,-21 -16,-10 -36,-43 -58,-43 -19,-22 -19,-28 -46,-28 0,-19 -15,-23 -35,-35 -50,-31 -31,-57 -58,-57 0,-19 -81,-48 -81,-78l-24 -7c0,-13 -23,-54 -34,-64 -25,-21 -38,-50 -47,-56 -46,-29 -26,-13 -69,-58z"/>
   <path fill="#805012" stroke="black" stroke-width="7.62" d="M0 7496c248,0 453,0 458,-2l43 -28c13,-6 177,-35 198,-43l155 -42c80,-22 151,-54 227,-85 103,-43 135,-27 254,-71 183,-66 290,-86 467,-183 96,-53 175,-65 283,-114l156 -70c57,-26 166,-62 240,-99 60,-30 241,-97 283,-128 60,-43 100,-27 170,-85 66,-54 155,-76 226,-127 68,-49 34,-49 127,-71l43 -42c60,-49 28,28 113,-57l99 -56c52,-30 53,-1 170,-85 39,-29 135,-71 198,-113 0,-42 140,-85 141,-85l425 -269c43,-38 113,-56 127,-71 51,-51 176,-90 254,-169 95,-95 248,-124 354,-283 49,0 159,-105 184,-156 71,0 9,-14 57,-14 32,-65 325,-278 325,-340 100,-67 53,-102 170,-169l56 -57c64,0 30,-44 113,-127 13,-12 152,-174 156,-184 3,-8 152,-251 156,-255 25,-25 44,-76 56,-85 73,-52 31,-73 71,-113 21,-20 69,-124 85,-155 33,0 67,-193 99,-227 43,-45 42,-126 42,-190l90 -2 -19 178c-6,59 -14,45 -14,128 0,20 -14,19 -14,84 0,15 -43,208 -43,283 0,21 -42,194 -42,241 0,44 -35,419 -43,438 -20,42 -42,140 -42,184 0,77 9,141 -14,212 -19,0 -43,104 -43,128 0,11 -76,257 -84,268l-142 283c-2,3 -55,145 -71,170l-28 28c-61,85 6,75 -71,114 0,64 -62,106 -70,141 -10,41 -150,276 -170,325 -2,5 -7,64 -43,114 -41,57 21,36 -42,99 -90,90 -126,225 -198,325 -13,18 -113,184 -113,198 -63,32 -81,141 -128,141 0,78 -61,71 -84,128 -11,26 21,42 -29,42 0,7 -27,57 -56,57l-43 70c-68,0 21,-3 -70,43 0,28 -113,98 -175,154l-4980 0 0 -124z"/>
   <polygon fill="#666666" stroke="black" stroke-width="7.62" points="6073,2577 7593,2577 7593,3046 6073,3046 "/>
   <path fill="black" stroke="black" stroke-width="7.62" d="M6735 2924c67,-63 130,-62 191,0l0 122 -191 0 0 -122z"/>
   <polygon fill="#666666" stroke="black" stroke-width="7.62" points="6406,2202 7287,2202 7287,2577 6406,2577 "/>
   <polygon fill="#666666" stroke="black" stroke-width="7.62" points="6738,1954 6937,1954 6937,2202 6738,2202 "/>
   <polygon fill="gray" stroke="black" stroke-width="7.62" points="6937,1954 6738,1954 6844,1756 "/>
   <path fill="black" stroke="black" stroke-width="7.62" d="M6169 2703c29,-27 57,-26 83,0l0 54 -83 0 0 -54z"/>
   <path fill="black" stroke="black" stroke-width="7.62" d="M6273 2703c29,-27 57,-26 83,0l0 54 -83 0 0 -54z"/>
   <path fill="black" stroke="black" stroke-width="7.62" d="M6377 2703c29,-27 57,-26 83,0l0 54 -83 0 0 -54z"/>
   <path fill="black" stroke="black" stroke-width="7.62" d="M6481 2703c29,-27 57,-26 83,0l0 54 -83 0 0 -54z"/>
   <path fill="black" stroke="black" stroke-width="7.62" d="M6585 2703c29,-27 57,-26 83,0l0 54 -83 0 0 -54z"/>
   <path fill="black" stroke="black" stroke-width="7.62" d="M6688 2703c30,-27 57,-26 84,0l0 54 -84 0 0 -54z"/>
   <path fill="black" stroke="black" stroke-width="7.62" d="M6792 2703c30,-27 57,-26 84,0l0 54 -84 0 0 -54z"/>
   <path fill="black" stroke="black" stroke-width="7.62" d="M6896 2703c29,-27 57,-26 83,0l0 54 -83 0 0 -54z"/>
   <path fill="black" stroke="black" stroke-width="7.62" d="M7000 2703c29,-27 57,-26 83,0l0 54 -83 0 0 -54z"/>
   <path fill="black" stroke="black" stroke-width="7.62" d="M7104 2703c29,-27 57,-26 83,0l0 54 -83 0 0 -54z"/>
   <path fill="black" stroke="black" stroke-width="7.62" d="M7208 2703c29,-27 57,-26 83,0l0 54 -83 0 0 -54z"/>
   <path fill="black" stroke="black" stroke-width="7.62" d="M7312 2703c29,-27 57,-26 83,0l0 54 -83 0 0 -54z"/>
   <path fill="black" stroke="black" stroke-width="7.62" d="M7416 2703c29,-27 56,-26 83,0l0 54 -83 0 0 -54z"/>
   <path fill="black" stroke="black" stroke-width="7.62" d="M6465 2338c19,-17 37,-17 53,0l0 35 -53 0 0 -35z"/>
   <path fill="black" stroke="black" stroke-width="7.62" d="M6532 2338c18,-17 36,-17 53,0l0 35 -53 0 0 -35z"/>
   <path fill="black" stroke="black" stroke-width="7.62" d="M6598 2338c18,-17 36,-17 53,0l0 35 -53 0 0 -35z"/>
   <path fill="black" stroke="black" stroke-width="7.62" d="M6664 2338c19,-17 36,-17 53,0l0 35 -53 0 0 -35z"/>
   <path fill="black" stroke="black" stroke-width="7.62" d="M6730 2338c19,-17 37,-17 54,0l0 35 -54 0 0 -35z"/>
   <path fill="black" stroke="black" stroke-width="7.62" d="M6797 2338c18,-17 36,-17 53,0l0 35 -53 0 0 -35z"/>
   <path fill="black" stroke="black" stroke-width="7.62" d="M6863 2338c19,-17 36,-17 53,0l0 35 -53 0 0 -35z"/>
   <path fill="black" stroke="black" stroke-width="7.62" d="M6931 2340c19,-17 36,-17 53,0l0 34 -53 0 0 -34z"/>
   <path fill="black" stroke="black" stroke-width="7.62" d="M6997 2340c19,-17 37,-17 53,0l0 34 -53 0 0 -34z"/>
   <path fill="black" stroke="black" stroke-width="7.62" d="M7063 2340c19,-17 37,-17 54,0l0 34 -54 0 0 -34z"/>
   <path fill="black" stroke="black" stroke-width="7.62" d="M7130 2340c18,-17 36,-17 53,0l0 34 -53 0 0 -34z"/>
   <path fill="black" stroke="black" stroke-width="7.62" d="M7196 2340c19,-17 36,-17 53,0l0 34 -53 0 0 -34z"/>
   <path fill="black" stroke="black" stroke-width="7.62" d="M6781 2021c18,-18 36,-17 53,0l0 34 -53 0 0 -34z"/>
   <path fill="black" stroke="black" stroke-width="7.62" d="M6859 2021c18,-18 36,-17 53,0l0 34 -53 0 0 -34z"/>
   <polygon fill="#4D4D4D" stroke="black" stroke-width="7.62" points="6073,2577 6151,2577 6151,2513 6073,2513 "/>
   <polygon fill="#4D4D4D" stroke="black" stroke-width="7.62" points="6215,2577 6293,2577 6293,2513 6215,2513 "/>
   <polygon fill="#4D4D4D" stroke="black" stroke-width="7.62" points="6356,2577 6434,2577 6434,2513 6356,2513 "/>
   <polygon fill="#4D4D4D" stroke="black" stroke-width="7.62" points="6498,2577 6576,2577 6576,2513 6498,2513 "/>
   <polygon fill="#4D4D4D" stroke="black" stroke-width="7.62" points="6639,2577 6717,2577 6717,2513 6639,2513 "/>
   <polygon fill="#4D4D4D" stroke="black" stroke-width="7.62" points="6781,2577 6859,2577 6859,2513 6781,2513 "/>
   <polygon fill="#4D4D4D" stroke="black" stroke-width="7.62" points="6922,2577 7000,2577 7000,2513 6922,2513 "/>
   <polygon fill="#4D4D4D" stroke="black" stroke-width="7.62" points="7064,2577 7141,2577 7141,2513 7064,2513 "/>
   <polygon fill="#4D4D4D" stroke="black" stroke-width="7.62" points="7205,2577 7283,2577 7283,2513 7205,2513 "/>
   <polygon fill="#4D4D4D" stroke="black" stroke-width="7.62" points="7347,2577 7424,2577 7424,2513 7347,2513 "/>
   <polygon fill="#4D4D4D" stroke="black" stroke-width="7.62" points="7488,2577 7566,2577 7566,2513 7488,2513 "/>
   <polygon fill="#4D4D4D" stroke="black" stroke-width="7.62" points="6405,2199 6483,2199 6483,2136 6405,2136 "/>
   <polygon fill="#4D4D4D" stroke="black" stroke-width="7.62" points="6405,2199 6483,2199 6483,2136 6405,2136 "/>
   <polygon fill="#4D4D4D" stroke="black" stroke-width="7.62" points="6547,2199 6625,2199 6625,2136 6547,2136 "/>
   <polygon fill="#4D4D4D" stroke="black" stroke-width="7.62" points="6689,2199 6767,2199 6767,2136 6689,2136 "/>
   <polygon fill="#4D4D4D" stroke="black" stroke-width="7.62" points="6906,2199 6984,2199 6984,2136 6906,2136 "/>
   <polygon fill="#4D4D4D" stroke="black" stroke-width="7.62" points="7061,2199 7139,2199 7139,2136 7061,2136 "/>
   <polygon fill="#4D4D4D" stroke="black" stroke-width="7.62" points="7208,2199 7286,2199 7286,2136 7208,2136 "/>
   <polygon fill="#805012" stroke="black" stroke-width="7.62" points="5948,3016 5985,3016 5985,3043 5948,3043 "/>
   <polygon fill="#805012" stroke="black" stroke-width="7.62" points="5966,2997 5936,3014 5996,3014 "/>
   <g>
    <polygon fill="#805012" stroke="black" stroke-width="7.62" points="5948,3016 5985,3016 5985,3043 5948,3043 "/>
    <polygon fill="#805012" stroke="black" stroke-width="7.62" points="5966,2997 5936,3014 5996,3014 "/>
   </g>
   <g>
    <polygon fill="#805012" stroke="black" stroke-width="7.62" points="5861,3016 5899,3016 5899,3043 5861,3043 "/>
    <polygon fill="#805012" stroke="black" stroke-width="7.62" points="5880,2998 5850,3014 5910,3014 "/>
   </g>
   <g>
    <polygon fill="#805012" stroke="black" stroke-width="7.62" points="5818,3019 5855,3019 5855,3046 5818,3046 "/>
    <polygon fill="#805012" stroke="black" stroke-width="7.62" points="5836,3001 5807,3017 5866,3017 "/>
   </g>
   <g>
    <polygon fill="#805012" stroke="black" stroke-width="7.62" points="3335,2786 3393,2786 3393,3136 3335,3136 "/>
    <path fill="#2FAD2F" stroke="black" stroke-width="7.62" d="M3405 2998c15,-7 19,5 40,5 15,0 50,3 61,-2 9,-4 23,-10 23,-21 7,-4 5,-9 5,-19 0,-12 -12,-11 -24,-19 -7,-6 -20,-7 -29,-7 0,-7 -2,6 -2,-8 0,-5 6,-13 12,-13 2,-4 8,-8 13,-8 3,-6 1,-5 6,-5 4,-6 31,-28 41,-44 8,-15 14,-18 14,-36 0,-10 -10,-6 -21,-6 -1,0 -23,0 -23,0 -29,12 20,-4 -13,4 -15,4 -21,12 -29,-9 -3,-5 5,-39 -11,-61 -2,-3 -4,-11 -4,-15 -6,0 -11,-21 -28,-21 -7,0 -14,0 -21,0 0,3 -19,18 -23,28 -1,2 -1,6 -6,6 0,9 -16,14 -24,17 -7,3 -1,2 -12,2 -11,0 -27,2 -36,-2 0,-4 -14,-2 -17,-2 -14,0 -27,0 -40,0 0,25 14,25 16,31 7,13 18,8 18,15l6 2c0,10 7,-1 -2,17l-2 5c-11,0 0,3 -13,8 -6,7 -28,18 -36,21 -5,2 -3,7 -11,9 -1,0 -14,12 -21,12 0,5 -10,9 -10,21 0,21 -3,18 21,28 8,3 17,8 27,8 4,0 7,5 15,5 0,13 -8,5 -9,19 -6,10 -10,2 -10,17 0,2 0,4 0,6 2,0 21,23 38,23 17,0 2,11 32,11 22,0 30,2 51,-7 3,-1 7,-4 10,-4 11,0 7,-6 21,-6 6,0 3,-3 7,-5z"/>
   </g>
   <g>
    <polygon fill="#805012" stroke="black" stroke-width="7.62" points="3728,2976 3740,2976 3740,3050 3728,3050 "/>
    <path fill="#2FAD2F" stroke="black" stroke-width="7.62" d="M3743 3021c3,-2 4,1 8,1 4,0 11,0 13,-1 2,0 5,-2 5,-4 2,-1 1,-2 1,-4 0,-3 -2,-2 -5,-4 -1,-1 -4,-1 -6,-1 0,-2 0,1 0,-2 0,-1 1,-3 2,-3 1,-1 2,-2 3,-2 1,-1 0,-1 1,-1 1,-1 7,-5 9,-9 2,-3 3,-4 3,-8 0,-2 -2,-1 -5,-1 0,0 -4,0 -4,0 -7,3 4,-1 -3,1 -3,1 -5,3 -6,-2 -1,-1 1,-8 -3,-13 0,0 -1,-2 -1,-3 -1,0 -2,-4 -5,-4 -2,0 -3,0 -5,0 0,0 -4,4 -5,6 0,0 0,1 -1,1 0,2 -3,3 -5,3 -1,1 0,1 -3,1 -2,0 -5,0 -7,-1 0,0 -3,0 -4,0 -3,0 -5,0 -8,0 0,5 3,5 3,7 2,2 4,1 4,3l1 0c0,2 2,0 0,4l-1 1c-2,0 0,1 -2,1 -2,2 -6,4 -8,5 -1,0 -1,1 -2,2 -1,0 -3,2 -5,2 0,1 -2,2 -2,5 0,4 -1,4 5,6 1,0 3,1 5,1 1,0 2,1 4,1 0,3 -2,1 -3,4 -1,2 -2,1 -2,4 0,0 0,1 0,1 1,0 5,5 9,5 3,0 0,2 6,2 5,0 7,1 11,-1 1,0 1,-1 2,-1 2,0 2,-1 5,-1 1,0 0,-1 1,-1z"/>
   </g>
   <g>
    <polygon fill="#805012" stroke="black" stroke-width="7.62" points="3600,2980 3612,2980 3612,3054 3600,3054 "/>
    <path fill="#2FAD2F" stroke="black" stroke-width="7.62" d="M3615 3025c3,-2 4,1 8,1 4,0 11,0 13,-1 2,0 5,-2 5,-4 2,-1 1,-2 1,-4 0,-3 -2,-3 -5,-4 -1,-1 -4,-2 -6,-2 0,-1 0,2 0,-1 0,-1 1,-3 2,-3 1,-1 2,-2 3,-2 0,-1 0,-1 1,-1 1,-1 7,-6 9,-9 2,-3 3,-4 3,-8 0,-2 -2,-1 -5,-1 0,0 -5,0 -5,0 -6,3 5,-1 -2,1 -4,1 -5,2 -6,-2 -1,-1 1,-8 -3,-13 0,0 -1,-2 -1,-3 -1,0 -2,-4 -5,-4 -2,0 -3,0 -5,0 0,0 -4,3 -5,5 0,1 0,2 -1,2 0,2 -4,3 -5,3 -2,1 0,1 -3,1 -2,0 -5,0 -7,-1 0,-1 -3,0 -4,0 -3,0 -6,0 -8,0 0,5 3,5 3,7 2,2 4,1 4,3l1 0c0,2 2,0 0,4l-1 1c-2,0 0,0 -2,1 -2,2 -6,4 -8,5 -1,0 -1,1 -2,2 -1,0 -3,2 -5,2 0,1 -2,2 -2,5 0,4 -1,3 4,6 2,0 4,1 6,1 1,0 2,1 3,1 0,3 -1,1 -2,4 -1,2 -2,1 -2,4 0,0 0,1 0,1 1,0 5,5 8,5 4,0 1,2 7,2 5,0 6,1 11,-1 1,0 1,-1 2,-1 2,0 1,-1 5,-1 1,0 0,-1 1,-1z"/>
   </g>
   <g>
    <polygon fill="#805012" stroke="black" stroke-width="7.62" points="3631,2983 3644,2983 3644,3057 3631,3057 "/>
    <path fill="#2FAD2F" stroke="black" stroke-width="7.62" d="M3646 3028c3,-2 4,1 9,1 3,0 10,0 13,-1 1,-1 4,-2 4,-4 2,-1 1,-2 1,-4 0,-3 -2,-3 -5,-4 -1,-2 -4,-2 -6,-2 0,-1 0,1 0,-2 0,-1 1,-2 2,-2 1,-1 2,-2 3,-2 1,-1 0,-1 1,-1 1,-1 7,-6 9,-9 2,-3 3,-4 3,-8 0,-2 -2,-1 -4,-1 -1,0 -5,0 -5,0 -7,2 4,-1 -3,1 -3,0 -4,2 -6,-2 -1,-1 1,-8 -3,-13 0,-1 0,-2 0,-3 -2,0 -3,-5 -6,-5 -2,0 -3,0 -5,0 0,1 -4,4 -5,6 0,1 0,1 -1,1 0,2 -3,3 -5,4 -1,1 0,1 -3,1 -2,0 -5,0 -7,-1 0,-1 -3,0 -4,0 -3,0 -5,0 -8,0 0,5 3,5 3,6 2,3 4,2 4,3l1 1c0,2 2,0 0,3l-1 1c-2,0 1,1 -2,2 -1,2 -6,4 -8,5 -1,0 -1,1 -2,1 0,0 -3,3 -5,3 0,1 -2,2 -2,5 0,4 0,3 5,5 1,1 3,2 5,2 1,0 2,1 4,1 0,3 -2,1 -2,4 -2,2 -2,1 -2,4 0,0 0,1 0,1 0,0 4,5 8,5 3,0 0,2 6,2 5,0 7,1 11,-1 1,-1 2,-1 2,-1 3,0 2,-1 5,-1 1,0 0,-1 1,-1z"/>
   </g>
   <g>
    <polygon fill="#805012" stroke="black" stroke-width="7.62" points="3783,2980 3795,2980 3795,3054 3783,3054 "/>
    <path fill="#2FAD2F" stroke="black" stroke-width="7.62" d="M3797 3025c4,-2 5,0 9,0 3,0 10,1 13,0 2,-1 5,-2 5,-4 1,-1 1,-2 1,-4 0,-3 -3,-3 -5,-4 -2,-2 -4,-2 -6,-2 0,-1 -1,1 -1,-2 0,-1 1,-2 3,-2 0,-1 1,-2 2,-2 1,-1 1,-1 2,-1 0,-1 6,-6 8,-9 2,-4 3,-4 3,-8 0,-2 -2,-1 -4,-1 0,0 -5,0 -5,0 -6,2 4,-1 -3,1 -3,0 -4,2 -6,-2 0,-1 1,-8 -2,-13 -1,-1 -1,-2 -1,-3 -1,0 -2,-5 -6,-5 -1,0 -3,0 -4,0 0,1 -4,4 -5,6 0,0 0,1 -2,1 0,2 -3,3 -4,4 -2,1 -1,0 -3,0 -2,0 -6,1 -8,0 0,-1 -3,0 -3,0 -3,0 -6,0 -9,0 0,5 3,5 4,6 1,3 3,2 3,3l2 1c0,2 1,0 -1,3l0 1c-2,0 0,1 -3,2 -1,2 -6,4 -7,5 -1,0 -1,1 -3,1 0,0 -3,3 -4,3 0,1 -2,2 -2,4 0,5 -1,4 4,6 2,1 4,2 6,2 1,0 1,1 3,1 0,3 -2,1 -2,4 -1,2 -2,0 -2,4 0,0 0,0 0,1 0,0 4,5 8,5 4,0 0,2 7,2 4,0 6,1 10,-1 1,-1 2,-1 3,-1 2,0 1,-2 4,-2 1,0 1,0 1,0z"/>
   </g>
   <g>
    <polygon fill="#805012" stroke="black" stroke-width="7.62" points="3841,3006 3847,3006 3847,3045 3841,3045 "/>
    <path fill="#2FAD2F" stroke="black" stroke-width="7.62" d="M3849 3030c1,-1 2,0 4,0 2,0 6,0 7,0 1,-1 2,-1 2,-3 1,0 1,0 1,-2 0,-1 -1,-1 -3,-2 0,0 -2,0 -3,0 0,-1 0,0 0,-1 0,-1 1,-2 1,-2 1,0 1,-1 2,-1 0,0 0,0 0,0 1,-1 4,-3 5,-5 1,-2 1,-2 1,-4 0,-1 -1,-1 -2,-1 0,0 -2,0 -2,0 -4,2 2,0 -2,1 -2,0 -2,1 -3,-1 0,-1 0,-4 -1,-7 0,0 -1,-1 -1,-1 0,0 -1,-3 -3,-3 -1,0 -1,0 -2,0 0,1 -2,2 -3,3 0,0 0,1 0,1 0,1 -2,1 -3,2 -1,0 0,0 -1,0 -1,0 -3,0 -4,0 0,-1 -2,0 -2,0 -2,0 -3,0 -5,0 0,2 2,2 2,3 1,1 2,1 2,2l1 0c0,1 1,0 0,2l-1 0c-1,0 1,1 -1,1 -1,1 -3,2 -4,2 0,1 0,1 -1,1 0,0 -2,2 -2,2 0,0 -2,1 -2,2 0,2 0,2 3,3 1,1 2,1 3,1 0,0 1,1 1,1 0,1 -1,0 -1,2 0,1 -1,0 -1,1 0,1 0,1 0,1 1,0 3,3 5,3 1,0 0,1 3,1 2,0 3,0 6,-1 0,0 0,0 1,0 1,0 0,-1 2,-1 1,0 0,0 1,0z"/>
   </g>
   <g>
    <polygon fill="#805012" stroke="black" stroke-width="7.62" points="3667,2913 3691,2913 3691,3055 3667,3055 "/>
    <path fill="#2FAD2F" stroke="black" stroke-width="7.62" d="M3695 2999c7,-3 8,2 17,2 6,0 20,1 25,-1 3,-2 9,-4 9,-9 3,-1 2,-3 2,-7 0,-5 -5,-5 -10,-8 -3,-2 -8,-3 -12,-3 0,-3 -1,3 -1,-3 0,-2 3,-5 6,-5 0,-2 2,-4 5,-4 1,-2 0,-1 2,-1 2,-3 13,-12 17,-18 3,-7 6,-8 6,-15 0,-4 -5,-3 -9,-3 0,0 -9,0 -9,0 -12,5 8,-1 -6,2 -6,2 -8,5 -12,-3 -1,-3 3,-16 -4,-25 -1,-1 -2,-5 -2,-6 -2,0 -4,-9 -11,-9 -3,0 -6,0 -8,0 0,1 -8,7 -10,11 0,1 0,3 -2,3 0,4 -7,6 -10,7 -3,1 0,1 -5,1 -4,0 -11,1 -15,-1 0,-2 -5,-1 -6,-1 -6,0 -11,0 -17,0 0,10 6,10 7,13 3,5 7,3 7,6l3 1c0,4 2,-1 -1,7l-1 1c-4,0 0,2 -5,4 -3,3 -12,7 -15,8 -2,1 -1,3 -4,4 -1,0 -6,5 -9,5 0,2 -4,4 -4,8 0,9 -1,8 8,12 4,1 8,3 12,3 1,0 2,2 6,2 0,5 -4,2 -4,7 -3,5 -4,1 -4,7 0,1 0,2 0,3 1,0 8,9 15,9 7,0 1,5 13,5 9,0 12,1 21,-3 1,0 3,-2 4,-2 4,0 3,-2 9,-2 2,0 1,-1 2,-2z"/>
   </g>
   <g>
    <polygon fill="#805012" stroke="black" stroke-width="7.62" points="3817,2921 3840,2921 3840,3063 3817,3063 "/>
    <path fill="#2FAD2F" stroke="black" stroke-width="7.62" d="M3845 3007c6,-3 8,2 16,2 6,0 20,1 25,-1 4,-1 10,-4 10,-8 2,-2 1,-4 1,-8 0,-5 -5,-5 -9,-8 -3,-2 -8,-2 -12,-2 0,-3 -1,2 -1,-4 0,-2 3,-5 5,-5 1,-2 3,-3 5,-3 1,-3 1,-2 3,-2 1,-3 12,-12 16,-18 4,-6 6,-7 6,-15 0,-4 -4,-2 -8,-2 -1,0 -10,0 -10,0 -12,5 8,-2 -5,1 -6,2 -9,5 -12,-3 -1,-2 2,-16 -4,-25 -1,-1 -2,-4 -2,-6 -3,0 -4,-9 -11,-9 -3,0 -6,0 -9,0 0,2 -8,8 -9,12 -1,0 -1,2 -3,2 0,4 -6,6 -9,7 -3,1 -1,1 -5,1 -5,0 -11,1 -15,-1 0,-2 -5,-1 -7,-1 -5,0 -11,0 -16,0 0,10 6,11 6,13 3,5 8,3 8,6l2 1c0,4 3,-1 -1,7l-1 2c-4,0 1,1 -5,3 -2,3 -11,7 -14,9 -2,0 -2,2 -5,3 0,0 -6,5 -8,5 0,2 -4,4 -4,9 0,8 -2,7 8,11 4,1 7,3 11,3 2,0 3,2 6,2 0,6 -3,2 -4,8 -2,4 -3,1 -3,7 0,0 0,1 0,2 1,0 8,10 15,10 7,0 1,4 13,4 9,0 12,1 21,-3 1,0 2,-1 4,-1 4,0 2,-3 8,-3 3,0 1,-1 3,-2z"/>
   </g>
   <g>
    <polygon fill="#805012" stroke="black" stroke-width="7.62" points="3512,2810 3570,2810 3570,3160 3512,3160 "/>
    <path fill="#2FAD2F" stroke="black" stroke-width="7.62" d="M3582 3023c16,-8 20,4 40,4 16,0 50,3 62,-2 8,-4 23,-10 23,-21 7,-4 4,-9 4,-19 0,-12 -12,-11 -23,-19 -7,-5 -20,-7 -30,-7 0,-7 -2,6 -2,-8 0,-5 7,-13 13,-13 2,-4 7,-8 13,-8 2,-6 1,-4 6,-4 3,-7 31,-28 40,-45 9,-15 15,-17 15,-36 0,-9 -11,-6 -21,-6 -1,0 -23,0 -24,0 -29,12 20,-3 -12,4 -16,4 -21,12 -30,-8 -2,-6 6,-39 -10,-62 -2,-2 -5,-11 -5,-14 -6,0 -10,-22 -27,-22 -7,0 -14,0 -21,0 0,4 -20,18 -23,28 -1,2 -2,6 -7,6 0,10 -16,14 -23,17 -7,3 -1,2 -13,2 -10,0 -27,3 -36,-2 0,-4 -13,-2 -17,-2 -13,0 -26,0 -40,0 0,25 15,26 16,32 7,12 18,7 18,15l6 2c0,9 7,-2 -2,17l-2 4c-10,0 1,4 -13,8 -5,7 -27,18 -36,21 -4,2 -3,7 -10,9 -2,0 -15,13 -21,13 0,5 -11,9 -11,21 0,21 -3,17 21,27 9,4 18,9 28,9 3,0 7,4 15,4 0,14 -9,5 -10,19 -6,10 -9,2 -9,17 0,2 0,4 0,6 2,0 21,23 38,23 17,0 1,11 31,11 22,0 30,2 51,-6 3,-2 7,-5 11,-5 10,0 6,-6 21,-6 6,0 2,-2 6,-4z"/>
   </g>
   <g>
    <polygon fill="#805012" stroke="black" stroke-width="7.62" points="3243,2847 3301,2847 3301,3197 3243,3197 "/>
    <path fill="#2FAD2F" stroke="black" stroke-width="7.62" d="M3313 3060c16,-8 20,4 40,4 15,0 50,3 62,-2 8,-3 23,-10 23,-21 7,-4 4,-9 4,-19 0,-12 -12,-11 -23,-19 -7,-5 -20,-6 -30,-6 0,-8 -2,5 -2,-9 0,-5 6,-13 13,-13 2,-4 7,-8 12,-8 3,-6 2,-4 7,-4 3,-7 30,-28 40,-45 9,-15 15,-17 15,-36 0,-9 -11,-6 -21,-6 -1,0 -24,0 -24,0 -29,12 20,-3 -12,4 -16,4 -21,12 -30,-8 -2,-6 6,-39 -11,-62 -1,-2 -4,-10 -4,-14 -6,0 -10,-21 -27,-21 -7,0 -14,0 -21,0 0,3 -20,18 -24,27 0,2 -1,6 -6,6 0,10 -16,14 -23,17 -8,3 -1,2 -13,2 -10,0 -27,3 -36,-2 0,-4 -13,-2 -17,-2 -13,0 -27,0 -40,0 0,25 15,26 16,32 7,12 18,7 18,15l6 2c0,9 7,-1 -2,17l-2 4c-11,0 0,4 -13,8 -5,7 -28,18 -36,22 -4,1 -3,6 -10,8 -2,0 -15,13 -21,13 0,5 -11,9 -11,21 0,21 -3,17 21,27 9,4 18,9 28,9 3,0 7,4 14,4 0,14 -8,5 -9,19 -6,10 -10,3 -10,17 0,2 0,4 0,6 3,0 21,24 39,24 17,0 1,10 31,10 22,0 30,2 51,-6 3,-2 7,-4 11,-4 10,0 6,-7 21,-7 6,0 2,-2 6,-4z"/>
   </g>
   <g>
    <polygon fill="#805012" stroke="black" stroke-width="7.62" points="2037,2293 2365,2293 2365,4264 2037,4264 "/>
    <path fill="#2FAD2F" stroke="black" stroke-width="7.62" d="M2431 3490c89,-41 111,25 227,25 85,0 279,15 345,-12 49,-21 131,-57 131,-119 39,-20 24,-50 24,-108 0,-66 -68,-62 -131,-107 -41,-29 -114,-36 -167,-36 0,-40 -12,31 -12,-47 0,-28 36,-72 72,-72 11,-23 40,-47 71,-47 16,-32 7,-24 36,-24 18,-36 173,-158 226,-250 50,-86 84,-100 84,-203 0,-54 -60,-36 -120,-36 -6,0 -130,0 -131,0 -164,69 111,-19 -71,24 -88,21 -119,68 -167,-47 -13,-32 31,-221 -59,-346 -11,-15 -24,-62 -24,-83 -35,0 -61,-119 -155,-119 -40,0 -80,0 -119,0 0,17 -109,101 -131,154 -5,11 -6,36 -36,36 0,53 -90,78 -131,95 -41,18 -6,12 -71,12 -59,0 -153,13 -203,-12 0,-21 -76,-11 -95,-11 -76,0 -151,0 -227,0 0,141 84,144 90,178 41,71 101,42 101,84l36 12c0,53 39,-8 -12,95l-12 24c-60,0 2,22 -72,47 -31,40 -156,100 -202,119 -26,11 -18,38 -60,48 -9,2 -82,72 -119,72 0,28 -59,51 -59,119 0,118 -18,98 119,155 47,19 98,47 155,47 20,0 39,24 83,24 0,78 -48,29 -54,107 -34,56 -53,14 -53,96 0,11 0,23 0,35 13,0 118,131 214,131 96,0 8,60 179,60 124,0 169,12 286,-36 18,-7 39,-24 59,-24 60,0 38,-35 119,-35 34,0 14,-15 36,-25z"/>
   </g>
   <g>
    <polygon fill="#805012" stroke="black" stroke-width="7.62" points="0,2121 97,2121 97,4092 0,4092 "/>
    <path fill="#2FAD2F" stroke="black" stroke-width="7.62" d="M164 3318c88,-42 110,24 226,24 86,0 280,16 346,-11 49,-21 131,-57 131,-120 39,-19 24,-49 24,-107 0,-66 -69,-62 -131,-107 -41,-30 -114,-36 -167,-36 0,-40 -12,31 -12,-47 0,-28 36,-72 71,-72 12,-24 41,-48 72,-48 15,-31 7,-23 36,-23 17,-36 172,-158 226,-250 49,-86 83,-100 83,-203 0,-54 -60,-36 -119,-36 -6,0 -130,0 -131,0 -165,69 111,-19 -71,24 -88,21 -119,68 -167,-48 -13,-31 31,-220 -60,-345 -10,-15 -24,-62 -24,-83 -35,0 -60,-120 -154,-120 -40,0 -80,0 -120,0 0,18 -108,102 -131,155 -4,11 -6,36 -35,36 0,28 -26,49 -57,65l0 1413c3,0 6,-1 9,-1 60,0 37,-36 119,-36 33,0 14,-14 36,-24z"/>
   </g>
   <g>
    <polygon fill="#805012" stroke="black" stroke-width="7.62" points="5743,3016 5781,3016 5781,3043 5743,3043 "/>
    <polygon fill="#805012" stroke="black" stroke-width="7.62" points="5762,2997 5732,3014 5792,3014 "/>
   </g>
   <g>
    <polygon fill="#805012" stroke="black" stroke-width="7.62" points="5659,3015 5696,3015 5696,3042 5659,3042 "/>
    <polygon fill="#805012" stroke="black" stroke-width="7.62" points="5677,2996 5648,3013 5707,3013 "/>
   </g>
   <line fill="none" stroke="black" stroke-width="7.62" x1="5800" y1="3046" x2="5801" y2= "2920" />
   <polygon fill="#B3B3B3" stroke="black" stroke-width="7.62" points="5847,2934 5801,2911 5798,2966 "/>
   <polygon fill="#805012" stroke="black" stroke-width="7.62" points="626,415 1404,415 1404,5097 626,5097 "/>
   <path fill="#2FAD2F" stroke="black" stroke-width="7.62" d="M1563 3259c209,-99 261,58 537,58 204,0 664,36 820,-28 117,-49 311,-135 311,-283 93,-47 57,-117 57,-255 0,-157 -162,-147 -311,-254 -98,-71 -270,-85 -396,-85 0,-96 -29,72 -29,-113 0,-67 86,-170 170,-170 28,-56 97,-113 170,-113 37,-75 17,-57 85,-57 42,-85 410,-375 537,-594 118,-203 198,-236 198,-481 0,-127 -142,-85 -283,-85 -14,0 -310,0 -311,0 -391,162 264,-46 -170,57 -208,49 -282,161 -396,-113 -28,-69 57,-451 -94,-743l-1211 0c-70,58 -186,93 -251,120 -98,41 -15,28 -169,28 -139,0 -364,31 -481,-28 0,-52 -181,-28 -227,-28l-119 0 0 567c21,10 34,25 34,55l85 29c0,126 94,-17 -28,226l-28 57c-38,0 -55,3 -63,10l0 2369c146,21 4,138 374,138 296,0 402,30 679,-84 42,-18 93,-57 141,-57 142,0 89,-85 283,-85 79,0 32,-33 86,-58z"/>
   <polygon fill="#805012" stroke="black" stroke-width="7.62" points="12876,229 13547,229 13547,4912 12876,4912 "/>
   <path fill="#2FAD2F" stroke="black" stroke-width="7.62" d="M12805 3271c-210,-99 -262,58 -537,58 -204,0 -665,37 -820,-28 -117,-48 -312,-135 -312,-283 -93,-46 -56,-117 -56,-255 0,-157 162,-147 311,-254 97,-70 270,-85 396,-85 0,-96 28,72 28,-113 0,-67 -85,-170 -169,-170 -29,-56 -97,-113 -170,-113 -37,-75 -18,-57 -85,-57 -43,-85 -411,-375 -538,-594 -117,-203 -198,-236 -198,-481 0,-127 142,-85 283,-85 15,0 310,0 311,0 392,162 -263,-45 170,57 208,49 283,161 396,-113 29,-70 -59,-461 101,-755l1190 0c69,65 196,104 265,132 99,41 15,29 170,29l6 0 0 3382c-68,-12 -141,-34 -232,-72 -43,-18 -94,-57 -142,-57 -141,0 -88,-85 -283,-85 -78,0 -32,-33 -85,-58z"/>
   <g>
    <polygon fill="#805012" stroke="black" stroke-width="7.62" points="3878,3006 3884,3006 3884,3045 3878,3045 "/>
    <path fill="#2FAD2F" stroke="black" stroke-width="7.62" d="M3886 3030c1,-1 2,0 4,0 2,0 5,0 7,0 1,-1 2,-1 2,-3 1,0 1,0 1,-2 0,-1 -2,-1 -3,-2 -1,0 -2,0 -3,0 0,-1 0,0 0,-1 0,-1 0,-2 1,-2 0,0 1,-1 1,-1 1,0 1,0 1,0 1,-1 4,-3 5,-5 1,-2 1,-2 1,-4 0,-1 -1,-1 -2,-1 0,0 -3,0 -3,0 -3,2 2,0 -1,1 -2,0 -2,1 -3,-1 -1,-1 0,-4 -1,-7 -1,0 -1,-1 -1,-1 -1,0 -1,-3 -3,-3 -1,0 -2,0 -2,0 0,1 -2,2 -3,3 0,0 0,1 -1,1 0,1 -1,1 -2,2 -1,0 0,0 -1,0 -2,0 -3,0 -4,0 0,-1 -2,0 -2,0 -2,0 -3,0 -5,0 0,2 2,2 2,3 1,1 2,1 2,2l1 0c0,1 0,0 -1,2l0 0c-1,0 0,1 -1,1 -1,1 -3,2 -4,2 -1,1 0,1 -1,1 0,0 -2,2 -3,2 0,0 -1,1 -1,2 0,2 0,2 3,3 0,1 1,1 3,1 0,0 0,1 1,1 0,1 -1,0 -1,2 -1,1 -1,0 -1,1 0,1 0,1 0,1 0,0 2,3 4,3 2,0 0,1 4,1 2,0 3,0 5,-1 1,0 1,0 2,0 1,0 0,-1 2,-1 0,0 0,0 1,0z"/>
   </g>
   <g>
    <polygon fill="#805012" stroke="black" stroke-width="7.62" points="3906,3006 3912,3006 3912,3045 3906,3045 "/>
    <path fill="#2FAD2F" stroke="black" stroke-width="7.62" d="M3914 3030c1,-1 2,0 4,0 2,0 6,0 7,0 1,-1 2,-1 2,-3 1,0 1,0 1,-2 0,-1 -1,-1 -3,-2 0,0 -2,0 -3,0 0,-1 0,0 0,-1 0,-1 1,-2 1,-2 0,0 1,-1 2,-1 0,0 0,0 0,0 1,-1 4,-3 5,-5 1,-2 1,-2 1,-4 0,-1 -1,-1 -2,-1 0,0 -2,0 -3,0 -3,2 3,0 -1,1 -2,0 -2,1 -3,-1 0,-1 0,-4 -1,-7 -1,0 -1,-1 -1,-1 0,0 -1,-3 -3,-3 -1,0 -1,0 -2,0 0,1 -2,2 -3,3 0,0 0,1 0,1 0,1 -2,1 -3,2 -1,0 0,0 -1,0 -1,0 -3,0 -4,0 0,-1 -2,0 -2,0 -2,0 -3,0 -5,0 0,2 2,2 2,3 1,1 2,1 2,2l1 0c0,1 1,0 0,2l-1 0c-1,0 0,1 -1,1 -1,1 -3,2 -4,2 0,1 0,1 -1,1 0,0 -2,2 -2,2 0,0 -2,1 -2,2 0,2 0,2 3,3 1,1 2,1 3,1 0,0 1,1 1,1 0,1 -1,0 -1,2 0,1 -1,0 -1,1 0,1 0,1 0,1 1,0 3,3 4,3 2,0 1,1 4,1 2,0 3,0 6,-1 0,0 0,0 1,0 1,0 0,-1 2,-1 1,0 0,0 1,0z"/>
   </g>
   <g>
    <polygon fill="#805012" stroke="black" stroke-width="7.62" points="3922,3006 3928,3006 3928,3044 3922,3044 "/>
    <path fill="#2FAD2F" stroke="black" stroke-width="7.62" d="M3930 3029c1,-1 2,1 4,1 2,0 6,0 7,0 1,-1 2,-2 2,-3 1,0 1,-1 1,-2 0,-1 -1,-1 -3,-2 -1,-1 -2,-1 -3,-1 0,0 0,1 0,-1 0,0 1,-1 1,-1 0,0 1,-1 2,-1 0,-1 0,0 0,0 1,-1 4,-3 5,-5 1,-2 1,-2 1,-4 0,-1 -1,-1 -2,-1 0,0 -3,0 -3,0 -3,1 3,0 -1,1 -2,0 -2,1 -3,-1 0,-1 0,-5 -1,-7 -1,0 -1,-1 -1,-2 -1,0 -1,-2 -3,-2 -1,0 -1,0 -2,0 0,0 -2,2 -3,3 0,0 0,1 0,1 0,1 -2,1 -3,2 -1,0 0,0 -1,0 -2,0 -3,0 -4,0 0,-1 -2,-1 -2,-1 -2,0 -3,0 -5,0 0,3 2,3 2,4 1,1 2,1 2,1l1 1c0,1 1,-1 0,1l-1 1c-1,0 0,0 -1,1 -1,1 -3,2 -4,2 0,0 0,1 -1,1 0,0 -2,2 -2,2 0,0 -2,1 -2,2 0,2 0,2 3,3 1,0 2,1 3,1 0,0 1,0 1,0 0,2 -1,1 -1,2 0,1 -1,1 -1,2 0,0 0,1 0,1 1,0 3,2 4,2 2,0 1,2 4,2 2,0 3,0 5,-1 1,0 1,-1 2,-1 1,0 0,0 2,0 1,0 0,-1 1,-1z"/>
   </g>
   <g>
    <polygon fill="#805012" stroke="black" stroke-width="7.62" points="3962,3006 3969,3006 3969,3045 3962,3045 "/>
    <path fill="#2FAD2F" stroke="black" stroke-width="7.62" d="M3970 3030c2,-1 2,0 5,0 1,0 5,0 6,0 1,-1 3,-1 3,-3 1,0 0,0 0,-2 0,-1 -1,-1 -2,-2 -1,0 -3,0 -4,0 0,-1 0,0 0,-1 0,-1 1,-2 2,-2 0,0 0,-1 1,-1 0,0 0,0 1,0 0,-1 3,-3 4,-5 1,-2 2,-2 2,-4 0,-1 -1,-1 -3,-1 0,0 -2,0 -2,0 -3,2 2,0 -2,1 -1,0 -2,1 -3,-1 0,-1 1,-4 -1,-7 0,0 0,-1 0,-1 -1,0 -2,-3 -3,-3 -1,0 -2,0 -3,0 0,1 -2,2 -2,3 0,0 0,1 -1,1 0,1 -2,1 -3,2 0,0 0,0 -1,0 -1,0 -3,0 -4,0 0,-1 -1,0 -2,0 -1,0 -3,0 -4,0 0,2 1,2 2,3 0,1 2,1 2,2l0 0c0,1 1,0 0,2l0 0c-1,0 0,1 -2,1 0,1 -3,2 -4,2 0,1 0,1 -1,1 0,0 -1,2 -2,2 0,0 -1,1 -1,2 0,2 -1,2 2,3 1,1 2,1 3,1 1,0 1,1 2,1 0,1 -1,0 -1,2 -1,1 -1,0 -1,1 0,1 0,1 0,1 0,0 2,3 4,3 2,0 0,1 3,1 3,0 4,0 6,-1 0,0 1,0 1,0 1,0 1,-1 2,-1 1,0 1,0 1,0z"/>
   </g>
   <g>
    <polygon fill="#805012" stroke="black" stroke-width="7.62" points="3991,3006 3997,3006 3997,3045 3991,3045 "/>
    <path fill="#2FAD2F" stroke="black" stroke-width="7.62" d="M3998 3030c2,-1 2,0 5,0 1,0 5,0 6,0 1,-1 3,-1 3,-3 1,0 0,0 0,-2 0,-1 -1,-1 -2,-2 -1,0 -2,0 -3,0 0,-1 -1,0 -1,-1 0,-1 1,-2 2,-2 0,0 1,-1 1,-1 0,0 0,0 1,0 0,-1 3,-3 4,-5 1,-2 2,-2 2,-4 0,-1 -1,-1 -2,-1 -1,0 -3,0 -3,0 -3,2 2,0 -1,1 -2,0 -3,1 -4,-1 0,-1 1,-4 -1,-7 0,0 0,-1 0,-1 -1,0 -1,-3 -3,-3 -1,0 -2,0 -3,0 0,1 -2,2 -2,3 0,0 0,1 -1,1 0,1 -2,1 -2,2 -1,0 0,0 -2,0 -1,0 -3,0 -4,0 0,-1 -1,0 -2,0 -1,0 -3,0 -4,0 0,2 2,2 2,3 1,1 2,1 2,2l0 0c0,1 1,0 0,2l0 0c-1,0 0,1 -1,1 -1,1 -3,2 -4,2 -1,1 -1,1 -2,1 0,0 -1,2 -2,2 0,0 -1,1 -1,2 0,2 0,2 2,3 1,1 2,1 3,1 1,0 1,1 2,1 0,1 -1,0 -1,2 -1,1 -1,0 -1,1 0,1 0,1 0,1 0,0 2,3 4,3 2,0 0,1 4,1 2,0 3,0 5,-1 0,0 1,0 1,0 1,0 1,-1 3,-1 0,0 0,0 0,0z"/>
   </g>
   <g>
    <polygon fill="#805012" stroke="black" stroke-width="7.62" points="4005,3007 4012,3007 4012,3045 4005,3045 "/>
    <path fill="#2FAD2F" stroke="black" stroke-width="7.62" d="M4013 3030c2,-1 2,0 4,0 2,0 6,1 7,0 1,0 3,-1 3,-2 1,0 0,-1 0,-2 0,-1 -1,-1 -2,-2 -1,-1 -3,-1 -4,-1 0,-1 0,1 0,-1 0,0 1,-1 2,-1 0,-1 0,-1 1,-1 0,-1 0,-1 1,-1 0,0 3,-3 4,-5 1,-1 2,-2 2,-4 0,-1 -1,0 -3,0 0,0 -2,0 -2,0 -3,1 2,-1 -2,0 -1,1 -2,2 -3,-1 0,0 1,-4 -1,-6 0,-1 0,-2 0,-2 -1,0 -2,-2 -3,-2 -1,0 -2,0 -3,0 0,0 -2,2 -2,3 0,0 0,0 -1,0 0,1 -2,2 -3,2 0,1 0,0 -1,0 -1,0 -3,1 -4,0 0,0 -1,0 -2,0 -1,0 -3,0 -4,0 0,3 1,3 2,3 0,2 2,1 2,2l0 0c0,1 1,0 0,2l0 1c-1,0 0,0 -2,1 0,0 -3,2 -4,2 0,0 0,1 -1,1 0,0 -1,1 -2,1 0,1 -1,1 -1,3 0,2 -1,1 2,3 1,0 2,0 3,0 1,0 1,1 2,1 0,1 -1,1 -1,2 -1,1 -1,0 -1,2 0,0 0,0 0,1 0,0 2,2 4,2 2,0 0,1 3,1 3,0 4,1 6,0 0,-1 1,-1 1,-1 1,0 1,-1 2,-1 1,0 1,0 1,0z"/>
   </g>
   <g>
    <polygon fill="#805012" stroke="black" stroke-width="7.62" points="4047,3006 4053,3006 4053,3045 4047,3045 "/>
    <path fill="#2FAD2F" stroke="black" stroke-width="7.62" d="M4055 3030c1,-1 2,0 4,0 2,0 6,0 7,0 1,-1 2,-1 2,-3 1,0 1,0 1,-2 0,-1 -2,-1 -3,-2 -1,0 -2,0 -3,0 0,-1 0,0 0,-1 0,-1 0,-2 1,-2 0,0 1,-1 2,-1 0,0 0,0 0,0 1,-1 4,-3 5,-5 1,-2 1,-2 1,-4 0,-1 -1,-1 -2,-1 0,0 -3,0 -3,0 -3,2 3,0 -1,1 -2,0 -2,1 -3,-1 0,-1 0,-4 -1,-7 -1,0 -1,-1 -1,-1 -1,0 -1,-3 -3,-3 -1,0 -1,0 -2,0 0,1 -2,2 -3,3 0,0 0,1 0,1 0,1 -2,1 -3,2 -1,0 0,0 -1,0 -2,0 -3,0 -4,0 0,-1 -2,0 -2,0 -2,0 -3,0 -5,0 0,2 2,2 2,3 1,1 2,1 2,2l1 0c0,1 1,0 0,2l-1 0c-1,0 0,1 -1,1 -1,1 -3,2 -4,2 -1,1 0,1 -1,1 0,0 -2,2 -2,2 0,0 -2,1 -2,2 0,2 0,2 3,3 1,1 2,1 3,1 0,0 0,1 1,1 0,1 -1,0 -1,2 0,1 -1,0 -1,1 0,1 0,1 0,1 0,0 3,3 4,3 2,0 1,1 4,1 2,0 3,0 5,-1 1,0 1,0 2,0 1,0 0,-1 2,-1 1,0 0,0 1,0z"/>
   </g>
   <g>
    <polygon fill="#805012" stroke="black" stroke-width="7.62" points="4091,3006 4098,3006 4098,3045 4091,3045 "/>
    <path fill="#2FAD2F" stroke="black" stroke-width="7.62" d="M4099 3030c2,-1 2,0 4,0 2,0 6,0 7,0 1,-1 3,-1 3,-3 1,0 0,0 0,-2 0,-1 -1,-1 -2,-2 -1,0 -3,0 -4,0 0,-1 0,0 0,-1 0,-1 1,-2 2,-2 0,0 0,-1 1,-1 0,0 0,0 1,0 0,-1 3,-3 4,-5 1,-2 2,-2 2,-4 0,-1 -1,-1 -3,-1 0,0 -2,0 -2,0 -3,2 2,0 -2,1 -1,0 -2,1 -3,-1 0,-1 1,-4 -1,-7 0,0 0,-1 0,-1 -1,0 -2,-3 -3,-3 -1,0 -2,0 -3,0 0,1 -2,2 -2,3 0,0 0,1 -1,1 0,1 -2,1 -3,2 0,0 0,0 -1,0 -1,0 -3,0 -4,0 0,-1 -1,0 -2,0 -1,0 -3,0 -4,0 0,2 1,2 2,3 0,1 2,1 2,2l0 0c0,1 1,0 0,2l0 0c-1,0 0,1 -2,1 0,1 -3,2 -4,2 0,1 0,1 -1,1 0,0 -1,2 -2,2 0,0 -1,1 -1,2 0,2 -1,2 2,3 1,1 2,1 3,1 1,0 1,1 2,1 0,1 -1,0 -1,2 -1,1 -1,0 -1,1 0,1 0,1 0,1 0,0 2,3 4,3 2,0 0,1 3,1 3,0 4,0 6,-1 0,0 1,0 1,0 1,0 1,-1 2,-1 1,0 1,0 1,0z"/>
   </g>
   <g>
    <polygon fill="#805012" stroke="black" stroke-width="7.62" points="3894,2993 3906,2993 3906,3067 3894,3067 "/>
    <path fill="#2FAD2F" stroke="black" stroke-width="7.62" d="M3909 3038c3,-2 4,1 8,1 4,0 11,0 13,-1 2,0 5,-2 5,-4 2,-1 1,-2 1,-4 0,-3 -2,-2 -5,-4 -1,-1 -4,-1 -6,-1 0,-2 0,1 0,-2 0,-1 1,-3 2,-3 1,-1 2,-2 3,-2 1,-1 0,-1 1,-1 1,-1 7,-6 9,-9 2,-3 3,-4 3,-8 0,-2 -2,-1 -5,-1 0,0 -4,0 -4,0 -7,3 4,-1 -3,1 -3,1 -5,2 -6,-2 -1,-1 1,-8 -3,-13 0,0 -1,-2 -1,-3 -1,0 -2,-4 -5,-4 -2,0 -3,0 -5,0 0,0 -4,3 -5,5 0,1 0,2 -1,2 0,2 -3,3 -5,3 -2,1 0,1 -3,1 -2,0 -5,0 -7,-1 0,0 -3,0 -4,0 -3,0 -5,0 -8,0 0,5 3,5 3,7 2,2 4,1 4,3l1 0c0,2 2,0 0,4l-1 1c-2,0 0,0 -2,1 -2,2 -6,4 -8,5 -1,0 -1,1 -2,2 -1,0 -3,2 -5,2 0,1 -2,2 -2,5 0,4 -1,3 5,6 1,0 3,1 5,1 1,0 2,1 3,1 0,3 -1,1 -2,4 -1,2 -2,1 -2,4 0,0 0,1 0,1 1,0 5,5 8,5 4,0 1,2 7,2 5,0 7,1 11,-1 1,0 1,-1 2,-1 2,0 2,-1 5,-1 1,0 0,-1 1,-1z"/>
   </g>
  </g>
 </g>
</svg>
