<?xml version="1.0" encoding="UTF-8"?>
<!DOCTYPE svg PUBLIC "-//W3C//DTD SVG 1.1//EN" "http://www.w3.org/Graphics/SVG/1.1/DTD/svg11.dtd">
<!-- Creator: CorelDRAW X8 -->
<svg xmlns="http://www.w3.org/2000/svg" xml:space="preserve" width="42.3332mm" height="42.3332mm" version="1.1" shape-rendering="geometricPrecision" text-rendering="geometricPrecision" image-rendering="optimizeQuality" fill-rule="evenodd" clip-rule="evenodd"
viewBox="0 0 4233 4233"
 xmlns:xlink="http://www.w3.org/1999/xlink">
 <g id="Layer_x0020_1">
  <metadata id="CorelCorpID_0Corel-Layer"/>
  <g id="_2755247504560">
   <path fill="black" d="M2393 1889c-2,-40 -35,-128 -49,-169l-72 -259c-24,-49 -5,-18 -12,-70 -4,-38 -30,-121 -75,-115 -1,-1 -2,-2 -3,-3l-9 -5c-22,-10 11,2 -5,-1 0,0 -2,1 -2,0 0,-1 -2,0 -2,1 0,7 -6,-1 5,7 9,5 18,4 29,15 6,6 19,27 21,31l17 54c4,21 1,34 -15,44 -36,23 -55,-22 -65,-50 -13,-37 -30,-51 -19,-76 8,-19 6,-2 9,-23 -22,0 -29,-4 -43,-12 -9,4 -7,7 -9,-1 -9,-5 -16,-6 -27,-9 -6,-2 -12,-4 -16,-5 -13,-2 -2,-1 -15,1 -9,4 -7,5 -6,-4 -29,8 -94,-16 -129,-24 -14,-3 -28,-3 -40,-10l-108 19c-11,-9 -13,-21 -23,-26l-1 4c-17,4 -85,7 -111,8 -76,4 -59,15 -100,-4l29 58c8,13 18,21 24,47 7,0 5,-9 6,9 7,-1 3,-11 9,9l-2 0 24 23c5,-9 2,-1 2,-10 0,-8 -2,2 -1,-6 10,14 9,6 5,20l7 -1c1,0 -1,-2 5,2l9 9c4,3 -2,-9 17,9l43 57c6,7 11,15 16,19 32,24 -23,0 6,3 15,1 4,1 3,-3 1,26 30,53 47,74 17,21 33,40 52,62l137 143c12,16 32,81 71,108 19,13 13,7 30,25l44 31c0,0 1,0 1,0 1,0 16,13 7,32l0 4 9 -7 -3 11 5 9 4 6c15,18 2,12 2,13 0,1 7,12 -18,7 -16,-4 -12,-18 -47,-21 -1,28 -9,-4 -2,20 4,12 0,-1 9,11 -15,-12 -16,-2 -32,-18 0,0 -1,-1 -1,-2 0,0 -1,0 -1,-1l-23 -23c-1,-1 -2,-2 -2,-2 -14,-11 -3,-8 -18,-7l1 1c12,-2 10,-4 9,8l-2 0c13,-3 9,-5 8,8 3,1 2,1 7,6 1,0 2,4 2,3 0,-1 1,3 2,5l-1 -2c1,1 3,2 4,3 1,0 2,1 3,2 15,9 15,16 15,15 0,0 1,3 2,4l3 4c13,3 7,-3 13,12l6 4c11,9 15,12 25,19 19,13 6,-1 16,24 8,7 9,-13 6,7 10,-44 46,-43 61,-22 26,36 -24,42 -49,36l8 16c9,2 9,0 29,-10 56,-26 101,-23 89,-54 -7,-19 -18,-22 -32,-36 -21,-20 -9,-24 -41,-19 -13,-35 -33,-48 -53,-73 -18,-23 -33,-48 -50,-72 -75,-102 -97,-111 -173,-184l-169 -179c-12,3 -9,5 -9,-7l-37 -54c-40,-61 -82,-65 -123,-148 48,-8 111,-9 158,-7 35,1 24,17 61,24 59,12 56,-13 208,27 48,12 71,30 124,37l20 44c20,46 19,65 33,92 13,26 3,20 11,43 1,0 14,22 5,-8 1,18 -2,7 6,19 0,-2 0,-5 1,-5 6,9 0,1 3,-19 5,-32 4,-33 31,-41l13 -5c-7,0 21,16 28,45 9,32 17,67 25,97 8,32 15,66 23,98 10,39 21,63 29,96 17,-14 -1,-4 6,17 7,23 16,11 3,19l6 22c0,0 2,-1 2,0 0,1 2,1 2,1 0,0 2,1 2,1l3 14c2,12 8,23 11,40 9,4 10,0 11,17 0,10 5,31 1,38l7 2c29,14 -3,-9 5,4 0,0 -6,-1 1,4 0,0 2,1 2,1l9 1c-11,-19 -19,-52 -18,-73zm-203 -321c-1,26 16,85 20,116 5,36 9,71 12,107 7,86 17,142 37,227 42,-11 21,-30 4,-117 -8,-42 -11,-90 -18,-131 -4,-22 -11,-44 -14,-66 -6,-55 -8,-30 -17,-59 -11,-35 -18,-109 -34,-135 4,22 11,37 10,58zm-555 -93c-11,8 -14,0 -7,8 -6,-16 -13,-23 -25,-34 -23,-22 -10,3 -20,-19l-38 -48c-20,-14 12,-3 -6,-2 -14,1 -3,-1 -3,3 0,-16 2,-13 -11,-23 -15,-13 5,10 -3,-3 -28,-43 -49,-63 -65,-92l-10 -16c-9,-16 -11,-64 10,-66 8,-1 12,1 15,1 14,0 8,4 15,-5 -28,4 -2,4 -15,-5 -11,-11 -64,-26 -82,-27l-7 -2c-10,-3 -5,-1 -11,-1 10,5 29,19 13,28l-42 0 -9 3c-37,0 -32,-15 -46,-43 -48,11 -40,26 -50,61 -45,-16 -14,-5 -54,-7 -15,0 -32,-5 -48,-8 -80,-17 -180,-21 -272,-35l-23 -6c-19,7 -7,2 -11,-1 -8,1 -5,2 -15,1 -14,-2 -11,-3 -13,-5l-110 -4c-5,-17 -2,-4 1,-12 8,-11 89,-26 115,-12 22,-8 14,-2 21,2 30,-6 80,1 110,3 31,1 80,10 104,8 24,-2 9,-1 15,4l75 8c6,3 6,3 8,5 9,-2 3,-3 16,-1 10,1 7,2 12,6 16,-8 7,-5 11,1 18,-5 41,0 57,5l5 -10c-47,-21 -154,-29 -202,-40 -29,-6 -34,-13 -71,-16 -50,-4 -98,-9 -147,-15 -61,-8 -89,-20 -154,7l-228 82c-21,7 -48,27 -69,37 -56,26 -70,27 -144,64 -25,12 -36,26 -61,38 -22,10 -47,23 -57,42 -6,11 13,3 -13,11 -27,23 -100,75 -91,118 21,-3 25,-9 36,-20 5,-9 -9,-1 10,-10 -15,-8 7,-3 -17,-7 7,-16 6,-20 26,-29 1,31 -29,24 -4,29 2,-4 23,-25 30,-35 10,-14 31,-25 45,-33 0,-9 -9,-4 5,-9l11 -5 1 -8 8 0 1 -3 -9 3c-11,16 -28,17 -45,15l75 -48c37,-22 55,-40 99,-58 62,-26 320,-145 363,-126 -2,15 -16,10 -55,24 -19,7 -37,12 -59,19 -78,22 -281,99 -328,143l5 -2 8 -7 4 1 8 -7 22 -9c2,-7 -9,-3 9,-9l27 -8c3,-7 -8,-4 11,-7l33 -12c1,-8 -9,-4 10,-8 44,-13 86,-34 136,-48 46,-12 109,-33 154,-41 50,-8 31,-3 63,12 20,10 38,8 66,6 58,-4 327,36 382,47 56,11 65,18 128,16 23,-1 64,12 100,6 21,-3 26,-12 38,1 6,13 5,13 -37,24 -18,4 -33,8 -49,13 -16,5 -31,11 -44,18 -17,11 -25,16 -18,37 45,3 127,-35 175,-51 40,57 87,114 132,164 17,18 136,146 142,149l16 9c-7,-26 -27,-55 -60,-88 -12,-12 -20,-19 -24,-36zm770 501c31,-6 42,0 51,29 -25,6 -24,5 -46,1l-5 -30zm-133 -370l10 20c17,57 61,239 68,288 9,66 1,63 -30,70 -19,-47 -28,-53 -43,-119l-54 -268c-5,-21 -19,-77 -15,-98 3,-18 2,-12 13,-21 13,5 4,-1 15,10 18,19 37,95 36,118zm248 156l4 -7c4,-8 1,0 4,-9 16,-45 9,-63 9,-57l-6 -7c-5,-14 43,-97 -5,-169 -44,14 -23,48 -33,48 -3,6 -2,2 -4,10 0,2 -1,9 -1,11l4 59 -4 10 1 6 -4 9 0 9c-4,14 -3,6 -5,20 -4,16 -1,6 -7,14 -6,13 -7,18 -5,32 -2,13 1,4 -7,7l1 19c0,10 2,2 0,12 -1,8 -2,6 -4,11l0 21c4,16 3,6 -5,9 1,15 -20,141 -28,146 -16,-5 -5,10 -14,-18 -4,-14 -5,-48 -18,-59 -1,21 7,54 18,73l-9 -1c0,0 -2,-1 -2,-1 -7,-5 -1,-4 -1,-4 -8,-13 24,10 -5,-4l-7 -2c4,-7 -1,-28 -1,-38 -1,-17 -2,-13 -11,-17 -3,-17 -9,-28 -11,-40l-3 -14c0,0 -2,-1 -2,-1 0,0 -2,0 -2,-1 0,-1 -2,0 -2,0l-6 -22c13,-8 4,4 -3,-19 -7,-21 11,-31 -6,-17 -8,-33 -19,-57 -29,-96 -8,-32 -15,-66 -23,-98 -8,-30 -16,-65 -25,-97 -7,-29 -35,-45 -28,-45l-13 5c-27,8 -26,9 -31,41 -3,20 3,28 -3,19 -1,0 -1,3 -1,5 -8,-12 -5,-1 -6,-19 9,30 -4,8 -5,8 -10,27 -2,-4 -2,15 1,19 14,50 14,46 0,0 1,2 2,3 1,-21 -6,-36 -10,-58 16,26 23,100 34,135 9,29 11,4 17,59 3,22 10,44 14,66 7,41 10,89 18,131 17,87 38,106 -4,117 -5,4 6,5 -11,-2 12,31 -33,28 -89,54 -20,10 -20,12 -29,10 -7,21 1,4 -15,16 -11,8 -1,-8 -10,6 59,-1 82,-37 139,-50 62,-14 81,-7 136,0 -20,-12 -99,-23 -124,-12 2,-6 90,-60 98,-42l10 9c6,5 2,5 13,7 21,4 72,-6 102,0l13 3c1,0 3,0 5,1 -20,-110 1,-116 4,-183l7 -18c4,-4 8,7 2,-10 11,1 7,2 2,-7l3 -11c-7,5 -8,-4 -3,11 -9,0 -7,-1 -2,7 -7,2 -9,-6 -2,10 -4,3 -13,2 -7,18 -15,15 -8,17 -18,43l-18 -7c-8,-46 4,-150 19,-174l6 -29 1 -8 6 -23c-1,-7 -1,-3 0,-11 0,0 2,-1 2,-3 -1,-2 1,-2 1,-3 -5,-16 -3,-28 0,-45 3,-21 3,-24 16,-34 18,25 20,51 14,83 -4,21 -6,61 -20,75l1 12 1 51c5,-8 3,-5 7,-15l1 15zm-23 -222c-3,4 -3,4 -5,11 0,1 0,5 -1,5 0,-1 0,3 0,5 8,-17 5,-3 6,-21zm-2 1l5 -10c-8,2 -6,-1 -5,10zm32 -52c-16,16 -23,21 -28,42l28 -42zm-24 658c9,42 20,56 5,87 -23,-1 -28,-7 -48,-13 -6,-21 -22,-82 17,-86 18,-3 1,-2 13,2l15 8c-15,-45 -40,-29 -85,-18 -4,26 -25,25 -15,74 16,76 35,46 13,75l21 7c1,23 -7,28 -5,60 5,80 55,155 52,190 0,-1 -9,-9 12,0l-2 14 10 -1c-2,-29 -2,-9 -8,-13 1,-1 11,14 -7,-27 -19,-44 -19,-54 -32,-94 -16,-50 -19,-81 3,-113 30,22 33,35 46,82 27,98 38,118 75,209 11,27 33,67 9,85 -22,6 -42,-34 -48,-49 -6,-15 -11,-26 -17,-40 -14,-35 -12,-27 -21,-30 -1,9 10,40 13,50 21,88 35,67 52,95 14,23 -6,45 19,47 6,4 0,3 11,4 10,2 3,2 12,0 12,-3 15,-7 20,-13 16,-4 13,-7 27,0 7,-6 6,6 5,-12l-32 12c-20,10 -22,8 -43,9l-4 -13c9,-12 18,-13 37,-22 19,-9 24,-10 41,0l-10 -41c-3,-23 -13,-40 -23,-60 -7,-15 -15,-38 -27,-51 -7,14 5,18 -12,4 -10,-9 -4,-17 -12,-31 -7,-11 3,-6 -7,-5l38 -22c-20,-26 -41,-81 -19,-112 10,31 15,70 42,73 -9,-37 -19,-78 -6,-115 5,-15 -12,-18 9,-7 -12,-24 11,-53 10,-137 -1,-15 1,-19 1,-33l13 -51c1,-1 3,-4 4,-5 10,-15 11,-18 12,-34 -25,9 -28,12 -34,35 -23,83 -1,122 -28,198 -17,46 -9,31 -15,51 -3,10 -3,7 -9,17 -4,7 -7,13 -10,20l-7 19c-6,-5 0,2 -8,-8 -32,-39 -26,-95 -42,-121 9,38 13,86 31,117 11,19 42,77 25,104 -5,0 -11,10 -21,-18l-30 -97c-17,-54 -19,-84 -47,-121l24 -19 19 28c1,-18 4,-8 5,-31 0,-12 -2,-26 -3,-38l-12 -59c-9,-18 -5,-9 -12,-16zm-58 122c-8,-1 -5,-2 -10,-5 13,-19 36,-11 46,-1 -8,3 -15,6 -25,7 0,0 -10,0 -11,-1zm-428 -313l24 24 3 4 13 12 6 4 -6 -4c-6,-15 0,-9 -13,-12l-3 -4c-1,-1 -2,-4 -2,-4 0,1 0,-6 -15,-15 -1,-1 -2,-2 -3,-2 -1,-1 -3,-2 -4,-3zm109 7c0,-1 13,5 -2,-13l2 13c-14,5 -7,6 -18,1 -8,4 -6,5 -6,-4l-7 -7c-1,-1 -2,-3 -3,-2 0,1 -2,-1 -2,-1 -19,-11 -34,-16 -45,-33l-5 -3c-3,-2 -4,-3 -8,-6 -33,-33 -3,-26 -94,-105 -18,-16 -96,-99 -100,-124 -9,6 -7,6 -5,-4 -7,-1 -7,11 -6,-8 -7,-1 -8,13 -7,-7 -9,5 -7,6 -5,-4 -14,-1 -7,16 -12,-12 -16,0 -21,-9 -39,-29 -11,-13 -29,-28 -34,-42 -7,-2 -4,13 -11,-12 -16,-8 -40,-40 -46,-52 -11,-2 -10,-7 -17,-16 -5,-6 -5,-8 -9,-11 -11,-9 -2,-3 -12,-7 -5,-14 -14,-23 -25,-33l-76 -96c-20,-24 -99,-114 -62,-148 35,9 51,44 73,82 5,8 6,11 11,17 8,11 1,2 7,8 5,5 7,6 8,7 2,21 1,7 6,9 1,18 0,6 9,9 -6,-20 -2,-10 -9,-9 -1,-18 1,-9 -6,-9 -6,-26 -16,-34 -24,-47l-29 -58c41,19 24,8 100,4 26,-1 94,-4 111,-8l1 -4c10,5 12,17 23,26l108 -19c12,7 26,7 40,10 35,8 100,32 129,24 -1,9 -3,8 6,4l-2 -8 -4 4c-4,-6 0,-4 -10,-8 -5,-2 -9,-2 -12,-2 -10,3 -9,7 -9,-2 -17,6 -5,2 -9,-3 -18,8 -6,3 -10,-2 -33,2 -79,-26 -119,-17 -4,-3 -1,-2 -11,-4 -27,-4 -61,8 -84,1 60,-56 72,-14 93,-46 -18,2 -73,11 -84,9 -21,-3 -64,-7 -84,-3l-12 6c26,-2 60,2 81,8 -8,0 -33,10 -51,13 -40,6 -71,5 -119,14 -23,4 -43,15 -58,3l10 -7c33,-15 113,-26 121,-29 21,-7 9,3 16,-10 -62,12 -102,22 -162,38 -15,-16 -24,-21 -45,-25 13,9 -13,9 15,5 -7,9 -1,5 -15,5 -3,0 -7,-2 -15,-1 -21,2 -19,50 -10,66l10 16c16,29 37,49 65,92 8,13 -12,-10 3,3 13,10 11,7 11,23 0,-4 -11,-2 3,-3 18,-1 -14,-12 6,2l38 48c10,22 -3,-3 20,19 12,11 19,18 25,34 -7,-8 -4,0 7,-8 4,17 12,24 24,36 33,33 53,62 60,88l-16 -9c16,23 94,126 117,137 12,-19 -12,-2 6,-2l10 5c0,0 1,1 1,1 0,0 1,1 1,1l5 2c20,8 6,-1 20,15l57 60c7,7 8,8 12,16 10,18 -5,1 8,10 0,0 2,0 2,1 1,0 2,1 3,1l15 26c0,1 0,2 1,3l39 59c-14,-5 -2,1 -12,-4 1,-14 4,-12 -8,-9 3,11 0,10 8,9l3 6c15,-1 4,-4 18,7 0,0 1,1 2,2l23 23c0,1 1,1 1,1 0,1 1,2 1,2 16,16 17,6 32,18 -9,-12 -5,1 -9,-11 -7,-24 1,8 2,-20 35,3 31,17 47,21 25,5 18,-6 18,-7zm-119 -19c1,-13 5,-11 -8,-8 3,11 -1,10 8,8 7,18 -14,-12 3,7 3,3 4,4 8,7 -1,-2 -2,-6 -2,-5 0,1 -1,-3 -2,-3 -5,-5 -4,-5 -7,-6zm-6 -8c1,-12 3,-10 -9,-8 3,11 0,10 9,8zm-32 -39c0,-13 3,-11 -8,-9 3,10 -1,9 8,9 4,10 -6,-3 4,9 6,6 3,3 9,6 -5,-8 0,-3 -6,-10 -5,-5 -5,-4 -7,-5zm-98 -738l-3 2 -13 8c28,-4 9,1 16,-10zm13 2l-6 2 6 -2zm-317 217c-2,21 -1,8 6,9 -2,20 -1,7 7,8 1,9 -7,-4 3,11 8,11 -2,3 9,5 -2,20 0,7 7,8 -3,20 -1,7 6,8 -2,20 0,7 6,8 -2,20 0,6 7,8 3,14 0,7 10,19 0,0 7,6 7,7 8,6 2,2 9,5 2,17 0,6 6,7 2,19 1,7 7,8 5,14 3,12 16,20 6,12 30,44 46,52 7,25 4,10 11,12 5,14 23,29 34,42 18,20 23,29 39,29 5,28 -2,11 12,12 -2,10 -4,9 5,4 -1,20 0,6 7,7 -1,19 -1,7 6,8 -2,10 -4,10 5,4 4,25 82,108 100,124 91,79 61,72 94,105 4,3 5,4 8,6l5 3c11,17 26,22 45,33 0,0 2,2 2,1 1,-1 2,1 3,2l7 7c0,9 -2,8 6,4 11,5 4,4 18,-1l-2 -13 -4 -6 -5 -9 -6 2 11 7 3 17 -15 3c-1,-8 1,-7 -6,-4l-7 -7c-5,-15 -27,-27 -43,-34l-7 -2c-5,-17 -6,-11 -15,-24 -7,-10 -11,-19 -15,-32 61,17 46,48 78,65 7,4 3,2 10,3 -1,11 -2,8 6,2l0 -4 -6 2 -54 -65c-12,-10 -20,-12 -34,-25 -9,-9 -18,-19 -26,-31l-77 -101c-10,-11 -17,-20 -30,-25 1,-10 4,-10 -3,-7 -6,-12 -1,-5 -8,-11 -12,-12 -3,-4 -11,-6 -1,-19 0,-7 -7,-7 1,-12 4,-13 -5,-6 -2,-8 6,3 -4,-10 -7,-8 -3,-2 -9,-4 1,-11 5,-12 -5,-6l-43 -58 -5 -4 -9 2c10,15 39,56 57,60 -1,11 -4,11 5,6 1,6 -1,5 4,11 8,9 -1,2 9,3 -1,11 -5,11 5,6 0,19 -1,7 7,7 2,12 -5,3 7,14 10,-3 7,-4 6,7l6 -4c-1,11 -5,12 3,7l18 25c8,-5 5,-4 4,6 6,2 4,-10 6,9 6,1 4,-11 7,7 6,1 4,-11 7,8 5,1 4,-9 6,8 6,1 5,-12 6,8 8,1 4,-13 8,10l-2 -1c13,5 3,-3 12,11 11,16 3,1 4,12 14,6 14,14 18,28 -11,0 -21,6 -34,-22 -8,5 -5,5 -4,-5 -8,5 -6,5 -5,-5 -6,-1 -3,13 -9,-8 -11,-3 -4,3 -12,-7 -7,-8 -4,-3 -6,-14 -4,-2 -7,15 -7,-12 -12,-1 -4,2 -11,-8 -10,-14 -3,-6 -3,-12l-14 -9c-11,-10 -17,-27 -33,-32 1,-11 4,-11 -5,-4 0,-19 1,-9 -6,-8 -1,-17 1,-9 -7,-7 1,-11 4,-11 -5,-4 -6,-25 0,-11 -12,-12 -4,-15 -65,-69 -73,-71 -4,-11 -1,-5 -6,-10 -11,-14 14,3 -5,-2 -8,-18 -15,-18 -21,-35 -6,-1 -4,12 -6,-8 -6,-1 -5,12 -7,-8 -7,0 -6,9 -6,-7 -6,-1 -5,11 -7,-7l-15 -7c-1,-17 0,-8 -7,-8 -1,-17 1,-8 -6,-7 -4,-12 -1,-9 -11,-20 -3,-4 -4,-5 -7,-7 -8,-6 -1,-2 -8,-4 -2,-17 1,-9 -7,-8 -1,-17 1,-9 -6,-8 -1,-18 1,-9 -6,-8 -1,-18 1,-9 -7,-8 -1,-8 0,-6 -4,-12 -7,-11 1,-3 -8,-4 -1,-19 0,-9 -7,-8 0,-20 1,-9 -6,-9 -9,-40 -58,-64 -70,-123 37,8 42,49 70,62 3,15 0,9 6,8 4,14 0,9 7,8l0 13 6 -5 1 12 6 -3c-1,-20 0,-6 -7,-9 0,-19 0,-5 -6,-8 0,-19 0,-5 -7,-8 1,-19 0,-5 -6,-8 -3,-16 -12,-22 -22,-37 -11,-15 -34,-54 -47,-63 -17,-11 -8,-8 -29,-4 -5,57 94,169 95,164 0,-1 2,1 3,1zm51 971c-12,-9 -14,-8 -39,-7l-303 13c-6,38 16,111 37,114 6,-16 -15,-47 0,-65 1,0 2,-1 2,-1l11 -1c7,1 13,3 20,5 15,5 22,6 42,7 79,3 117,-3 185,-2 40,1 62,-5 84,-28 -4,-19 0,-7 -7,-16l-4 -2c0,-1 -1,-1 -1,-1 0,0 0,-1 -1,-1l-2 -3c-1,-1 -2,-2 -2,-2 -6,-4 1,0 -9,-4 -15,-7 -14,5 -13,-6zm0 -2c5,7 2,6 11,4 -2,-9 0,-6 -11,-4zm54 12c-25,1 -11,0 -25,-4 -11,-3 -3,-3 -19,-6l22 14c10,9 -1,-6 6,6 36,-6 4,1 16,-10zm-381 51c-9,-15 -11,-29 -10,-45 14,-1 20,3 23,18 4,18 -1,21 -13,27zm61 -38c31,-28 143,-16 187,-16 12,0 19,0 29,2 17,3 19,3 28,12 -5,6 4,1 -10,10 -29,19 -154,23 -186,20 -45,-3 -38,-13 -48,-28zm639 444l10 -12c-7,-18 2,-3 -12,-9 -1,0 -2,-1 -2,-1 0,0 -2,0 -2,0 0,0 -1,0 -2,0l-7 -24c21,0 19,-3 21,15 1,-1 1,-3 2,-3 4,7 2,-5 3,-6 4,-7 -1,0 5,-9 5,-8 5,-4 11,-15 3,-6 4,-12 5,-19 5,-25 -7,-9 11,-22 4,2 16,-8 11,32 4,-2 10,-6 10,-6l11 1c4,-1 9,3 19,-23 3,-8 3,-9 6,-16 3,-9 2,-7 6,-19 -13,12 -12,25 -15,29 0,1 -1,2 -1,3 -1,0 -2,1 -2,1 -11,8 5,6 -8,0 -9,-7 -3,22 5,-11 2,-8 3,-17 4,-25l14 -56c3,-64 -8,-46 17,-61 -6,-15 -7,-15 -3,-25 9,3 8,-4 15,14 7,20 -8,42 21,46 10,-8 9,-10 10,-23 3,-31 -4,-58 -42,-53l-6 -26 -34 13c-1,-15 -34,-3 -42,1 15,4 25,0 40,-5l-29 44c9,-7 6,-5 17,-3 -1,1 -12,-2 -4,26l1 2c0,0 1,1 1,1 0,0 0,1 0,1l-28 44c-16,30 -22,66 -30,76 -16,19 -39,17 -37,54l23 13 -25 11c2,12 3,23 10,31l22 14zm66 -60l-6 5c-9,1 -8,-2 -6,7l6 -7 6 -5c9,-6 5,-2 4,-10l-6 1c-11,1 -8,0 -9,-3l11 12zm-57 32c-5,7 -11,1 5,7l-5 -7zm-20 -32c-9,-19 -8,-34 7,-47 15,-13 19,-8 25,-33 26,-96 79,-76 56,-15 -6,16 -12,22 -26,34 -11,8 -12,8 -17,15l-3 6c-6,15 2,46 -42,40zm166 -187c-10,-6 -6,14 -14,-18 -7,-26 1,-18 3,-21 8,5 21,7 11,39zm126 -963c-7,46 81,272 51,331 -33,-41 -50,-141 -64,-208 -9,-45 -49,-187 -30,-212 9,8 17,27 23,40 4,10 4,17 8,27l12 22zm0 0c1,-23 -18,-99 -36,-118 -11,-11 -2,-5 -15,-10 -11,9 -10,3 -13,21 -4,21 10,77 15,98l54 268c15,66 24,72 43,119 31,-7 39,-4 30,-70 -7,-49 -51,-231 -68,-288l-10 -20zm-688 -276c9,20 0,2 5,11l42 51c32,39 127,137 136,159 12,4 4,-4 15,12l5 4 43 58c10,-6 6,-5 5,6 6,2 2,-4 9,4 10,13 2,2 4,10 9,-7 6,-6 5,6 7,0 6,-12 7,7 8,2 -1,-6 11,6 7,6 2,-1 8,11 7,-3 4,-3 3,7 13,5 20,14 30,25l77 101c8,12 17,22 26,31 14,13 22,15 34,25l54 65 6 -2c9,-19 -6,-32 -7,-32 0,0 -1,0 -1,0l-44 -31c-17,-18 -11,-12 -30,-25 -39,-27 -59,-92 -71,-108l-137 -143c-19,-22 -35,-41 -52,-62 -17,-21 -46,-48 -47,-74 1,4 12,4 -3,3 -29,-3 26,21 -6,-3 -5,-4 -10,-12 -16,-19l-43 -57c-19,-18 -13,-6 -17,-9l-9 -9c-6,-4 -4,-2 -5,-2l-7 1c4,-14 5,-6 -5,-20 -1,8 1,-2 1,6 0,9 3,1 -2,10l-24 -23zm137 116c0,12 -3,10 9,7 -4,-10 -1,-8 -9,-7zm388 485l0 6 6 -2 3 -11 -9 7zm-542 -553c7,0 6,-11 6,9 7,-1 6,-11 7,8 9,1 1,-7 8,4 4,6 3,4 4,12 8,-1 6,-10 7,8 7,-1 5,-10 6,8 7,-1 5,-9 6,8 8,-1 5,-9 7,8 7,2 0,-2 8,4 3,2 4,3 7,7 10,11 7,8 11,20 7,-1 5,-10 6,7 7,0 6,-9 7,8l15 7c2,18 1,6 7,7 0,16 -1,7 6,7 2,20 1,7 7,8 2,20 0,7 6,8 6,17 13,17 21,35 19,5 -6,-12 5,2 5,5 2,-1 6,10 8,2 69,56 73,71 12,1 6,-13 12,12 9,-7 6,-7 5,4 8,-2 6,-10 7,7 7,-1 6,-11 6,8 9,-7 6,-7 5,4 16,5 22,22 33,32l14 9c0,6 -7,-2 3,12 7,10 -1,7 11,8 0,27 3,10 7,12 2,11 -1,6 6,14 8,10 1,4 12,7 6,21 3,7 9,8 -1,10 -3,10 5,5 -1,10 -4,10 4,5 13,28 23,22 34,22 -4,-14 -4,-22 -18,-28 -1,-11 7,4 -4,-12 -9,-14 1,-6 -12,-11 4,14 -2,4 5,14 7,10 5,6 11,9l-2 10c-14,-15 0,-3 -14,-4 1,-10 4,-10 -4,-5 1,-10 4,-11 -5,-5 -5,-20 -3,-7 -9,-8 -3,-11 1,-6 -7,-15 -7,-8 -2,-4 -11,-6 -1,-27 -2,-11 -7,-12 -1,-9 0,-6 -4,-12 -7,-10 -3,-5 -10,-8 -5,-15 -1,-6 -8,-19 -20,-29 -101,-104 -129,-127 -17,-15 -38,-43 -50,-48 -1,-16 1,-7 -6,-8 -1,-17 0,-7 -7,-8 -1,-15 2,-7 -6,-7 -2,-17 0,-8 -7,-7 -4,-17 -47,-66 -61,-84 -16,-21 -53,-65 -61,-88 1,1 3,0 3,2l19 15c8,6 0,2 8,5 1,17 -1,7 7,7 9,30 92,123 121,153l40 38c7,4 2,2 9,4 4,14 0,9 12,14l-2 -11c-2,-1 -9,-2 -10,-3 -8,-20 -66,-74 -84,-95 -18,-20 -68,-79 -80,-103l-6 3 -1 -12 -6 5 0 -13c-7,1 -3,6 -7,-8 -6,1 -3,7 -6,-8 -28,-13 -33,-54 -70,-62 12,59 61,83 70,123zm333 329c-1,10 -4,10 4,6 2,19 0,8 6,9 1,15 -1,7 7,7 2,18 0,7 7,8 1,20 0,8 6,8 0,18 -1,8 6,8 0,18 -1,8 8,10 -4,-23 0,-9 -8,-10 -1,-20 0,-7 -6,-8 -2,-17 -1,-7 -6,-8 -3,-19 -1,-7 -7,-8 -3,-18 -1,-6 -7,-7 -2,-19 0,-7 -6,-9 1,-10 4,-11 -4,-6l-18 -25c-8,5 -4,4 -3,-7l-6 4c1,-11 4,-10 -6,-7 2,10 -2,10 6,7 5,14 2,9 11,18 3,3 4,3 7,6 9,5 1,1 9,4zm-517 -562l7 2c-1,-8 0,-6 -7,-2 -9,-9 -16,-11 -32,-15 -16,19 -3,2 16,16 13,9 10,14 11,21l-35 5 42 0c16,-9 -3,-23 -13,-28 6,0 1,-2 11,1zm-42 -17l-7 7c20,-4 3,2 11,-9l-4 2zm-99 7l-5 10c-16,-5 -39,-10 -57,-5 -4,-6 5,-9 -11,-1 -5,-4 -2,-5 -12,-6 -13,-2 -7,-1 -16,1 -2,-2 -2,-2 -8,-5l-75 -8c-6,-5 9,-6 -15,-4 6,5 -7,8 15,4 19,8 66,17 83,13 4,3 -4,3 12,5 14,3 9,1 16,0 3,4 -9,9 11,1l11 6c1,0 3,0 4,1 7,2 7,1 14,2 12,2 15,4 27,6 -22,4 7,20 -40,18 -18,-1 -33,-2 -50,-6 -84,-15 -121,-15 -202,-22 -28,-2 -80,-12 -103,-8 -3,-5 5,-6 -11,-1 -10,-8 -13,-7 -28,-4 -12,-9 -34,-6 -42,-20l48 -8c11,6 4,4 21,2 -7,-4 1,-10 -21,-2 -26,-14 -107,1 -115,12 -3,8 -6,-5 -1,12l110 4c2,2 -1,3 13,5 10,1 7,0 15,-1 4,3 -8,8 11,1l23 6c92,14 192,18 272,35 16,3 33,8 48,8 40,2 9,-9 54,7 10,-35 2,-50 50,-61 14,28 9,43 46,43 -1,-1 -2,-3 -2,-2 -1,1 -2,-2 -3,-3 -11,-6 -20,-6 -21,-21 -2,-10 0,-10 7,-14 17,-10 14,11 20,-11 -45,-6 -52,5 -93,11zm-72 22c-31,5 -111,-14 -147,-16l-75 -4c-17,-2 -54,-5 -67,-11l-6 -4c28,-6 261,6 295,35zm-368 -25c15,-3 18,-4 28,4 16,-5 8,-4 11,1 23,-4 75,6 103,8 81,7 118,7 202,22 17,4 32,5 50,6 47,2 18,-14 40,-18 -12,-2 -15,-4 -27,-6 -7,-1 -7,0 -14,-2 -1,-1 -3,-1 -4,-1l-11 -6c-20,8 -8,3 -11,-1 -7,1 -2,3 -16,0 -16,-2 -8,-2 -12,-5 -17,4 -64,-5 -83,-13 -22,4 -9,1 -15,-4 -24,2 -73,-7 -104,-8 -30,-2 -80,-9 -110,-3 -17,2 -10,4 -21,-2l-48 8c8,14 30,11 42,20zm1441 446c19,22 52,158 59,198 5,31 10,51 -2,67 -19,-38 -69,-230 -57,-265zm29 28l-12 -22c-4,-10 -4,-17 -8,-27 -6,-13 -14,-32 -23,-40 -19,25 21,167 30,212 14,67 31,167 64,208 30,-59 -58,-285 -51,-331zm-20 928c-3,25 0,8 6,8 -2,13 -4,11 6,4 -3,13 -4,8 10,4 -3,-13 1,-12 -10,-4 3,-12 4,-11 -6,-4 3,-22 1,-8 -6,-8 0,-45 -37,-27 -65,-36l-4 -20c21,-21 37,-13 65,-9 16,3 52,3 69,18 9,8 22,25 25,39 -23,24 -21,10 -46,25 -4,-5 10,-14 -12,0 -4,-8 9,-10 -14,-4 8,9 -3,13 14,4 3,5 -11,11 12,0 9,6 32,0 42,-5 16,-7 15,-12 25,-22 -9,-32 -20,-43 -43,-54 -26,-12 -48,-14 -58,-22 24,-12 49,-6 75,-8l-7 -3c-1,0 -6,-2 -7,-2 -17,-4 -14,1 -28,-9 9,-9 8,-6 21,-11l12 0 9 4 7 1 7 7c1,6 -1,5 6,3l6 2 7 2c0,8 -2,7 5,4l-11 5 -26 -4c7,4 0,3 14,5 6,1 7,0 12,-1 3,2 7,8 17,3 9,-5 -6,-8 -6,-8 1,-8 2,-6 -5,-4 -1,-6 1,-5 -7,-2l-6 -2c-1,-7 1,-6 -6,-3l-7 -7 -7 -1 -9 -4 -12 0c-20,-16 -56,10 -69,20l15 13c-21,7 -44,1 -69,8 -34,10 -27,19 -19,51 42,16 42,2 62,16 5,3 3,3 8,6 11,8 -4,1 8,5zm-391 -1328c40,-9 86,19 119,17 4,5 -8,10 10,2 4,5 -8,9 9,3 0,9 -1,5 9,2 -2,-9 1,-7 -9,-2 -2,-7 5,-7 -9,-3 -3,-7 5,-7 -10,-2 -9,-10 -33,-14 -50,-18 -18,-4 -37,-8 -53,-12 7,-10 -5,-2 8,-7 22,-8 58,8 78,13 4,-13 4,-6 0,-14 -13,-2 -27,-6 -40,-11 -8,-4 -10,-5 -19,-8 -8,-2 -10,-1 -20,-5l-6 2c-1,-7 1,-5 -7,-4 -7,11 12,6 -16,10l13 -8 -9 -4c-21,32 -33,-10 -93,46 23,7 57,-5 84,-1 10,2 7,1 11,4zm132 -10c-15,1 -6,6 -18,-6 -4,7 -25,9 1,16 23,7 12,-3 17,-10zm9 5l-2 -1 -12 11c25,-7 5,2 14,-10zm76 47c-2,-7 7,-6 -10,-5l10 5c9,3 23,8 33,5 11,-4 5,-2 11,-8 -12,-22 -26,-14 -57,-24 -5,-1 -4,0 -11,-2 -6,-2 -6,-3 -8,-4l-39 -11c-12,17 -14,9 34,19 18,4 34,10 49,14 -5,11 1,3 -12,11zm-22 -35c1,9 -1,6 8,2 -2,-6 0,-4 -8,-2zm487 1302l9 13c6,15 2,4 2,13 14,15 20,55 17,74 -21,1 -20,-1 -32,-21 -9,-13 -13,-20 -15,-36 -3,-2 -2,-1 -7,-7 -10,-14 -18,-38 -19,-53 -5,-4 -2,1 -7,-9 -4,-8 1,6 -3,-12l-1 -13c-11,-9 -12,-19 -17,-35 -3,-13 -7,-26 -10,-39 -8,-30 -14,-54 8,-67 26,12 32,53 43,89 8,29 32,77 32,103zm-45 18c6,4 6,-16 8,13l0 10c9,3 7,-5 21,30 6,14 11,25 17,40 6,15 26,55 48,49 24,-18 2,-58 -9,-85 -37,-91 -48,-111 -75,-209 -13,-47 -16,-60 -46,-82 -22,32 -19,63 -3,113 13,40 13,50 32,94 18,41 8,26 7,27zm-2320 -1230c-15,23 -8,5 -24,25 11,-4 32,-18 39,-17l5 -6c47,-44 250,-121 328,-143 22,-7 40,-12 59,-19 39,-14 53,-9 55,-24 -43,-19 -301,100 -363,126 -44,18 -62,36 -99,58zm157 -66c-19,4 -9,0 -10,8l10 -8zm-43 20c-19,3 -8,0 -11,7l11 -7zm-38 15c-18,6 -7,2 -9,9l9 -9zm-31 18l-8 7 8 -7zm-12 6l-8 7c11,-2 10,1 8,-7zm-23 14l-7 6c9,-2 8,1 7,-6zm-40 26l9 -3 -1 3 -8 0 2 6 6 -6 7 -4 -6 1c-3,-7 -1,-6 -6,-2 -22,13 1,-21 -3,5zm1772 1019l5 16 9 -10 -14 -6zm9 19l-1 -3 -4 1c1,9 2,5 -8,9 2,8 -1,6 8,2l5 -9 -1 7 13 6c37,12 99,3 110,18 -22,20 -109,24 -136,20 -18,-2 -128,-9 -111,-45l24 -13c11,-2 18,0 30,1l-12 -4 7 -1 -10 -6c-5,7 14,7 -12,5l10 -3c-8,-4 5,1 -10,-4 -6,-2 -5,-1 -10,-2 5,4 -2,3 11,8l-27 0 11 -6 -6 -6c-17,23 2,5 -23,16 -14,6 -30,5 -16,24 11,17 38,25 64,31 24,5 52,13 78,14 32,2 42,-2 65,-2l21 2c33,-18 71,-8 94,-38 -13,-3 -6,-1 -16,-5l-21 -10c-25,3 -84,8 -111,-1l-8 -3c-1,0 -2,-1 -4,-2 1,-1 3,-2 4,-1l23 -12c0,0 0,-2 0,-2l1 -3 -10 -5c0,1 -1,2 -1,3 0,2 -2,5 -2,5 0,1 1,3 1,5 -12,-2 -5,-2 -18,1l-2 8zm8 -24c-26,-1 -6,-2 -8,8 19,-1 8,2 15,-8l-7 0zm216 -1063c25,-30 55,39 63,55 33,64 -17,130 -64,-16 -6,-20 -8,-29 1,-39zm32 -11c-11,-17 -20,-37 -39,-50 -13,-9 -37,-17 -60,-10 -16,4 -7,4 -12,-3l-10 2c-9,4 -7,7 -8,-2l-10 2c2,1 2,2 8,4 7,2 6,1 11,2 20,-1 71,4 80,25 9,22 -36,12 -42,12 -3,-7 0,-5 -9,-1 2,8 0,5 9,1 14,8 21,12 43,12 -3,21 -1,4 -9,23 -11,25 6,39 19,76 10,28 29,73 65,50 16,-10 19,-23 15,-44l-17 -54c-2,-4 -15,-25 -21,-31 -11,-11 -20,-10 -29,-15 -11,-8 -5,0 -5,-7 0,-1 2,-2 2,-1 0,1 2,0 2,0 16,3 -17,-9 5,1l9 5c1,1 2,2 3,3zm-646 1100c-31,8 -137,31 -154,-1 5,-5 1,-3 10,-7 13,-6 30,-6 44,-6 2,0 6,0 8,0 29,1 71,4 92,14zm29 -18c-10,-2 -17,-2 -29,-2 -44,0 -156,-12 -187,16 10,15 3,25 48,28 32,3 157,-1 186,-20 14,-9 5,-4 10,-10 -9,-9 -11,-9 -28,-12zm932 -738c1,6 9,-1 -3,17 0,12 1,13 -6,23l-1 8 -6 29c-4,37 -22,88 -8,140 14,-10 11,-7 15,-27 8,-40 8,-79 20,-99l-1 -12c-3,-37 26,-49 7,-125 -15,14 -7,15 -12,37 -5,16 -1,3 -5,9zm-15 55c-13,14 -6,5 -10,22l5 -2c2,-14 1,-6 5,-20zm-652 706c27,-6 94,6 122,19 1,0 5,2 6,3 9,6 0,-2 9,8 -37,9 -49,9 -81,4l-21 -4c-29,-6 -29,-4 -35,-30zm95 0l-4 2c-9,4 -6,6 -8,-2 -6,-11 -2,-3 5,-10 -1,-6 0,-5 -6,-3 -9,11 -5,11 -24,6 -15,-3 -17,0 -3,-6l-8 -6 -5 4c0,0 1,-1 2,-2 -2,-7 0,-5 -8,-3 -4,8 10,8 -11,7 -12,-1 -19,-3 -30,-1l-24 13c-17,36 93,43 111,45 27,4 114,0 136,-20 -11,-15 -73,-6 -110,-18l-13 -6zm315 -803c-12,35 38,227 57,265 12,-16 7,-36 2,-67 -7,-40 -40,-176 -59,-198zm-423 149c7,20 51,74 67,91 14,14 21,22 38,36 9,8 30,31 36,34 11,-2 8,-4 8,9 2,1 2,0 7,5 6,7 1,2 6,10l-2 0c12,-3 9,-5 8,9 10,5 -2,-1 12,4l-39 -59c-1,-1 -1,-2 -1,-3l-15 -26c-1,0 -2,-1 -3,-1 0,-1 -2,-1 -2,-1 -13,-9 2,8 -8,-10 -4,-8 -5,-9 -12,-16l-57 -60c-14,-16 0,-7 -20,-15l-5 -2c0,0 -1,-1 -1,-1 0,0 -1,-1 -1,-1l-10 -5c-18,0 6,-17 -6,2zm667 737c-4,-38 -31,-73 -19,-110 7,1 12,-8 24,22l34 111 1 9 16 19 11 26c0,21 7,35 4,54 -13,-3 -22,-27 -34,-37l-7 -23 -8 -19 -11 -18c-1,-10 2,-1 -4,-13 0,-2 -2,-2 -3,-4 0,-3 -2,-2 -3,-4 4,18 -1,4 3,12 5,10 2,5 7,9 1,15 9,39 19,53 5,6 4,5 7,7 2,16 6,23 15,36 12,20 11,22 32,21 3,-19 -3,-59 -17,-74 0,-9 4,2 -2,-13l-9 -13c0,-26 -24,-74 -32,-103 -11,-36 -17,-77 -43,-89 -22,13 -16,37 -8,67 3,13 7,26 10,39 5,16 6,26 17,35zm-227 33c2,-2 -1,-2 11,-7 14,-5 25,-6 39,1 9,5 19,15 21,26l-1 12c-1,12 -66,37 -71,-20 -1,-12 0,-9 1,-12zm-8 37c7,0 9,-14 6,8 10,-7 9,-8 6,4 11,-8 7,-9 10,4l-4 -3c23,-6 10,-4 14,4 22,-14 8,-5 12,0 25,-15 23,-1 46,-25 -3,-14 -16,-31 -25,-39 -17,-15 -53,-15 -69,-18 -28,-4 -44,-12 -65,9l4 20c28,9 65,-9 65,36zm-561 -1371l-12 -2c-7,13 5,3 -16,10 -8,3 -88,14 -121,29l-10 7c15,12 35,1 58,-3 48,-9 79,-8 119,-14 18,-3 43,-13 51,-13 -21,-6 -55,-10 -81,-8l12 -6zm300 1583c0,0 -12,0 -6,-19 3,-10 10,-11 22,-13 5,21 5,35 -16,32zm31 -54c-5,-28 6,-53 33,-59 8,30 -5,52 -33,59zm-42 64c44,6 36,-25 42,-40l3 -6c5,-7 6,-7 17,-15 14,-12 20,-18 26,-34 23,-61 -30,-81 -56,15 -6,25 -10,20 -25,33 -15,13 -16,28 -7,47zm-810 -1599c-34,-29 -267,-41 -295,-35l6 4c13,6 50,9 67,11l75 4c36,2 116,21 147,16zm1339 1359l8 19c8,7 5,12 21,24 4,-7 9,-12 2,-32 -3,-12 -8,-18 -13,-31l-1 -9c-2,-3 -1,0 -6,-11l-17 -43c-11,-34 -4,-31 -17,-49l-7 -7c-16,32 23,106 30,139zm-36 -807c6,-8 3,2 7,-14l-5 2 -2 12zm28 126c-6,-16 3,-15 7,-18 -7,-16 -5,-8 2,-10 -5,-8 -7,-7 2,-7 -5,-15 -4,-6 3,-11 0,-11 2,-15 5,-27l-1 -15c-4,10 -2,7 -7,15l-1 -51c-12,20 -12,59 -20,99 -4,20 -1,17 -15,27 -14,-52 4,-103 8,-140 -15,24 -27,128 -19,174l18 7c10,-26 3,-28 18,-43zm-43 -24l-5 9c8,-3 9,7 5,-9zm4 -44l-4 23c2,-5 3,-3 4,-11 2,-10 0,-2 0,-12zm6 -26l-7 7c8,-3 5,6 7,-7zm-281 -363c-13,-21 -30,-64 -26,-85 21,1 27,15 37,37 10,20 17,42 13,60 -15,0 -14,3 -24,-12zm-34 -91c-9,10 -7,19 -1,39 47,146 97,80 64,16 -8,-16 -38,-85 -63,-55zm-518 188c10,4 1,-2 12,7 4,3 4,5 9,11 7,9 6,14 17,16 -13,-8 -11,-6 -16,-20 -6,-1 -5,11 -7,-8 -6,-1 -4,10 -6,-7 -7,-3 -1,1 -9,-5 0,-1 -7,-7 -7,-7 -10,-12 -7,-5 -10,-19 -7,-2 -9,12 -7,-8 -6,-1 -8,12 -6,-8 -7,-1 -9,12 -6,-8 -7,-1 -9,12 -7,-8 -11,-2 -1,6 -9,-5 -10,-15 -2,-2 -3,-11 -8,-1 -9,12 -7,-8 -7,-1 -8,12 -6,-9 -1,0 -3,-2 -3,-1 -1,5 -100,-107 -95,-164 21,-4 12,-7 29,4 13,9 36,48 47,63 10,15 19,21 22,37 6,3 7,-11 6,8 7,3 7,-11 7,8 6,3 6,-11 6,8 7,3 6,-11 7,9 12,24 62,83 80,103 18,21 76,75 84,95 1,1 8,2 10,3l2 11 4 3 9 -2 5 4 -5 -4c-11,-16 -3,-8 -15,-12 -9,-22 -104,-120 -136,-159l-42 -51c-5,-9 4,9 -5,-11l2 0c-9,-3 -8,9 -9,-9 -5,-2 -4,12 -6,-9 -1,-1 -3,-2 -8,-7 -6,-6 1,3 -7,-8 -5,-6 -6,-9 -11,-17 -22,-38 -38,-73 -73,-82 -37,34 42,124 62,148l76 96c11,10 20,19 25,33zm868 737c-29,1 -41,-45 -23,-64 24,8 26,37 23,64zm0 -65l2 -2 -15 -8c-12,-4 5,-5 -13,-2 -39,4 -23,65 -17,86 20,6 25,12 48,13 15,-31 4,-45 -5,-87zm-1118 228c17,32 123,9 154,1 -21,-10 -63,-13 -92,-14 -2,0 -6,0 -8,0 -14,0 -31,0 -44,6 -9,4 -5,2 -10,7zm1102 89l1 13c1,2 3,1 3,4 1,2 3,2 3,4 6,12 3,3 4,13l11 18 8 19 7 23c12,10 21,34 34,37 3,-19 -4,-33 -4,-54l-11 -26 -16 -19c5,13 10,19 13,31 7,20 2,25 -2,32 -16,-12 -13,-17 -21,-24l-8 -19c-7,-33 -46,-107 -30,-139l7 7c13,18 6,15 17,49l17 43c5,11 4,8 6,11l-34 -111c-12,-30 -17,-21 -24,-22 -12,37 15,72 19,110zm-507 -1241c15,-5 7,-5 10,2 14,-4 7,-4 9,3 10,-5 7,-7 9,2 3,0 7,0 12,2 10,4 6,2 10,8l4 -4c12,2 20,1 34,7 17,-1 8,-2 10,5 13,-8 7,0 12,-11 -15,-4 -31,-10 -49,-14 -48,-10 -46,-2 -34,-19l-5 -3c-9,12 11,3 -14,10l12 -11c-2,-8 0,-8 -7,-4 -5,7 6,17 -17,10 -26,-7 -5,-9 -1,-16 -7,-6 6,-4 -12,-5 4,8 4,1 0,14 -20,-5 -56,-21 -78,-13 -13,5 -1,-3 -8,7 16,4 35,8 53,12 17,4 41,8 50,18zm-130 1168c22,-5 49,4 65,12 -25,18 -65,-12 -65,-12zm105 9c-28,-13 -95,-25 -122,-19 6,26 6,24 35,30l21 4c32,5 44,5 81,-4 -9,-10 0,-2 -9,-8 -1,-1 -5,-3 -6,-3zm256 -1010c4,-18 -3,-40 -13,-60 -10,-22 -16,-36 -37,-37 -4,21 13,64 26,85 10,15 9,12 24,12zm-1014 1059c5,8 6,6 -2,6 3,7 4,5 -4,6 3,7 4,5 -5,4 4,7 4,4 -6,7l1 0c1,8 2,5 -7,4 -1,8 11,7 -8,6 -2,3 8,11 -37,18 -4,-18 -3,-22 12,-41l39 -32c17,-9 23,-4 23,10 -1,25 1,3 -6,12zm6 -59l-17 22c-6,6 -12,10 -19,14 -15,10 -34,18 -44,31 17,-7 2,-3 18,-5 -20,7 -28,41 -22,65 137,-53 79,-112 79,-114l3 -6c1,0 1,-3 1,-3 1,-1 1,-3 1,-4zm858 356c9,-2 7,1 5,-8l-11 -1c0,0 -6,4 -10,6 5,-40 -7,-30 -11,-32 -18,13 -6,-3 -11,22 -1,7 -2,13 -5,19 -6,11 -6,7 -11,15 -6,9 -1,2 -5,9 -1,1 1,13 -3,6 -1,0 -1,2 -2,3l3 3 5 7c16,-6 33,-15 40,-27 -2,-9 -3,-6 6,-7l6 -5 -11 -12c1,3 -2,4 9,3l6 -1zm439 -1126c0,1 -2,1 -1,3 0,2 -2,3 -2,3 -1,8 -1,4 0,11l-6 23 -1 8 1 -8c7,-10 6,-11 6,-23 12,-18 4,-11 3,-17 4,-6 0,7 5,-9 5,-22 -3,-23 12,-37 19,76 -10,88 -7,125 14,-14 16,-54 20,-75 6,-32 4,-58 -14,-83 -13,10 -13,13 -16,34 -3,17 -5,29 0,45zm-15 46l4 -9c-8,2 -6,0 -4,9zm7 -25l-4 10 4 -10zm-441 544c5,3 6,5 8,13 5,22 1,1 -3,12 -6,8 -23,9 -36,12 -16,2 -20,3 -33,3 3,-16 0,-12 12,-25 8,-9 11,-12 22,-16 10,-4 23,-4 30,1zm-68 20c-10,16 -11,8 -2,29l82 -10c2,-11 5,-11 4,-30 -1,-43 -1,-25 8,-35 7,1 2,1 3,-6 -8,-2 -17,12 -8,-19 0,-3 4,-7 4,-9 5,-9 1,-1 5,-11l-11 15c-7,14 -7,27 -6,42 -44,3 -52,11 -79,34zm54 -322c21,11 22,5 44,44 -10,-2 -9,-2 -15,-6 -1,0 -2,-1 -3,-1 -1,-1 -2,-2 -2,-3l-5 -4c-12,-11 -17,-12 -19,-30zm8 34l7 2c16,7 38,19 43,34l7 7c7,-3 5,-4 6,4l15 -3 -3 -17 -11 -7 0 -6c-8,6 -7,9 -6,-2 -7,-1 -3,1 -10,-3 -32,-17 -17,-48 -78,-65 4,13 8,22 15,32 9,13 10,7 15,24zm260 583c12,10 13,9 18,28 -12,6 -31,11 -41,1 -20,-22 4,-27 23,-29zm26 17c-2,-11 -12,-21 -21,-26 -14,-7 -25,-6 -39,-1 -12,5 -9,5 -11,7 -1,3 -2,0 -1,12 5,57 70,32 71,20l1 -12zm289 -1016c-2,12 -58,66 -61,115 18,-18 34,-51 52,-74l28 -38c0,0 1,-2 1,-2l15 -20c1,-1 2,-2 3,-3l5 -6c-15,8 -10,5 -23,15 -10,10 -4,6 -20,13zm-21 1036l13 -11c0,-2 1,-2 1,-3 16,9 23,20 44,21 21,0 36,-6 45,-23l-12 5c-6,-13 -3,-7 -12,-16 -14,3 -14,3 -25,8 -11,6 5,4 -9,0l-28 -8c-3,8 3,0 -5,10l-12 17zm-453 -508c9,-2 11,-1 17,5 21,24 -25,22 -33,22 -4,-15 -1,-24 16,-27zm-42 14c9,18 0,14 18,21 25,6 75,0 49,-36 -15,-21 -51,-22 -61,22 3,-20 2,0 -6,-7zm399 169c3,-27 1,-56 -23,-64 -18,19 -6,65 23,64zm99 529c3,-11 13,-15 24,-22 12,-8 19,-12 31,1 -12,12 -35,20 -55,21zm-12 7c21,-1 23,1 43,-9l32 -12c2,-6 4,-51 -11,-55l10 41c-17,-10 -22,-9 -41,0 -19,9 -28,10 -37,22l4 13zm-180 -742c22,4 21,5 46,-1 -9,-29 -20,-35 -51,-29l5 30zm-388 686c28,-7 41,-29 33,-59 -27,6 -38,31 -33,59zm-700 -1549c15,-3 34,-1 43,11 1,2 2,4 2,7 -24,11 -43,7 -45,-18zm12 32l9 -3 35 -5c-1,-7 2,-12 -11,-21 -19,-14 -32,3 -16,-16l-6 -4c-8,11 9,5 -11,9l7 -7 -6 -4c-6,22 -3,1 -20,11 -7,4 -9,4 -7,14 1,15 10,15 21,21 1,1 2,4 3,3 0,-1 1,1 2,2zm-168 1307c19,1 7,2 8,-6 9,1 8,4 7,-4l-7 4 -8 6 -27 -2c-1,-5 -2,-4 0,-10 3,-13 23,-21 32,-37l23 0 3 16c-8,-1 -6,-2 -2,6 -8,0 -7,-2 -4,6 -8,0 -8,-2 -5,4 -10,-1 -9,-3 -6,7 10,-3 10,0 6,-7 9,1 8,3 5,-4 8,-1 7,1 4,-6 8,0 7,2 2,-6 7,-9 5,13 6,-12 0,-14 -6,-19 -23,-10l-39 32c-15,19 -16,23 -12,41 45,-7 35,-15 37,-18zm920 -1266l-12 -3c5,7 -4,7 12,3zm-21 5c31,10 45,2 57,24 -6,6 0,4 -11,8 -10,3 -24,-2 -33,-5l-10 -5c-14,-6 -22,-5 -34,-7l2 8c13,-2 2,-3 15,-1 4,1 10,3 16,5 11,3 18,4 27,9 9,-4 6,-6 9,1 6,0 51,10 42,-12 -9,-21 -60,-26 -80,-25zm58 1162l3 6 3 1c2,-13 -4,-3 4,-14 24,-6 41,1 50,19 -10,14 -14,18 -36,17l1 6c21,7 37,-1 50,-14 -5,-30 -20,-27 -42,-38l-37 8 4 9zm-186 -116c2,-6 0,-9 5,-13 20,-20 16,-2 17,-1 -5,16 7,12 -22,14zm-14 20l8 -9c8,-8 1,-8 16,-6 14,1 41,18 27,-22 -5,-15 -4,-5 -10,-23 -45,31 -31,34 -41,60zm359 242c10,10 29,5 41,-1 -5,-19 -6,-18 -18,-28 -19,2 -43,7 -23,29zm-1180 41c-4,-4 -6,11 -11,-14 -4,-24 -1,-10 9,-18 0,1 18,-2 7,25l-5 7zm-56 -20c8,14 -7,8 14,10 5,1 20,-2 25,-3 10,15 3,12 18,20 16,-16 7,-19 9,-51l-66 24zm963 -352c16,-19 32,-15 43,2 -14,18 -21,14 -50,17l7 -19zm-22 27c13,0 17,-1 33,-3 13,-3 30,-4 36,-12 4,-11 8,10 3,-12 -2,-8 -3,-10 -8,-13 -7,-5 -20,-5 -30,-1 -11,4 -14,7 -22,16 -12,13 -9,9 -12,25zm350 215l1 -1 26 4 11 -5c-7,3 -5,4 -5,-4l-7 -2 -6 -2c-7,2 -5,3 -6,-3l-7 -7 -7 -1 -9 -4 -12 0c-13,5 -12,2 -21,11 14,10 11,5 28,9 1,0 6,2 7,2l7 3zm-1190 40c31,-4 39,-10 40,-34 -17,-6 16,-13 -19,-2 -4,1 -10,7 -12,9 -9,11 -8,12 -9,27zm855 -263c29,-3 36,1 50,-17 -11,-17 -27,-21 -43,-2l-7 19zm-1824 -914l-75 48c17,2 34,1 45,-15 4,-26 -19,8 3,-5 5,-4 3,-5 6,2l6 -1 18 -16 7 -6 5 1c-7,-1 -28,13 -39,17 16,-20 9,-2 24,-25zm-28 39l-2 -6 -1 8 3 -2zm-14 7c-14,5 -5,0 -5,9l5 -9zm-27 -15l-11 8c0,1 -1,2 -2,3 26,-8 7,0 13,-11zm2021 722c8,0 54,2 33,-22 -6,-6 -8,-7 -17,-5 -17,3 -20,12 -16,27zm-425 348c-9,-11 -11,-13 -8,-33 11,1 13,-4 18,11 8,18 0,14 -10,22zm-15 -24l1 7 6 19 4 8 24 -10c0,-10 1,-21 -3,-30 -8,-16 -8,-10 -21,-13 -14,12 -4,-7 -11,19zm-325 -1226c-9,-12 -28,-14 -43,-11 2,25 21,29 45,18 0,-3 -1,-5 -2,-7zm546 1157c-9,7 -7,5 -5,20l22 -19c2,2 5,7 7,10 0,0 8,-3 11,-7l-7 -27c-24,9 -24,18 -23,25l-5 -2zm-1 -1l4 -8c-7,2 -5,-1 -4,8zm-619 100c12,-6 17,-9 13,-27 -3,-15 -9,-19 -23,-18 -1,16 1,30 10,45zm846 -13l4 3c10,-2 7,-4 6,7 3,0 12,0 15,-1 20,-8 4,-2 11,-9 -7,-23 -14,-21 -39,-14l3 14zm465 344c20,-1 43,-9 55,-21 -12,-13 -19,-9 -31,-1 -11,7 -21,11 -24,22zm-1455 -261c1,-15 0,-16 9,-27 2,-2 8,-8 12,-9 35,-11 2,-4 19,2 -1,24 -9,30 -40,34zm19 2l8 -6 7 -4 -1 0c-3,-10 -4,-8 6,-7 -3,-6 -3,-4 5,-4 -3,-8 -4,-6 4,-6 -4,-8 -6,-7 2,-6l-3 -16 -23 0c-9,16 -29,24 -32,37 -2,6 -1,5 0,10l27 2zm825 264c21,3 21,-11 16,-32 -12,2 -19,3 -22,13 -6,19 6,19 6,19zm-303 -379l2 13c7,-26 -3,-7 11,-19 13,3 13,-3 21,13 4,9 3,20 3,30l-24 10 -4 -8 -1 9 5 -1c7,2 -10,9 16,1 38,-11 1,-86 -29,-48zm393 -440c-22,-39 -23,-33 -44,-44 2,18 7,19 19,30l5 4c0,1 1,2 2,3 1,0 2,1 3,1 6,4 5,4 15,6zm48 463l3 4 5 3 -3 -14c25,-7 32,-9 39,14 -7,7 9,1 -11,9 -3,1 -12,1 -15,1 1,-11 4,-9 -6,-7l6 7 0 5c22,1 26,-3 36,-17 -9,-18 -26,-25 -50,-19 -8,11 -2,1 -4,14zm17 179c10,-32 -3,-34 -11,-39 -2,3 -10,-5 -3,21 8,32 4,12 14,18zm289 -305c5,3 2,4 10,5 1,1 11,1 11,1 10,-1 17,-4 25,-7 -10,-10 -33,-18 -46,1zm-730 140c10,-8 18,-4 10,-22 -5,-15 -7,-10 -18,-11 -3,20 -1,22 8,33zm215 -59l11 -2 6 -1 -2 -20c-2,-3 -5,-8 -7,-10l-22 19 4 15c9,-14 4,-14 16,-21 2,26 -9,10 -6,20zm-813 218c11,-27 -7,-24 -7,-25 -10,8 -13,-6 -9,18 5,25 7,10 11,14l5 -7zm894 241c9,-2 8,1 4,-9 -16,-6 -10,0 -5,-7l-3 -3c-2,-18 0,-15 -21,-15l7 24c1,0 2,0 2,0 0,0 2,0 2,0 0,0 1,1 2,1 14,6 5,-9 12,9zm65 -437c16,-9 6,-3 8,-17 -6,0 -9,-3 -20,2 -16,8 -7,6 -10,13 0,0 6,11 22,2zm-2025 -924c2,-1 8,-6 9,-7 5,-7 2,-2 6,-10 -25,-5 5,2 4,-29 -20,9 -19,13 -26,29 24,4 2,-1 17,7 -19,9 -5,1 -10,10zm1896 824c29,-2 17,2 22,-14 -1,-1 3,-19 -17,1 -5,4 -3,7 -5,13zm142 -55c10,8 12,11 26,-1 -4,-7 -1,-9 -11,-10 -10,0 -15,5 -15,11zm-159 143l14 6 -9 10 3 0 1 3 2 -8c13,-3 6,-3 18,-1 0,-2 -1,-4 -1,-5 0,0 2,-3 2,-5 0,-1 1,-2 1,-3l-7 -2c-7,10 4,7 -15,8 2,-10 -18,-9 8,-8l-6 -7 -11 2c4,10 1,3 2,6 0,0 -1,2 -1,2 0,0 -1,1 -1,2zm155 -196l0 4 24 -2 -2 -7c-8,4 -5,5 -7,-4l-12 3c-1,7 4,7 -3,6zm1388 1355c-13,-55 -24,-122 -41,-182 -17,-58 -35,-118 -50,-176 -13,-55 -31,-132 -48,-183 -16,-45 -48,-135 -32,-171 24,2 34,34 41,64 7,35 17,58 25,92 15,65 28,128 47,191 11,35 70,302 62,349 -1,11 -1,9 -4,16zm-127 -775c-7,7 -4,5 -15,7 -3,5 3,2 -7,6 -7,3 -1,1 -8,3 -4,1 -15,2 -19,3 -10,13 -6,10 -25,12 -28,-33 7,-40 -48,-58l-48 -23c-8,-1 -12,5 -13,6 4,25 27,58 40,80 18,28 35,35 61,47 4,38 29,72 41,112 11,39 26,76 36,115 23,82 43,164 66,246 11,41 25,83 34,124 10,50 0,71 17,119 6,16 -1,86 43,172 11,22 14,30 36,31 7,-18 1,-40 -2,-61l-24 -125c-9,-27 -1,-31 -8,-61 -21,-90 -30,-174 -49,-260 -9,-42 -25,-83 -38,-123l-63 -262c-20,-108 23,-49 -7,-110zm-1738 778c6,-13 9,-14 11,-27 -13,-26 -8,-4 5,-17 4,-5 56,-148 62,-167 29,-84 76,-108 80,-156 20,-2 43,-7 48,-23l7 -18c12,-21 22,-18 26,-41 -26,9 -2,2 -11,9 -12,10 8,2 -5,3l-27 -20c-17,5 -21,11 -36,8 -7,-16 29,-77 47,-97l33 -40c14,-21 63,-103 78,-114l7 -5c14,19 14,28 8,50 -3,10 -1,3 -3,11l-4 12c-13,17 -28,51 -39,59 -18,12 -40,51 -39,72 1,32 -5,-5 -4,30l1 23c2,-19 9,-32 23,-44 9,-3 20,-35 29,-53 41,-83 88,-120 96,-156l-22 -14c-7,-8 -8,-19 -10,-31l25 -11 -23 -13c-2,-37 21,-35 37,-54 8,-10 14,-46 30,-76l28 -44c0,0 0,-1 0,-1 0,0 -1,-1 -1,-1l-1 -2c-8,-28 3,-25 4,-26 -11,-2 -8,-4 -17,3 -16,6 -19,17 -28,34 -7,16 -8,25 -17,43 -41,83 -29,19 -53,123 -5,21 -15,16 -29,35 -18,22 -28,54 -45,75l-110 140c-82,111 -39,81 -49,125 -2,6 -16,25 -22,36 21,-6 21,-13 21,-13 10,-11 3,-11 8,-7 3,5 1,-1 1,7 0,3 1,13 -5,25 -16,32 -2,-9 -6,9l-2 13c-5,21 -13,36 -18,53 -7,23 -15,45 -25,65l-28 59c0,2 -1,4 -1,5l-38 108c0,1 -1,3 -1,3 -5,15 -8,1 -3,31 -16,-5 -8,3 -18,-14l10 7c10,2 -2,4 8,-2 -20,-23 -15,-8 -18,-5 -11,-6 7,-6 -7,0 0,1 -2,4 -2,3 -1,-1 -3,3 -4,4l0 11c6,11 8,7 0,26 -1,2 -3,5 -4,6l-18 23c-8,6 -14,30 -15,43 7,10 8,8 -3,7l1 4c7,10 9,8 -3,8l3 2c14,5 0,16 13,-16 9,-23 8,-36 14,-53 3,-11 2,-12 11,-20 2,-2 8,-5 8,-5 3,-2 5,-1 5,-1 9,-3 -4,0 7,-8l13 -7 -23 -22c1,1 5,7 10,10l19 1zm36 -149l28 -59c10,-20 18,-42 25,-65 5,-17 13,-32 18,-53l2 -13c4,-18 -10,23 6,-9 6,-12 5,-22 5,-25 0,-8 2,-2 -1,-7 -5,-4 2,-4 -8,7 0,0 0,7 -21,13l-14 30c-6,21 -19,63 -33,79l9 4c9,-4 -1,-10 19,-25 8,36 -12,74 -34,94 -4,-19 -4,-19 1,-34 4,-12 9,-18 8,-30 -11,6 -1,-4 -13,10 -3,22 -13,32 -18,58 9,-12 13,11 4,-18l4 9c4,16 2,-1 1,9 -2,17 -5,9 -3,28 0,1 1,2 1,3 0,0 0,1 0,2 0,0 0,1 0,1 0,7 -9,-3 -2,10 1,0 2,-3 2,-2l14 -17zm-26 -22c10,2 11,4 4,-4l-4 4zm196 -219c11,-12 12,-14 19,-25 6,-9 8,-12 17,-24 12,-18 19,-37 26,-53 -14,12 -21,25 -23,44l-1 -23c-1,-35 5,2 4,-30 -1,-21 21,-60 39,-72 11,-8 26,-42 39,-59l4 -12c2,-8 0,-1 3,-11 6,-22 6,-31 -8,-50l-7 5c-15,11 -64,93 -78,114l-33 40c-18,20 -54,81 -47,97 15,3 19,-3 36,-8l27 20c13,-1 -7,7 5,-3 9,-7 -15,0 11,-9 -4,23 -14,20 -26,41l-7 18zm86 -240l1 -3c2,12 5,10 -6,9 5,8 7,7 -3,5 6,9 8,8 -3,6 5,8 7,6 -2,7 4,7 5,5 -3,5 4,8 5,6 -4,5 5,8 6,6 -4,5 5,9 6,7 -4,5 -1,13 2,-1 -2,11l-17 24c-7,11 -11,18 -18,30 -9,16 -30,46 -51,53 -4,-23 21,-53 34,-68 0,-1 1,-2 2,-2 1,-1 2,-2 2,-3l21 -21c5,-7 6,-11 10,-17 11,-13 1,-4 13,-11 -5,-8 -6,-6 3,-5 -5,-8 -6,-6 3,-6 -4,-8 -6,-6 4,-5 -5,-8 -6,-7 3,-6 -5,-8 -6,-6 4,-5 -5,-8 -6,-6 3,-5 -4,-8 -5,-6 4,-6 -4,-7 -4,-5 4,-5 0,-2 -9,-13 20,-26 -2,20 -4,20 -14,29zm-6 -3c-8,0 -8,-2 -4,5 -9,0 -8,-2 -4,6 -9,-1 -8,-3 -3,5 -10,-1 -9,-3 -4,5 -9,-1 -8,-2 -3,6 -10,-1 -8,-3 -4,5 -9,0 -8,-2 -3,6 -9,-1 -8,-3 -3,5 -12,7 -2,-2 -13,11 -4,6 -5,10 -10,17l-21 21c0,1 -1,2 -2,3 -1,0 -2,1 -2,2 -13,15 -38,45 -34,68 21,-7 42,-37 51,-53 7,-12 11,-19 18,-30l17 -24c4,-12 1,2 2,-11 10,2 9,4 4,-5 10,1 9,3 4,-5 9,1 8,3 4,-5 8,0 7,2 3,-5 9,-1 7,1 2,-7 11,2 9,3 3,-6 10,2 8,3 3,-5 11,1 8,3 6,-9 -12,3 -11,-1 -6,9 -9,-1 -8,-3 -3,5 -9,-1 -7,-2 -3,6 -10,-3 -7,-3 -2,7 -7,1 -7,-1 -3,5 -10,-1 -9,-3 -4,5 -9,0 -8,-2 -4,5 -10,0 -11,-3 -4,5l-6 -4c9,1 8,3 3,-5 10,1 8,3 3,-6 10,1 9,3 4,-5 10,1 8,3 3,-6 10,1 9,3 4,-5 9,1 8,3 3,-5 10,1 9,3 4,-6 9,1 8,3 4,-5l6 3c10,-9 12,-9 14,-29 -29,13 -20,24 -20,26zm-4 5c5,9 6,7 -4,6 5,8 6,6 -3,5 5,8 6,6 -4,5 5,9 7,7 -3,6 5,8 6,6 -4,5 5,9 7,7 -3,6 5,8 6,6 -3,5l6 4c-7,-8 -6,-5 4,-5 -4,-7 -5,-5 4,-5 -5,-8 -6,-6 4,-5 -4,-6 -4,-4 3,-5 -5,-10 -8,-10 2,-7 -4,-8 -6,-7 3,-6 -5,-8 -6,-6 3,-5 -5,-10 -6,-6 6,-9l-1 3 -6 -3c4,8 5,6 -4,5zm1419 -172c8,-6 5,-6 7,5l-1 1c9,-2 7,-4 6,6 8,-2 4,-8 7,6 8,-5 4,-4 5,6l3 -8c-9,-31 -109,-160 -140,-199 -20,-27 -13,-22 -8,-26 -1,0 -3,-1 -4,-1 -15,-6 -15,-5 -28,-24 -9,-13 -14,-21 -24,-29 2,8 5,14 7,21l1 15c0,0 5,18 -22,-23 -8,-12 -16,-25 -27,-31 -1,-22 -1,-8 -6,-10 -2,-8 1,-4 -6,-14 -7,-12 -6,-7 -9,-9 -4,-23 -28,-57 -38,-77 -36,-68 -23,-41 -50,-62 -20,33 -17,54 8,103 11,21 34,80 55,92 -8,-25 -22,-48 -34,-73 -13,-28 -24,-50 -13,-75 19,8 24,22 38,43l24 39c9,11 5,6 10,10 2,8 -3,1 5,15 10,16 5,5 10,8 1,21 0,9 6,10 6,20 35,59 49,79 17,26 34,48 51,75 17,14 42,53 48,82 -42,10 -83,-48 -103,-79l-60 -87c-10,-11 -5,-5 -10,-8 -1,-7 -1,-6 -4,-12 0,-1 -2,-1 -2,-2 -1,-1 -2,-1 -3,-1 -2,-13 3,-9 -7,-13 -1,-23 1,-9 -7,-12 4,25 1,10 7,12 1,27 4,11 7,13l9 15 51 83c12,22 8,5 9,30 -9,-7 -2,-1 -7,-11 -3,-6 1,-5 -3,-9 -16,-17 8,34 -8,4 0,-1 -1,1 -2,1 0,0 -1,-2 -1,-2l-5 -8c0,0 -1,0 -1,-1 0,0 -2,0 -2,-1l-10 -10c-1,0 -2,-1 -3,-2l-10 -7c11,17 31,43 46,65 13,19 26,53 43,65 1,-1 5,-7 13,-6l48 23c55,18 20,25 48,58 19,-2 15,1 25,-12l-21 5c-6,-19 -7,-59 -13,-68 9,2 23,1 35,9 18,11 7,5 11,13zm344 -1679c-8,-4 1,-3 -15,-5 -6,-1 -12,0 -19,1 -13,1 -27,2 -41,5 -16,5 -6,4 -9,-4l-41 -2c-13,2 -4,3 -7,-6l-4 1c-10,4 -8,7 -9,-2l-4 2c-14,3 -5,3 -8,-5l-7 4c-15,4 -4,2 -9,-4 -57,2 -108,-1 -167,5 -44,4 -139,14 -179,25l200 -16 80 -5c52,-10 102,5 146,12 39,5 33,2 41,14 -61,26 -123,12 -180,15 -15,1 -169,15 -181,9 -39,23 -333,28 -349,20 25,-22 72,-33 117,-37l86 -4c7,-1 7,0 15,-3 12,-5 2,2 9,-7l-90 5c-19,6 -8,5 -11,-2 -31,6 -141,13 -165,44 15,5 1,-6 -36,36 -5,6 -6,-4 -2,3 1,0 2,-1 2,0 5,7 -4,2 17,-2 8,-2 14,-3 23,-3 15,-1 31,2 47,3l316 -29c21,-3 37,-6 55,-6 80,-2 174,-16 254,-8 69,7 75,-15 94,-5 -9,-12 5,-10 16,-20 17,-15 8,-17 15,-29zm8 0l-6 -3c2,16 -2,14 0,26l6 -23zm-846 82c13,-3 6,1 6,-9l-6 9zm22 -14c15,0 6,2 10,-9 -18,7 -9,2 -10,9zm-1852 1523c-8,6 -8,6 -16,13 -9,10 -4,3 -10,13l0 6c-1,0 -8,3 -9,4 18,-6 0,-1 8,-11 -14,9 -10,5 -15,14l6 -3c-8,7 -2,2 -13,9 17,2 -1,2 6,-7 -42,26 -76,61 -116,89 0,2 -1,6 -1,6 0,17 -7,-9 4,6 13,-11 9,-11 27,-16 5,-22 53,-48 75,-59 30,-15 56,-8 23,27 -10,11 -15,18 -31,23 1,7 9,5 -7,6 1,7 9,5 -8,7 1,7 9,5 -7,6 -2,8 2,2 -4,9 -1,1 -4,4 -5,5 -9,6 -9,4 -14,6 -1,7 9,2 -9,9l-5 1c-2,6 6,5 -8,6 -3,6 9,5 -9,6 -5,10 13,1 -9,10l-7 3c-1,6 12,6 -9,6 -3,8 3,1 -5,9 -4,5 -3,4 -10,7l-7 2 -59 58c-1,1 -2,3 -2,4 -12,22 -45,46 -67,58 -5,-30 15,-54 34,-75l46 -51c8,-7 -3,1 11,-6l9 -5 39 -41c10,-7 9,-6 17,-10 -11,-9 -1,-8 -13,-4l-1 1 -14 9 -79 75c-28,26 -139,146 -140,169 -7,24 -15,13 -26,39 11,5 9,3 43,-16 17,-9 33,-19 49,-27 3,26 1,17 -19,37l-4 5c-10,4 -27,12 -34,20 -9,9 -6,8 -6,19 1,18 9,7 0,18 7,4 -1,4 11,5 15,2 2,2 15,-2 -5,20 -7,5 1,23 0,-1 1,-2 1,-3 13,-24 11,-8 20,-22 -26,0 -17,6 -20,-5 0,0 -5,12 -5,-13 0,-11 8,-20 12,-29 5,-9 3,-2 5,-11 33,-16 40,-52 50,-69 24,-40 44,-51 59,-69 32,-36 68,-65 106,-96l119 -96c19,-17 58,-45 66,-61l5 -10c10,-15 30,-44 -10,-47 -15,15 3,-11 -2,5 -5,15 18,-4 -10,6 -16,6 0,-1 -9,5 -11,7 -18,20 -32,19 14,-6 12,-4 19,-19zm1769 441l-13 -18c-3,-8 -6,-17 -9,-25 -7,-18 -18,-36 -20,-54l-5 -26c-1,-1 -3,-3 -2,-3 0,1 -2,-2 -3,-3 -4,-12 -2,-3 -2,-13l-5 -5c-1,0 -6,-8 -6,-9l-25 -58c-15,-36 -22,-55 -14,-86l19 32c2,1 3,1 4,3l12 16c3,7 -5,-12 2,6 8,20 23,77 37,86 -9,-17 -5,-5 -6,-21 -3,-28 -16,-56 -27,-82 -7,-16 -12,-23 -20,-37 -14,-28 -3,-11 -1,-34 -14,-7 -11,-4 -27,0 -5,6 -8,10 -20,13 -9,2 -2,2 -12,0 -11,-1 -5,0 -11,-4 -25,-2 -5,-24 -19,-47 -17,-28 -31,-7 -52,-95 -3,-10 -14,-41 -13,-50l0 -10 -10 1 2 -14c-21,-9 -12,-1 -12,0 3,-35 -47,-110 -52,-190 -2,-32 6,-37 5,-60l-21 -7c22,-29 3,1 -13,-75 -10,-49 11,-48 15,-74 45,-11 70,-27 85,18l-2 2c7,7 3,-2 12,16l12 59c1,12 3,26 3,38 -1,23 -4,13 -5,31l-19 -28 -24 19c28,37 30,67 47,121l30 97c10,28 16,18 21,18 17,-27 -14,-85 -25,-104 -18,-31 -22,-79 -31,-117 16,26 10,82 42,121 8,10 2,3 8,8l7 -19c3,-7 6,-13 10,-20 6,-10 6,-7 9,-17 6,-20 -2,-5 15,-51 27,-76 5,-115 28,-198 6,-23 9,-26 34,-35 -1,16 -2,19 -12,34 -1,1 -3,4 -4,5l-13 51c0,14 -2,18 -1,33 1,84 -22,113 -10,137 -21,-11 -4,-8 -9,7 -13,37 -3,78 6,115 -27,-3 -32,-42 -42,-73 -22,31 -1,86 19,112l-38 22c10,-1 0,-6 7,5 8,14 2,22 12,31 17,14 5,10 12,-4l-5 -24 12 -17c8,-10 2,-2 5,-10l28 8c14,4 -2,6 9,0 11,-5 11,-5 25,-8 9,9 6,3 12,16l12 -5c21,-8 32,-62 37,-85l19 13c7,4 12,8 19,12 113,54 221,21 249,55 4,5 7,11 12,17 9,13 16,24 26,32l10 7c1,1 2,2 3,2l10 10c0,1 2,1 2,1 0,1 1,1 1,1l5 8c0,0 1,2 1,2 1,0 2,-2 2,-1 16,30 -8,-21 8,-4 4,4 0,3 3,9 5,10 -2,4 7,11 -1,-25 3,-8 -9,-30l-51 -83 -9 -15c-3,-2 -6,14 -7,-13 -6,-2 -3,13 -7,-12l2 1c-21,-12 -44,-71 -55,-92 -25,-49 -28,-70 -8,-103 27,21 14,-6 50,62 10,20 34,54 38,77 3,2 2,-3 9,9 7,10 4,6 6,14 5,2 5,-12 6,10 11,6 19,19 27,31 27,41 22,23 22,23l-1 -15c-2,-7 -5,-13 -7,-21 10,8 15,16 24,29 13,19 13,18 28,24 1,0 3,1 4,1 53,2 107,-6 162,-5 36,1 128,20 147,14l20 -2 -16 -8c0,0 -1,-1 -2,-1l-6 -7c-20,-45 27,-145 59,-183 1,-1 19,-26 36,-36 20,11 7,13 27,13l2 -30c-35,-7 -35,47 -38,-94 -1,-38 -18,-105 -31,-143 -17,-52 -39,-69 -68,-98 -42,-43 -33,-71 -63,-111 -65,-87 -156,-67 -204,-93 -38,-21 -42,-57 -73,-90 -35,-36 -68,-21 -120,-4 -10,14 -14,14 -31,18 -6,-5 -10,-8 -16,-16 -26,-37 0,-16 -45,-35 -25,-10 -45,-29 -51,-68 31,-25 53,-25 95,-37 47,-14 49,-25 86,6l-1 -1 7 4c20,-4 9,-4 14,2l19 -4c10,9 6,3 13,15 16,7 7,10 20,21 14,12 9,1 23,11 68,-23 103,-21 154,1 43,18 74,30 104,83l4 4c6,-2 4,-3 6,4l6 1 6 3c14,6 17,7 26,19 7,-2 5,-3 5,4 13,15 17,30 23,53l15 38 6 7c86,63 106,259 125,382l7 -13c3,-118 -21,-226 -67,-338 -63,-155 -135,-237 -290,-300 -45,-19 -84,-28 -134,-42 -154,-45 -152,-34 -295,-35 9,-39 17,-87 30,-124 29,-80 26,-52 52,-111 67,-22 116,-10 182,-16 62,-7 124,-15 184,-19 62,-5 112,0 170,2 140,5 70,15 163,-31 11,17 25,26 41,42l104 160c22,44 41,75 65,114 15,23 46,104 59,113l7 4c23,14 22,14 26,37 1,11 52,111 63,137 10,24 21,49 31,71 24,49 14,53 47,101 13,19 4,10 9,34 2,7 78,137 92,149 5,4 6,7 14,7 21,1 6,0 11,-4 8,-18 -1,-32 -7,-52 -29,-6 -49,-33 -56,-69 12,1 13,-6 30,18l-2 -7c-4,-23 -20,-42 -33,-59 -15,-21 -12,-41 -24,-70 -17,-41 -39,-85 -58,-125 -20,-43 -41,-82 -56,-128 -34,-105 -1,-33 -52,-136 -9,2 -5,10 -9,-5 -3,-12 -2,-11 -12,-21 -12,2 -9,4 -8,-8l2 -2c-11,3 -8,5 -7,-7l0 -4c-12,-5 -7,0 -16,-13l2 -1 -15 -14c-12,-15 -3,-2 -8,-17 -24,-45 -46,-77 -63,-130 -8,-4 -7,-3 -10,-9 -6,-8 -2,-1 -1,-9 -2,-21 -14,-39 -23,-58 -16,2 -11,8 -10,-7l2 -7c-9,2 -4,10 -9,-3l-5 -9c-10,5 -5,-5 -8,6l0 -14 -6 -8c-26,-8 -18,-18 -40,-19 10,3 4,1 9,10 8,-2 6,-9 7,7 7,-4 5,-5 5,4 7,2 12,-5 13,16 1,0 2,1 3,1l52 73c3,7 39,95 40,106 2,2 3,2 7,8 1,1 1,4 1,4 0,-1 0,2 1,3 3,3 7,-12 7,14l3 8c6,1 6,-8 8,11 6,1 4,-8 6,9 4,2 1,0 8,5l26 36c1,1 4,4 5,5l19 30c0,1 3,5 3,6 4,5 4,5 7,14 9,1 4,0 6,-1l27 68 -24 29c-1,-1 -2,1 -3,2 0,-1 -1,-5 -1,-6l-3 -2c0,0 -1,0 -1,0 -21,-10 -31,-33 -36,-59 -5,-1 -4,13 -5,-11 -1,-1 -2,-2 -2,-2 -1,-1 -2,-2 -3,-2l-24 -45 -5 -12 -5 -10 -7 -15 -56 -99 -5 -11c-15,-17 -41,-70 -45,-93l-33 -47c-10,-1 -6,7 -8,-8 -7,0 -5,7 -6,-9 -15,-7 -19,-24 -27,-38 6,-9 3,-8 17,-12 -27,-23 15,8 -8,-12 9,-14 3,-30 -14,-33l-6 23c-2,-12 2,-10 0,-26l-2 3c-7,12 2,14 -15,29 -11,10 -25,8 -16,20 -19,-10 -25,12 -94,5 -80,-8 -174,6 -254,8 -18,0 -34,3 -55,6l-316 29c-16,-1 -32,-4 -47,-3 -9,0 -15,1 -23,3 -21,4 -12,9 -17,2 0,-1 -1,0 -2,0 -4,-7 -3,3 2,-3 37,-42 51,-31 36,-36l-5 -1c-4,11 5,9 -10,9l-16 5c0,10 7,6 -6,9 -33,12 -28,41 -44,70 -36,69 -52,184 -56,262l-42 21 -5 6c-1,1 -2,2 -3,3l-15 20c0,0 -1,2 -1,2l-28 38c-18,23 -34,56 -52,74 3,-49 59,-103 61,-115 -6,-52 -82,-33 -93,-12l-28 42 1 0 -5 10 2 -1c-1,18 2,4 -6,21l2 0c10,0 -11,-34 33,-48 48,72 0,155 5,169l6 7c0,-6 7,12 -9,57 -3,9 0,1 -4,9l-4 7c-3,12 -5,16 -5,27l-3 11c5,9 9,8 -2,7 6,17 2,6 -2,10l-7 18c-3,67 -24,73 -4,183 -2,-1 -4,-1 -5,-1l-13 -3c-30,-6 -81,4 -102,0 -11,-2 -7,-2 -13,-7l-10 -9c-8,-18 -96,36 -98,42 25,-11 104,0 124,12 -55,-7 -74,-14 -136,0 -57,13 -80,49 -139,50 -16,3 -14,1 -26,12 -4,10 0,2 -5,11 0,2 -4,6 -4,9 -9,31 0,17 8,19l12 -3c9,-3 7,-5 7,4l12 4c5,-29 3,6 7,-24 2,-19 15,-4 22,-23 10,4 1,0 4,6 0,0 0,2 0,1 0,0 0,2 1,2 18,-20 58,-31 88,-36 44,-7 56,16 41,41 -14,22 -58,47 -80,60 -26,15 -38,30 -67,16 -24,-12 -19,-15 -22,-23 -5,-11 0,-14 -4,-17 -1,2 8,7 -11,10 -17,2 -11,-5 -13,-8l0 -4c-9,10 -9,-8 -8,35 1,19 -2,19 -4,30l-82 10c-9,-21 -8,-13 2,-29l-18 9 -1 13c6,18 5,8 10,23 14,40 -13,23 -27,22 -15,-2 -8,-2 -16,6l-8 9c-13,7 -8,-2 -9,15l-4 8 1 1 5 2c-1,-7 -1,-16 23,-25l7 27c-3,4 -11,7 -11,7l2 20c12,-11 21,-28 28,-34 16,-14 7,4 38,-25 16,-15 18,-6 45,-14 25,-7 27,-13 36,15l4 -16c2,-7 -1,0 2,-10l55 -14 55 -18c3,-8 -5,-5 14,-8 5,-9 -11,1 11,-11 14,-7 9,-4 22,-6 8,-14 39,-24 57,-31 18,-6 75,-38 74,-3 0,8 -34,50 -42,60 -1,1 -2,2 -2,2l-18 20c23,-10 2,-10 2,-10 -5,13 -32,37 -42,46 -39,35 -61,51 -117,57 -14,2 -13,2 -25,-6 -29,-19 -12,1 -19,-13 -14,33 3,3 -2,36 -2,12 -9,-7 -1,6l36 -1c17,1 -1,-5 8,2 20,-5 44,2 57,13 35,32 29,14 43,31 -15,13 -26,27 -55,28l-40 2c-14,5 4,4 -5,3l-8 -25 -1 -6 0 -5 -6 -7 -4 -3 -5 -3c-7,2 -4,3 -6,-5l-3 -6 -55 -10c-45,8 -28,-5 -32,-14 -12,-2 0,-3 -9,0 27,14 -30,20 -41,19 -8,-10 -6,-9 -5,-20l-20 -1 -1 3c0,0 0,2 0,2l-23 12c-1,-1 -3,0 -4,1 2,1 3,2 4,2l8 3c27,9 86,4 111,1 25,-5 42,-2 64,14 -20,29 -104,50 -121,39 -54,24 -120,8 -164,-2 -27,-5 -45,-13 -71,-21 -29,-8 -10,-3 -33,8 -36,15 -34,-3 -35,-4 -5,-9 -3,-2 -5,-15 -2,-12 0,-10 0,-13l-1 -7 -2 -13c1,-25 -3,2 0,-15l-16 7c-12,11 20,4 -16,10 -7,-12 4,3 -6,-6l-22 -14 1 2c-9,2 -6,3 -11,-4l0 2c-1,11 -2,-1 13,6 10,4 3,0 9,4 0,0 1,1 2,2l2 3c1,0 1,1 1,1 0,0 1,0 1,1l4 2c7,9 3,-3 7,16 -22,23 -44,29 -84,28 -68,-1 -106,5 -185,2 -20,-1 -27,-2 -42,-7 -7,-2 -13,-4 -20,-5l-11 1c0,0 -1,1 -2,1 -15,18 6,49 0,65 -21,-3 -43,-76 -37,-114 -19,4 -48,11 -63,24l-8 9c-1,-1 -1,1 -2,2 0,1 0,3 -1,4 0,0 0,3 -1,3l-3 6c0,2 58,61 -79,114 -6,-24 2,-58 22,-65 -16,2 -1,-2 -18,5 -23,6 -77,66 -84,83 -15,40 5,16 -30,49 -12,11 -30,28 -34,40 -7,15 -5,13 -19,19 14,1 21,-12 32,-19 9,-6 -7,1 9,-5 28,-10 5,9 10,-6 5,-16 -13,10 2,-5 40,3 20,32 10,47l-5 10c-8,16 -47,44 -66,61l-119 96c-38,31 -74,60 -106,96 -15,18 -35,29 -59,69 -10,17 -17,53 -50,69 -2,9 0,2 -5,11 -4,9 -12,18 -12,29 0,25 5,13 5,13 3,11 -6,5 20,5 30,-9 37,-37 48,-57 31,-55 142,-181 192,-230 18,-17 33,-34 54,-54 60,-56 128,-91 178,-146 16,-16 17,-10 34,-24 9,-7 30,-39 78,-81 20,-17 35,-39 61,-39 63,-2 124,-15 187,-17 66,-2 113,9 182,-13 20,25 51,23 91,23 118,2 255,47 303,26 8,-4 41,-16 42,-1l34 -13 6 26c38,-5 45,22 42,53 -1,13 0,15 -10,23 -29,-4 -14,-26 -21,-46 -7,-18 -6,-11 -15,-14 -4,10 -3,10 3,25 -25,15 -14,-3 -17,61l-14 56c-1,8 -2,17 -4,25 -8,33 -14,4 -5,11 13,6 -3,8 8,0 0,0 1,-1 2,-1 0,-1 1,-2 1,-3 3,-4 2,-17 15,-29 10,-9 22,-41 26,-56 53,0 114,0 170,-14 59,-14 93,-42 132,-76 12,9 14,15 28,21 58,25 19,-33 80,146 16,48 30,75 72,83 11,55 29,78 52,122 37,70 89,219 104,245 18,32 27,13 35,47 6,22 11,46 18,66 14,4 4,4 10,-1 -4,-22 -10,-37 -9,-60 1,-2 4,-22 4,-22l3 -15 -1 -1 -8 -7c-1,-2 -4,-8 -5,-10 -7,2 -2,4 -12,21 -14,-16 -19,-8 -31,-35 -9,-20 -20,-43 -21,-64zm49 6c-6,9 -7,-10 -1,15 1,4 5,11 7,19 8,23 1,36 18,36l-24 -70zm-1844 -421l-1 -1c-8,10 10,5 -8,11 1,-1 8,-4 9,-4l0 -6zm-16 13l-1 -1c-7,9 11,9 -6,7 11,-7 5,-2 13,-9l-6 3zm2672 -337l-3 -27 -6 -5c2,5 2,15 2,16 2,8 -4,-9 2,7 3,9 0,3 5,9zm-888 612c11,4 1,-12 11,14 4,12 2,7 1,16 5,3 10,-16 8,12 7,5 1,-17 8,13l3 -8c-3,-27 -21,-53 -29,-80 -12,21 1,7 -2,33zm-401 -528l12 0 9 4 7 1 7 7c7,-3 5,-4 6,3l6 2c8,-3 6,-4 7,2 7,-2 6,-4 5,4 0,0 15,3 6,8 -10,5 -14,-1 -17,-3 -5,1 -6,2 -12,1 -14,-2 -7,-1 -14,-5l-1 1c-26,2 -51,-4 -75,8 10,8 32,10 58,22 23,11 34,22 43,54 -10,10 -9,15 -25,22 -10,5 -33,11 -42,5 -23,11 -9,5 -12,0 -17,9 -6,5 -14,-4l4 3c-14,4 -13,9 -10,-4 -10,7 -8,9 -6,-4 -6,0 -9,17 -6,-8 -12,-4 3,3 -8,-5 -5,-3 -3,-3 -8,-6 -20,-14 -20,0 -62,-16 -8,-32 -15,-41 19,-51 25,-7 48,-1 69,-8l-15 -13c13,-10 49,-36 69,-20zm583 -151c-14,-50 59,-54 90,-23 -11,14 -16,4 -38,6 -21,3 -31,14 -52,17zm-1787 262c-2,32 7,35 -9,51 -15,-8 -8,-5 -18,-20 -5,1 -20,4 -25,3 -21,-2 -6,4 -14,-10l66 -24zm1712 -416c1,1 128,60 110,94 -9,16 -35,13 -50,8 -21,-7 -110,-55 -87,-92 0,0 -1,-17 27,-10zm-719 101c-14,12 -16,9 -26,1 0,-6 5,-11 15,-11 10,1 7,3 11,10zm1232 180c-1,-1 -3,-4 -3,-3 -2,9 4,1 -17,-11 -15,-9 -11,-2 -18,-22 -6,-16 -5,-15 -11,-29l-12 -17c-35,-33 -25,-48 -54,-78 -34,-36 -24,-34 -57,-71l-29 -28c-27,-34 -10,-10 -29,-26 -19,-16 13,-2 -40,-33l-31 -16c-1,-1 -2,-1 -3,-2 -36,-18 -17,-12 -42,-36 -39,-36 -34,-57 -43,-110 -3,-18 -5,-16 7,-40l7 -11c23,-29 23,2 40,-27l12 -20c0,-1 1,-2 2,-3 10,-22 -3,-49 43,-66 26,-9 53,-6 74,-1l40 11c52,22 82,32 131,73l5 5c0,0 1,1 2,2 96,91 94,118 124,264 14,69 9,72 6,124 -5,81 9,15 -34,98 -11,22 -18,47 -31,53 -16,8 -14,-1 -39,20zm674 -705l8 16 13 40c5,3 5,-1 14,18 11,24 50,108 36,128l-35 -71c-12,-26 -24,-49 -32,-75l3 -4 -13 -19c-14,-30 -59,-128 -54,-147 11,2 5,-1 12,10l21 45c9,18 24,40 27,59zm-1381 -101c1,-7 -12,-9 8,-6 1,-8 -13,-10 8,-7 1,-2 -4,-8 26,-20 12,-5 21,-7 34,-10 35,-8 69,-12 104,-9 24,3 35,8 47,26l10 13c0,1 -1,3 -2,4l-2 7c-2,4 -2,3 -3,10 -1,5 -3,14 -4,17 -9,33 -40,65 -85,76 -32,8 -66,15 -98,21 -17,3 -32,7 -49,11 -7,2 -20,6 -27,7 -8,1 -7,1 -14,1l-9 -1c-10,-14 -12,-28 -8,-50 7,-31 36,-85 64,-90zm198 -287c9,18 2,6 -3,10 2,9 3,8 0,18 -3,9 -3,7 -7,12 10,17 3,5 -4,12l2 -1c8,24 3,8 -3,13 6,7 7,6 -2,6 5,18 -2,61 -50,70 -12,-43 -9,-42 -6,-85l6 -22c-6,-22 5,-58 9,-78 6,-33 1,-59 16,-65l1 1c-37,-47 145,-95 51,96 -5,8 -3,4 -6,8 0,1 -1,3 -2,3 -1,-1 -2,1 -2,2zm244 481c33,-42 120,5 134,11 47,19 110,60 143,100 44,52 82,219 69,295l-22 69c-11,17 -17,15 -28,24 -5,-3 -8,-5 -14,-7 -21,-9 -12,0 -23,-12 -57,-60 -32,-21 -72,-60 -83,-79 -57,-42 -112,-147l-28 -47c-8,-11 -1,4 -8,-12 -10,-22 -11,-56 -21,-81 -9,-25 -14,-53 -20,-81 -4,-19 -7,-40 2,-52zm265 612c25,-21 23,-12 39,-20 13,-6 20,-31 31,-53 43,-83 29,-17 34,-98 3,-52 8,-55 -6,-124 -30,-146 -28,-173 -124,-264 -1,-1 -2,-2 -2,-2l-5 -5c-49,-41 -79,-51 -131,-73l-40 -11c-21,-5 -48,-8 -74,1 -46,17 -33,44 -43,66 -1,1 -2,2 -2,3l-12 20c-17,29 -17,-2 -40,27l-7 11c-12,24 -10,22 -7,40 9,53 4,74 43,110 25,24 6,18 42,36 1,1 2,1 3,2l31 16c53,31 21,17 40,33 19,16 2,-8 29,26l29 28c33,37 23,35 57,71 29,30 19,45 54,78l12 17c6,14 5,13 11,29 7,20 3,13 18,22 21,12 15,20 17,11 0,-1 2,2 3,3zm-131 -583c18,-8 9,-7 23,0 16,7 9,8 13,16 8,-6 7,-8 6,3 17,-4 16,0 32,10 16,10 18,8 24,27l15 15c10,-3 8,-5 7,5 5,0 9,-6 27,19 36,48 44,148 47,206 1,19 -11,65 -17,72l-12 5c-27,9 -55,2 -78,-18 -3,-3 -5,-4 -10,-8l-10 -8c-29,-17 -37,-23 -57,-50 -2,-2 -10,-11 -11,-13l-4 -6c-36,-64 -39,-129 -70,-184 -3,-6 -2,-3 -5,-10 -46,-100 -16,-55 -14,-99 28,-4 48,-6 76,4 14,5 13,4 18,14zm-136 23c6,28 11,56 20,81 10,25 11,59 21,81 7,16 0,1 8,12l28 47c55,105 29,68 112,147 40,39 15,0 72,60 11,12 2,3 23,12 6,2 9,4 14,7 11,-9 17,-7 28,-24l22 -69c13,-76 -25,-243 -69,-295 -33,-40 -96,-81 -143,-100 -14,-6 -101,-53 -134,-11 -9,12 -6,33 -2,52zm256 53c1,-10 3,-8 -7,-5 1,11 -2,11 7,5 7,25 29,39 40,82 9,36 13,64 15,99 6,100 -66,92 -100,56 -8,-8 -4,-7 -13,-15 -4,-4 -10,-6 -16,-10 -45,-33 -73,-143 -97,-202 -30,-70 -22,-56 -12,-85 35,-8 34,6 63,-1 7,10 -2,0 7,8 0,0 7,5 8,5 15,7 7,5 21,3 -2,10 -3,8 6,3 6,12 -2,3 10,13l46 24c-6,-19 -8,-17 -24,-27 -16,-10 -15,-14 -32,-10 1,-11 2,-9 -6,-3 -4,-8 3,-9 -13,-16 -14,-7 -5,-8 -23,0 -5,-10 -4,-9 -18,-14 -28,-10 -48,-8 -76,-4 -2,44 -32,-1 14,99 3,7 2,4 5,10 31,55 34,120 70,184l4 6c1,2 9,11 11,13 20,27 28,33 57,50l10 8c5,4 7,5 10,8 23,20 51,27 78,18l12 -5c6,-7 18,-53 17,-72 -3,-58 -11,-158 -47,-206 -18,-25 -22,-19 -27,-19zm-155 -45c23,-35 129,44 145,61 41,43 56,150 42,185 -16,39 -48,19 -71,3 -62,-41 -70,-90 -92,-154 -6,-18 -39,-73 -24,-95zm155 45c-9,6 -6,6 -7,-5l-15 -15 -46 -24c-12,-10 -4,-1 -10,-13 -9,5 -8,7 -6,-3 -14,2 -6,4 -21,-3 -1,0 -8,-5 -8,-5 -9,-8 0,2 -7,-8 -29,7 -28,-7 -63,1 -10,29 -18,15 12,85 24,59 52,169 97,202 6,4 12,6 16,10 9,8 5,7 13,15 34,36 106,44 100,-56 -2,-35 -6,-63 -15,-99 -11,-43 -33,-57 -40,-82zm-3 163c-74,10 -110,-146 -107,-164 3,-14 -1,-13 19,-15 24,-3 72,35 83,59 14,27 27,85 5,120zm-152 -208c-15,22 18,77 24,95 22,64 30,113 92,154 23,16 55,36 71,-3 14,-35 -1,-142 -42,-185 -16,-17 -122,-96 -145,-61zm137 167c-12,-6 -10,-7 -20,-15 -9,-7 -9,-4 -18,-13 -8,-10 -20,-38 -22,-56 -9,-58 83,-6 60,84zm15 41c22,-35 9,-93 -5,-120 -11,-24 -59,-62 -83,-59 -20,2 -16,1 -19,15 -3,18 33,174 107,164zm-700 -439c-6,-10 -6,-7 5,-5 -6,-9 -7,-7 4,-6 -6,-8 -6,-5 4,-5l-6 -7c19,0 9,1 8,-6 19,-1 9,1 8,-7 43,-7 63,-26 117,-23 83,4 37,86 12,106 -20,15 -151,49 -181,45 -21,-32 2,-85 29,-92zm23 -36c-21,-3 -7,-1 -8,7 -20,-3 -7,-1 -8,6 -28,5 -57,59 -64,90 -4,22 -2,36 8,50l9 1c7,0 6,0 14,-1 7,-1 20,-5 27,-7 17,-4 32,-8 49,-11 32,-6 66,-13 98,-21 45,-11 76,-43 85,-76 1,-3 3,-12 4,-17 1,-7 1,-6 3,-10l2 -7c1,-1 2,-3 2,-4l-10 -13c-12,-18 -23,-23 -47,-26 -35,-3 -69,1 -104,9 -13,3 -22,5 -34,10 -30,12 -25,18 -26,20zm-23 36c12,1 12,4 5,-5 11,1 10,3 4,-6 10,2 9,4 4,-5 23,-2 85,-54 149,-16 17,65 -122,119 -181,102 -4,-18 -3,-26 3,-39 4,-8 8,-10 11,-16 7,-13 4,-4 5,-15zm23 -36c1,8 11,6 -8,7 1,7 11,6 -8,6l6 7c-10,0 -10,-3 -4,5 -11,-1 -10,-3 -4,6 -11,-2 -11,-5 -5,5 -27,7 -50,60 -29,92 30,4 161,-30 181,-45 25,-20 71,-102 -12,-106 -54,-3 -74,16 -117,23zm-21 91c-36,-108 241,-114 93,-23 -33,21 -53,18 -93,23zm11 -71c5,9 6,7 -4,5 6,9 7,7 -4,6 7,9 7,6 -5,5 -1,11 2,2 -5,15 -3,6 -7,8 -11,16 -6,13 -7,21 -3,39 59,17 198,-37 181,-102 -64,-38 -126,14 -149,16zm18 36c-1,-16 0,-20 19,-29 16,-8 29,-8 43,-6 2,21 3,25 -19,33 -14,5 -31,8 -43,2zm-29 35c40,-5 60,-2 93,-23 148,-91 -129,-85 -93,23zm-1894 1236c-11,6 -7,5 -24,10 0,-20 -2,-11 7,-26 3,-5 4,-5 7,-11 16,-25 20,-19 32,-43 -14,7 -3,-1 -11,6l-46 51c-19,21 -39,45 -34,75 22,-12 55,-36 67,-58 0,-1 1,-3 2,-4zm84 -111c-16,8 -14,12 -28,21l-9 11c-1,1 -2,2 -2,3 -20,22 -40,33 -48,62 22,-11 27,-27 62,-44l7 -2c2,-4 2,-6 6,-10 4,-4 5,-4 9,-6l9 -6 7 -3 9 -10 9 -6 8 -6c7,-7 12,-12 22,-20 12,-10 3,-2 13,-15 5,-3 7,-4 10,-8 11,-16 4,2 6,-19 -42,10 -56,36 -90,58zm-53 36l-9 5c-12,24 -16,18 -32,43 -3,6 -4,6 -7,11 -9,15 -7,6 -7,26 17,-5 13,-4 24,-10l59 -58c-35,17 -40,33 -62,44 8,-29 28,-40 48,-62 0,-1 1,-2 2,-3l9 -11 -25 15zm84 -72c-18,5 -14,5 -27,16 -11,-15 -4,11 -4,-6 0,0 1,-4 1,-6l-11 13c12,-4 2,-5 13,4 -8,4 -7,3 -17,10l-39 41 25 -15c14,-9 12,-13 28,-21 14,-23 24,-14 31,-36 22,-4 41,-34 81,-43 2,19 3,8 -9,25 -6,9 -1,0 -5,9 -18,2 -5,0 -7,6 -15,2 -6,1 -8,7l-9 1 2 5 -15 10 -8 10 -9 9c18,-7 8,-2 9,-9 5,-2 5,0 14,-6 1,-1 4,-4 5,-5 6,-7 2,-1 4,-9 16,-1 8,1 7,-6 17,-2 9,0 8,-7 16,-1 8,1 7,-6 16,-5 21,-12 31,-23 33,-35 7,-42 -23,-27 -22,11 -70,37 -75,59zm-42 18l-14 9 14 -9zm42 -18c-7,22 -17,13 -31,36 34,-22 48,-48 90,-58 -2,21 5,3 -6,19 -3,4 -5,5 -10,8 -10,13 -1,5 -13,15 -10,8 -15,13 -22,20l-8 6 -9 6 -9 10 -7 3 -9 6c-4,2 -5,2 -9,6 -4,4 -4,6 -6,10 7,-3 6,-2 10,-7 8,-8 2,-1 5,-9 21,0 8,0 9,-6l7 -3c22,-9 4,0 9,-10 18,-1 6,0 9,-6 14,-1 6,0 8,-6l5 -1 9 -9 8 -10 15 -10 -2 -5 9 -1c2,-6 -7,-5 8,-7 2,-6 -11,-4 7,-6 4,-9 -1,0 5,-9 12,-17 11,-6 9,-25 -40,9 -59,39 -81,43zm-266 531c6,-7 -1,-27 -3,-34l-18 -107c2,14 44,146 51,157l-43 -174c9,-13 -9,3 7,-7 9,-11 1,0 0,-18 0,-11 -3,-10 6,-19 7,-8 24,-16 34,-20l4 -5c20,-20 22,-11 19,-37 -16,8 -32,18 -49,27 -34,19 -32,21 -43,16 11,-26 19,-15 26,-39 -11,12 -30,28 -32,46 -7,59 32,165 41,214zm0 0c9,22 35,109 54,118l-2 -4c4,18 17,48 32,58l-54 -156c-7,-11 -49,-143 -51,-157l18 107c2,7 9,27 3,34zm73 170c-4,-18 0,-9 -10,-15 4,22 3,11 10,15zm1444 -1299c0,-9 2,-7 -7,-4 2,9 -1,8 7,4l2 7 -24 2c2,3 -4,10 13,8 19,-3 10,-8 11,-10 4,3 -1,6 4,17 3,8 -2,11 22,23 29,14 41,-1 67,-16 22,-13 66,-38 80,-60 15,-25 3,-48 -41,-41 -30,5 -70,16 -88,36 -1,0 -1,-2 -1,-2 0,1 0,-1 0,-1 -3,-6 6,-2 -4,-6 -7,19 -20,4 -22,23 -4,30 -2,-5 -7,24l-12 -4zm-53 211c3,-7 -6,-5 10,-13 11,-5 14,-2 20,-2 -2,14 8,8 -8,17 -16,9 -22,-2 -22,-2zm79 18l3 6c2,8 -1,7 6,5l-3 -4 -3 -1 -3 -6 -4 -9 37 -8c22,11 37,8 42,38 -13,13 -29,21 -50,14l8 25c9,1 -9,2 5,-3l40 -2c29,-1 40,-15 55,-28 -14,-17 -8,1 -43,-31 -13,-11 -37,-18 -57,-13 -9,-7 9,-1 -8,-2l-36 1c-8,-13 -1,6 1,-6 5,-33 -12,-3 2,-36 7,14 -10,-6 19,13 12,8 11,8 25,6 56,-6 78,-22 117,-57 10,-9 37,-33 42,-46 0,0 21,0 -2,10l18 -20c0,0 1,-1 2,-2 8,-10 42,-52 42,-60 1,-35 -56,-3 -74,3 -18,7 -49,17 -57,31 -13,2 -8,-1 -22,6 -22,12 -6,2 -11,11 -19,3 -11,0 -14,8 14,-3 -13,8 8,-2 1,-1 3,-1 3,-3 1,-2 2,-2 3,-3 14,-2 23,-6 33,-17l67 -20c-2,23 -18,42 -33,57 -9,9 -19,15 -29,24 -10,9 -14,13 -26,21 -35,22 -107,55 -126,-12 5,-6 9,-9 18,-12 13,-6 18,-6 27,-15l-55 14c-3,10 0,3 -2,10l-4 16 21 47c-28,6 -38,10 -63,19 -14,5 -39,5 -61,8 -1,11 -3,10 5,20 11,1 68,-5 41,-19 9,-3 -3,-2 9,0 4,9 -13,22 32,14l55 10zm-67 -2l21 10c10,4 3,2 16,5 -23,30 -61,20 -94,38l-21 -2c-23,0 -33,4 -65,2 -26,-1 -54,-9 -78,-14 -26,-6 -53,-14 -64,-31 -14,-19 2,-18 16,-24 25,-11 6,7 23,-16 -46,2 -68,-10 -122,3 -3,17 1,-10 0,15 30,-38 67,37 29,48 -26,8 -9,1 -16,-1l-5 1 1 -9 -6 -19c0,3 -2,1 0,13 2,13 0,6 5,15 1,1 -1,19 35,4 23,-11 4,-16 33,-8 26,8 44,16 71,21 44,10 110,26 164,2 17,11 101,-10 121,-39 -22,-16 -39,-19 -64,-14zm-235 -28l-5 2 -11 6 27 0c-13,-5 -6,-4 -11,-8zm22 4l-2 2 -10 3c26,2 7,2 12,-5zm15 11c21,1 7,1 11,-7 -14,-1 -2,-2 -16,2l-7 1 12 4zm22 -6l-3 2c-1,1 -2,2 -2,2l5 -4zm35 6l-27 0c-14,6 -12,3 3,6 19,5 15,5 24,-6zm1 13c10,-4 9,0 8,-9l-3 -1c-7,7 -11,-1 -5,10zm12 0l1 -7 -5 9 4 -2zm232 -130l37 -11c15,-15 54,-33 79,-36 -15,31 -31,45 -64,71 -32,24 -95,44 -96,-4 3,-3 1,-2 8,-6l36 -14zm87 -50c-10,11 -19,15 -33,17 -1,1 -2,1 -3,3 0,2 -2,2 -3,3 -21,10 6,-1 -8,2l-55 18c-9,9 -14,9 -27,15 -9,3 -13,6 -18,12 19,67 91,34 126,12 12,-8 16,-12 26,-21 10,-9 20,-15 29,-24 15,-15 31,-34 33,-57l-67 20zm-50 39l42 -13c-2,17 4,6 -9,22l-39 31c-29,17 -51,20 -66,-3 9,-15 20,-14 35,-26l-36 14c-7,4 -5,3 -8,6 1,48 64,28 96,4 33,-26 49,-40 64,-71 -25,3 -64,21 -79,36zm-59 34c13,17 27,14 46,3 3,-2 14,-10 17,-13 5,-5 3,-1 7,-8 4,-7 3,-3 5,-13 -26,5 -59,12 -75,31zm0 0c16,-19 49,-26 75,-31 -2,10 -1,6 -5,13 -4,7 -2,3 -7,8 -3,3 -14,11 -17,13 -19,11 -33,14 -46,-3zm22 -23c-15,12 -26,11 -35,26 15,23 37,20 66,3l39 -31c13,-16 7,-5 9,-22l-42 13 -37 11zm858 -1195l-11 -2c3,7 -8,8 11,2zm212 26c12,6 166,-8 181,-9 57,-3 119,11 180,-15 -8,-12 -2,-9 -41,-14 -44,-7 -94,-22 -146,-12 16,10 34,6 56,8 19,2 36,3 48,11 -66,17 -228,5 -278,31 -1,-1 -3,-2 -3,-1l-15 -2c-6,1 -15,2 -21,3 -54,7 -78,5 -129,5l26 -17 236 -33 -200 16 -16 -2c-7,9 3,2 -9,7 -8,3 -8,2 -15,3l-86 4c-45,4 -92,15 -117,37 16,8 310,3 349,-20zm249 -55l-9 -4c5,6 -6,8 9,4zm15 1l-8 -5c3,8 -6,8 8,5zm4 -2c1,9 -1,6 9,2l-9 -2zm20 7l-7 -6c3,9 -6,8 7,6zm50 6l-9 -4c3,8 -7,9 9,4zm-220 1962c8,6 3,-4 10,13l17 57c7,25 14,52 21,76 8,27 14,52 20,79l8 79c-24,-67 -72,-237 -76,-304zm115 513c3,-7 3,-5 4,-16 8,-47 -51,-314 -62,-349 -19,-63 -32,-126 -47,-191 -8,-34 -18,-57 -25,-92 -7,-30 -17,-62 -41,-64 -16,36 16,126 32,171 17,51 35,128 48,183 15,58 33,118 50,176 17,60 28,127 41,182zm24 -997c9,5 -3,3 15,4 50,0 57,-44 62,-56 17,-41 48,-22 44,-82 -4,-26 -3,-13 0,-17l-4 -18c-4,-14 -1,-8 -9,-14 0,5 2,15 2,20 1,9 1,7 0,11 -5,27 -41,21 -39,-45 1,-26 17,-36 38,-21l6 5c8,-2 5,1 3,-11 -20,0 -7,-2 -27,-13 -17,10 -35,35 -36,36 -32,38 -79,138 -59,183l6 7c1,0 2,1 2,1l16 8 -20 2zm-2877 782l54 156c-15,-10 -28,-40 -32,-58l2 4 9 37c10,6 6,-3 10,15 11,47 73,192 134,212 -5,-47 -39,-82 -57,-120 -19,-41 -38,-80 -57,-121 -53,-115 -57,-233 -72,-280 -8,-18 -6,-3 -1,-23 -13,4 0,4 -15,2 -12,-1 -4,-1 -11,-5 -16,10 2,-6 -7,7l43 174zm2620 -2217c50,-26 212,-14 278,-31 -12,-8 -29,-9 -48,-11 -22,-2 -40,2 -56,-8l-80 5 -236 33 -26 17c51,0 75,2 129,-5 6,-1 15,-2 21,-3l15 2c0,-1 2,0 3,1zm624 288c-2,-17 0,-8 -6,-9 -2,-19 -2,-10 -8,-11l-3 -8c0,-26 -4,-11 -7,-14 -1,-1 -1,-4 -1,-3 0,0 0,-3 -1,-4 -4,-6 -5,-6 -7,-8 -1,-11 -37,-99 -40,-106l-52 -73c-1,0 -2,-1 -3,-1 -1,-21 -6,-14 -13,-16 0,-9 2,-8 -5,-4 -1,-16 1,-9 -7,-7 -5,-9 1,-7 -9,-10 22,1 14,11 40,19 -15,-16 -16,-17 -32,-26 -12,-6 -23,-13 -35,-18 23,20 -19,-11 8,12 -14,4 -11,3 -17,12 8,14 12,31 27,38 1,16 -1,9 6,9 2,15 -2,7 8,8 -7,-18 -1,-6 -8,-8 -2,-19 -1,-6 -6,-9 -2,-8 -4,-12 -8,-21 -4,-11 -5,-11 -6,-11 16,-6 5,-2 16,1 25,7 -14,-4 9,3l7 1c0,19 0,6 7,7 -2,10 -4,9 5,4 3,25 2,15 13,16 5,31 58,74 56,114 1,1 5,3 8,9 9,17 2,2 2,12 6,6 -3,-10 7,9 11,22 -1,-9 1,9 1,1 2,-1 7,9 11,17 -2,-9 3,9l3 12 8 -3c3,12 -2,10 9,15 2,15 -1,12 7,14l3 8c4,24 3,9 8,11 0,22 0,8 6,9 5,47 78,86 56,148 -11,-6 -14,-16 -23,-21 1,-19 1,-9 -5,-11 -2,-12 -5,-17 -12,-28 -5,-8 -5,-8 -8,-12 -7,-10 -5,-6 -9,-9l-5 -12 -5 -10 5 10 5 12 24 45c1,0 2,1 3,2 0,0 1,1 2,2 1,24 0,10 5,11 5,26 15,49 36,59 0,0 1,0 1,0l3 2c0,1 1,5 1,6 1,-1 2,-3 3,-2l24 -29 -27 -68c-2,1 3,2 -6,1 -3,-9 -3,-9 -7,-14 0,-1 -3,-5 -3,-6l-19 -30c-1,-1 -4,-4 -5,-5l-26 -36c-7,-5 -4,-3 -8,-5zm40 177l18 19c1,1 2,2 2,3l7 9c0,1 1,2 2,3 0,1 2,4 2,4 0,-1 1,2 2,3 -4,-23 -3,-23 -26,-37l-7 -4zm-148 -416c-3,-11 1,-10 -8,-8l0 14c3,-11 -2,-1 8,-6zm5 9c5,13 0,5 9,3l-9 -3zm17 17c-8,-15 -1,-4 -10,-7 -1,15 -6,9 10,7zm34 76c-6,-18 -2,-11 -11,-18 -1,8 -5,1 1,9 3,6 2,5 10,9zm86 161l-23 -31c5,15 -4,2 8,17l15 14zm14 14l-16 -13c9,13 4,8 16,13zm0 4c-1,12 -4,10 7,7 -3,-9 0,-8 -7,-7zm5 9c-1,12 -4,10 8,8 -3,-11 0,-10 -8,-8zm20 29c4,15 0,7 9,5 -8,-12 1,-2 -9,-5zm-2384 2179c-5,-19 1,-40 7,-50 5,3 15,-1 10,27 -3,16 -6,17 -17,23zm-22 9c-15,29 19,81 50,-16 5,-13 11,-39 12,-54 5,-61 7,-21 15,-51l-19 -1c-5,-3 -9,-9 -10,-10l23 22 -13 7c-11,8 2,5 -7,8 0,0 -2,-1 -5,1 0,0 -6,3 -8,5 -9,8 -8,9 -11,20 -6,17 -5,30 -14,53 -13,32 1,21 -13,16zm113 -270l-14 17c0,-1 -1,2 -2,2 -7,-13 2,-3 2,-10 0,0 0,-1 0,-1 0,-1 0,-2 0,-2 0,-1 -1,-2 -1,-3 -2,-19 1,-11 3,-28 1,-10 3,7 -1,-9l-4 -9c9,29 5,6 -4,18l-1 -1c7,8 6,6 -4,4 -15,54 -37,105 -48,162 1,-1 3,-5 4,-4 0,1 2,-2 2,-3 14,-6 -4,-6 7,0 3,-3 -2,-18 18,5 -10,6 2,4 -8,2l-10 -7c10,17 2,9 18,14 -5,-30 -2,-16 3,-31 0,0 1,-2 1,-3l38 -108c0,-1 1,-3 1,-5zm-25 122c2,-5 3,-7 5,-17 -13,13 -18,-9 -5,17zm-91 146c12,0 10,2 3,-8l-3 8zm2 -12c11,1 10,3 3,-7l-3 7zm40 -105c-2,5 0,1 -2,10l-19 41c-1,-1 -1,3 -1,4l18 -23c1,-1 3,-4 4,-6 8,-19 6,-15 0,-26zm1529 -1049c7,1 6,-14 7,9 5,3 1,-1 8,6 6,5 0,-2 6,7 4,6 7,16 9,21 5,3 8,-15 7,12 9,5 1,-4 9,7 9,12 2,5 3,11 6,1 2,-14 8,10l-2 7c19,14 33,39 38,63 -17,-3 -29,-16 -41,-29l-36 -47 -15 -20c-7,-5 -9,13 -9,-13 -6,-3 -8,10 -6,-9 -5,-3 -9,16 -7,-13 -2,0 -3,-1 -4,-2 -1,0 -2,-2 -2,-3 -5,-5 -5,-3 -1,-7 -13,-10 -21,-29 -29,-46 -4,-8 -12,-24 -14,-31 -9,-28 3,-31 5,-33 12,14 62,76 66,100zm-54 -11l-2 -1c8,3 6,-11 7,12 10,4 5,0 7,13 1,0 2,0 3,1 0,1 2,1 2,2 3,6 3,5 4,12 5,3 0,-3 10,8l60 87c23,19 47,67 83,62 4,-23 -15,-44 -28,-65 -17,-27 -34,-49 -51,-75 -14,-20 -43,-59 -49,-79 -6,-1 -5,11 -6,-10 -5,-3 0,8 -10,-8 -8,-14 -3,-7 -5,-15 -5,-4 -1,1 -10,-10l-24 -39c-14,-21 -19,-35 -38,-43 -11,25 0,47 13,75 12,25 26,48 34,73zm695 -1262l45 93 5 11 56 99c12,7 12,10 21,25 8,14 8,17 20,22 5,-24 -53,-104 -64,-131l-3 -12c-1,-1 -3,-3 -3,-3 0,1 -2,-1 -3,-2 -7,-14 -2,-1 -4,-13 -8,6 -8,-15 -8,-18 -10,-3 -8,-10 -10,-21 -12,-12 -44,-102 -80,-107 9,19 26,37 28,57zm-1029 1716c2,6 3,13 6,19 13,26 3,7 10,11 1,13 -2,5 4,20 7,19 4,9 8,10l1 15 7 -3c10,50 55,105 43,146 -18,-25 -19,-39 -31,-56l-5 -5c-1,-21 -18,-50 -26,-72l-2 -11c-2,-1 -3,-2 -4,-3 0,-1 -2,-3 -2,-4 -10,-15 -1,6 -2,-9l-6 2c2,18 13,36 20,54 3,8 6,17 9,25l13 18c1,21 12,44 21,64 12,27 17,19 31,35 10,-17 5,-19 12,-21 1,2 4,8 5,10l8 7 -4 -19c-17,0 -10,-13 -18,-36 -2,-8 -6,-15 -7,-19 -6,-25 -5,-6 1,-15 -8,-17 -14,-30 -23,-47l-15 -31c-5,-7 -2,-4 -7,-8l-3 8c-7,-30 -1,-8 -8,-13 2,-28 -3,-9 -8,-12 1,-9 3,-4 -1,-16 -10,-26 0,-10 -11,-14 3,-26 -10,-12 2,-33 -6,-14 -3,-11 -11,-18 1,16 -3,4 6,21 -14,-9 -29,-66 -37,-86 -7,-18 1,1 -2,-6l-12 -16c-1,-2 -2,-2 -4,-3 8,30 34,82 42,111zm86 -1724c14,-18 4,-20 26,-31 35,1 41,30 34,64 -5,24 -22,54 -19,76 -7,2 -8,-6 -3,10 -4,4 -4,-5 -8,13 -3,16 -2,4 1,17 -7,2 -7,-9 -4,12 7,-7 14,5 4,-12 4,-5 4,-3 7,-12 3,-10 2,-9 0,-18 5,-4 12,8 3,-10 0,-1 1,-3 2,-2 1,0 2,-2 2,-3 3,-4 1,0 6,-8 94,-191 -88,-143 -51,-96zm-26 142l-6 22c-3,43 -6,42 6,85 48,-9 55,-52 50,-70 9,0 8,1 2,-6 6,-5 11,11 3,-13 -8,6 -10,-4 -3,13 -9,-2 -6,-3 -2,6 -14,11 -9,27 -24,34 -26,12 23,-5 -7,2 -11,2 -12,-5 -14,-11 -4,-12 0,4 -2,-8 -1,-7 -1,-11 -1,-16 0,-19 3,-19 -2,-38l25 -143c-15,6 -10,32 -16,65 -4,20 -15,56 -9,78zm33 -8c-14,-14 -9,-42 -3,-68 9,-36 5,-44 22,-54 26,26 -14,116 -19,122zm-17 54c21,-8 20,-3 26,-23l18 -68c9,-32 28,-68 6,-107 -45,-6 -38,42 -50,111 -6,32 -7,53 0,87zm0 0c-7,-34 -6,-55 0,-87 12,-69 5,-117 50,-111 22,39 3,75 -6,107l-18 68c-6,20 -5,15 -26,23zm10 -188l-1 -1 -25 143c5,19 2,19 2,38 0,5 0,9 1,16 2,12 -2,-4 2,8 2,6 3,13 14,11 30,-7 -19,10 7,-2 15,-7 10,-23 24,-34 -4,-9 -7,-8 2,-6 -7,-17 -5,-7 3,-13l-2 1c-3,-21 -3,-10 4,-12 -3,-13 -4,-1 -1,-17 4,-18 4,-9 8,-13 -5,-16 -4,-8 3,-10 -3,-22 14,-52 19,-76 7,-34 1,-63 -34,-64 -22,11 -12,13 -26,31zm66 993c-9,-5 -17,-10 -24,-20 -9,-14 -9,-19 -6,-33 7,-4 -12,-2 11,-4l62 31c1,1 4,3 5,4 29,27 0,50 -48,22zm-56 -62c-23,37 66,85 87,92 15,5 41,8 50,-8 18,-34 -109,-93 -110,-94 -28,-7 -27,10 -27,10zm551 881c4,67 52,237 76,304l-8 -79c-6,-27 -12,-52 -20,-79 -7,-24 -14,-51 -21,-76l-17 -57c-7,-17 -2,-7 -10,-13zm-287 -521c-4,4 -4,2 1,7 0,1 1,3 2,3 1,1 2,2 4,2 -2,29 2,10 7,13 -2,19 0,6 6,9 0,26 2,8 9,13 -4,-15 -1,-14 -9,-13 -3,-19 0,-10 -6,-9 1,-19 -3,-13 -7,-13 1,-21 -4,-12 -7,-12l1 -34c15,11 12,18 27,24 0,21 0,8 7,9 2,12 1,12 8,22 0,0 6,7 7,7 8,7 0,2 8,5 -1,16 0,13 7,12 2,13 -1,5 5,12 6,9 2,3 7,6 1,18 -1,8 8,10 -6,-24 -2,-9 -8,-10 -1,-6 6,1 -3,-11 -8,-11 0,-2 -9,-7 1,-27 -2,-9 -7,-12 -2,-5 -5,-15 -9,-21 -6,-9 0,-2 -6,-7 -7,-7 -3,-3 -8,-6 -1,-23 0,-8 -7,-9 -4,-24 -54,-86 -66,-100 -2,2 -14,5 -5,33 2,7 10,23 14,31 8,17 16,36 29,46zm0 0c3,0 8,-9 7,12 4,0 8,-6 7,13 6,-1 3,-10 6,9 8,-1 5,-2 9,13l15 20c2,1 3,0 4,2 1,2 3,2 4,3 6,5 2,1 8,8l34 31 -11 -31 2 -7c-9,-2 -7,8 -8,-10 -5,-3 -1,3 -7,-6 -6,-7 -3,1 -5,-12 -7,1 -8,4 -7,-12 -8,-3 0,2 -8,-5 -1,0 -7,-7 -7,-7 -7,-10 -6,-10 -8,-22 -7,-1 -7,12 -7,-9 -15,-6 -12,-13 -27,-24l-1 34zm775 -1080l7 15 5 10 5 12c4,3 2,-1 9,9 3,4 3,4 8,12 7,11 10,16 12,28 6,2 6,-8 5,11 9,5 12,15 23,21 22,-62 -51,-101 -56,-148 -6,-1 -6,13 -6,-9 -5,-2 -4,13 -8,-11l-3 -8c-8,-2 -5,1 -7,-14 -11,-5 -6,-3 -9,-15l-8 3c11,27 69,107 64,131 -12,-5 -12,-8 -20,-22 -9,-15 -9,-18 -21,-25zm-989 1869c-3,-1 -14,6 -22,-25 -5,-17 -3,-20 2,-29 18,14 22,33 20,54zm-33 -5c3,12 6,21 11,32 3,7 4,8 8,13 5,6 4,4 9,8 5,-28 22,-21 12,-65 0,-2 -4,-14 -4,-14 -2,-23 -5,22 2,-12 0,-1 0,-3 1,-4 -9,-20 -17,-44 -31,-56l-3 15c0,0 -3,20 -4,22 -1,23 5,38 9,60 -6,5 4,5 -10,1zm869 -2131c5,3 4,-10 6,9 7,2 1,-10 8,8l33 47c4,23 30,76 45,93l5 11 -5 -11 -45 -93c-2,-20 -19,-38 -28,-57 36,5 68,95 80,107 2,11 0,18 10,21 0,3 0,24 8,18 2,12 -3,-1 4,13 1,1 3,3 3,2 0,0 2,2 3,3 -5,-18 8,8 -3,-9 -5,-10 -6,-8 -7,-9 -2,-18 10,13 -1,-9 -10,-19 -1,-3 -7,-9 0,-10 7,5 -2,-12 -3,-6 -7,-8 -8,-9 2,-40 -51,-83 -56,-114 -11,-1 -10,9 -13,-16 -9,5 -7,6 -5,-4 -7,-1 -7,12 -7,-7l-7 -1c-23,-7 16,4 -9,-3 -11,-3 0,-7 -16,-1 1,0 2,0 6,11 4,9 6,13 8,21zm-79 1215l1 -17c-5,-6 -2,0 -5,-9 -6,-16 0,1 -2,-7 0,-1 0,-11 -2,-16 -21,-15 -37,-5 -38,21 -2,66 34,72 39,45 1,-4 1,-2 0,-11 0,-5 -2,-15 -2,-20 8,6 5,0 9,14zm4 35l0 -17c-3,4 -4,-9 0,17zm-918 545c0,10 -2,1 2,13 1,1 3,4 3,3 -1,0 1,2 2,3l5 26 6 -2c1,15 -8,-6 2,9 0,1 2,3 2,4 1,1 2,2 4,3l-8 -16c-3,-14 -1,-14 -11,-24l-7 -19 -26 -68c28,13 13,21 32,47l5 6c-8,-29 -34,-81 -42,-111l-19 -32c-8,31 -1,50 14,86l25 58c0,1 5,9 6,9l5 5zm104 -1605c5,-6 45,-96 19,-122 -17,10 -13,18 -22,54 -6,26 -11,54 3,68zm-76 1675c8,22 25,51 26,72l5 5c12,17 13,31 31,56 12,-41 -33,-96 -43,-146l-7 3 12 39c-6,-5 -4,-2 -10,-9l-14 -20zm1314 -1256l15 48c-8,-6 -9,-5 -17,-24 -6,-12 -3,-12 -15,-24 8,26 20,49 32,75l35 71c14,-20 -25,-104 -36,-128 -9,-19 -9,-15 -14,-18zm-14 -4l-26 -63 19 11c0,12 0,12 8,16l-8 -16c-3,-19 -18,-41 -27,-59l-21 -45c-7,-11 -1,-8 -12,-10 -5,19 40,117 54,147l13 19zm-1328 1190l7 19c10,10 8,10 11,24l8 16 2 11 14 20c6,7 4,4 10,9l-12 -39 -1 -15c-4,-1 -1,9 -8,-10 -6,-15 -3,-7 -4,-20 -7,-4 3,15 -10,-11 -3,-6 -4,-13 -6,-19l-5 -6c-19,-26 -4,-34 -32,-47l26 68zm181 -781c18,9 20,11 19,25 -8,6 11,1 -11,5 -23,5 -39,-17 -46,-38 17,-3 13,-3 24,0l8 5c1,0 2,1 3,1 1,1 2,1 3,2zm-48 -18c-3,14 -3,19 6,33 7,10 15,15 24,20 48,28 77,5 48,-22 -1,-1 -4,-3 -5,-4l-62 -31c-23,2 -4,0 -11,4zm-169 -501c12,6 29,3 43,-2 22,-8 21,-12 19,-33 -14,-2 -27,-2 -43,6 -19,9 -20,13 -19,29zm188 1689l5 12 23 -3c16,-35 -4,-65 -17,-104 -1,1 -1,3 -1,4 -7,34 -4,-11 -2,12 0,0 4,12 4,14 10,44 -7,37 -12,65zm-1201 -51c-7,8 -3,1 -7,9 -3,5 -2,7 -3,10 12,-14 2,-4 13,-10 1,12 -4,18 -8,30 -5,15 -5,15 -1,34 22,-20 42,-58 34,-94 -20,15 -10,21 -19,25l-9 -4zm2546 -1235c-3,-12 -6,-21 -11,-33 -2,-3 -4,-10 -6,-13 -9,-13 -5,-7 -11,-12l2 7c-17,-24 -18,-17 -30,-18 7,36 27,63 56,69zm-900 727c4,-1 15,-2 19,-3 7,-2 1,0 8,-3 10,-4 4,-1 7,-6 11,-2 8,0 15,-7l-10 -6 -3 8c-1,-10 3,-11 -5,-6 -3,-14 1,-8 -7,-6 1,-10 3,-8 -6,-6 0,11 -3,10 6,6l2 8 5 -2c-1,9 -4,9 5,6l-2 5 -10 1 -28 8 -12 0c-5,-56 3,-35 28,-38 -1,10 -3,7 7,5 -2,-11 1,-11 -7,-5 -4,-8 7,-2 -11,-13 -12,-8 -26,-7 -35,-9 6,9 7,49 13,68l21 -5zm-322 -518c-26,3 -42,9 -53,4 0,-14 30,-29 53,-4zm-66 24c21,-3 31,-14 52,-17 22,-2 27,8 38,-6 -31,-31 -104,-27 -90,23zm-9 -92c1,-14 -1,-16 -19,-25 -1,-1 -2,-1 -3,-2 -1,0 -2,-1 -3,-1l-8 -5c-11,-3 -7,-3 -24,0 7,21 23,43 46,38 22,-4 3,1 11,-5zm291 418c13,21 32,42 28,65 -36,5 -60,-43 -83,-62 20,31 61,89 103,79 -6,-29 -31,-68 -48,-82zm-37 -30l11 31 -34 -31c-6,-7 -2,-3 -8,-8 -1,-1 -3,-1 -4,-3 -1,-2 -2,-1 -4,-2l36 47c12,13 24,26 41,29 -5,-24 -19,-49 -38,-63zm874 -822l-3 4c12,12 9,12 15,24 8,19 9,18 17,24l-15 -48 -13 -40c-8,-4 -8,-4 -8,-16l-19 -11 26 63zm-1171 1531c2,-21 -2,-40 -20,-54 -5,9 -7,12 -2,29 8,31 19,24 22,25zm436 -514l-6 -8 8 -22c10,5 15,9 28,12 0,7 0,5 -2,10l10 -1 2 -5c-9,3 -6,3 -5,-6l-5 2 -2 -8c-9,4 -6,5 -6,-6l1 -1c-10,2 -8,5 -7,-5 -25,3 -33,-18 -28,38l12 0zm-1740 874c11,-6 14,-7 17,-23 5,-28 -5,-24 -10,-27 -6,10 -12,31 -7,50zm1369 -1385c11,5 27,-1 53,-4 -23,-25 -53,-10 -53,4zm371 511l28 -8c2,-5 2,-3 2,-10 -13,-3 -18,-7 -28,-12l-8 22 6 8z"/>
   <path fill="#A43D43" d="M3010 1630c52,-17 85,-32 120,4 31,33 35,69 73,90 48,26 139,6 204,93 30,40 21,68 63,111 29,29 51,46 68,98 13,38 30,105 31,143 3,141 3,87 38,94 12,-24 21,-98 23,-131l-7 13c-19,-123 -39,-319 -125,-382l-6 -7 6 7c10,17 25,31 10,47 -27,30 -111,-37 -129,-50l-23 -18c-83,-44 -99,-3 -124,-59 -16,-37 -44,-35 -45,-78 0,-34 32,-46 70,-46 26,0 25,-1 44,11 15,9 20,10 34,19 32,21 45,41 66,41l4 4c0,8 -2,7 6,4l6 1 6 3c9,7 18,12 26,19l5 4c3,14 4,15 9,28 1,1 6,12 7,14 6,10 4,7 7,11 -6,-23 -10,-38 -23,-53 0,-7 2,-6 -5,-4 -9,-12 -12,-13 -26,-19l-6 -3 -6 -1c-2,-7 0,-6 -6,-4l-4 -4c-30,-53 -61,-65 -104,-83 -51,-22 -86,-24 -154,-1 -23,1 -37,-8 -43,-32l-32 -11 -14 -2 -7 -4 1 1c6,6 3,-1 1,5 -29,-21 -48,-21 -73,19 -28,46 -23,27 -44,49 7,21 3,7 8,13 1,0 2,1 2,2 1,1 2,2 3,2l19 24c14,15 21,20 46,18zm0 0c-25,2 -32,-3 -46,-18l-19 -24c-1,0 -2,-1 -3,-2 0,-1 -1,-2 -2,-2 -5,-6 -1,8 -8,-13 21,-22 16,-3 44,-49 25,-40 44,-40 73,-19 2,-6 5,1 -1,-5 -37,-31 -39,-20 -86,-6 -42,12 -64,12 -95,37 6,39 26,58 51,68 45,19 19,-2 45,35 6,8 10,11 16,16 17,-4 21,-4 31,-18zm58 -127l32 11c6,24 20,33 43,32 -14,-10 -9,1 -23,-11 -13,-11 -4,-14 -20,-21 -7,-12 -3,-6 -13,-15l-19 4c-5,-6 6,-6 -14,-2l-7 -4 7 4 14 2zm411 272c-32,20 -60,-27 -140,-55 -87,-30 -29,5 -90,-75 -9,-12 -19,-25 -9,-42 20,-31 72,0 93,12l48 22c0,1 2,1 2,2 1,0 2,1 3,1l35 17c12,7 20,18 27,30 13,22 34,66 31,88zm19 -12l-6 -7 -15 -38c-3,-4 -1,-1 -7,-11 -1,-2 -6,-13 -7,-14 -5,-13 -6,-14 -9,-28l-5 -4c-8,-7 -17,-12 -26,-19l-6 -3 -6 -1c-8,3 -6,4 -6,-4l-4 -4c-21,0 -34,-20 -66,-41 -14,-9 -19,-10 -34,-19 -19,-12 -18,-11 -44,-11 -38,0 -70,12 -70,46 1,43 29,41 45,78 25,56 41,15 124,59l23 18c18,13 102,80 129,50 15,-16 0,-30 -10,-47zm-118 -118c1,0 2,1 3,1l14 7c31,19 56,61 64,99 -23,5 -1,3 -54,-18 -75,-31 -116,-31 -130,-115 29,-6 41,2 69,13 1,0 5,2 6,2l28 11zm-47 -30c-21,-12 -73,-43 -93,-12 -10,17 0,30 9,42 61,80 3,45 90,75 80,28 108,75 140,55 3,-22 -18,-66 -31,-88 -7,-12 -15,-23 -27,-30l-35 -17c-1,0 -2,-1 -3,-1 0,-1 -2,-1 -2,-2l-48 -22zm117 126c-12,1 -9,0 -21,-5 -23,-9 -90,-34 -104,-48 -8,-7 -28,-38 -20,-51 11,-16 124,9 145,104zm11 11c-8,-38 -33,-80 -64,-99l-14 -7c-1,0 -2,-1 -3,-1l-28 -11c-1,0 -5,-2 -6,-2 -28,-11 -40,-19 -69,-13 14,84 55,84 130,115 53,21 31,23 54,18zm-111 -87c21,-3 28,4 43,13 9,6 35,18 26,34 -5,8 -20,-2 -37,-11 -19,-9 -25,-11 -32,-36zm-25 23c14,14 81,39 104,48 12,5 9,6 21,5 -21,-95 -134,-120 -145,-104 -8,13 12,44 20,51z"/>
  </g>
  <ellipse fill="white" stroke="black" stroke-width="20" cx="2263" cy="2134" rx="51" ry="46"/>
  <ellipse fill="white" stroke="black" stroke-width="20" cx="2320" cy="2278" rx="51" ry="46"/>
 </g>
</svg>
