<?xml version="1.0" encoding="UTF-8"?>
<!DOCTYPE svg PUBLIC "-//W3C//DTD SVG 1.1//EN" "http://www.w3.org/Graphics/SVG/1.1/DTD/svg11.dtd">
<!-- Creator: CorelDRAW X8 -->
<svg xmlns="http://www.w3.org/2000/svg" xml:space="preserve" width="8.4666mm" height="8.4666mm" version="1.1" shape-rendering="geometricPrecision" text-rendering="geometricPrecision" image-rendering="optimizeQuality" fill-rule="evenodd" clip-rule="evenodd"
viewBox="0 0 847 847"
 xmlns:xlink="http://www.w3.org/1999/xlink">
 <g id="Layer_x0020_1">
  <metadata id="CorelCorpID_0Corel-Layer"/>
  <path fill="red" stroke="yellow" stroke-width="7.62" d="M665 330c-8,7 -6,4 -16,4 -83,0 -166,0 -249,0 -1,0 -28,1 -28,1l-8 3c-8,1 -48,0 -60,0 -14,0 -26,1 -40,1 -20,0 -40,0 -60,0 -2,-6 -1,1 -6,-5 -3,-3 -6,-1 -6,-6 -4,0 -10,-7 -7,-8 2,-1 3,-2 6,-2 8,1 7,-3 9,-9l-10 -42c0,-3 24,4 26,1l-13 -39c6,-11 23,11 28,2 1,-4 8,-13 7,-16 -5,-16 16,-60 16,-67 9,0 -10,55 -5,64 0,0 3,10 3,10 0,8 2,0 2,11 4,2 2,3 6,1l0 -3c8,-5 2,-4 10,-13l11 -13c1,-1 16,-15 18,-17l2 -61c3,-2 29,33 30,33l5 -1c2,-2 5,-7 10,-7 3,0 5,-8 5,12 0,9 -2,19 -2,28 7,0 9,-9 18,-16l18 -32c9,-5 12,-54 21,-59 5,-3 31,64 34,63 6,-1 42,-39 48,-39 2,-5 5,-1 5,2 0,8 2,16 2,25 0,3 -1,19 1,20 5,2 16,-6 19,-8 10,-4 21,-57 31,-59 14,-3 23,38 38,34 13,-4 59,-38 72,-38 0,4 -31,40 -33,45l-3 9c-4,8 -1,11 -9,22 -3,4 -12,21 -12,26 0,3 0,2 5,2 14,0 34,-27 48,-28 10,-1 23,-13 33,-13 0,6 31,6 30,9 -1,6 -41,48 -42,59 -1,11 45,-11 42,0l0 25c0,8 -63,19 -63,30 0,5 28,-11 38,-11 8,0 -21,16 -10,16 8,0 17,-1 25,3 0,6 1,10 -2,13 -3,3 -4,7 -9,11 0,0 -9,6 -9,6 -5,4 0,4 -11,12 -3,2 -6,5 -6,8 -3,0 0,1 -3,1z"/>
  <path fill="red" stroke="red" stroke-width="16.93" d="M661 26c6,12 16,19 25,29 7,8 14,18 21,29 51,74 41,162 -20,216 -98,85 -134,-95 -267,-92 -62,1 -104,42 -133,69 -39,37 -76,70 -132,18 -32,-30 -59,-82 -44,-147 16,-70 69,-109 76,-123 -47,14 -81,33 -107,60 -96,98 -66,266 67,328 -24,11 -40,27 -49,54 -6,17 -20,58 -20,80 41,-19 76,-31 129,-36 -3,73 31,106 63,143 9,11 16,17 25,28 9,11 14,16 23,29 24,34 -8,42 16,80 45,75 87,-4 70,-73 -13,-49 -57,-92 -80,-123l-34 -2c-11,-20 -14,-46 -15,-73 16,11 19,24 62,47 129,70 216,-35 235,-47 -1,28 -5,53 -16,74l-33 1c-8,11 -13,16 -24,28 -19,22 -50,68 -56,98 -6,25 -2,71 11,89 21,28 51,-4 60,-21 23,-37 -11,-42 17,-81 50,-69 112,-99 109,-197 48,4 92,18 128,36 1,-22 -12,-62 -20,-80 -12,-31 -19,-41 -49,-53 1,0 1,-1 2,-1l38 -24c20,-16 35,-30 51,-53 81,-123 2,-287 -129,-310z"/>
  <path fill="#FC2649" d="M525 337c3,-6 4,-12 4,-18 0,-32 -47,-59 -106,-59 -58,0 -106,27 -106,59 0,5 1,10 4,15 26,-11 60,-18 99,-18 41,0 78,8 105,21z"/>
 </g>
</svg>
