<?xml version="1.0" encoding="UTF-8"?>
<!DOCTYPE svg PUBLIC "-//W3C//DTD SVG 1.1//EN" "http://www.w3.org/Graphics/SVG/1.1/DTD/svg11.dtd">
<!-- Creator: CorelDRAW X8 -->
<svg xmlns="http://www.w3.org/2000/svg" xml:space="preserve" width="8.4666mm" height="8.4666mm" version="1.1" shape-rendering="geometricPrecision" text-rendering="geometricPrecision" image-rendering="optimizeQuality" fill-rule="evenodd" clip-rule="evenodd"
viewBox="0 0 847 847"
 xmlns:xlink="http://www.w3.org/1999/xlink">
 <g id="Layer_x0020_1">
  <metadata id="CorelCorpID_0Corel-Layer"/>
  <path fill="#336699" d="M210 208c-61,-34 -117,0 -99,77 -38,-6 -57,-4 -75,21 -28,41 -2,110 48,136 26,13 58,11 91,11 135,0 270,0 406,0 33,0 65,3 96,-6 116,-30 158,-163 95,-254 -30,-44 -76,-70 -132,-72 -50,-1 -66,15 -85,19 -10,-30 -48,-62 -76,-78 -35,-20 -83,-30 -127,-20 -41,9 -79,36 -96,58 -41,52 -33,53 -46,108z"/>
  <path fill="#006633" d="M83 441l1 1c26,13 58,11 91,11 135,0 270,0 406,0 33,0 65,3 96,-6 25,-6 46,-17 64,-32 -1,0 -1,0 -2,0 -12,0 -2,-1 -17,-4 -8,-2 -17,-4 -25,-6 -7,-2 -22,-1 -28,-5 -9,-6 -5,5 -10,-6l-11 -6c-5,-4 -6,-11 -13,-11 -4,-9 -15,-5 -21,-17 -15,0 -3,-4 -12,-4 -56,0 -112,0 -168,0 -17,0 -6,-4 -17,-4 -14,0 4,0 -12,-4 -18,-6 -9,-5 -30,-5 -10,0 -53,5 -59,9 -29,17 20,-7 -13,6 -4,2 -7,9 -15,9 -12,0 -1,4 -10,4 -10,0 -14,8 -24,8 -13,0 1,5 -12,5 -11,0 -2,2 -9,2 -8,0 0,-1 -6,2 0,0 -34,0 -36,0 -19,0 -18,4 -26,4 -12,0 -34,17 -44,21 -10,4 -8,9 -15,10 -8,5 -7,1 -12,11 -2,0 -7,4 -11,7z"/>
  <path fill="#006633" d="M532 622c-7,12 -14,30 -21,42 -8,13 -17,26 -24,39 -29,53 46,105 83,51 11,-15 10,-31 3,-48l-41 -84z"/>
  <path fill="#006633" d="M638 521c-7,13 -12,27 -21,42 -8,13 -16,25 -24,39 -19,36 5,73 39,75 22,1 34,-10 42,-21 12,-15 11,-33 3,-51 -6,-16 -13,-27 -21,-42 -8,-15 -11,-27 -18,-42z"/>
  <path fill="#006633" d="M426 521c-8,29 -31,59 -44,83 -30,56 50,102 83,51 24,-37 -14,-73 -33,-123l-6 -11z"/>
  <path fill="#006633" d="M216 521c-13,33 -27,54 -44,81 -29,49 39,108 81,54 23,-28 -2,-62 -18,-93 -7,-13 -13,-30 -19,-42z"/>
  <path fill="#006633" d="M321 622c-5,5 -7,15 -11,21 -10,21 -24,41 -34,59 -31,55 43,105 81,53 22,-29 -2,-60 -18,-91 -7,-14 -12,-27 -18,-42z"/>
 </g>
</svg>
