<?xml version="1.0" encoding="UTF-8"?>
<!DOCTYPE svg PUBLIC "-//W3C//DTD SVG 1.1//EN" "http://www.w3.org/Graphics/SVG/1.1/DTD/svg11.dtd">
<!-- Creator: CorelDRAW X8 -->
<svg xmlns="http://www.w3.org/2000/svg" xml:space="preserve" width="1600px" height="900px" version="1.1" shape-rendering="geometricPrecision" text-rendering="geometricPrecision" image-rendering="optimizeQuality" fill-rule="evenodd" clip-rule="evenodd"
viewBox="0 0 1600 900"
 xmlns:xlink="http://www.w3.org/1999/xlink">
 <g id="Layer_x0020_1">
  <metadata id="CorelCorpID_0Corel-Layer"/>
  <g id="_2131662067632">
   <polygon fill="#77CDF2" points="1600,454 0,454 0,0 1600,0 "/>
   <polygon fill="#278C27" points="0,434 1600,434 1600,900 0,900 "/>
   <path fill="#E6E6E6" d="M83 45c-2,4 2,-5 -5,2 -7,6 -10,5 -14,13 -4,9 -8,8 -8,18 0,11 -5,36 -2,42 3,7 2,-3 2,9 0,11 4,-1 4,8 0,8 3,8 4,12 1,3 8,11 10,13l4 5c10,9 -3,4 10,6 13,1 6,0 8,4 2,3 14,1 18,6 4,4 15,3 20,6 5,2 1,2 10,2 9,0 1,1 16,1 15,0 37,-1 48,-6 11,-4 10,-6 14,-6 4,0 19,-6 24,-9 5,-4 10,-3 18,-6 8,-4 1,-1 10,-4 9,-4 5,-5 16,-5 11,0 7,-3 20,-3 13,0 54,-1 58,0 4,0 5,2 12,2 7,0 5,1 12,1 7,0 10,3 16,3 6,0 18,3 22,3 4,0 14,5 22,5 8,0 11,1 24,1 13,0 30,6 38,6 8,0 21,2 24,0 3,-1 1,1 8,-1 7,-3 16,-6 20,-14 4,-9 0,5 6,-9 6,-13 4,0 4,-9 0,-10 4,2 4,-16 0,-19 -3,-28 -10,-38 -7,-11 -1,-5 -6,-9 -5,-3 -8,-13 -22,-13 -14,0 0,-5 -10,-5 -10,0 -1,-3 -8,-3 -7,0 -13,-4 -22,-4 -9,0 -83,1 -86,0 -3,-2 -14,-4 -20,-11 -6,-6 -4,-1 -8,-6 -4,-4 -14,-7 -18,-7 -4,0 -8,-5 -16,-5 -8,0 -14,-3 -22,-3 -8,0 -22,-4 -28,0 -6,3 -8,5 -14,9 -6,5 -12,6 -18,9 -6,2 -9,6 -16,6 -7,0 -1,3 -10,3 -9,0 -5,1 -16,5 -11,3 -6,-3 -12,4 -6,6 -11,1 -20,8 -9,6 -69,0 -74,-2 -5,-3 -4,-4 -10,-4 -6,0 -5,-6 -18,-6 -13,0 -18,-6 -12,-6 5,0 0,-5 -1,-2z"/>
  </g>
  <g id="_2131662059888">
   <g>
    <path fill="#DB853C" d="M397 672c-20,2 -42,1 -55,-10 -9,-8 -8,-1 -26,-8 -19,-7 -13,-13 -21,-12l-3 59c1,14 -3,17 -11,23 -5,4 -13,11 -21,11 -8,1 -22,9 -28,13 -8,4 -17,10 -25,15l0 4c4,2 41,-3 51,-3 21,0 35,5 55,3 -3,5 -1,5 -5,9l-7 4c-6,4 -13,9 -17,15l18 1c2,-5 -1,-2 7,-7 11,-5 4,-4 5,-5 10,0 9,0 14,-6 -1,3 0,3 2,4 7,-4 12,-3 22,-6 4,-2 10,-6 13,-10 2,-4 -3,0 1,-4 -2,3 -1,1 1,4l2 -3c3,-8 0,4 11,-14 17,-28 12,-37 11,-72l6 -5z"/>
    <path fill="#AC632D" d="M495 735c2,0 0,0 0,0zm0 -7c6,0 7,0 10,3 4,5 1,13 18,23 5,3 11,5 18,8 14,5 13,0 18,7 -5,5 -5,-1 -23,3 -8,2 -14,4 -22,-2 0,0 -4,-4 -4,-4 -1,0 -2,-3 -3,-4 -5,-7 -6,-6 -9,-15 0,-2 -1,-3 -1,-5 -2,-6 -4,-9 -2,-14zm-5 -68c0,10 2,18 3,27 5,30 9,25 10,30 0,3 -1,0 1,3 3,6 0,-3 3,6l-12 -1c-1,0 -1,1 -2,1 0,-15 -4,-9 -5,-9 2,12 -1,2 2,5l5 1 -5 4c-1,3 1,15 2,18 4,14 2,10 2,22 -8,1 -9,2 -16,0 -3,-1 -6,-3 -8,-7 -12,-25 -9,-65 -9,-92 0,0 -1,0 -1,0l-3 2c-5,3 -5,5 -14,5 -14,-1 -19,2 -34,-2 0,11 3,23 3,37 0,8 -3,30 -1,33 9,-12 7,-13 7,-32 -1,-31 -3,-30 7,-31l6 30c5,21 2,44 4,50 2,4 1,3 2,4 6,-4 7,-12 7,-21 0,-15 -10,-30 -6,-58 2,-6 1,-5 8,-6 6,6 6,21 5,28l7 2c-2,3 -1,2 -4,4 2,2 7,0 3,12 -4,2 -1,1 -5,1 -8,0 -1,0 -4,-1 9,1 -6,3 6,3 -1,9 0,21 3,29 1,1 1,1 1,2 2,5 4,10 3,16 3,-2 -5,-1 2,0l9 9c0,0 0,0 0,1 6,0 10,2 14,4l-7 3c-11,2 -14,-2 -19,-4 -12,-3 -18,5 -27,1 -2,5 -1,9 -2,6 -1,0 -1,1 -1,2 -3,-3 -1,0 -3,-6 0,0 0,-4 0,-4 -6,-1 -10,-3 -15,-6l-5 -5c0,-1 -1,-1 -1,-1 -6,-10 -3,-88 -1,-103 -4,-1 -4,-1 -8,0l-6 5c1,35 6,44 -11,72 -11,18 -8,6 -11,14l-2 3c-2,-3 -3,-1 -1,-4 -4,4 1,0 -1,4 -3,4 -9,8 -13,10 -10,3 -15,2 -22,6 -2,-1 -3,-1 -2,-4 -5,6 -4,6 -14,6 -1,1 6,0 -5,5 -8,5 -5,2 -7,7 34,-2 17,-13 48,-10 20,2 37,0 53,-7 38,42 87,6 114,24l3 0c-3,-8 -17,-13 -23,-18 41,4 47,-4 58,-3 14,1 41,4 53,-3 -16,-6 -31,-13 -47,-20 -14,-3 -23,-15 -29,-28 -5,-12 -12,-32 -12,-46 -3,-11 -9,-37 -8,-46 -5,-3 -1,3 -3,-2 0,0 -1,0 -1,-1 4,16 -6,19 -18,24z"/>
    <path fill="#F3C48B" d="M313 637c7,9 22,12 34,13 5,14 -4,2 14,11 2,1 2,1 2,1 1,1 -2,3 1,1 1,-1 33,0 36,0 5,0 10,2 16,3l26 -3c16,-4 45,-8 49,-20 -5,-8 -25,-13 -38,-14 -25,-4 -48,-10 -73,-7 -8,2 -14,3 -22,6 -8,2 -16,0 -25,2 -3,1 -7,2 -10,3 -4,1 -7,3 -10,4z"/>
    <path fill="#DB853C" d="M409 673l-4 -1c-2,15 -5,93 1,103 0,0 1,0 1,1l5 5c5,3 9,5 15,6 0,0 0,4 0,4 2,6 0,3 3,6 0,-1 0,-2 1,-2 1,3 0,-1 2,-6 9,4 15,-4 27,-1 5,2 8,6 19,4l7 -3c-4,-2 -8,-4 -14,-4 0,-1 0,-1 0,-1l-9 -9c-7,-1 1,-2 -2,0 1,-6 -1,-11 -3,-16 0,-1 0,-1 -1,-2 -3,-8 -4,-20 -3,-29 -12,0 3,-2 -6,-3 3,1 -4,1 4,1 4,0 1,1 5,-1 4,-12 -1,-10 -3,-12 3,-2 2,-1 4,-4l-7 -2c1,-7 1,-22 -5,-28 -7,1 -6,0 -8,6 -4,28 6,43 6,58 0,9 -1,17 -7,21 -1,-1 0,0 -2,-4 -2,-6 1,-29 -4,-50l-6 -30c-10,1 -8,0 -7,31 0,19 2,20 -7,32 -2,-3 1,-25 1,-33 0,-14 -3,-26 -3,-37z"/>
    <path fill="#FCE4B3" d="M313 637c3,-1 6,-3 10,-4 3,-1 7,-2 10,-3 9,-2 17,0 25,-2 8,-3 14,-4 22,-6 25,-3 48,3 73,7 13,1 33,6 38,14 -4,12 -33,16 -49,20l-26 3c-6,-1 -11,-3 -16,-3 -3,0 -35,-1 -36,0 -3,2 0,0 -1,-1 0,0 0,0 -2,-1 -18,-9 -9,3 -14,-11 -12,-1 -27,-4 -34,-13zm199 2c-2,-6 -2,-6 -5,-9l2 6c0,-1 0,1 1,1 -15,-7 -15,-4 -8,-10l-1 -2c-4,4 -3,3 -3,3 0,0 0,-1 0,-1 0,-1 1,-1 1,-2l-1 -1c-4,3 -3,2 -3,2 0,0 0,0 0,-1 0,0 1,-1 1,-1l-1 -2c-4,4 -3,3 -3,3 0,0 0,-1 0,-1 0,-1 1,-1 1,-2l-1 -1 -5 4c-5,-2 -16,-4 -22,-4 4,-7 0,-3 5,-5l-2 -1c-3,3 -3,7 -9,4 -10,-4 -4,-1 0,-6l-2 -1c-8,9 -10,3 -23,3 -8,-1 -12,2 -20,1 -27,-4 -15,-2 -34,-2 -2,0 -4,-1 -6,-2 -6,-2 0,5 -4,-3l-26 5c0,0 -2,1 -2,1 -3,1 -2,1 -4,1 -13,2 -47,5 -43,26 8,-1 2,5 21,12 18,7 17,0 26,8 13,11 35,12 55,10 4,-1 4,-1 8,0l4 1c15,4 20,1 34,2l5 -3c2,-1 3,-1 5,-2 4,-2 8,-5 9,-6 7,-3 19,-2 28,-4 12,-5 22,-8 18,-24 0,1 1,1 1,1 2,5 -2,-1 3,2z"/>
    <path fill="#DB853C" d="M490 660c-9,2 -21,1 -28,4 -1,1 -5,4 -9,6 -2,1 -3,1 -5,2l-5 3c9,0 9,-2 14,-5l3 -2c0,0 1,0 1,0 0,27 -3,67 9,92 2,4 5,6 8,7 7,2 8,1 16,0 0,-12 2,-8 -2,-22 -1,-3 -3,-15 -2,-18l5 -4 -5 -1c-3,-3 0,7 -2,-5 1,0 5,-6 5,9 1,0 1,-1 2,-1l12 1c-3,-9 0,0 -3,-6 -2,-3 -1,0 -1,-3 -1,-5 -5,0 -10,-30 -1,-9 -3,-17 -3,-27z"/>
    <path fill="#01A44C" d="M520 685c0,14 7,34 12,46 6,13 15,25 29,28 10,-6 11,-7 26,-7 -7,-13 -25,-13 -39,-10 4,-9 10,-17 18,-22 15,-9 27,-6 32,-10 -18,-9 -44,-6 -56,5 -2,-2 8,-9 12,-13 9,-8 10,-5 19,-9 -23,-7 -29,-3 -44,8 8,-26 38,-28 43,-31 -29,-8 -41,7 -52,15z"/>
    <path fill="#F3C48B" d="M440 558c3,10 14,4 25,2 2,18 6,37 8,56l-3 0c-5,2 -1,-2 -5,5 6,0 17,2 22,4l5 -4c-7,0 -3,0 -5,-2l10 -30c10,2 19,8 23,-3 -5,-3 -3,-3 -8,-7 -12,-10 -17,-8 -24,-10 -4,-2 -2,0 -4,-3l2 -1 2 -1 -2 1 -2 1c-8,9 1,15 8,19l-12 22c-1,-22 -9,-45 -10,-51 6,-3 21,-12 13,-20 -42,9 -36,15 -43,22zm55 64l-2 0c0,1 -1,1 -1,2 0,0 0,1 0,1 0,0 -1,1 3,-3zm3 2l-2 0c0,0 -1,1 -1,1 0,1 0,1 0,1 0,0 -1,1 3,-2zm3 1l-2 0c0,1 -1,1 -1,2 0,0 0,1 0,1 0,0 -1,1 3,-3zm6 5l-5 -3c-7,6 -7,3 8,10 -1,0 -1,-2 -1,-1l-2 -6zm-48 -17c-4,5 -10,2 0,6 6,3 6,-1 9,-4l-9 -2zm-89 -4c4,8 -2,1 4,3 2,1 4,2 6,2 19,0 7,-2 34,2 8,1 12,-2 20,-1 13,0 15,6 23,-3 -8,0 -14,-2 -23,-2 -7,0 -15,2 -19,1 -16,-3 -28,-2 -45,-2z"/>
    <path fill="#01A44C" d="M260 735c8,0 16,-7 21,-11 8,-6 12,-9 11,-23 -12,-5 -12,-23 -15,-38l-3 5c-1,2 -1,3 -1,5 -4,24 8,30 3,35 0,0 0,-1 -1,-1 -18,-11 -33,-8 -50,1 8,7 23,-3 43,12 -7,0 -12,0 -17,3 -7,3 -8,3 -11,9 9,1 13,0 20,3z"/>
    <path fill="#DB853C" d="M495 735c0,0 2,0 0,0zm10 -4c-3,-3 -4,-3 -10,-3 -2,5 0,8 2,14 0,2 1,3 1,5 3,9 4,8 9,15 1,1 2,4 3,4 0,0 4,4 4,4 8,6 14,4 22,2 18,-4 18,2 23,-3 -5,-7 -4,-2 -18,-7 -7,-3 -13,-5 -18,-8 -17,-10 -14,-18 -18,-23z"/>
    <path fill="#D8362A" d="M440 558c7,-7 1,-13 43,-22 -8,-8 -14,-12 -26,-17l-10 0c-10,7 -9,24 -7,39z"/>
    <path fill="#D8362A" d="M488 564l-2 1 -2 1c2,3 0,1 4,3 7,2 12,0 24,10 5,4 3,4 8,7 1,-6 1,-12 1,-18 -1,-9 -2,-12 -7,-14 -9,-4 -21,6 -26,10z"/>
   </g>
   <path fill="#AC632D" d="M281 765c1,-2 2,-3 4,-3l1 -2c1,0 3,0 3,-1 1,0 3,-1 3,-2 1,-1 3,-2 3,-3 2,-2 5,-7 6,-7 0,-1 2,-4 3,-4 0,-1 0,-2 1,-2 1,-3 3,-3 3,-5 1,0 5,-6 5,-7 1,-1 1,-1 2,-2 2,-1 2,-2 2,-3 2,0 2,-3 3,-4 1,0 4,-5 5,-5 0,-4 2,-2 3,-5 0,0 3,-6 3,-7l0 -1c1,-1 3,-5 3,-6 1,0 1,-2 1,-2 0,-1 2,-3 2,-4l0 -1c0,-2 1,-1 1,-4 1,0 2,-5 2,-6 0,-2 1,0 1,-3 2,0 2,-5 2,-5 1,-3 1,0 1,-4 1,0 2,-8 2,1 0,2 -1,-1 -1,4 0,1 0,5 0,5 -1,2 -1,-1 -1,2 0,1 -1,3 -1,5 0,2 -1,0 -1,3 0,3 -1,0 -1,2 0,1 -1,3 -1,4 0,4 -1,-1 -1,5 0,1 -1,-1 -1,3 0,3 -2,0 -2,5 0,1 -1,7 -1,8 -1,1 -1,3 -1,4 0,1 -1,0 -1,3 0,1 -1,0 -1,3 0,3 -1,0 -1,3 0,4 -1,2 -1,5 0,3 -1,-1 -1,3 -2,1 0,0 -2,2 -1,2 -4,9 -4,10 -1,0 -1,2 -1,3 -2,0 -1,2 -2,3 -1,3 -1,-1 -1,3 -2,1 1,0 -1,2 -1,1 -2,4 -2,5 -1,0 -2,2 -2,3 -2,0 3,1 -3,1 -5,0 -17,1 -23,0 0,0 -2,-2 -3,-2 0,0 -3,-1 -3,-1l-1 1z"/>
   <path fill="#AC632D" d="M292 709c8,-2 3,-1 5,-3l1 0c1,-2 5,-8 5,-8 3,-3 1,-2 1,-3l1 -1c0,-1 4,-7 4,-8 1,-5 5,-10 6,-13 0,-2 1,-6 1,-7 0,-1 2,-6 2,-7 0,-2 1,0 1,-3 0,0 -1,1 -1,3 -3,0 -1,-1 -3,2 -2,3 -2,0 -2,2 -1,0 -5,9 -5,10 0,0 -2,5 -2,5 -2,1 0,3 -2,3 0,3 -2,2 -2,4 0,1 0,0 0,3 -2,1 -1,0 -1,2l-1 1c0,2 -1,0 -1,3 -2,0 -1,1 -1,2 -1,2 -1,-1 -1,2 -1,0 -1,0 -1,1 -1,0 -2,2 -2,3 0,3 0,6 0,9l-2 -2z"/>
  </g>
  <rect fill="#4D4D4D" x="792" y="126" width="658" height="668"/>
  <rect fill="none" stroke="black" stroke-width="0.9" x="1115" y="157" width="293" height="615"/>
  <rect fill="none" stroke="black" stroke-width="2.36221" width="1600" height="900"/>
  <g id="_2131662054320">
   <g id="head">
    <polygon id="backhair" fill="#D6D5D2" points="473,281 332,280 327,368 484,368 "/>
    <g id="ears">
     <ellipse fill="#D4A575" cx="335" cy="294" rx="14" ry="19"/>
     <ellipse fill="#D4A575" cx="469" cy="293" rx="14" ry="19"/>
    </g>
    <rect id="neck" fill="#E3B488" x="387" y="337" width="29.3113" height="31.1754"/>
    <circle id="headshape" fill="#EAB686" cx="402" cy="267" r="72"/>
    <g id="eyes">
     <ellipse fill="black" cx="432" cy="297" rx="6" ry="10"/>
     <ellipse fill="black" cx="374" cy="297" rx="6" ry="10"/>
     <ellipse fill="white" cx="431" cy="292" rx="2" ry="3"/>
     <ellipse fill="white" cx="374" cy="292" rx="2" ry="3"/>
    </g>
    <g id="fronthair">
     <path fill="#D6D5D2" d="M332 280c32,-12 58,-26 75,-46 18,20 40,35 66,47 1,-5 1,-9 1,-14 0,-40 -32,-72 -72,-72 -39,0 -71,32 -71,72 0,4 0,8 1,13z"/>
     <path fill="#CCCCCC" d="M364 283c1,1 4,0 5,0 8,0 16,0 23,0 1,0 0,-1 0,-1 0,-1 0,-1 0,-2 0,0 0,0 0,0 0,0 0,0 0,-1 -1,0 -1,-1 -1,-1l-1 0c0,-1 0,-1 0,-1 -1,0 -1,0 -1,0 -1,0 -2,-1 -2,-1 0,0 -1,0 -1,0 -1,0 0,0 -1,0 0,1 0,0 0,1 0,0 -1,0 -1,0 -2,0 -1,0 -2,-1 0,0 -1,-1 -1,-1 -1,-1 -2,-1 -2,-1 -1,0 -1,0 -2,0 -1,0 -2,0 -3,0 0,0 -1,0 -1,0 0,0 0,2 0,2 -1,0 0,0 -2,0 -2,0 0,0 -2,-1 -1,0 -1,0 -2,0 -1,0 -1,0 -2,0 0,0 0,0 0,1 -1,0 -1,0 -1,1 0,0 0,1 0,2 -1,1 -1,2 -1,3 0,1 0,1 1,1z"/>
     <path fill="#CCCCCC" d="M444 283c-1,1 -4,0 -6,0 -7,0 -15,0 -23,0 0,0 0,-1 0,-1 0,-1 0,-1 0,-2 0,0 0,0 0,0 1,0 0,0 1,-1 0,0 0,-1 0,-1l1 0c0,-1 0,-1 1,-1 0,0 1,0 1,0 0,0 1,-1 2,-1 0,0 0,0 1,0 0,0 0,0 0,0 0,1 0,0 1,1 0,0 0,0 1,0 1,0 0,0 1,-1 1,0 1,-1 1,-1 1,-1 2,-1 3,-1 0,0 1,0 1,0 1,0 2,0 4,0 0,0 0,0 0,0 0,0 1,2 1,2 0,0 -1,0 1,0 3,0 1,0 3,-1 0,0 0,0 2,0 0,0 1,0 1,0 0,0 1,0 1,1 0,0 0,0 0,1 0,0 1,1 1,2 0,1 0,2 0,3 0,1 0,1 0,1z"/>
    </g>
   </g>
   <g id="body">
    <path id="upperBody" fill="#EAB686" d="M387 357l29 0 36 12 0 42c-31,29 -16,58 -11,78l-82 0c3,-27 23,-48 -8,-78l0 -42 36 -12z"/>
    <g id="heands">
     <path fill="#EAB686" d="M353 369c0,7 -1,13 -1,19 0,7 0,13 0,19 -6,18 -19,26 -32,39 -5,8 -17,15 -22,23 3,3 1,5 0,9l-12 15 -16 -14c4,-5 14,-10 10,-14 -10,-9 -6,-12 6,-4 1,1 3,0 5,0 7,-11 8,-18 20,-31 0,-7 7,-17 16,-23 2,-28 14,-33 26,-38z"/>
     <path fill="#EAB686" d="M451 369c0,7 1,13 1,19 0,7 0,13 0,19 6,18 19,26 32,39 5,8 17,15 22,23 -3,3 -1,5 0,9l12 15 16 -14c-4,-5 -14,-10 -10,-14 10,-9 6,-12 -6,-4 -1,1 -3,0 -5,0 -7,-11 -8,-18 -20,-31 0,-7 -7,-17 -16,-23 -2,-28 -14,-33 -26,-38z"/>
    </g>
   </g>
   <g id="cloak">
    <polygon fill="#C19464" points="351,350 453,350 480,399 449,412 492,573 475,590 359,590 328,590 315,570 356,411 325,396 "/>
    <polygon fill="#F5E5B2" points="387,374 359,590 475,590 411,374 "/>
    <path fill="#EAB686" d="M373 480c1,-4 1,-7 2,-10 21,2 43,2 64,-1 2,4 3,7 4,11 -23,2 -46,3 -70,0z"/>
    <polygon fill="#DEC0A0" points="411,374 387,374 351,350 453,350 "/>
   </g>
   <path id="beard" fill="#E0DCD3" d="M361 423c-3,-48 -16,-97 -29,-143 37,61 106,54 141,1 -16,44 -23,92 -30,143 -26,22 -53,21 -82,-1zm41 -93c7,0 13,2 13,4 0,2 -6,3 -13,3 -7,0 -12,-1 -12,-3 0,-2 5,-4 12,-4z"/>
  </g>
  <g id="name">
   <rect fill="none" stroke="black" stroke-width="0.9" x="840" y="158" width="237.999" height="50.0008"/>
   <text x="897" y="200"  fill="black" font-weight="normal" font-size="44.6918px" font-family="Arial">NAME</text>
   <path fill="#2FAD2F" fill-rule="nonzero" d="M1040 191l17 0 0 5 17 -11 -17 -11 0 5 -17 0 0 12zm8 0m9 2m9 -2m0 -12m-9 -2m-9 2m-8 6"/>
   <path fill="#2FAD2F" fill-rule="nonzero" d="M879 191l-17 0 0 5 -17 -11 17 -11 0 5 17 0 0 12zm-9 0m-8 2m-9 -2m0 -12m9 -2m8 2m9 6"/>
  </g>
  <text x="512" y="85"  fill="black" stroke="#1A1A1A" stroke-width="0.9" font-weight="normal" font-size="67.7363px" font-family="Arial">Character Creator</text>
  <g id="stats">
   <text x="1207" y="214"  fill="black" font-weight="normal" font-size="43.578px" font-family="Arial">Mage</text>
   <rect fill="none" stroke="black" stroke-width="2.36221" x="1148" y="245" width="237" height="229"/>
   <text x="1163" y="292"  fill="black" font-weight="normal" font-size="31.2815px" font-family="Arial">ATK:</text>
   <text x="1164" y="332"  fill="black" font-weight="normal" font-size="31.2815px" font-family="Arial">DEF:</text>
   <text x="1164" y="372"  fill="black" font-weight="normal" font-size="31.2815px" font-family="Arial">HP:</text>
   <g transform="matrix(1.0025 0 0 1 361.584 -38.3929)">
    <text x="800" y="450"  fill="black" font-weight="normal" font-size="31.2815px" font-family="Arial">MP:</text>
   </g>
   <text x="1164" y="451"  fill="black" font-weight="normal" font-size="31.2815px" font-family="Arial">REG:</text>
   <rect fill="none" stroke="black" stroke-width="2.36221" x="1250" y="273" width="117" height="17.0008"/>
   <rect fill="#33CC33" stroke="black" stroke-width="2.36221" x="1250" y="273" width="83.0008" height="17.0008"/>
  </g>
  <g id="next">
   <rect fill="#666666" stroke="black" stroke-width="0.9" x="1142" y="718" width="241.001" height="40.9996"/>
   <text x="1218" y="750"  fill="black" font-weight="normal" font-size="32.4236px" font-family="Arial">NEXT</text>
  </g>
  <g id="legs">
   <path id="lowerbody" fill="#EAB686" d="M360 484l40 0 0 26c-3,0 -5,4 -7,12l0 1 -39 -11c2,-9 4,-18 6,-28z"/>
   <path id="lowerbody_0" fill="#EAB686" d="M440 484l-40 0 0 26c2,0 4,4 6,12l0 1 40 -11c-2,-9 -5,-18 -6,-28z"/>
   <g id="left">
    <path id="lowerbody_1" fill="#EAB686" d="M399 510c-2,0 -4,5 -6,12 -3,13 -1,28 -6,41 -6,17 -9,36 -10,53l-24 0c0,-13 1,-28 -3,-52 -4,-23 3,-47 8,-71l41 17 0 0z"/>
    <path fill="#666666" d="M335 620c7,-5 27,-8 43,-6 0,7 0,16 0,23 -14,0 -28,0 -41,0 -12,0 -12,-9 -2,-17z"/>
   </g>
   <g id="right">
    <path id="lowerbody_2" fill="#EAB686" d="M400 510c2,0 4,5 6,12 3,13 1,28 6,41 6,17 9,36 10,53l25 0c0,-13 -1,-28 3,-52 4,-23 -4,-47 -9,-71l-41 17 0 0z"/>
    <path fill="#666666" d="M465 620c-6,-5 -27,-8 -43,-6 0,7 0,16 0,23 14,0 28,0 42,0 11,0 11,-9 1,-17z"/>
   </g>
  </g>
 </g>
</svg>
