<?xml version="1.0" encoding="UTF-8"?>
<!DOCTYPE svg PUBLIC "-//W3C//DTD SVG 1.1//EN" "http://www.w3.org/Graphics/SVG/1.1/DTD/svg11.dtd">
<!-- Creator: CorelDRAW X8 -->
<svg xmlns="http://www.w3.org/2000/svg" xml:space="preserve" width="140px" height="140px" version="1.1" shape-rendering="geometricPrecision" text-rendering="geometricPrecision" image-rendering="optimizeQuality" fill-rule="evenodd" clip-rule="evenodd"
viewBox="0 0 140 140"
 xmlns:xlink="http://www.w3.org/1999/xlink">
 <g id="Layer_x0020_1">
  <metadata id="CorelCorpID_0Corel-Layer"/>
  <g id="hand">
   <circle fill="#EAB686" transform="matrix(0.082734 -0.245527 0.245527 0.082734 71.0152 70.4414)" r="23"/>
   <circle id="sholder-encor" fill="black" transform="matrix(0.113157 -0.110423 0.110423 0.113157 71.1003 70.5215)" r="2"/>
   <g id="biceps">
    <path fill="#EAB686" d="M71 75c-1,-4 1,-6 6,-4 0,1 1,2 1,2 0,1 0,2 1,2 2,1 3,5 3,6 0,1 0,1 0,1 1,1 1,1 1,2 2,3 -2,5 -4,3 -2,-3 -4,-4 -5,-6 -2,-2 -3,-4 -3,-6z"/>
    <g id="elbow">
     <path fill="#EAB686" d="M81 88c-3,-1 -2,-5 1,-5 3,1 7,2 11,1 2,2 3,3 -1,5 -2,-2 -6,-2 -11,-1z"/>
     <circle id="encor-elbow" fill="black" transform="matrix(0.0896447 -0.130237 0.130237 0.0896447 81.0652 84.8716)" r="2"/>
     <g id="palm">
      <path fill="#EAB686" d="M92 89c-2,-3 -1,-3 1,-5 2,0 4,-2 5,-1 0,3 0,4 -1,6 -1,1 -3,1 -5,0z"/>
      <ellipse fill="#EAB686" transform="matrix(0.00828386 -0.258959 0.258959 0.00828386 91.9036 83.168)" rx="12" ry="4"/>
     </g>
    </g>
   </g>
  </g>
  <g id="leg-front">
   <path fill="#EAB686" d="M66 100c0,-7 4,-9 11,-7 4,5 8,13 10,18 0,6 -4,4 -9,3 -3,-3 -9,-6 -12,-14z"/>
   <circle id="encor-ass" fill="black" transform="matrix(0.41911 -0.172336 0.172336 0.41911 73.6527 99.5022)" r="1"/>
   <g id="knee">
    <path fill="#E3B488" d="M82 109c0,0 0,0 0,0 2,0 5,0 5,2 1,8 -2,12 -3,17 0,2 0,3 -2,3 0,0 0,0 0,0 -2,0 -2,0 -2,-2 -1,-5 -4,-13 -3,-17 1,-2 3,-3 5,-3z"/>
    <g id="shoes">
     <path fill="#262626" d="M91 131c-2,-2 -7,-2 -12,-2 0,2 0,5 0,7 4,0 8,0 12,0 3,0 3,-3 0,-5z"/>
     <circle id="encor-shoo" fill="none" stroke="black" stroke-width="2.36223" transform="matrix(0.259085 -0.00183906 0.00183906 0.259085 81.915 130.267)" r="1"/>
    </g>
    <circle id="encor-knee" fill="none" stroke="black" stroke-width="2.36223" transform="matrix(0.259062 0.00392752 -0.00392752 0.259062 82.3227 111.747)" r="1"/>
   </g>
  </g>
  <rect id="neck" fill="#E3B488" x="62" y="54" width="8.14266" height="8.66051"/>
  <circle id="headshape" fill="#EAB686" cx="66" cy="37" r="20"/>
  <ellipse fill="black" cx="80" cy="36" rx="2" ry="3"/>
  <path fill="#CCCCCC" d="M83 30c0,0 -1,0 -2,0 -2,0 -4,0 -6,0 0,0 0,0 0,0 0,-1 0,0 0,-1 0,0 0,0 0,0 0,0 0,0 0,0 0,0 0,0 0,0l0 0c0,0 1,0 1,-1 0,0 0,0 0,0 0,0 0,0 1,0 0,0 0,0 0,0 0,0 0,0 0,0 0,0 0,0 0,0 0,0 0,0 0,0 1,0 0,1 1,0 0,0 0,0 0,0 0,0 1,0 1,0 0,0 0,-1 0,-1 1,0 1,0 1,0 0,1 0,0 0,1 0,0 0,0 0,0 1,0 0,0 1,0 1,0 0,0 1,0 0,0 0,0 0,0 0,0 0,0 1,0 0,0 0,0 0,0 0,0 0,0 0,0 0,0 0,1 0,1 0,0 0,0 0,1 0,0 0,0 0,0z"/>
  <path fill="#E3B488" d="M60 59l5 0 4 0 3 0c12,9 9,14 7,20 2,8 1,9 0,15 -1,1 -2,10 -3,11l-11 2c-6,-2 -9,-11 -4,-17 5,-4 -1,-12 -4,-21 -1,-3 1,-7 3,-10z"/>
  <ellipse fill="#D4A575" cx="65" cy="38" rx="4" ry="5"/>
  <g id="leg-front_0">
   <path fill="#EAB686" d="M60 97c4,-5 8,-4 12,1 1,6 -1,15 -2,20 -4,6 -5,1 -9,-3 -1,-4 -3,-10 -1,-18z"/>
   <circle id="encor-ass_1" fill="black" transform="matrix(0.438115 0.115793 -0.115793 0.438115 66.1031 101.149)" r="1"/>
   <g id="knee_2">
    <path fill="#E3B488" d="M66 113c0,0 0,0 0,0 2,1 5,2 4,4 -2,8 -7,11 -9,15 -1,2 -1,3 -3,2 0,0 0,0 0,0 -2,-1 -2,-1 -2,-3 2,-5 2,-13 5,-16 1,-2 4,-3 5,-2z"/>
    <g id="shoes_3">
     <path fill="#292929" d="M67 134c-2,-2 -7,-2 -12,-2 0,2 0,5 0,7 4,0 8,0 12,-1 3,1 3,-2 0,-4z"/>
     <circle id="encor-shoo_4" fill="none" stroke="black" stroke-width="2.36223" transform="matrix(0.259079 -0.00248299 0.00248299 0.259079 58.0528 132.982)" r="1"/>
    </g>
    <circle id="encor-knee_5" fill="none" stroke="black" stroke-width="2.36223" transform="matrix(0.23733 0.103937 -0.103937 0.23733 65.5846 116.121)" r="1"/>
   </g>
  </g>
  <path fill="#1F1414" d="M72 59c-4,0 -8,0 -12,0 -3,1 -16,16 -19,18 1,5 9,15 16,6 0,19 -1,18 -10,33 17,0 33,1 50,1 -10,-7 -16,-18 -17,-35 0,-6 1,-7 1,-13 0,-2 -4,-9 -9,-10z"/>
  <g id="hand_6">
   <circle fill="#EAB686" transform="matrix(0.207392 -0.155296 0.155296 0.207392 61.1345 67.149)" r="23"/>
   <circle id="sholder-encor_7" fill="black" transform="matrix(0.155824 -0.026768 0.026768 0.155824 61.1592 67.2632)" r="2"/>
   <g id="biceps_8">
    <path fill="#EAB686" d="M56 71c0,-6 10,-5 10,-1 0,3 1,9 -2,12 0,1 0,0 0,1 0,1 0,1 0,2 -1,4 -5,3 -6,0 1,-3 0,-5 -1,-8 0,-2 0,-4 -1,-6z"/>
    <g id="elbow_9">
     <path fill="#EAB686" d="M60 87c-2,-2 1,-5 3,-4 2,3 5,6 8,8 1,2 1,4 -3,4 0,-4 -4,-6 -8,-8z"/>
     <circle id="encor-elbow_10" fill="black" transform="matrix(0.147697 -0.0564225 0.0564225 0.147697 61.2277 84.7338)" r="2"/>
     <g id="palm_11">
      <path fill="#EAB686" d="M68 95c0,-4 1,-4 4,-5 1,2 4,1 4,3 -2,2 -2,3 -4,5 -1,-1 -3,-2 -4,-3z"/>
      <ellipse fill="#EAB686" transform="matrix(0.153692 -0.208584 0.208584 0.153692 71.1206 89.4777)" rx="12" ry="4"/>
      <circle id="palm-encor_12" fill="black" transform="matrix(0.142261 0.0979628 -0.0979628 0.142261 71.4985 93.7281)" r="2"/>
     </g>
    </g>
   </g>
  </g>
  <path fill="#333333" d="M55 63c-4,3 -10,9 -14,13 1,1 1,1 2,2 5,2 11,-8 15,-14 0,-2 -1,-3 -3,-1z"/>
  <path fill="#1F1414" d="M68 66c-3,-8 -17,-5 -13,3l13 -3z"/>
  <path fill="white" d="M68 60c4,0 0,0 4,0 13,10 6,7 7,29 1,10 6,27 12,28 -4,0 -16,0 -20,0 7,-12 5,-30 4,-45 -1,-4 -5,-9 -7,-12z"/>
  <rect fill="#BD0000" x="76" y="88" width="3.52563" height="2.35396"/>
  <path id="hair" fill="#333333" d="M80 22c-1,-1 -2,-3 -3,-4 -1,-1 0,-1 -1,-2 0,0 -1,-1 -1,-2l-6 -6c0,-1 1,2 0,1l-2 -2c0,0 0,0 -1,-1 -1,0 -6,-5 -6,-5l3 4c-1,0 -2,-1 -3,-2l-1 0c-1,0 -2,0 -3,-1l-4 0c-1,0 -3,-1 -3,-1 -1,0 -2,0 -4,0 0,0 -1,0 -2,0 0,0 0,0 0,0 1,1 3,2 4,2 1,0 1,1 2,1 1,0 0,1 1,1 1,0 0,0 1,0 0,1 0,0 -1,0l0 1c-1,0 0,0 -1,0 -1,0 -2,1 -3,1 -1,0 -2,0 -3,1l-1 0c-1,1 -1,1 -3,2 -2,1 -3,1 -5,2 -1,1 -2,1 -3,2 -2,1 -3,2 -5,3 0,0 -1,1 -1,1 3,0 6,0 8,0 2,0 3,-1 5,-1l1 0c1,0 -1,0 1,0 1,0 1,0 2,0 0,0 0,0 0,1 0,0 -1,0 -1,0l-2 2c-2,2 -4,3 -6,5l-4 6c-1,1 -1,1 -2,3 -1,2 -2,4 -3,6 0,0 -1,1 -1,2l0 0c0,1 0,2 1,2 0,-1 0,-1 1,-2l6 -3c1,-1 1,-1 2,-2 1,0 2,-1 3,-1l0 0c1,0 1,0 2,0l-1 0c-1,1 0,1 -1,2l-3 6 -1 1c0,2 -1,1 -1,3l-1 2c-1,1 -1,2 -1,3 -1,1 -2,3 -2,4 0,1 -1,2 -1,2l0 2c-1,1 -1,0 -1,1 1,0 2,-1 3,-1l3 -2c2,-1 5,-2 6,-3 1,0 1,-1 1,-1 0,2 0,1 0,2 -1,2 -1,3 -2,4 -1,2 -1,4 -2,6 0,1 0,1 0,3l0 1c0,0 -1,6 -1,6 1,1 1,1 1,1 0,-1 1,-1 1,-2 1,-1 2,-2 3,-4 0,0 1,-2 1,-2l1 -1c1,-1 1,-2 2,-3 1,-1 1,-2 2,-2l1 -1c0,-1 2,-2 3,-3 1,-1 0,-1 2,-2 0,0 1,0 1,0 0,0 1,-1 2,-1 0,0 0,-1 0,-1l1 0c0,0 1,-1 2,-1 0,0 1,0 1,-1 -9,-26 11,-33 20,-31 0,0 1,0 3,-1z"/>
 </g>
</svg>
