<?xml version="1.0" encoding="UTF-8"?>
<!DOCTYPE svg PUBLIC "-//W3C//DTD SVG 1.1//EN" "http://www.w3.org/Graphics/SVG/1.1/DTD/svg11.dtd">
<!-- Creator: CorelDRAW X8 -->
<svg xmlns="http://www.w3.org/2000/svg" xml:space="preserve" width="160px" height="140px" version="1.1" shape-rendering="geometricPrecision" text-rendering="geometricPrecision" image-rendering="optimizeQuality" fill-rule="evenodd" clip-rule="evenodd"
viewBox="0 0 160 140"
 xmlns:xlink="http://www.w3.org/1999/xlink">
 <g id="Layer_x0020_1">
  <metadata id="CorelCorpID_0Corel-Layer"/>
  <path id="hair" fill="#2A232B" d="M16 138c-9,-15 -7,-20 -9,-30l0 0c-1,-2 -4,-18 -4,-18 -3,-21 6,-23 6,-31 4,1 7,1 11,-2 -4,-2 -3,-2 -7,-5 3,0 5,0 7,1 -2,-3 -7,-8 -10,-7l0 0c5,-4 10,3 16,1 0,-13 23,-31 33,-35 1,0 -9,12 -9,12 1,0 1,0 1,0 5,-1 8,-2 10,-3 10,-4 19,-11 26,-12 -4,4 -6,10 -6,15 5,-6 6,-5 14,-15 0,8 -2,9 -5,13 8,-5 17,-18 31,-20l0 0c-5,3 -9,8 -12,15 3,-3 7,-7 11,-7l0 0c-2,2 -7,7 -9,16 6,-6 14,-11 20,-13l0 1c-5,4 -8,11 -9,18 4,-6 6,-7 11,-9 -2,2 -2,2 -3,4 3,7 12,8 14,20 2,-1 3,-2 5,-3l0 0c-1,3 -3,7 -4,10 4,-2 9,-4 12,-5l1 0c-3,3 -7,8 -8,13 1,-1 1,-1 3,-2 0,4 0,3 0,5 2,-1 2,-1 3,-2 0,38 0,22 -6,48 1,5 -4,22 -5,26l-7 1c4,-26 0,-20 1,-37 2,-25 -18,-45 -44,-39 -5,2 -27,2 -32,0 -29,-7 -40,10 -43,40 -2,15 -6,11 0,36l-4 0z" data-colored="true" data-filltype="tone" data-stroketype="none"/>
 </g>
</svg>
