<?xml version="1.0" encoding="UTF-8"?>
<!DOCTYPE svg PUBLIC "-//W3C//DTD SVG 1.1//EN" "http://www.w3.org/Graphics/SVG/1.1/DTD/svg11.dtd">
<!-- Creator: CorelDRAW X8 -->
<svg xmlns="http://www.w3.org/2000/svg" xml:space="preserve" width="8.4666mm" height="8.4666mm" version="1.1" shape-rendering="geometricPrecision" text-rendering="geometricPrecision" image-rendering="optimizeQuality" fill-rule="evenodd" clip-rule="evenodd"
viewBox="0 0 847 847"
 xmlns:xlink="http://www.w3.org/1999/xlink">
 <g id="Layer_x0020_1">
  <metadata id="CorelCorpID_0Corel-Layer"/>
  <g id="head">
   <polygon id="backhair" fill="#D6D5D2" points="743,178 211,173 193,507 787,506 "/>
   <g id="ears">
    <ellipse fill="#D4A575" cx="222" cy="226" rx="54" ry="72"/>
    <ellipse fill="#D4A575" cx="728" cy="222" rx="54" ry="72"/>
   </g>
   <rect id="neck" fill="#E3B488" x="419" y="388" width="111" height="118"/>
   <circle id="headshape" fill="#EAB686" cx="477" cy="124" r="271"/>
   <g id="eyes">
    <ellipse fill="black" cx="588" cy="237" rx="22" ry="38"/>
    <ellipse fill="black" cx="370" cy="237" rx="22" ry="38"/>
    <ellipse fill="white" cx="587" cy="221" rx="7" ry="11"/>
    <ellipse fill="white" cx="369" cy="221" rx="7" ry="11"/>
   </g>
   <g id="fronthair">
    <path fill="#D6D5D2" d="M211 173c122,-43 221,-97 282,-172 69,74 152,133 250,177 3,-17 5,-35 5,-54 0,-150 -121,-271 -271,-271 -149,0 -271,121 -271,271 0,17 2,33 5,49z"/>
    <path fill="#CCCCCC" d="M331 186c4,2 16,1 20,1 30,0 59,0 88,0 1,0 1,-4 1,-5 0,-5 -1,-3 -1,-7 0,-2 -1,0 -1,-2 -1,0 1,0 -1,-2 -2,-2 -1,-3 -3,-3l-2 -2c0,-1 -2,-2 -3,-3 -1,0 -3,-2 -4,-2 -2,0 -4,-2 -6,-2 -1,0 -3,-1 -4,-1 -2,1 -1,2 -3,2 0,2 1,0 -2,2 0,1 -2,2 -3,2 -7,0 -2,0 -7,-4 -1,0 -3,-6 -4,-6 -1,-3 -6,-3 -8,-3 -3,0 -4,-1 -7,-1 -4,0 -8,0 -12,0 0,1 -1,0 -1,3 -1,0 -2,4 -2,5 -3,0 1,1 -6,1 -10,0 -3,0 -10,-3 -3,-1 -3,-2 -7,-2 -2,0 -4,0 -7,0 0,1 -1,0 -1,4 -2,1 -1,1 -1,4 -2,0 -2,6 -3,7 -1,6 -1,8 -1,14 0,2 0,2 1,3z"/>
    <path fill="#CCCCCC" d="M633 186c-3,2 -15,1 -20,1 -29,0 -59,0 -88,0 -1,0 -1,-4 -1,-5 0,-5 1,-3 1,-7 0,-2 1,0 1,-2 1,0 -1,0 2,-2 1,-2 0,-3 2,-3l2 -2c0,-1 2,-2 3,-3 1,0 4,-2 4,-2 3,0 4,-2 7,-2 0,0 2,-1 4,-1 1,1 0,2 2,2 1,2 0,0 2,2 0,1 2,2 3,2 8,0 2,0 7,-4 1,0 3,-6 4,-6 1,-3 6,-3 9,-3 2,0 3,-1 6,-1 4,0 8,0 12,0 0,1 1,0 1,3 1,0 3,4 3,5 3,0 -2,1 5,1 10,0 3,0 10,-3 3,-1 3,-2 7,-2 2,0 5,0 7,0 0,1 2,0 2,4 1,1 1,1 1,4 1,0 1,6 2,7 1,6 1,8 1,14 0,2 1,2 -1,3z"/>
   </g>
  </g>
  <g id="body">
   <path id="upperBody" fill="#EAB686" d="M419 466l111 0 134 44 0 157c-117,112 -60,220 -42,295l-310 0c13,-100 88,-181 -27,-295l0 -156 134 -45z"/>
   <path id="lowerbody" fill="#EAB686" d="M312 962c127,0 183,0 310,0 11,104 69,207 55,307 -11,74 -13,140 -11,203 -27,0 -54,0 -81,0 -5,-69 -19,-144 -45,-210 -21,-50 -22,-106 -34,-151 -21,-77 -44,-63 -58,-2 -10,48 -10,105 -29,158 -23,65 -34,138 -38,205 -32,0 -63,0 -95,0 -1,-51 4,-110 -12,-203 -17,-100 20,-204 38,-307z"/>
   <g id="heands">
    <path fill="#EAB686" d="M290 511c-1,24 -1,48 -2,72 -1,24 -1,48 -2,72 -20,65 -72,96 -120,146 -19,29 -62,58 -81,86 9,11 1,19 0,35l-48 55 -58 -51c13,-19 50,-39 36,-53 -35,-37 -23,-48 24,-15 4,3 12,-1 18,-3 25,-40 29,-64 77,-115 -1,-27 26,-66 59,-87 9,-105 52,-126 97,-142z"/>
    <path fill="#EAB686" d="M662 511c0,24 1,48 2,72 0,24 1,48 2,72 20,65 71,96 120,146 18,29 62,58 80,86 -8,11 0,19 1,35l47 55 59 -51c-13,-19 -51,-39 -37,-53 36,-37 24,-48 -23,-15 -5,3 -12,-1 -19,-3 -24,-40 -28,-64 -77,-115 2,-27 -25,-66 -59,-87 -8,-105 -51,-126 -96,-142z"/>
   </g>
  </g>
  <g id="cloak">
   <polygon fill="#C19464" points="283,438 668,438 772,624 655,670 814,1281 750,1342 315,1344 199,1345 146,1268 303,668 185,612 "/>
   <polygon fill="#F5E5B2" points="419,530 315,1344 750,1342 511,527 "/>
   <path fill="#EAB686" d="M368 928c2,-13 3,-26 5,-39 82,11 163,10 243,-1 5,13 10,26 15,39 -87,10 -175,11 -263,1z"/>
   <polygon fill="#DEC0A0" points="511,527 419,530 283,438 668,438 "/>
  </g>
  <path id="beard" fill="#E0DCD3" d="M322 712c-14,-179 -60,-365 -112,-539 142,233 403,203 532,5 -58,167 -87,345 -111,540 -99,81 -202,79 -309,-6zm155 -348c26,0 47,6 47,14 0,7 -21,13 -47,13 -26,0 -47,-6 -47,-13 0,-8 21,-14 47,-14z"/>
  <g id="shoes">
   <path fill="#666666" d="M219 1484c24,-19 103,-27 164,-22 0,27 0,63 0,89 -53,0 -106,0 -159,0 -45,2 -44,-35 -5,-67z"/>
   <path fill="#666666" d="M747 1484c-24,-19 -102,-27 -164,-22 0,27 1,63 1,89 53,0 106,0 158,0 45,2 44,-35 5,-67z"/>
  </g>
 </g>
</svg>
