<?xml version="1.0" encoding="UTF-8"?>
<!DOCTYPE svg PUBLIC "-//W3C//DTD SVG 1.1//EN" "http://www.w3.org/Graphics/SVG/1.1/DTD/svg11.dtd">
<!-- Creator: CorelDRAW X8 -->
<svg xmlns="http://www.w3.org/2000/svg" xml:space="preserve" width="140px" height="140px" version="1.1" shape-rendering="geometricPrecision" text-rendering="geometricPrecision" image-rendering="optimizeQuality" fill-rule="evenodd" clip-rule="evenodd"
viewBox="0 0 140 140"
 xmlns:xlink="http://www.w3.org/1999/xlink">
 <g id="Layer_x0020_1">
  <metadata id="CorelCorpID_0Corel-Layer"/>
  <g id="player">
   <g id="hand">
    <circle fill="#EAB686" transform="matrix(0.238261 -0.101785 0.101785 0.238261 62.1666 55.2089)" r="23"/>
    <circle id="sholder-encor" fill="black" transform="matrix(0.157732 0.0108819 -0.0108819 0.157732 62.1635 55.3257)" r="2"/>
    <g id="biceps">
     <path fill="#EAB686" d="M59 58c2,-4 5,-3 7,2 -1,1 -1,2 -1,3 -1,0 -1,0 -1,1 1,3 -2,6 -2,6 -1,1 -1,1 -1,1 0,1 -1,1 -1,2 -1,4 -5,2 -5,-1 1,-3 1,-5 1,-8 0,-2 1,-5 3,-6z"/>
     <g id="elbow">
      <path fill="#EAB686" d="M56 74c-2,-2 2,-5 4,-3 2,4 4,7 7,9 0,3 -1,5 -5,3 1,-3 -2,-6 -6,-9z"/>
      <circle id="encor-elbow" fill="black" transform="matrix(0.156855 -0.0198538 0.0198538 0.156855 58.0942 72.3159)" r="2"/>
      <g id="palm">
       <path fill="#EAB686" d="M62 84c1,-4 2,-4 5,-4 1,2 4,2 4,4 -3,1 -3,2 -6,3 -1,-1 -2,-2 -3,-3z"/>
       <ellipse fill="#EAB686" transform="matrix(0.198702 -0.16627 0.16627 0.198702 66.5828 79.2669)" rx="12" ry="4"/>
       <circle id="palm-encor" fill="black" transform="matrix(0.115026 0.128856 -0.128856 0.115026 65.9438 83.486)" r="2"/>
      </g>
     </g>
    </g>
   </g>
   <g id="leg-front">
    <path fill="#EAB686" d="M61 82c5,-5 9,-4 13,2 0,6 -2,15 -4,20 -4,5 -5,1 -9,-3 -1,-5 -2,-11 0,-19z"/>
    <circle id="encor-ass" fill="black" transform="matrix(0.430764 0.140696 -0.140696 0.430764 67.1408 86.7418)" r="1"/>
    <g id="knee">
     <path fill="#E3B488" d="M67 99c0,0 0,0 0,0 1,1 4,2 3,4 -2,8 -7,10 -9,15 -1,2 -2,2 -3,2 0,0 0,0 0,0 -2,-1 -2,-2 -2,-4 2,-5 2,-13 5,-16 1,-1 4,-2 6,-1z"/>
     <g id="shoes">
      <path fill="#666666" d="M67 119c-1,-1 -7,-2 -12,-1 0,2 0,4 0,6 4,0 8,0 12,0 3,0 3,-3 0,-5z"/>
      <circle id="encor-shoo" fill="none" stroke="black" stroke-width="2.36223" transform="matrix(0.259089 -0.00119728 0.00119728 0.259089 58.0852 118.489)" r="1"/>
     </g>
     <circle id="encor-knee" fill="none" stroke="black" stroke-width="2.36223" transform="matrix(0.23595 0.107033 -0.107033 0.23595 65.797 101.685)" r="1"/>
    </g>
   </g>
   <rect id="neck" fill="#E3B488" x="63" y="42" width="8.14266" height="8.66051"/>
   <circle id="headshape" fill="#EAB686" cx="67" cy="25" r="20"/>
   <ellipse fill="black" cx="81" cy="24" rx="2" ry="3"/>
   <path fill="#CCCCCC" d="M84 18c0,0 -1,0 -1,0 -3,0 -5,0 -7,0 0,0 0,0 0,0 0,-1 0,0 0,-1 0,0 0,0 0,0 0,0 0,0 0,0 0,0 0,0 0,0l1 0c0,0 0,0 0,-1 0,0 0,0 0,0 0,0 0,0 1,0 0,0 0,0 0,0 0,0 0,0 0,0 0,0 0,0 0,0 0,0 0,1 0,1 1,0 1,0 1,-1 0,0 0,0 0,0 0,0 1,0 1,0 0,0 0,-1 0,-1 1,0 1,0 1,0 0,1 0,0 0,1 0,0 0,0 0,0 1,0 0,0 1,0 1,0 0,0 1,0 0,0 0,0 0,0 0,0 0,0 1,0 0,0 0,0 0,0 0,0 0,0 0,0 0,0 0,1 0,1 0,0 0,0 0,1 0,0 0,0 0,0z"/>
   <path fill="#E3B488" d="M61 47l5 0 4 0 3 0c12,9 9,14 7,20 2,8 1,9 0,15 0,1 -2,10 -3,11l-11 2c-6,-2 -9,-11 -4,-17 5,-4 -1,-12 -4,-21 -1,-3 1,-7 3,-10z"/>
   <ellipse fill="#D4A575" cx="66" cy="26" rx="4" ry="5"/>
   <g id="leg-front_0">
    <path fill="#EAB686" d="M63 89c1,-7 5,-8 11,-6 4,5 7,14 8,19 -1,7 -4,3 -9,2 -3,-3 -8,-7 -10,-15z"/>
    <circle id="encor-ass_1" fill="black" transform="matrix(0.436391 -0.122131 0.122131 0.436391 70.094 89.2376)" r="1"/>
    <g id="knee_2">
     <path fill="#E3B488" d="M76 99c0,0 0,0 0,0 2,0 5,0 6,2 2,8 -1,13 0,18 0,2 0,3 -2,3 0,0 0,0 0,0 -2,0 -3,0 -3,-2 -1,-6 -5,-12 -5,-16 1,-2 2,-4 4,-5z"/>
     <g id="shoes_3">
      <path fill="#666666" d="M88 121c-1,-1 -7,-2 -12,-1 0,2 0,5 1,6 3,0 7,0 11,0 3,0 3,-2 0,-5z"/>
      <circle id="encor-shoo_4" fill="none" stroke="black" stroke-width="2.36223" transform="matrix(0.259065 -0.00369714 0.00369714 0.259065 79.2928 120.835)" r="1"/>
     </g>
     <circle id="encor-knee_5" fill="none" stroke="black" stroke-width="2.36223" transform="matrix(0.257275 -0.0306284 0.0306284 0.257275 77.2324 102.409)" r="1"/>
    </g>
   </g>
   <g id="hand_6">
    <circle fill="#EAB686" transform="matrix(0.082734 -0.245527 0.245527 0.082734 72.057 58.4614)" r="23"/>
    <circle id="sholder-encor_7" fill="black" transform="matrix(0.113157 -0.110423 0.110423 0.113157 72.142 58.5415)" r="2"/>
    <g id="biceps_8">
     <path fill="#EAB686" d="M72 63c-1,-4 1,-6 6,-4 0,1 1,2 1,3 0,0 0,1 1,1 3,1 3,5 3,6 0,1 0,1 0,1 1,1 1,1 1,2 2,3 -2,5 -4,3 -2,-3 -4,-4 -5,-6 -2,-2 -3,-4 -3,-6z"/>
     <g id="elbow_9">
      <path fill="#EAB686" d="M82 76c-3,-1 -2,-5 1,-5 3,1 7,2 11,1 2,2 3,3 -1,5 -1,-2 -6,-2 -11,-1z"/>
      <circle id="encor-elbow_10" fill="black" transform="matrix(0.0896447 -0.130237 0.130237 0.0896447 82.107 72.8916)" r="2"/>
      <g id="palm_11">
       <path fill="#EAB686" d="M93 77c-1,-3 -1,-3 1,-5 2,0 4,-2 5,-1 0,3 0,4 -1,6 -1,1 -3,1 -5,0z"/>
       <ellipse fill="#EAB686" transform="matrix(0.00828386 -0.258959 0.258959 0.00828386 92.9454 71.188)" rx="12" ry="4"/>
      </g>
     </g>
    </g>
   </g>
  </g>
 </g>
</svg>
